<!--Generator: Adobe Illustrator 25.0.0, SVG Export Plug-In-->
<svg version="1.1" xmlns="http://www.w3.org/2000/svg" xmlns:xlink="http://www.w3.org/1999/xlink" x="0px" y="0px" width="152.8px" height="40.9px" viewBox="0 0 152.8 40.9" style="overflow:visible;enable-background:new 0 0 152.8 40.9;" xml:space="preserve">
    <style type="text/css">
        .st0{fill:#FFFFFF;}
    </style>
    <defs/>
    <g>
        <path class="st0" d="M1.9,8.4h10.7c0.8,0,1.5,0,1.9,0v3.5c-0.4,0-1.1,0-1.9,0H1.9c-0.8,0-1.5,0-1.9,0V8.4C0.4,8.4,1.1,8.4,1.9,8.4z
		 M13.3,26.7l0,1.4V39l0,1.4h-3.1v-2H4.6v2H1.4c0.1-0.5,0.1-1,0.1-1.4V28.2c0-0.4,0-0.8-0.1-1.4H13.3z M11.1,17.9H3.6L2,18v-3.3
		l1.6,0h7.4l1.6,0V18L11.1,17.9z M2,24v-3.2l1.6,0h7.4l1.6,0V24l-1.6,0H3.6L2,24z M10.3,6.2L7.2,8C6.5,6.2,5.4,4.3,4.1,2.4L7,0.7
		C7.9,1.9,9,3.7,10.3,6.2z M4.6,35.4h5.6v-5.5H4.6V35.4z M33.3,26.7c1.1,0,1.9,0,2.4,0v3.8c-0.4,0-1.2,0-2.4,0h-6.4V39
		c0,0.7,0,1.1,0.1,1.4h-3.6c0.1-0.3,0.1-0.7,0.1-1.4v-8.6h-5.9c-1.1,0-1.9,0-2.4,0v-3.8c0.5,0,1.3,0,2.4,0h5.9v-5.6h-4.3
		c-0.9,0-1.6,0-2.1,0v-3.6c0.4,0,1.1,0,2.1,0h4.3v-5.1h-5.2c-1.1,0-1.8,0-2.2,0V8.8c0.4,0,1.2,0,2.2,0h8c0.6-1.1,1.2-2.5,1.9-4.1
		c0.7-1.6,1.1-2.9,1.3-3.8l3.3,1.4l-0.3,0.5c-0.3,0.8-0.6,1.7-1.1,2.8c-0.5,1.1-1,2.2-1.5,3.2h2.8c1,0,1.8,0,2.2,0v3.7
		c-0.4,0-1.2,0-2.2,0h-5.8v5.1h4.8l2,0v3.6l-2,0h-4.8v5.6H33.3z M23.7,7.1c-1.3,0.6-2.3,1-2.9,1.4c-0.8-1.9-1.9-4-3.2-6.2l3.2-1.2
		c0.5,0.9,1,1.9,1.6,3C22.9,5.2,23.4,6.2,23.7,7.1z"/>
        <path class="st0" d="M39.6,38.6c0.5-1.4,0.9-2.9,1.2-4.7c0.3-1.8,0.5-3.4,0.6-5l2.6,0.7c-0.1,1.8-0.2,3.7-0.5,5.6
		c-0.3,1.9-0.6,3.6-1,5.1L39.6,38.6z M42.3,16.3L41,16.5l-0.8-3.1c0.3-0.1,0.6-0.3,0.9-0.7c0.5-0.8,1.1-1.8,1.9-3.1
		c0.7-1.3,1.5-2.8,2.3-4.4c0.8-1.6,1.4-3,1.9-4.3l2.7,2.1l-0.4,0.7c-0.6,1.4-1.3,2.8-2.1,4.3c-0.8,1.5-1.5,2.6-1.9,3.4
		c-0.5,0.7-0.8,1.2-0.9,1.4l4.1-0.6c1.2-2.1,2-3.9,2.4-5.2l2.8,2.1l-0.5,0.7c-2.5,5.1-5.4,9.6-8.5,13.5l5.6-1.1
		c-0.5-1.4-0.9-2.4-1.2-3.1l2.7-1c0.5,1.1,1,2.5,1.6,4.1c0.6,1.6,1,3.1,1.3,4.3l-3,1.1c0-0.1-0.1-0.4-0.2-0.8s-0.2-0.9-0.4-1.6
		c-2.9,0.6-5.8,1.2-8.5,1.7l-1.7,0.4l-0.9-3.4c0.2-0.1,0.3-0.2,0.6-0.3c0.2-0.1,0.4-0.3,0.4-0.4c1.7-2.1,3.6-4.7,5.5-7.8L42.3,16.3z
		 M45.9,29.6l2.6-0.5c0.3,1.2,0.6,2.6,0.8,4.3s0.4,3.1,0.5,4.4l-2.9,0.7c0-1.2-0.1-2.7-0.3-4.3C46.3,32.5,46.1,31,45.9,29.6z
		 M50.5,29l2.4-0.9c0.4,1,0.9,2.1,1.4,3.4c0.5,1.3,0.8,2.5,1.1,3.6l-2.6,1.2c-0.3-1.2-0.6-2.5-1-3.8C51.3,31,50.9,29.8,50.5,29z
		 M73.5,6.2v31.6l0.1,2.5h-3.4v-3.5H59.8v3.5h-3.4c0.1-1,0.1-1.8,0.1-2.5V6.2l-0.1-2.5h17.2L73.5,6.2z M63.3,7.2h-3.5v11h3.5V7.2z
		 M59.8,33.2h3.5V21.7h-3.5V33.2z M70.2,7.2h-3.8v11h3.8V7.2z M66.4,33.2h3.8V21.7h-3.8V33.2z"/>
        <path class="st0" d="M98.6,1.2c0.7,1.1,1.5,2.3,2.6,3.6c1,1.3,2.4,2.7,4,4.3c1.6,1.5,3.3,3,5.1,4.2c1.8,1.3,3.5,2.4,5.1,3.2
		c-0.3,0.4-0.7,1-1.1,1.7c-0.5,0.7-0.8,1.4-1.1,1.9c-1.5-0.8-3.2-2-5-3.5c-1.9-1.5-3.9-3.3-6-5.6s-3.9-4.5-5.4-6.7
		C96,5.6,95,6.9,93.9,8.3c-1.1,1.4-2.5,2.9-4.2,4.5c-1.7,1.6-3.4,3.1-5.2,4.4c-1.8,1.3-3.4,2.4-4.9,3.2c-0.4-0.9-1.1-2.1-2.2-3.7
		c1.2-0.6,2.4-1.3,3.7-2.2c1.3-0.8,2.5-1.7,3.7-2.7c1.2-1,2.5-2.1,3.8-3.4c1.3-1.3,2.5-2.6,3.5-4.1c1.1-1.5,2-2.9,2.7-4.3l3.9,0.8
		L98.6,1.2z M89.3,17.5c0-0.6,0-1.1-0.1-1.6l3.7,0.2l-0.1,1c0,4.8-0.4,8.7-1.2,11.7c-0.8,3-2,5.5-3.5,7.4c-1.6,1.9-3.8,3.5-6.6,4.8
		c-0.4-0.4-1.4-1.5-3.1-3.1c1.5-0.6,2.9-1.3,4-2.1c1.2-0.8,2.2-1.7,3.1-2.8c0.9-1.1,1.6-2.4,2.1-3.8c0.5-1.5,0.9-3.1,1.2-4.9
		C89.1,22.3,89.3,20.1,89.3,17.5z M104.2,15.8c-0.1,0.3-0.1,0.8-0.1,1.5v21.3c0,0.5,0,1.2,0.1,2h-3.9l0.1-2V17.3c0-0.5,0-1-0.1-1.6
		C102.2,15.7,103.4,15.8,104.2,15.8z"/>
        <path class="st0" d="M117.9,38.4c0.5-1.4,0.9-3,1.2-4.7c0.3-1.8,0.5-3.3,0.6-4.7l2.8,0.5c-0.1,1.7-0.3,3.6-0.6,5.5
		c-0.3,2-0.7,3.7-1.1,5.2C119.9,39.6,118.9,39,117.9,38.4z M127.6,19.1l2.5-1.2c0.6,1.1,1.2,2.4,1.9,4c0.7,1.6,1.2,3,1.6,4.1
		l-2.8,1.4c-0.1-0.5-0.3-1.2-0.6-2.2c-3.3,0.7-6.4,1.3-9.3,1.9l-1.6,0.4l-0.8-3.4c0.5-0.2,0.8-0.4,0.9-0.7c0.4-0.4,1.1-1.3,2.1-2.7
		c1-1.3,2.2-3.1,3.5-5.2l-4.6,0.8l-1.3,0.3l-0.7-3.1c0.1-0.1,0.3-0.1,0.5-0.3c0.2-0.1,0.3-0.2,0.4-0.4c1-1.4,2.1-3.2,3.3-5.5
		c1.2-2.3,2-4.3,2.6-6.1l3.2,1.5c-0.3,0.4-0.5,0.7-0.6,0.9c-0.4,0.8-0.8,1.7-1.4,2.8s-1.2,2.2-1.9,3.4c-0.7,1.2-1.4,2.3-2,3.2
		l4.6-0.7c0.3-0.6,0.8-1.4,1.3-2.5c0.5-1,0.9-1.9,1.2-2.5l3.1,1.6c-0.3,0.3-0.5,0.7-0.7,1.1c-1,1.8-2.3,4-4.1,6.7
		c-1.8,2.6-3.4,4.9-4.9,6.8c2.2-0.3,4.3-0.7,6.4-1.2C128.4,20.7,127.9,19.7,127.6,19.1z M123.9,29.6l2.6-0.5
		c0.3,1.2,0.5,2.6,0.8,4.2c0.2,1.6,0.4,3.1,0.5,4.3c-0.7,0.1-1.7,0.4-3,0.7c-0.1-1.7-0.2-3.3-0.4-4.8
		C124.3,31.9,124.1,30.6,123.9,29.6z M128,28.8l2.5-1c0.4,0.9,0.9,2.1,1.4,3.5c0.5,1.4,1,2.8,1.4,4l-2.8,1.3
		c-0.2-0.6-0.4-1.5-0.7-2.6c-0.3-1.1-0.7-2.1-1-3.1C128.5,30,128.2,29.3,128,28.8z M152.8,3l-0.1,1.2c0,4-0.1,6.9-0.3,8.6
		c-0.1,1.7-0.4,3-0.8,4c-0.4,1.1-1.3,1.9-2.6,2.5c-1.3,0.6-3.1,0.9-5.4,0.9c-0.1-0.3-0.2-0.8-0.4-1.5c-0.2-0.8-0.5-1.7-0.9-2.8
		c0.7,0.2,1.5,0.4,2.6,0.4c1,0,1.8-0.1,2.4-0.4c0.6-0.3,1-0.7,1.3-1.3c0.2-0.6,0.4-1.4,0.5-2.5c0.1-1.1,0.2-2.9,0.2-5.5h-5.1
		c-0.6,6.9-3.5,11.7-8.9,14.4l-2-3.3c1.5-0.7,2.8-1.5,3.7-2.4c0.9-0.9,1.6-1.8,2.1-2.6c0.5-0.8,0.8-1.7,1.1-2.7
		c0.3-1,0.5-2.1,0.6-3.4h-4c-0.9,0-1.6,0-2,0V3c0.4,0,1.1,0,2,0H152.8z M151.8,22.6c0,0.4,0,0.9,0,1.6v14.6l0,1.6h-3.5v-2.3h-9.5
		v2.3h-3.4c0.1-0.6,0.1-1.1,0.1-1.6V24.2c0-0.4,0-0.9-0.1-1.6H151.8z M138.8,34.6h9.5v-8.5h-9.5V34.6z"/>
    </g>
</svg>
