<svg version="1.1" xmlns="http://www.w3.org/2000/svg" xmlns:xlink="http://www.w3.org/1999/xlink" x="0px" y="0px" width="210.2px" height="53.1px" viewBox="0 0 210.2 53.1" style="overflow:visible;enable-background:new 0 0 210.2 53.1;" xml:space="preserve">
    <style type="text/css">
        .st0{fill:#D00202;}
	.st1{fill:none;stroke:#D00202;stroke-width:1.748;stroke-miterlimit:10;}
    </style>
    <defs/>
    <g>
        <path class="st0" d="M47.1,24.3c0.9,0.9,1.9,2,3,3.3l-1.9,2.5c-0.6-0.9-1.4-1.8-2.2-2.7c-1,2.5-2.6,4.6-4.5,6.1l-1.6-2.1
		c-0.1,0-0.3,0.1-0.7,0.1s-1.2,0.1-2.3,0.3c-1.2,0.2-2.8,0.3-4.7,0.6c-2,0.2-3.4,0.4-4.4,0.5l-1.5,0.2l-0.5-2.8l1.9,0
		c1-0.1,2.7-0.2,4.9-0.5v-2.4h-3.9c-0.7,0-1.3,0-1.7,0V25c0.4,0,0.9,0,1.7,0h3.9v-1.8c0-0.5,0-0.9-0.1-1.3l2.3,0.1
		c-0.1-0.3-0.1-0.6-0.1-1c0-1,0-1.8,0-2.3H33c-0.1,0.6-0.3,1.2-0.6,1.9c-0.3,0.7-0.8,1.2-1.5,1.8c-0.6,0.5-1.3,0.9-2,1.3
		c-0.7,0.3-1.4,0.6-2.1,0.8c-0.1-0.3-0.4-0.7-0.7-1.1c-0.3-0.5-0.6-0.8-0.9-1.2c0.7-0.1,1.5-0.4,2.2-0.6c0.8-0.3,1.4-0.7,1.9-1.1
		c0.5-0.5,0.9-1,1-1.6h-2.9l-1.8,0v-2.4l1.8,0h5v-2h-3.8l-1.6,0v-2.3l1.6,0h3.8v-1.5l-0.1-0.9c0.8,0,1.7,0,2.9,0.1
		c0,0.3-0.1,0.6-0.1,0.8v1.4h3.3l1.6,0v2.3l-1.6,0h-3.3v2h3.7c0.8,0,1.4,0,1.8,0v2.4c-0.4,0-1,0-1.8,0h-1.8v0.9c0,0.3,0,0.6,0.1,0.8
		s0.2,0.2,0.4,0.2c1.7,0,2.9,0,3.7-0.1c0,0.3,0,0.5-0.1,0.7c0,0.2-0.1,0.8-0.2,1.7c-1.4,0-2.7,0.1-3.8,0c-0.8,0-1.5-0.1-1.9-0.3
		l0,0.6V25h3l1.6,0v2.4l-1.6,0h-3v2c2.2-0.3,3.9-0.5,5.1-0.7c0,0.7-0.1,1.3-0.1,1.7c1.6-1.5,2.8-3.3,3.6-5.4
		c-0.2-0.2-0.5-0.5-0.9-0.9c-0.5-0.5-0.9-0.9-1.3-1.2l1.6-2.3c0.5,0.4,1.1,0.9,1.6,1.4c0.3-1.1,0.5-2.6,0.6-4.4h-2.3l-1.5,0V15
		l1.5,0h2.5c0-1.6,0.1-2.9,0.1-3.8l0-1.3l2.8,0.1l0,0.7c0,1.5,0,2.9-0.1,4.3h5.4c0,0.3-0.1,1.1-0.1,2.4c0,1.2-0.1,2.4-0.1,3.6
		c0,3.1,0.1,5.4,0.3,7s0.5,2.4,0.9,2.4c0.1,0,0.3-0.3,0.4-0.8c0.1-0.5,0.1-1.8,0.1-3.7c1.6,1.3,2.4,2,2.6,2.1c0,0.8-0.1,1.5-0.2,2
		c-0.1,0.6-0.2,1.1-0.4,1.6c-0.2,0.5-0.4,0.9-0.7,1.2c-0.3,0.3-0.6,0.5-1,0.6c-0.3,0.1-0.6,0.1-0.8,0.1c-1,0-1.9-0.5-2.4-1.4
		c-0.6-0.9-1-2.3-1.3-4.2c-0.3-1.9-0.4-4.3-0.4-7.4l0.1-2.8h-2.4C48,20.2,47.6,22.4,47.1,24.3z M25.5,39.8c0.9-0.8,1.7-1.8,2.6-3.1
		c0.9-1.3,1.5-2.3,1.8-3.2l2.8,1c-0.7,1.5-1.4,2.8-2.3,4.1c-0.8,1.3-1.6,2.3-2.2,3C26.6,40.5,25.7,39.9,25.5,39.8z M35.5,34.6
		l2.9-0.5c0.2,0.8,0.4,1.8,0.6,3c0.2,1.2,0.4,2.4,0.5,3.6l-3.3,0.6c0-0.9-0.1-2.1-0.3-3.4C35.9,36.6,35.7,35.5,35.5,34.6z
		 M42.2,34.7l2.7-0.8c0.4,0.7,0.9,1.6,1.5,2.8c0.5,1.2,1,2.4,1.4,3.6l-3.2,0.9c-0.2-0.9-0.6-2-1-3.3S42.6,35.6,42.2,34.7z
		 M49.5,34.6l2.5-1c0.6,0.7,1.4,1.6,2.2,2.8c0.9,1.2,1.6,2.3,2.2,3.4l-2.9,1.5c-0.4-1-1.1-2.1-1.9-3.5
		C50.9,36.5,50.2,35.4,49.5,34.6z"/>
        <path class="st0" d="M81.1,11.3l0,1.2v10.1l0,1.2h-9.3v15.5l0.1,2h-3.3c0-0.8,0.1-1.5,0.1-2v-27c0-0.3,0-0.6-0.1-1H81.1z
		 M78.1,13.9h-6.2v2.3h6.2V13.9z M71.8,21.1h6.2v-2.6h-6.2V21.1z M96.6,13.1v22.3l0.1,2.3c0,0.4-0.1,0.8-0.2,1.2s-0.5,0.8-0.9,1.1
		c-0.5,0.3-1.2,0.6-2.1,0.8S91.2,41,89.5,41c-0.1-0.3-0.3-0.7-0.6-1.3c-0.3-0.6-0.6-1.2-1-1.9c0.9,0.1,2,0.2,3.1,0.2
		c0.7,0,1.3-0.1,1.8-0.2c0.5-0.1,0.7-0.5,0.7-0.9v-1.5V23.8h-9.2c0-0.5,0.1-0.9,0.1-1.2V12.5c0-0.3,0-0.7-0.1-1.2h12.4L96.6,13.1z
		 M93.5,13.9h-6.2v2.3h6.2V13.9z M87.3,21.1h6.2v-2.6h-6.2V21.1z"/>
        <path class="st0" d="M117.5,29v10.2c0,0.6,0,1.3,0.1,2.1h-3.2c0-0.8,0.1-1.5,0.1-2.1v-9c-1.5,0.6-2.7,1.1-3.5,1.4
		c-0.7,0.2-1.2,0.4-1.5,0.6l-0.9-3.2c0.9-0.2,1.5-0.4,1.8-0.5c1.1-0.3,2.5-0.8,4.2-1.4v-7.5h-2.3c-0.2,1.6-0.5,3.2-0.9,4.7
		c-0.5-0.2-1.3-0.5-2.6-0.9c1-2.8,1.5-6.5,1.5-11.1l2.6,0.4c0,0.1-0.1,0.3-0.1,0.6l-0.2,3.3h2v-5.2c0-0.7,0-1.2,0-1.5
		c0.3,0,0.9,0,1.6,0.1c0.7,0,1.3,0.1,1.6,0.1c0,0.3-0.1,0.7-0.1,1.4v5.2h2.2c0.7,0,1.2,0,1.5,0v3c-0.3,0-0.8-0.1-1.5-0.1h-2.2v6.4
		c2.2-0.9,3.5-1.4,3.7-1.5l0.1,2.9c-0.2,0.1-0.4,0.2-0.8,0.4c-0.4,0.2-0.9,0.4-1.5,0.6C118.4,28.7,117.9,28.9,117.5,29z M140.1,15.3
		l-0.1,0.9c0,3.9,0,7.2-0.1,9.9c0,2.7-0.2,5-0.3,6.8c-0.2,1.8-0.5,3.3-0.9,4.4c-0.6,1.4-1.6,2.4-2.9,2.9s-3.3,0.8-6,0.8
		c-0.1-0.3-0.2-0.8-0.5-1.5c-0.3-0.7-0.5-1.4-0.7-1.9c1,0.2,1.8,0.3,2.4,0.3c1.3,0,2.4-0.2,3.1-0.6c0.8-0.4,1.3-1,1.7-1.9
		c0.2-0.5,0.4-1.3,0.6-2.3c0.2-1,0.3-2.7,0.4-4.9s0.2-5.7,0.2-10.2h-0.5c-0.6,2.4-1.3,4.7-2.1,6.9c-0.9,2.2-1.8,4.3-2.9,6.2
		c-1.1,1.9-2.3,3.6-3.5,5.2c-1.3,1.5-2.6,2.8-3.9,3.7c-0.4-0.5-1.1-1.2-2.2-2.2c2.5-1.7,4.8-4.3,7-8c2.2-3.6,3.8-7.6,4.9-11.9h-2
		c-0.5,1.6-1,3.1-1.7,4.6c-0.7,1.5-1.4,2.9-2.2,4.2c-0.8,1.3-1.7,2.5-2.6,3.6c-0.9,1.1-1.9,2-2.9,2.7c-0.1-0.2-0.4-0.6-0.9-1
		c-0.5-0.4-0.9-0.8-1.3-1.1c1.4-0.9,2.6-2.2,3.9-3.8c1.2-1.6,2.3-3.2,3.1-4.8c0.8-1.6,1.4-3.1,1.8-4.4h-2.4c-0.5,0.9-1,1.8-1.5,2.7
		c-0.5,0.9-1,1.6-1.5,2.1c-0.5,0.5-0.8,1-1.2,1.3c-0.6-0.5-1.3-1.2-2.3-1.9c0.7-0.7,1.5-1.6,2.3-2.8c0.8-1.2,1.6-2.6,2.4-4.3
		c0.8-1.7,1.5-3.4,2-5.2l2.9,0.6l-0.1,0.3c-0.4,1.2-0.9,2.7-1.6,4.5H140.1z"/>
        <path class="st0" d="M158.1,17.8v21.9c0,0.5,0,1.1,0.1,1.9h-3.3c0-0.7,0.1-1.4,0.1-1.9c0-1.7,0-4.3,0.1-7.8
		c0.1-3.5,0.2-6.7,0.3-9.6c-0.5,0.9-1.1,1.9-1.8,2.8c-0.7,0.9-1.3,1.7-1.9,2.3c-0.1-0.3-0.4-0.9-0.7-1.5c-0.3-0.7-0.6-1.2-0.9-1.7
		c1.5-1.5,3-3.7,4.6-6.7c1.6-2.9,2.6-5.6,3.3-7.9l3,1.2l-0.2,0.3c-0.1,0.4-0.4,1.3-0.9,2.5C159.4,14.8,158.8,16.2,158.1,17.8z
		 M180.2,27.4c1.2,0,2,0,2.5-0.1v3.3c-0.5,0-1.3-0.1-2.5-0.1h-6.5v8.7l0.1,2.2h-3.4l0.1-2.2v-8.7h-7.8c-1.2,0-2,0-2.4,0.1v-3.3
		c0.5,0,1.3,0.1,2.4,0.1h7.8v-7.3h-5.6c-0.8,1.9-1.7,3.5-2.7,4.8c-0.2-0.2-0.6-0.5-1.1-0.9c-0.5-0.4-0.9-0.7-1.3-1
		c0.5-0.6,1.1-1.5,1.7-2.7s1.3-2.7,1.9-4.5c0.6-1.8,1-3.5,1.3-5.1l3,0.9l-0.1,0.4c-0.3,1.7-0.8,3.4-1.4,5.1h4.4v-5.6
		c0-0.5,0-1.1-0.1-1.6c0.4,0,0.9,0,1.7,0.1c0.8,0,1.3,0.1,1.7,0.1c0,0.3-0.1,0.8-0.1,1.4v5.6h5.3c1,0,1.6,0,2.1,0v3.1
		c-0.4,0-1.1,0-2.1,0h-5.3v7.3H180.2z"/>
    </g>
    <rect x="0.9" y="0.9" class="st1" width="208.4" height="51.4"/>
</svg>
