<svg xmlns="http://www.w3.org/2000/svg" xml:space="preserve" width="526.5" height="167.9" style="overflow:visible" viewBox="0 0 526.5 167.9"><style>.st0{fill:#d00202}</style><path d="M41.3 164.3V83.7c0-3.3 0-8.4.1-15.3q.15-10.35.3-18.3c.1-5.3.3-8.8.4-10.7h-.4C38.4 43 32.2 48.7 23 56.5l-7.4 6.6L0 38.3 44.7 3h29.8v161.3zM171.4 99.9v49.8l.1 7.2c0 7.1-6.3 10.6-19 10.6-.4-1.3-1.2-3.1-2.3-5.6-1.1-2.4-2-4.5-2.8-6.2 3.1.5 5.8.7 8.2.7 1.8 0 3.1-.2 4-.7.9-.4 1.3-1.2 1.3-2.1v-11.2H135c-.8 4.1-1.8 7.8-3 11s-2.5 6-4 8.4c-1.4 2.4-3 4.4-4.7 6-.6-.8-1.8-2-3.4-3.6q-2.4-2.4-5.4-4.8c1.3-1.2 2.6-2.6 3.7-4.2 1.2-1.6 2.2-3.4 3.1-5.3s1.8-4.3 2.6-7 1.4-5.8 1.7-9.3.6-6.8.6-10V98.3l-.1-3.4h45.5zm-35 32.9H161v-9.2h-24.3v1c0 3.1-.1 5.9-.3 8.2m24.6-28h-24.3v9H161zM240.2 164.3V83.7c0-3.3 0-8.4.1-15.3q.15-10.35.3-18.3c.1-5.3.3-8.8.4-10.7h-.4c-3.3 3.6-9.5 9.3-18.7 17.1l-7.4 6.6L199 38.3 243.6 3h29.8v161.3zM428.5 111.1q0 12-3.6 22.5c-2.4 7-6 13-10.6 18s-10.4 8.9-17.2 11.7-14.4 4.2-22.6 4.2c-12.4 0-22.8-3.2-31.3-9.6s-14.8-15.5-18.8-27.4q-6-17.7-6-41.1c0-7 .4-14 1.3-21.2.9-7.1 2.4-14 4.5-20.6s4.9-12.9 8.5-18.7 8.1-11 13.5-15.4 11.5-7.7 18.3-10Q374.7.2 386.7.2c5.3 0 11 .5 16.9 1.4s10.9 2.2 15 3.7l-3.2 28.2c-4.2-2-8.7-3.5-13.5-4.6s-9.3-1.6-13.7-1.6c-5.9 0-11.1 1.1-15.9 3.3-4.7 2.2-8.7 5.5-11.9 9.7-3.2 4.3-5.8 9.5-7.5 15.7-1.8 6.2-2.8 13.2-3.1 20.9h.4c3.4-5.1 8.2-9.2 14.3-12.3s12.4-4.6 18.9-4.6c6.7 0 12.9 1.2 18.5 3.5 5.6 2.4 10.4 5.8 14.3 10.3s7 9.9 9.1 16.3c2.2 6.2 3.2 13.2 3.2 21m-31.7 2.1c0-4.1-.4-7.9-1.2-11.2-.8-3.4-2.1-6.3-3.8-8.8s-3.9-4.4-6.7-5.8c-2.7-1.4-5.9-2-9.5-2-2.9 0-5.9.7-8.8 2-2.9 1.4-5.5 3.3-7.7 5.8s-4 5.4-5.3 8.7-2 6.8-2 10.5c0 3 .4 6.1 1.1 9.4.8 3.3 2.2 6.6 4.3 10s4.7 5.9 7.9 7.6 6.4 2.6 9.5 2.6c3.6 0 6.7-.7 9.5-2.2s5.1-3.6 7-6.2c1.8-2.6 3.2-5.7 4.2-9.2 1-3.7 1.5-7.4 1.5-11.2M482.3 135.5l-.1 3c0 5.8-.1 10.3-.3 13.7s-.6 6-1.3 8c-.8 2.3-2.4 4.1-4.8 5.3s-5.6 1.8-9.7 1.8c-.1-.4-.3-1.1-.5-2.1s-.7-2.5-1.2-4.5c-.6-2-1-3.3-1.1-4 .5.2 1.2.3 2 .5s1.6.3 2.3.3c1.1 0 2.2-.2 3.1-.5.9-.4 1.7-1.2 2.2-2.4.2-.6.4-1.5.5-2.7s.3-3.6.4-7.2h-14.3c.2-1.1.6-3 1.1-5.7s1.1-5.9 1.7-9.7h-1l-3.7.1v-9.1l3.7.1h19l3.8-.1v9.1l-3.8-.1H471l-1.1 6.2zM458.9 117c.1-.9.1-1.7.1-2.6V96.3c0-.8 0-1.6-.1-2.6h24c0 .5-.1 1.4-.1 2.6v18.2l.1 2.6h-24zm15.9-15.4h-7.6v7.4h7.6zm19.1 32.2c0 7.2-.6 13.7-1.7 19.5q-1.65 8.7-4.8 13.2c-2.3-2.3-4.5-4.3-6.5-6.1q2.25-3.9 3.6-10.8c.9-4.6 1.3-9.9 1.3-16.1v-24.4c0-.8 0-1.7-.1-2.8h11.8V94.2c0-1.1 0-1.9-.1-2.3 1.1 0 2.7 0 4.8.1s3.6.2 4.5.2c0 .4-.1 1-.1 2v1.2h12.8l3.1-.1v7.7l-3.1-.1h-12.8v3.4H520l.6-.7c2.2 1.5 4.1 3.1 5.9 4.9l-.9.4c-.6 1.8-1.5 3.8-2.5 6s-1.9 4-2.8 5.3c-.2-.2-.7-.5-1.4-.9s-2-1.1-3.9-2l.3 5.6c-.7 0-1.7.1-3.1.3l-4.6.7v1.7q0 .75.6 1.2c.6.1 1.7.2 3.5.2 3.7 0 7.4-.2 11.2-.7 0 .2-.1.7-.3 1.4-.1.7-.3 1.8-.5 3.3s-.4 2.6-.5 3.2c-1.8.3-5.2.5-10.4.5-2.3 0-4.3-.1-6.1-.3-1.7-.2-3-.6-3.9-1.4-.7-.6-1.2-1.4-1.5-2.5-.2-1-.4-2.6-.4-4.7v-.8l-1.3.2c-1.8.3-2.8.4-3.1.5l-.3-7.6 3.2-.3 1.5-.2v-3.9l-.1-1.6 8.5.7c-.1.3-.1.8-.1 1.3v2.4l4.3-.6 1.5-.2c.8-.9 1.7-2.1 2.6-3.5h-22.1zm3.4 6.4-.1-2.2 8.2.4-.1 1.8q0 6.45-.9 11.7c-.6 3.5-1.5 6.5-2.8 9.2-1.2 2.7-2.7 4.8-4.6 6.4-1.1-1.2-3.4-3.3-6.7-6.5.8-.5 1.6-1.3 2.4-2.3s1.5-2.3 2.2-3.9 1.2-3.6 1.7-6c.4-2.5.7-5.3.7-8.6m21.7 16.9c.2-1.1.4-4.3.4-9.5 2 1.3 4 2.6 6.1 3.8 0 4.7-.3 8-.9 10.1-.5 2.1-1.4 3.6-2.6 4.4s-2.9 1.3-5 1.3c-1.9 0-3.4-.1-4.5-.4-1.2-.3-2.1-.7-2.8-1.4-.5-.5-.9-1.2-1.2-2.3-.3-1-.4-3-.4-6.1v-17.3c0-.5 0-1-.1-1.6l8.5.6c-.1.3-.1.8-.1 1.3v17.6c0 .1 0 .3.1.5q0 .3.3.3c.1.1.5.2 1.1.2s.9-.5 1.1-1.5" class="st0"/></svg>