<!-- Generator: Adobe Illustrator 25.0.0, SVG Export Plug-In  -->
<svg version="1.1" xmlns="http://www.w3.org/2000/svg" xmlns:xlink="http://www.w3.org/1999/xlink" x="0px" y="0px" width="526.5px"
	 height="167.9px" viewBox="0 0 526.5 167.9" style="overflow:visible;enable-background:new 0 0 526.5 167.9;"
	 xml:space="preserve">
<style type="text/css">
	.st0{fill:#D00202;}
</style>
<defs>
</defs>
<g>
	<g>
		<path class="st0" d="M41.3,164.3V83.7c0-3.3,0-8.4,0.1-15.3c0.1-6.9,0.2-13,0.3-18.3c0.1-5.3,0.3-8.8,0.4-10.7h-0.4
			c-3.3,3.6-9.5,9.3-18.7,17.1l-7.4,6.6L0,38.3L44.7,3h29.8v161.3H41.3z"/>
		<path class="st0" d="M171.4,99.9v49.8l0.1,7.2c0,7.1-6.3,10.6-19,10.6c-0.4-1.3-1.2-3.1-2.3-5.6c-1.1-2.4-2-4.5-2.8-6.2
			c3.1,0.5,5.8,0.7,8.2,0.7c1.8,0,3.1-0.2,4-0.7c0.9-0.4,1.3-1.2,1.3-2.1v-4v-7.2h-25.9c-0.8,4.1-1.8,7.8-3,11c-1.2,3.2-2.5,6-4,8.4
			c-1.4,2.4-3,4.4-4.7,6c-0.6-0.8-1.8-2-3.4-3.6c-1.6-1.6-3.4-3.2-5.4-4.8c1.3-1.2,2.6-2.6,3.7-4.2c1.2-1.6,2.2-3.4,3.1-5.3
			c0.9-1.9,1.8-4.3,2.6-7c0.8-2.7,1.4-5.8,1.7-9.3s0.6-6.8,0.6-10V98.3l-0.1-3.4h45.5L171.4,99.9z M136.4,132.8H161v-9.2h-24.3v1
			C136.7,127.7,136.6,130.5,136.4,132.8z M161,104.8h-24.3v9H161V104.8z"/>
		<path class="st0" d="M240.2,164.3V83.7c0-3.3,0-8.4,0.1-15.3c0.1-6.9,0.2-13,0.3-18.3c0.1-5.3,0.3-8.8,0.4-10.7h-0.4
			c-3.3,3.6-9.5,9.3-18.7,17.1l-7.4,6.6L199,38.3L243.6,3h29.8v161.3H240.2z"/>
		<path class="st0" d="M428.5,111.1c0,8-1.2,15.5-3.6,22.5c-2.4,7-6,13-10.6,18c-4.6,5-10.4,8.9-17.2,11.7
			c-6.8,2.8-14.4,4.2-22.6,4.2c-12.4,0-22.8-3.2-31.3-9.6c-8.5-6.4-14.8-15.5-18.8-27.4c-4-11.8-6-25.5-6-41.1c0-7,0.4-14,1.3-21.2
			c0.9-7.1,2.4-14,4.5-20.6c2.1-6.6,4.9-12.9,8.5-18.7c3.6-5.8,8.1-11,13.5-15.4c5.4-4.4,11.5-7.7,18.3-10
			c6.8-2.2,14.2-3.3,22.2-3.3c5.3,0,11,0.5,16.9,1.4c5.9,0.9,10.9,2.2,15,3.7l-3.2,28.2c-4.2-2-8.7-3.5-13.5-4.6
			c-4.8-1.1-9.3-1.6-13.7-1.6c-5.9,0-11.1,1.1-15.9,3.3c-4.7,2.2-8.7,5.5-11.9,9.7c-3.2,4.3-5.8,9.5-7.5,15.7
			c-1.8,6.2-2.8,13.2-3.1,20.9h0.4c3.4-5.1,8.2-9.2,14.3-12.3c6.1-3.1,12.4-4.6,18.9-4.6c6.7,0,12.9,1.2,18.5,3.5
			c5.6,2.4,10.4,5.8,14.3,10.3c3.9,4.5,7,9.9,9.1,16.3C427.5,96.3,428.5,103.3,428.5,111.1z M396.8,113.2c0-4.1-0.4-7.9-1.2-11.2
			c-0.8-3.4-2.1-6.3-3.8-8.8c-1.7-2.5-3.9-4.4-6.7-5.8c-2.7-1.4-5.9-2-9.5-2c-2.9,0-5.9,0.7-8.8,2c-2.9,1.4-5.5,3.3-7.7,5.8
			c-2.2,2.5-4,5.4-5.3,8.7c-1.3,3.3-2,6.8-2,10.5c0,3,0.4,6.1,1.1,9.4c0.8,3.3,2.2,6.6,4.3,10c2.1,3.4,4.7,5.9,7.9,7.6
			c3.2,1.7,6.4,2.6,9.5,2.6c3.6,0,6.7-0.7,9.5-2.2c2.8-1.5,5.1-3.6,7-6.2c1.8-2.6,3.2-5.7,4.2-9.2
			C396.3,120.7,396.8,117,396.8,113.2z"/>
		<path class="st0" d="M482.3,135.5l-0.1,3c0,5.8-0.1,10.3-0.3,13.7c-0.2,3.4-0.6,6-1.3,8c-0.8,2.3-2.4,4.1-4.8,5.3
			c-2.4,1.2-5.6,1.8-9.7,1.8c-0.1-0.4-0.3-1.1-0.5-2.1c-0.2-1-0.7-2.5-1.2-4.5c-0.6-2-1-3.3-1.1-4c0.5,0.2,1.2,0.3,2,0.5
			c0.8,0.2,1.6,0.3,2.3,0.3c1.1,0,2.2-0.2,3.1-0.5c0.9-0.4,1.7-1.2,2.2-2.4c0.2-0.6,0.4-1.5,0.5-2.7c0.1-1.2,0.3-3.6,0.4-7.2h-14.3
			c0.2-1.1,0.6-3,1.1-5.7c0.5-2.7,1.1-5.9,1.7-9.7h-1l-3.7,0.1v-9.1l3.7,0.1h19l3.8-0.1v9.1l-3.8-0.1h-9.3l-1.1,6.2H482.3z
			 M458.9,117c0.1-0.9,0.1-1.7,0.1-2.6V96.3c0-0.8,0-1.6-0.1-2.6h24c0,0.5-0.1,1.4-0.1,2.6v18.2l0.1,2.6H458.9z M474.8,101.6h-7.6
			v7.4h7.6V101.6z M493.9,133.8c0,7.2-0.6,13.7-1.7,19.5c-1.1,5.8-2.7,10.2-4.8,13.2c-2.3-2.3-4.5-4.3-6.5-6.1
			c1.5-2.6,2.7-6.2,3.6-10.8c0.9-4.6,1.3-9.9,1.3-16.1v-24.4c0-0.8,0-1.7-0.1-2.8h11.8V94.2c0-1.1,0-1.9-0.1-2.3
			c1.1,0,2.7,0,4.8,0.1c2.1,0.1,3.6,0.2,4.5,0.2c0,0.4-0.1,1-0.1,2v1.2h12.8l3.1-0.1v7.7l-3.1-0.1h-12.8v3.4H520l0.6-0.7
			c2.2,1.5,4.1,3.1,5.9,4.9l-0.9,0.4c-0.6,1.8-1.5,3.8-2.5,6c-1,2.2-1.9,4-2.8,5.3c-0.2-0.2-0.7-0.5-1.4-0.9c-0.7-0.4-2-1.1-3.9-2
			l0.3,5.6c-0.7,0-1.7,0.1-3.1,0.3l-4.6,0.7v1.7c0,0.5,0.2,0.9,0.6,1.2c0.6,0.1,1.7,0.2,3.5,0.2c3.7,0,7.4-0.2,11.2-0.7
			c0,0.2-0.1,0.7-0.3,1.4c-0.1,0.7-0.3,1.8-0.5,3.3c-0.2,1.5-0.4,2.6-0.5,3.2c-1.8,0.3-5.2,0.5-10.4,0.5c-2.3,0-4.3-0.1-6.1-0.3
			c-1.7-0.2-3-0.6-3.9-1.4c-0.7-0.6-1.2-1.4-1.5-2.5c-0.2-1-0.4-2.6-0.4-4.7v-0.8l-1.3,0.2c-1.8,0.3-2.8,0.4-3.1,0.5l-0.3-7.6
			l3.2-0.3l1.5-0.2v-3.9l-0.1-1.6l8.5,0.7c-0.1,0.3-0.1,0.8-0.1,1.3v2.4l4.3-0.6l1.5-0.2c0.8-0.9,1.7-2.1,2.6-3.5h-22.1V133.8z
			 M497.3,140.2l-0.1-2.2l8.2,0.4l-0.1,1.8c0,4.3-0.3,8.2-0.9,11.7c-0.6,3.5-1.5,6.5-2.8,9.2c-1.2,2.7-2.7,4.8-4.6,6.4
			c-1.1-1.2-3.4-3.3-6.7-6.5c0.8-0.5,1.6-1.3,2.4-2.3c0.8-1,1.5-2.3,2.2-3.9c0.7-1.6,1.2-3.6,1.7-6
			C497,146.3,497.3,143.5,497.3,140.2z M519,157.1c0.2-1.1,0.4-4.3,0.4-9.5c2,1.3,4,2.6,6.1,3.8c0,4.7-0.3,8-0.9,10.1
			c-0.5,2.1-1.4,3.6-2.6,4.4c-1.2,0.8-2.9,1.3-5,1.3c-1.9,0-3.4-0.1-4.5-0.4c-1.2-0.3-2.1-0.7-2.8-1.4c-0.5-0.5-0.9-1.2-1.2-2.3
			c-0.3-1-0.4-3-0.4-6.1v-17.3c0-0.5,0-1-0.1-1.6l8.5,0.6c-0.1,0.3-0.1,0.8-0.1,1.3v17.6c0,0.1,0,0.3,0.1,0.5c0,0.2,0.1,0.3,0.3,0.3
			c0.1,0.1,0.5,0.2,1.1,0.2S518.8,158.1,519,157.1z"/>
	</g>
</g>
</svg>
