<svg xmlns="http://www.w3.org/2000/svg" xml:space="preserve" width="503.5" height="75.5" style="overflow:visible" viewBox="0 0 503.5 75.5"><style>.st0{fill:#fff}</style><path d="M0 70.8c.7-2.5 1.3-5.4 1.8-8.8s.7-6.4.8-9.2l5.8 1.3c-.1 3-.4 6.4-.8 10.1-.5 3.8-1 7.1-1.6 10.1-2.1-1.3-4.1-2.5-6-3.5m4.4-40.9-2.5.6-1.7-7.1c.1-.1.4-.2.7-.4s.6-.6.9-1.1C3.2 19.6 4.6 17 6.1 14s2.8-5.7 3.8-8S11.6 1.8 12 .5l6.4 4.4c-.3.4-.6.8-.8 1.2s-.4.6-.4.7c-3.3 6.6-6.1 11.8-8.5 15.5l6.4-1c2.2-4.3 3.7-7.4 4.4-9.3l6.1 4.3c-.2.2-.4.5-.7.9s-.5.8-.7 1.1c-1.4 2.6-2.9 5.4-4.7 8.4s-3.5 5.8-5.2 8.5-3.3 5-4.6 6.9l8-1.7c-.8-2.8-1.4-4.9-2-6.1l5.3-2.1c.6 1.5 1.3 3.3 2 5.5s1.3 4.2 1.8 6.1.9 3.3 1.1 4.4c-2.3.8-4.3 1.5-6.1 2.3l-.7-3.4c-2 .5-6.6 1.6-14 3.3l-2.9.6-1.8-7.6c.3-.1.7-.3 1.1-.7q.6-.45.9-.9c2.2-3.1 5-7.4 8.4-13zm6.3 24L16 53c.5 2.3.9 4.9 1.4 7.9q.6 4.35.9 7.8c-.9.2-2 .4-3.4.8s-2.4.6-2.8.7c0-2.2 0-4.9-.3-7.9-.4-3.1-.7-5.9-1.1-8.4m12.4-3.3c.7 1.7 1.4 3.4 2 5.2.6 1.7 1 3.3 1.4 4.7l-5.1 2.6c-.9-4.3-1.8-7.8-2.8-10.4zm33.7 1.8q1.2 1.65 3 3.6c1.2 1.3 2.5 2.6 4.1 3.9 1.5 1.3 3 2.3 4.5 3.1-.6 1.2-1.4 2.7-2.2 4.5-.9 1.8-1.4 3.1-1.7 4-2.1-1.4-4.1-3.3-6.1-5.6s-3.6-4.7-5-7.2q-2.1-3.75-3.3-6.9c.3 3.3.4 6.5.4 9.4l.1 6.4c0 1.3-.3 2.4-.8 3.4s-1.3 1.8-2.4 2.5q-1.65 1.05-4.2 1.5c-1.7.4-3.7.5-6.1.5l-3.4-8.7c.5.1 1.3.2 2.3.3s2 .2 2.9.2q2.1 0 3-.6t.9-1.8V45.8l-.6.3c-.4 2.7-1.1 5.3-2 7.9q-1.35 3.9-3.3 7.2c-1.2 2.2-2.6 4.2-4.1 6s-3.1 3.2-4.7 4.3c-.8-1.3-2.5-3.6-5-6.9q4.2-2.85 7.2-6.6c2-2.5 3.4-5.4 4.4-8.5h-5.1l-2.4.1v-7.9l2.4.1h7.8l.5-.7c.9.7 1.9 1.5 2.9 2.4 1 1 1.7 1.6 2 1.9v-9.7H30.1l.1-2.9V10.5c0-1.4 0-2.4-.1-2.9h11.5c1.1-3.1 1.8-5.5 2-7L52 1.9l-.7 1.2c-.1.5-.7 2-1.5 4.4h13.5l-.1 2.9V33l.1 2.9h-13v2.2c.5 2.5 1.5 5.2 2.8 8.1 2.2-1.9 4-3.5 5.4-5 1.4-1.4 2.4-2.7 3-3.6L67 44l-1 .7c-2.6 2.6-5.7 5.1-9.2 7.7m-1.3-38.2H38v4.4h17.5zM38 24.8v4.5h17.5v-4.5zM205.1 61.6c3.6 0 6-.1 7.2-.2v9.8c-1.3-.1-3.7-.2-7.2-.2H154c-3.6 0-6 .1-7.2.2v-9.8c1.3.1 3.7.2 7.2.2h19.4V6.1c0-1.5 0-2.9-.1-4.3h2.3c1.1 0 2.4.1 3.9.2s2.6.2 3.3.2c-.1 1.5-.1 2.8-.1 3.8v19.5h21c1.9 0 3.3 0 4.1-.1V35c-.8-.1-2.1-.1-4.1-.1h-21v26.8h22.4zM339.4 63.1c3.1.8 6.5 1.7 10.4 2.9 3.9 1.1 6.9 2.1 9 2.9-2.3 3.4-3.8 5.6-4.5 6.5-2.2-.9-5-2-8.4-3.2s-6.5-2.3-9.4-3.2c-2.8-.9-5.1-1.6-6.7-2.1l5.9-3.7h-19.2l5.8 3.6c-2.6 1.5-6.3 3.1-11 4.8-4.8 1.7-9.3 2.9-13.6 3.8l-5.3-7.2c1.8-.1 4.3-.4 7.6-.9 3.2-.5 6.2-1.1 9-1.9s4.8-1.5 6-2.2h-11.3c.1-1 .1-2 .1-2.9V37.8c0-.9 0-1.9-.1-2.9h44.9l-.1 2.9v22.3l.1 2.9h-9.2zm-44.5-35.4c.1-.9.1-1.7.1-2.4V11.5c0-.7 0-1.4-.1-2.3H307c-1.3-2.5-2.5-4.4-3.5-5.8l7.7-2c.6.9 2 3.5 4.4 7.9h6.4v-7l-.3-2.3c5 .2 7.7.4 8.1.4-.1.7-.1 1.3-.1 1.8v7h6.4c.8-1.3 1.6-2.6 2.4-4.2.8-1.5 1.4-2.8 1.7-3.7l8.1 2.5-.7 1.2-2.6 4.3h11.5l-.1 2.3v13.8l.1 2.4h-7.8V16h-46v11.7zm48.2-8.9-.1 2v8.8l.1 2h-34.8c.1-.8.1-1.4.1-2v-8.8c0-.6 0-1.3-.1-2zM340.3 40H312v2.9h28.3zm0 10.2v-2.7H312v2.7zM312 54.8V58h28.3v-3.1H312zm4.2-28.2h18.9v-2.7h-18.9zM452.3 22.5v9.8c0 9.3-.8 17.5-2.4 24.8s-3.9 12.7-6.8 16.3c-3.2-3.8-5.3-6.2-6.3-7.3q2.4-3.45 4.2-8.7c1.8-5.25 2.1-7.3 2.7-11.5.6-4.3.9-8.9.9-13.9V5.4l-.1-2.6h55.7l-.2 2.4v15l.1 2.4h-47.8zm45.4 42.6c2.8 0 4.7 0 5.8-.1v7.9c-1.1-.1-3-.2-5.8-.2h-41.3c-2.8 0-4.8.1-5.8.2V65c1.1.1 3 .1 5.8.1h15.8v-5h-12.3c-2.2 0-3.8.1-4.8.2v-7.6c1 .1 2.6.2 4.8.2h12.3v-3.4l-.1-1.1c-.6.1-1.9.1-3.9.2s-3.7.2-5.1.2c-1.4.1-2.5.1-3.5.1l-3.1.3-1.5-7c.7-.1 1.7-.4 3-1.1 1.2-.7 2.7-1.7 4.4-3s3.2-2.7 4.5-4.1h-7.4c-2.5 0-4.3.1-5.3.2v-7.7c1.1.1 2.8.1 5.3.1H496c2.5 0 4.3 0 5.3-.1v7.7c-1-.1-2.7-.2-5.3-.2h-7c3.5 3.2 6.2 6 8.4 8.4 2.1 2.4 3.5 4 4.3 5l-6.1 4.4q-1.65-2.55-3.6-4.8c-2.4.2-6.3.5-11.5.7l-.1 1.6v3.4h12.4c2.3 0 3.9-.1 4.9-.2v7.6c-1-.1-2.6-.2-4.9-.2h-12.4v5h17.3zm-5.4-54.9h-40V15h40zm-18.7 23.9 2.8 1.4q-.3.15-1.2.9c-1.5 1.5-3.6 3.2-6.3 5.3 1.2-.1 3.9-.2 8.1-.4s7.3-.4 9.2-.5c-.5-.5-1.7-1.7-3.5-3.4l5-3.3z" class="st0"/></svg>