<!-- Generator: Adobe Illustrator 25.0.0, SVG Export Plug-In  -->
<svg version="1.1" xmlns="http://www.w3.org/2000/svg" xmlns:xlink="http://www.w3.org/1999/xlink" x="0px" y="0px" width="503.5px"
	 height="75.5px" viewBox="0 0 503.5 75.5" style="overflow:visible;enable-background:new 0 0 503.5 75.5;" xml:space="preserve">
<style type="text/css">
	.st0{fill:#FFFFFF;}
</style>
<defs>
</defs>
<g>
	<g>
		<path class="st0" d="M0,70.8c0.7-2.5,1.3-5.4,1.8-8.8s0.7-6.4,0.8-9.2l5.8,1.3c-0.1,3-0.4,6.4-0.8,10.1c-0.5,3.8-1,7.1-1.6,10.1
			C3.9,73,1.9,71.8,0,70.8z M4.4,29.9l-2.5,0.6l-1.7-7.1c0.1-0.1,0.4-0.2,0.7-0.4c0.3-0.2,0.6-0.6,0.9-1.1c1.4-2.3,2.8-4.9,4.3-7.9
			c1.5-3,2.8-5.7,3.8-8c1-2.3,1.7-4.2,2.1-5.5l6.4,4.4c-0.3,0.4-0.6,0.8-0.8,1.2c-0.2,0.4-0.4,0.6-0.4,0.7
			c-3.3,6.6-6.1,11.8-8.5,15.5l6.4-1c2.2-4.3,3.7-7.4,4.4-9.3l6.1,4.3c-0.2,0.2-0.4,0.5-0.7,0.9c-0.3,0.4-0.5,0.8-0.7,1.1
			c-1.4,2.6-2.9,5.4-4.7,8.4s-3.5,5.8-5.2,8.5c-1.7,2.7-3.3,5-4.6,6.9l8-1.7c-0.8-2.8-1.4-4.9-2-6.1l5.3-2.1c0.6,1.5,1.3,3.3,2,5.5
			c0.7,2.2,1.3,4.2,1.8,6.1c0.5,1.9,0.9,3.3,1.1,4.4c-2.3,0.8-4.3,1.5-6.1,2.3l-0.7-3.4c-2,0.5-6.6,1.6-14,3.3L2.2,51l-1.8-7.6
			c0.3-0.1,0.7-0.3,1.1-0.7c0.4-0.3,0.7-0.6,0.9-0.9c2.2-3.1,5-7.4,8.4-13L4.4,29.9z M10.7,53.9L16,53c0.5,2.3,0.9,4.9,1.4,7.9
			c0.4,2.9,0.7,5.5,0.9,7.8c-0.9,0.2-2,0.4-3.4,0.8c-1.4,0.4-2.4,0.6-2.8,0.7c0-2.2,0-4.9-0.3-7.9C11.4,59.2,11.1,56.4,10.7,53.9z
			 M23.1,50.6c0.7,1.7,1.4,3.4,2,5.2c0.6,1.7,1,3.3,1.4,4.7l-5.1,2.6c-0.9-4.3-1.8-7.8-2.8-10.4L23.1,50.6z M56.8,52.4
			c0.8,1.1,1.8,2.3,3,3.6c1.2,1.3,2.5,2.6,4.1,3.9c1.5,1.3,3,2.3,4.5,3.1c-0.6,1.2-1.4,2.7-2.2,4.5c-0.9,1.8-1.4,3.1-1.7,4
			c-2.1-1.4-4.1-3.3-6.1-5.6c-2-2.3-3.6-4.7-5-7.2c-1.4-2.5-2.5-4.8-3.3-6.9c0.3,3.3,0.4,6.5,0.4,9.4l0.1,6.4c0,1.3-0.3,2.4-0.8,3.4
			c-0.5,1-1.3,1.8-2.4,2.5c-1.1,0.7-2.5,1.2-4.2,1.5c-1.7,0.4-3.7,0.5-6.1,0.5l-3.4-8.7c0.5,0.1,1.3,0.2,2.3,0.3
			c1,0.1,2,0.2,2.9,0.2c1.4,0,2.4-0.2,3-0.6c0.6-0.4,0.9-1,0.9-1.8v-3.7V45.8l-0.6,0.3c-0.4,2.7-1.1,5.3-2,7.9c-0.9,2.6-2,5-3.3,7.2
			c-1.2,2.2-2.6,4.2-4.1,6c-1.5,1.8-3.1,3.2-4.7,4.3c-0.8-1.3-2.5-3.6-5-6.9c2.8-1.9,5.2-4.1,7.2-6.6c2-2.5,3.4-5.4,4.4-8.5h-5.1
			l-2.4,0.1v-7.9l2.4,0.1h7.8l0.5-0.7c0.9,0.7,1.9,1.5,2.9,2.4c1,1,1.7,1.6,2,1.9v-9.7H30.1l0.1-2.9V10.5c0-1.4,0-2.4-0.1-2.9h11.5
			c1.1-3.1,1.8-5.5,2-7L52,1.9l-0.7,1.2c-0.1,0.5-0.7,2-1.5,4.4h13.5l-0.1,2.9v22.6l0.1,2.9h-13v2.2c0.5,2.5,1.5,5.2,2.8,8.1
			c2.2-1.9,4-3.5,5.4-5c1.4-1.4,2.4-2.7,3-3.6L67,44L66,44.7C63.4,47.3,60.3,49.8,56.8,52.4z M55.5,14.2H38v4.4h17.5V14.2z M38,24.8
			v4.5h17.5v-4.5H38z"/>
		<path class="st0" d="M205.1,61.6c3.6,0,6-0.1,7.2-0.2v9.8c-1.3-0.1-3.7-0.2-7.2-0.2H154c-3.6,0-6,0.1-7.2,0.2v-9.8
			c1.3,0.1,3.7,0.2,7.2,0.2h19.4V6.1c0-1.5,0-2.9-0.1-4.3c0.4,0,1.2,0,2.3,0c1.1,0,2.4,0.1,3.9,0.2c1.5,0.1,2.6,0.2,3.3,0.2
			c-0.1,1.5-0.1,2.8-0.1,3.8v19.5h21c1.9,0,3.3,0,4.1-0.1V35c-0.8-0.1-2.1-0.1-4.1-0.1h-21v26.8H205.1z"/>
		<path class="st0" d="M339.4,63.1c3.1,0.8,6.5,1.7,10.4,2.9c3.9,1.1,6.9,2.1,9,2.9c-2.3,3.4-3.8,5.6-4.5,6.5c-2.2-0.9-5-2-8.4-3.2
			c-3.4-1.2-6.5-2.3-9.4-3.2c-2.8-0.9-5.1-1.6-6.7-2.1l5.9-3.7h-19.2l5.8,3.6c-2.6,1.5-6.3,3.1-11,4.8c-4.8,1.7-9.3,2.9-13.6,3.8
			l-5.3-7.2c1.8-0.1,4.3-0.4,7.6-0.9c3.2-0.5,6.2-1.1,9-1.9c2.8-0.8,4.8-1.5,6-2.2h-11.3c0.1-1,0.1-2,0.1-2.9V37.8
			c0-0.9,0-1.9-0.1-2.9h44.9l-0.1,2.9v22.3l0.1,2.9H339.4z M294.9,27.7c0.1-0.9,0.1-1.7,0.1-2.4V11.5c0-0.7,0-1.4-0.1-2.3h12.1
			c-1.3-2.5-2.5-4.4-3.5-5.8l7.7-2c0.6,0.9,2,3.5,4.4,7.9h6.4v-7L321.7,0c5,0.2,7.7,0.4,8.1,0.4c-0.1,0.7-0.1,1.3-0.1,1.8v7h6.4
			c0.8-1.3,1.6-2.6,2.4-4.2c0.8-1.5,1.4-2.8,1.7-3.7l8.1,2.5L347.6,5l-2.6,4.3h11.5l-0.1,2.3v13.8l0.1,2.4h-7.8V16h-46v11.7H294.9z
			 M343.1,18.8l-0.1,2v8.8l0.1,2h-34.8c0.1-0.8,0.1-1.4,0.1-2v-8.8c0-0.6,0-1.3-0.1-2H343.1z M340.3,40H312v2.9h28.3V40z
			 M340.3,50.2v-2.7H312v2.7H340.3z M312,54.8V58h28.3v-3.1H312z M316.2,26.6h18.9v-2.7h-18.9V26.6z"/>
		<path class="st0" d="M452.3,22.5v9.8c0,9.3-0.8,17.5-2.4,24.8c-1.6,7.3-3.9,12.7-6.8,16.3c-3.2-3.8-5.3-6.2-6.3-7.3
			c1.6-2.3,3-5.2,4.2-8.7s2.1-7.3,2.7-11.5c0.6-4.3,0.9-8.9,0.9-13.9V5.4l-0.1-2.6h55.7L500,5.2v15l0.1,2.4H452.3z M497.7,65.1
			c2.8,0,4.7,0,5.8-0.1v7.9c-1.1-0.1-3-0.2-5.8-0.2h-41.3c-2.8,0-4.8,0.1-5.8,0.2V65c1.1,0.1,3,0.1,5.8,0.1h15.8v-5h-12.3
			c-2.2,0-3.8,0.1-4.8,0.2v-7.6c1,0.1,2.6,0.2,4.8,0.2h12.3v-3.4l-0.1-1.1c-0.6,0.1-1.9,0.1-3.9,0.2s-3.7,0.2-5.1,0.2
			c-1.4,0.1-2.5,0.1-3.5,0.1l-3.1,0.3l-1.5-7c0.7-0.1,1.7-0.4,3-1.1c1.2-0.7,2.7-1.7,4.4-3c1.7-1.3,3.2-2.7,4.5-4.1h-7.4
			c-2.5,0-4.3,0.1-5.3,0.2v-7.7c1.1,0.1,2.8,0.1,5.3,0.1h36.5c2.5,0,4.3,0,5.3-0.1v7.7c-1-0.1-2.7-0.2-5.3-0.2h-7
			c3.5,3.2,6.2,6,8.4,8.4c2.1,2.4,3.5,4,4.3,5l-6.1,4.4c-1.1-1.7-2.3-3.3-3.6-4.8c-2.4,0.2-6.3,0.5-11.5,0.7l-0.1,1.6v3.4h12.4
			c2.3,0,3.9-0.1,4.9-0.2v7.6c-1-0.1-2.6-0.2-4.9-0.2h-12.4v5H497.7z M492.3,10.2h-40v4.8h40V10.2z M473.6,34.1l2.8,1.4
			c-0.2,0.1-0.6,0.4-1.2,0.9c-1.5,1.5-3.6,3.2-6.3,5.3c1.2-0.1,3.9-0.2,8.1-0.4c4.2-0.2,7.3-0.4,9.2-0.5c-0.5-0.5-1.7-1.7-3.5-3.4
			l5-3.3H473.6z"/>
	</g>
</g>
</svg>
