<!--Generator: Adobe Illustrator 25.0.0, SVG Export Plug-In-->
<svg version="1.1" xmlns="http://www.w3.org/2000/svg" xmlns:xlink="http://www.w3.org/1999/xlink" x="0px" y="0px" width="526.5px" height="283.9px" viewBox="0 0 526.5 283.9" style="overflow:visible;enable-background:new 0 0 526.5 283.9;" xml:space="preserve">
    <style type="text/css">
        .st0{fill:#D00202;}
	.st1{fill:#FFFFFF;}
    </style>
    <defs/>
    <g>
        <g>
            <g>
                <path class="st0" d="M41.3,164.3V83.7c0-3.3,0-8.4,0.1-15.3c0.1-6.9,0.2-13,0.3-18.3c0.1-5.3,0.3-8.8,0.4-10.7h-0.4
				c-3.3,3.6-9.5,9.3-18.7,17.1l-7.4,6.6L0,38.3L44.7,3h29.8v161.3H41.3z"/>
                <path class="st0" d="M171.4,99.9v49.8l0.1,7.2c0,7.1-6.3,10.6-19,10.6c-0.4-1.3-1.2-3.1-2.3-5.6c-1.1-2.4-2-4.5-2.8-6.2
				c3.1,0.5,5.8,0.7,8.2,0.7c1.8,0,3.1-0.2,4-0.7c0.9-0.4,1.3-1.2,1.3-2.1v-4v-7.2h-25.9c-0.8,4.1-1.8,7.8-3,11
				c-1.2,3.2-2.5,6-4,8.4c-1.4,2.4-3,4.4-4.7,6c-0.6-0.8-1.8-2-3.4-3.6c-1.6-1.6-3.4-3.2-5.4-4.8c1.3-1.2,2.6-2.6,3.7-4.2
				c1.2-1.6,2.2-3.4,3.1-5.3c0.9-1.9,1.8-4.3,2.6-7c0.8-2.7,1.4-5.8,1.7-9.3s0.6-6.8,0.6-10V98.3l-0.1-3.4h45.5L171.4,99.9z
				 M136.4,132.8H161v-9.2h-24.3v1C136.7,127.7,136.6,130.5,136.4,132.8z M161,104.8h-24.3v9H161V104.8z"/>
                <path class="st0" d="M240.2,164.3V83.7c0-3.3,0-8.4,0.1-15.3c0.1-6.9,0.2-13,0.3-18.3c0.1-5.3,0.3-8.8,0.4-10.7h-0.4
				c-3.3,3.6-9.5,9.3-18.7,17.1l-7.4,6.6L199,38.3L243.6,3h29.8v161.3H240.2z"/>
                <path class="st0" d="M428.5,111.1c0,8-1.2,15.5-3.6,22.5c-2.4,7-6,13-10.6,18c-4.6,5-10.4,8.9-17.2,11.7
				c-6.8,2.8-14.4,4.2-22.6,4.2c-12.4,0-22.8-3.2-31.3-9.6c-8.5-6.4-14.8-15.5-18.8-27.4c-4-11.8-6-25.5-6-41.1c0-7,0.4-14,1.3-21.2
				c0.9-7.1,2.4-14,4.5-20.6c2.1-6.6,4.9-12.9,8.5-18.7c3.6-5.8,8.1-11,13.5-15.4c5.4-4.4,11.5-7.7,18.3-10
				c6.8-2.2,14.2-3.3,22.2-3.3c5.3,0,11,0.5,16.9,1.4c5.9,0.9,10.9,2.2,15,3.7l-3.2,28.2c-4.2-2-8.7-3.5-13.5-4.6
				c-4.8-1.1-9.3-1.6-13.7-1.6c-5.9,0-11.1,1.1-15.9,3.3c-4.7,2.2-8.7,5.5-11.9,9.7c-3.2,4.3-5.8,9.5-7.5,15.7
				c-1.8,6.2-2.8,13.2-3.1,20.9h0.4c3.4-5.1,8.2-9.2,14.3-12.3c6.1-3.1,12.4-4.6,18.9-4.6c6.7,0,12.9,1.2,18.5,3.5
				c5.6,2.4,10.4,5.8,14.3,10.3c3.9,4.5,7,9.9,9.1,16.3C427.5,96.3,428.5,103.3,428.5,111.1z M396.8,113.2c0-4.1-0.4-7.9-1.2-11.2
				c-0.8-3.4-2.1-6.3-3.8-8.8c-1.7-2.5-3.9-4.4-6.7-5.8c-2.7-1.4-5.9-2-9.5-2c-2.9,0-5.9,0.7-8.8,2c-2.9,1.4-5.5,3.3-7.7,5.8
				c-2.2,2.5-4,5.4-5.3,8.7c-1.3,3.3-2,6.8-2,10.5c0,3,0.4,6.1,1.1,9.4c0.8,3.3,2.2,6.6,4.3,10c2.1,3.4,4.7,5.9,7.9,7.6
				c3.2,1.7,6.4,2.6,9.5,2.6c3.6,0,6.7-0.7,9.5-2.2c2.8-1.5,5.1-3.6,7-6.2c1.8-2.6,3.2-5.7,4.2-9.2
				C396.3,120.7,396.8,117,396.8,113.2z"/>
                <path class="st0" d="M482.3,135.5l-0.1,3c0,5.8-0.1,10.3-0.3,13.7c-0.2,3.4-0.6,6-1.3,8c-0.8,2.3-2.4,4.1-4.8,5.3
				c-2.4,1.2-5.6,1.8-9.7,1.8c-0.1-0.4-0.3-1.1-0.5-2.1c-0.2-1-0.7-2.5-1.2-4.5c-0.6-2-1-3.3-1.1-4c0.5,0.2,1.2,0.3,2,0.5
				c0.8,0.2,1.6,0.3,2.3,0.3c1.1,0,2.2-0.2,3.1-0.5c0.9-0.4,1.7-1.2,2.2-2.4c0.2-0.6,0.4-1.5,0.5-2.7c0.1-1.2,0.3-3.6,0.4-7.2h-14.3
				c0.2-1.1,0.6-3,1.1-5.7c0.5-2.7,1.1-5.9,1.7-9.7h-1l-3.7,0.1v-9.1l3.7,0.1h19l3.8-0.1v9.1l-3.8-0.1h-9.3l-1.1,6.2H482.3z
				 M458.9,117c0.1-0.9,0.1-1.7,0.1-2.6V96.3c0-0.8,0-1.6-0.1-2.6h24c0,0.5-0.1,1.4-0.1,2.6v18.2l0.1,2.6H458.9z M474.8,101.6h-7.6
				v7.4h7.6V101.6z M493.9,133.8c0,7.2-0.6,13.7-1.7,19.5c-1.1,5.8-2.7,10.2-4.8,13.2c-2.3-2.3-4.5-4.3-6.5-6.1
				c1.5-2.6,2.7-6.2,3.6-10.8c0.9-4.6,1.3-9.9,1.3-16.1v-24.4c0-0.8,0-1.7-0.1-2.8h11.8V94.2c0-1.1,0-1.9-0.1-2.3
				c1.1,0,2.7,0,4.8,0.1c2.1,0.1,3.6,0.2,4.5,0.2c0,0.4-0.1,1-0.1,2v1.2h12.8l3.1-0.1v7.7l-3.1-0.1h-12.8v3.4H520l0.6-0.7
				c2.2,1.5,4.1,3.1,5.9,4.9l-0.9,0.4c-0.6,1.8-1.5,3.8-2.5,6c-1,2.2-1.9,4-2.8,5.3c-0.2-0.2-0.7-0.5-1.4-0.9c-0.7-0.4-2-1.1-3.9-2
				l0.3,5.6c-0.7,0-1.7,0.1-3.1,0.3l-4.6,0.7v1.7c0,0.5,0.2,0.9,0.6,1.2c0.6,0.1,1.7,0.2,3.5,0.2c3.7,0,7.4-0.2,11.2-0.7
				c0,0.2-0.1,0.7-0.3,1.4c-0.1,0.7-0.3,1.8-0.5,3.3c-0.2,1.5-0.4,2.6-0.5,3.2c-1.8,0.3-5.2,0.5-10.4,0.5c-2.3,0-4.3-0.1-6.1-0.3
				c-1.7-0.2-3-0.6-3.9-1.4c-0.7-0.6-1.2-1.4-1.5-2.5c-0.2-1-0.4-2.6-0.4-4.7v-0.8l-1.3,0.2c-1.8,0.3-2.8,0.4-3.1,0.5l-0.3-7.6
				l3.2-0.3l1.5-0.2v-3.9l-0.1-1.6l8.5,0.7c-0.1,0.3-0.1,0.8-0.1,1.3v2.4l4.3-0.6l1.5-0.2c0.8-0.9,1.7-2.1,2.6-3.5h-22.1V133.8z
				 M497.3,140.2l-0.1-2.2l8.2,0.4l-0.1,1.8c0,4.3-0.3,8.2-0.9,11.7c-0.6,3.5-1.5,6.5-2.8,9.2c-1.2,2.7-2.7,4.8-4.6,6.4
				c-1.1-1.2-3.4-3.3-6.7-6.5c0.8-0.5,1.6-1.3,2.4-2.3c0.8-1,1.5-2.3,2.2-3.9c0.7-1.6,1.2-3.6,1.7-6
				C497,146.3,497.3,143.5,497.3,140.2z M519,157.1c0.2-1.1,0.4-4.3,0.4-9.5c2,1.3,4,2.6,6.1,3.8c0,4.7-0.3,8-0.9,10.1
				c-0.5,2.1-1.4,3.6-2.6,4.4c-1.2,0.8-2.9,1.3-5,1.3c-1.9,0-3.4-0.1-4.5-0.4c-1.2-0.3-2.1-0.7-2.8-1.4c-0.5-0.5-0.9-1.2-1.2-2.3
				c-0.3-1-0.4-3-0.4-6.1v-17.3c0-0.5,0-1-0.1-1.6l8.5,0.6c-0.1,0.3-0.1,0.8-0.1,1.3v17.6c0,0.1,0,0.3,0.1,0.5
				c0,0.2,0.1,0.3,0.3,0.3c0.1,0.1,0.5,0.2,1.1,0.2S518.8,158.1,519,157.1z"/>
            </g>
        </g>
        <g>
            <g>
                <path class="st1" d="M19.5,279.2c0.7-2.5,1.3-5.4,1.8-8.8s0.7-6.4,0.8-9.2l5.8,1.3c-0.1,3-0.4,6.4-0.8,10.1
				c-0.5,3.8-1,7.1-1.6,10.1C23.4,281.4,21.4,280.2,19.5,279.2z M23.9,238.3l-2.5,0.6l-1.7-7.1c0.1-0.1,0.4-0.2,0.7-0.4
				c0.3-0.2,0.6-0.6,0.9-1.1c1.4-2.3,2.8-4.9,4.3-7.9c1.5-3,2.8-5.7,3.8-8c1-2.3,1.7-4.2,2.1-5.5l6.4,4.4c-0.3,0.4-0.6,0.8-0.8,1.2
				c-0.2,0.4-0.4,0.6-0.4,0.7c-3.3,6.6-6.1,11.8-8.5,15.5l6.4-1c2.2-4.3,3.7-7.4,4.4-9.3l6.1,4.3c-0.2,0.2-0.4,0.5-0.7,0.9
				c-0.3,0.4-0.5,0.8-0.7,1.1c-1.4,2.6-2.9,5.4-4.7,8.4s-3.5,5.8-5.2,8.5c-1.7,2.7-3.3,5-4.6,6.9l8-1.7c-0.8-2.8-1.4-4.9-2-6.1
				l5.3-2.1c0.6,1.5,1.3,3.3,2,5.5c0.7,2.2,1.3,4.2,1.8,6.1c0.5,1.9,0.9,3.3,1.1,4.4c-2.3,0.8-4.3,1.5-6.1,2.3l-0.7-3.4
				c-2,0.5-6.6,1.6-14,3.3l-3.1,0.8l-1.8-7.6c0.3-0.1,0.7-0.3,1.1-0.7c0.4-0.3,0.7-0.6,0.9-0.9c2.2-3.1,5-7.4,8.4-13L23.9,238.3z
				 M30.2,262.3l5.3-0.8c0.5,2.3,0.9,4.9,1.4,7.9c0.4,2.9,0.7,5.5,0.9,7.8c-0.9,0.2-2,0.4-3.4,0.8c-1.4,0.4-2.4,0.6-2.8,0.7
				c0-2.2,0-4.9-0.3-7.9C30.9,267.7,30.6,264.9,30.2,262.3z M42.6,259c0.7,1.7,1.4,3.4,2,5.2c0.6,1.7,1,3.3,1.4,4.7l-5.1,2.6
				c-0.9-4.3-1.8-7.8-2.8-10.4L42.6,259z M76.3,260.8c0.8,1.1,1.8,2.3,3,3.6c1.2,1.3,2.5,2.6,4.1,3.9c1.5,1.3,3,2.3,4.5,3.1
				c-0.6,1.2-1.4,2.7-2.2,4.5c-0.9,1.8-1.4,3.1-1.7,4c-2.1-1.4-4.1-3.3-6.1-5.6c-2-2.3-3.6-4.7-5-7.2c-1.4-2.5-2.5-4.8-3.3-6.9
				c0.3,3.3,0.4,6.5,0.4,9.4L70,276c0,1.3-0.3,2.4-0.8,3.4c-0.5,1-1.3,1.8-2.4,2.5c-1.1,0.7-2.5,1.2-4.2,1.5
				c-1.7,0.4-3.7,0.5-6.1,0.5l-3.4-8.7c0.5,0.1,1.3,0.2,2.3,0.3c1,0.1,2,0.2,2.9,0.2c1.4,0,2.4-0.2,3-0.6c0.6-0.4,0.9-1,0.9-1.8
				v-3.7v-15.4l-0.6,0.3c-0.4,2.7-1.1,5.3-2,7.9c-0.9,2.6-2,5-3.3,7.2c-1.2,2.2-2.6,4.2-4.1,6c-1.5,1.8-3.1,3.2-4.7,4.3
				c-0.8-1.3-2.5-3.6-5-6.9c2.8-1.9,5.2-4.1,7.2-6.6c2-2.5,3.4-5.4,4.4-8.5H49l-2.4,0.1v-7.9l2.4,0.1h7.8l0.5-0.7
				c0.9,0.7,1.9,1.5,2.9,2.4c1,1,1.7,1.6,2,1.9v-9.7H49.6l0.1-2.9v-22.6c0-1.4,0-2.4-0.1-2.9h11.5c1.1-3.1,1.8-5.5,2-7l8.3,1.4
				l-0.7,1.2c-0.1,0.5-0.7,2-1.5,4.4h13.5l-0.1,2.9v22.6l0.1,2.9h-13v2.2c0.5,2.5,1.5,5.2,2.8,8.1c2.2-1.9,4-3.5,5.4-5
				c1.4-1.4,2.4-2.7,3-3.6l5.4,6.4l-0.9,0.7C82.9,255.7,79.8,258.3,76.3,260.8z M74.9,222.6H57.5v4.4h17.5V222.6z M57.5,233.2v4.5
				h17.5v-4.5H57.5z"/>
                <path class="st1" d="M224.6,270.1c3.6,0,6-0.1,7.2-0.2v9.8c-1.3-0.1-3.7-0.2-7.2-0.2h-51.1c-3.6,0-6,0.1-7.2,0.2v-9.8
				c1.3,0.1,3.7,0.2,7.2,0.2h19.4v-55.6c0-1.5,0-2.9-0.1-4.3c0.4,0,1.2,0,2.3,0c1.1,0,2.4,0.1,3.9,0.2c1.5,0.1,2.6,0.2,3.3,0.2
				c-0.1,1.5-0.1,2.8-0.1,3.8V234h21c1.9,0,3.3,0,4.1-0.1v9.5c-0.8-0.1-2.1-0.1-4.1-0.1h-21v26.8H224.6z"/>
                <path class="st1" d="M358.8,271.5c3.1,0.8,6.5,1.7,10.4,2.9c3.9,1.1,6.9,2.1,9,2.9c-2.3,3.4-3.8,5.6-4.5,6.5
				c-2.2-0.9-5-2-8.4-3.2c-3.4-1.2-6.5-2.3-9.4-3.2c-2.8-0.9-5.1-1.6-6.7-2.1l5.9-3.7H336l5.8,3.6c-2.6,1.5-6.3,3.1-11,4.8
				c-4.8,1.7-9.3,2.9-13.6,3.8l-5.3-7.2c1.8-0.1,4.3-0.4,7.6-0.9c3.2-0.5,6.2-1.1,9-1.9c2.8-0.8,4.8-1.5,6-2.2h-11.3
				c0.1-1,0.1-2,0.1-2.9v-22.3c0-0.9,0-1.9-0.1-2.9H368l-0.1,2.9v22.3l0.1,2.9H358.8z M314.3,236.1c0.1-0.9,0.1-1.7,0.1-2.4V220
				c0-0.7,0-1.4-0.1-2.3h12.1c-1.3-2.5-2.5-4.4-3.5-5.8l7.7-2c0.6,0.9,2,3.5,4.4,7.9h6.4v-7l-0.1-2.2c5,0.2,7.7,0.4,8.1,0.4
				c-0.1,0.7-0.1,1.3-0.1,1.8v7h6.4c0.8-1.3,1.6-2.6,2.4-4.2c0.8-1.5,1.4-2.8,1.7-3.7l8.1,2.5l-0.7,1.1l-2.6,4.3H376l-0.1,2.3v13.8
				l0.1,2.4h-7.8v-11.7h-46v11.7H314.3z M362.6,227.3l-0.1,2v8.8l0.1,2h-34.8c0.1-0.8,0.1-1.4,0.1-2v-8.8c0-0.6,0-1.3-0.1-2H362.6z
				 M359.8,248.5h-28.3v2.9h28.3V248.5z M359.8,258.6v-2.7h-28.3v2.7H359.8z M331.5,263.3v3.1h28.3v-3.1H331.5z M335.7,235h18.9
				v-2.7h-18.9V235z"/>
                <path class="st1" d="M471.8,230.9v9.8c0,9.3-0.8,17.5-2.4,24.8c-1.6,7.3-3.9,12.7-6.8,16.3c-3.2-3.8-5.3-6.2-6.3-7.3
				c1.6-2.3,3-5.2,4.2-8.7s2.1-7.3,2.7-11.5c0.6-4.3,0.9-8.9,0.9-13.9v-26.6l-0.1-2.6h55.7l-0.1,2.4v15l0.1,2.4H471.8z M517.2,273.5
				c2.8,0,4.7,0,5.8-0.1v7.9c-1.1-0.1-3-0.2-5.8-0.2H476c-2.8,0-4.8,0.1-5.8,0.2v-7.9c1.1,0.1,3,0.1,5.8,0.1h15.8v-5h-12.3
				c-2.2,0-3.8,0.1-4.8,0.2v-7.6c1,0.1,2.6,0.2,4.8,0.2h12.3v-3.4l-0.1-1.1c-0.6,0.1-1.9,0.1-3.9,0.2s-3.7,0.2-5.1,0.2
				c-1.4,0.1-2.5,0.1-3.5,0.1l-3.1,0.3l-1.5-7c0.7-0.1,1.7-0.4,3-1.1c1.2-0.7,2.7-1.7,4.4-3c1.7-1.3,3.2-2.7,4.5-4.1h-7.4
				c-2.5,0-4.3,0.1-5.3,0.2V235c1.1,0.1,2.8,0.1,5.3,0.1h36.5c2.5,0,4.3,0,5.3-0.1v7.7c-1-0.1-2.7-0.2-5.3-0.2h-7
				c3.5,3.2,6.2,6,8.4,8.4c2.1,2.4,3.5,4,4.3,5l-6.1,4.4c-1.1-1.7-2.3-3.3-3.6-4.8c-2.4,0.2-6.3,0.5-11.5,0.7l-0.1,1.6v3.4h12.4
				c2.3,0,3.9-0.1,4.9-0.2v7.6c-1-0.1-2.6-0.2-4.9-0.2H500v5H517.2z M511.8,218.7h-40v4.8h40V218.7z M493.1,242.6l2.8,1.4
				c-0.2,0.1-0.6,0.4-1.2,0.9c-1.5,1.5-3.6,3.2-6.3,5.3c1.2-0.1,3.9-0.2,8.1-0.4c4.2-0.2,7.3-0.4,9.2-0.5c-0.5-0.5-1.7-1.7-3.5-3.4
				l5-3.3H493.1z"/>
            </g>
        </g>
    </g>
</svg>
