<svg xmlns="http://www.w3.org/2000/svg" xml:space="preserve" width="526.5" height="283.9" style="overflow:visible" viewBox="0 0 526.5 283.9"><style>.st0{fill:#d00202}.st1{fill:#fff}</style><path d="M41.3 164.3V83.7c0-3.3 0-8.4.1-15.3q.15-10.35.3-18.3c.1-5.3.3-8.8.4-10.7h-.4C38.4 43 32.2 48.7 23 56.5l-7.4 6.6L0 38.3 44.7 3h29.8v161.3zM171.4 99.9v49.8l.1 7.2c0 7.1-6.3 10.6-19 10.6-.4-1.3-1.2-3.1-2.3-5.6-1.1-2.4-2-4.5-2.8-6.2 3.1.5 5.8.7 8.2.7 1.8 0 3.1-.2 4-.7.9-.4 1.3-1.2 1.3-2.1v-11.2H135c-.8 4.1-1.8 7.8-3 11s-2.5 6-4 8.4c-1.4 2.4-3 4.4-4.7 6-.6-.8-1.8-2-3.4-3.6q-2.4-2.4-5.4-4.8c1.3-1.2 2.6-2.6 3.7-4.2 1.2-1.6 2.2-3.4 3.1-5.3s1.8-4.3 2.6-7 1.4-5.8 1.7-9.3.6-6.8.6-10V98.3l-.1-3.4h45.5zm-35 32.9H161v-9.2h-24.3v1c0 3.1-.1 5.9-.3 8.2m24.6-28h-24.3v9H161zM240.2 164.3V83.7c0-3.3 0-8.4.1-15.3q.15-10.35.3-18.3c.1-5.3.3-8.8.4-10.7h-.4c-3.3 3.6-9.5 9.3-18.7 17.1l-7.4 6.6L199 38.3 243.6 3h29.8v161.3zM428.5 111.1q0 12-3.6 22.5c-2.4 7-6 13-10.6 18s-10.4 8.9-17.2 11.7-14.4 4.2-22.6 4.2c-12.4 0-22.8-3.2-31.3-9.6s-14.8-15.5-18.8-27.4q-6-17.7-6-41.1c0-7 .4-14 1.3-21.2.9-7.1 2.4-14 4.5-20.6s4.9-12.9 8.5-18.7 8.1-11 13.5-15.4 11.5-7.7 18.3-10Q374.7.2 386.7.2c5.3 0 11 .5 16.9 1.4s10.9 2.2 15 3.7l-3.2 28.2c-4.2-2-8.7-3.5-13.5-4.6s-9.3-1.6-13.7-1.6c-5.9 0-11.1 1.1-15.9 3.3-4.7 2.2-8.7 5.5-11.9 9.7-3.2 4.3-5.8 9.5-7.5 15.7-1.8 6.2-2.8 13.2-3.1 20.9h.4c3.4-5.1 8.2-9.2 14.3-12.3s12.4-4.6 18.9-4.6c6.7 0 12.9 1.2 18.5 3.5 5.6 2.4 10.4 5.8 14.3 10.3s7 9.9 9.1 16.3c2.2 6.2 3.2 13.2 3.2 21m-31.7 2.1c0-4.1-.4-7.9-1.2-11.2-.8-3.4-2.1-6.3-3.8-8.8s-3.9-4.4-6.7-5.8c-2.7-1.4-5.9-2-9.5-2-2.9 0-5.9.7-8.8 2-2.9 1.4-5.5 3.3-7.7 5.8s-4 5.4-5.3 8.7-2 6.8-2 10.5c0 3 .4 6.1 1.1 9.4.8 3.3 2.2 6.6 4.3 10s4.7 5.9 7.9 7.6 6.4 2.6 9.5 2.6c3.6 0 6.7-.7 9.5-2.2s5.1-3.6 7-6.2c1.8-2.6 3.2-5.7 4.2-9.2 1-3.7 1.5-7.4 1.5-11.2M482.3 135.5l-.1 3c0 5.8-.1 10.3-.3 13.7s-.6 6-1.3 8c-.8 2.3-2.4 4.1-4.8 5.3s-5.6 1.8-9.7 1.8c-.1-.4-.3-1.1-.5-2.1s-.7-2.5-1.2-4.5c-.6-2-1-3.3-1.1-4 .5.2 1.2.3 2 .5s1.6.3 2.3.3c1.1 0 2.2-.2 3.1-.5.9-.4 1.7-1.2 2.2-2.4.2-.6.4-1.5.5-2.7s.3-3.6.4-7.2h-14.3c.2-1.1.6-3 1.1-5.7s1.1-5.9 1.7-9.7h-1l-3.7.1v-9.1l3.7.1h19l3.8-.1v9.1l-3.8-.1H471l-1.1 6.2zM458.9 117c.1-.9.1-1.7.1-2.6V96.3c0-.8 0-1.6-.1-2.6h24c0 .5-.1 1.4-.1 2.6v18.2l.1 2.6h-24zm15.9-15.4h-7.6v7.4h7.6zm19.1 32.2c0 7.2-.6 13.7-1.7 19.5q-1.65 8.7-4.8 13.2c-2.3-2.3-4.5-4.3-6.5-6.1q2.25-3.9 3.6-10.8c.9-4.6 1.3-9.9 1.3-16.1v-24.4c0-.8 0-1.7-.1-2.8h11.8V94.2c0-1.1 0-1.9-.1-2.3 1.1 0 2.7 0 4.8.1s3.6.2 4.5.2c0 .4-.1 1-.1 2v1.2h12.8l3.1-.1v7.7l-3.1-.1h-12.8v3.4H520l.6-.7c2.2 1.5 4.1 3.1 5.9 4.9l-.9.4c-.6 1.8-1.5 3.8-2.5 6s-1.9 4-2.8 5.3c-.2-.2-.7-.5-1.4-.9s-2-1.1-3.9-2l.3 5.6c-.7 0-1.7.1-3.1.3l-4.6.7v1.7q0 .75.6 1.2c.6.1 1.7.2 3.5.2 3.7 0 7.4-.2 11.2-.7 0 .2-.1.7-.3 1.4-.1.7-.3 1.8-.5 3.3s-.4 2.6-.5 3.2c-1.8.3-5.2.5-10.4.5-2.3 0-4.3-.1-6.1-.3-1.7-.2-3-.6-3.9-1.4-.7-.6-1.2-1.4-1.5-2.5-.2-1-.4-2.6-.4-4.7v-.8l-1.3.2c-1.8.3-2.8.4-3.1.5l-.3-7.6 3.2-.3 1.5-.2v-3.9l-.1-1.6 8.5.7c-.1.3-.1.8-.1 1.3v2.4l4.3-.6 1.5-.2c.8-.9 1.7-2.1 2.6-3.5h-22.1zm3.4 6.4-.1-2.2 8.2.4-.1 1.8q0 6.45-.9 11.7c-.6 3.5-1.5 6.5-2.8 9.2-1.2 2.7-2.7 4.8-4.6 6.4-1.1-1.2-3.4-3.3-6.7-6.5.8-.5 1.6-1.3 2.4-2.3s1.5-2.3 2.2-3.9 1.2-3.6 1.7-6c.4-2.5.7-5.3.7-8.6m21.7 16.9c.2-1.1.4-4.3.4-9.5 2 1.3 4 2.6 6.1 3.8 0 4.7-.3 8-.9 10.1-.5 2.1-1.4 3.6-2.6 4.4s-2.9 1.3-5 1.3c-1.9 0-3.4-.1-4.5-.4-1.2-.3-2.1-.7-2.8-1.4-.5-.5-.9-1.2-1.2-2.3-.3-1-.4-3-.4-6.1v-17.3c0-.5 0-1-.1-1.6l8.5.6c-.1.3-.1.8-.1 1.3v17.6c0 .1 0 .3.1.5q0 .3.3.3c.1.1.5.2 1.1.2s.9-.5 1.1-1.5" class="st0"/><path d="M19.5 279.2c.7-2.5 1.3-5.4 1.8-8.8s.7-6.4.8-9.2l5.8 1.3c-.1 3-.4 6.4-.8 10.1-.5 3.8-1 7.1-1.6 10.1-2.1-1.3-4.1-2.5-6-3.5m4.4-40.9-2.5.6-1.7-7.1c.1-.1.4-.2.7-.4s.6-.6.9-1.1c1.4-2.3 2.8-4.9 4.3-7.9s2.8-5.7 3.8-8 1.7-4.2 2.1-5.5l6.4 4.4c-.3.4-.6.8-.8 1.2s-.4.6-.4.7c-3.3 6.6-6.1 11.8-8.5 15.5l6.4-1c2.2-4.3 3.7-7.4 4.4-9.3l6.1 4.3c-.2.2-.4.5-.7.9s-.5.8-.7 1.1c-1.4 2.6-2.9 5.4-4.7 8.4s-3.5 5.8-5.2 8.5-3.3 5-4.6 6.9l8-1.7c-.8-2.8-1.4-4.9-2-6.1l5.3-2.1c.6 1.5 1.3 3.3 2 5.5s1.3 4.2 1.8 6.1.9 3.3 1.1 4.4c-2.3.8-4.3 1.5-6.1 2.3l-.7-3.4c-2 .5-6.6 1.6-14 3.3l-3.1.8-1.8-7.6c.3-.1.7-.3 1.1-.7q.6-.45.9-.9c2.2-3.1 5-7.4 8.4-13zm6.3 24 5.3-.8c.5 2.3.9 4.9 1.4 7.9q.6 4.35.9 7.8c-.9.2-2 .4-3.4.8s-2.4.6-2.8.7c0-2.2 0-4.9-.3-7.9-.4-3.1-.7-5.9-1.1-8.5m12.4-3.3c.7 1.7 1.4 3.4 2 5.2.6 1.7 1 3.3 1.4 4.7l-5.1 2.6c-.9-4.3-1.8-7.8-2.8-10.4zm33.7 1.8q1.2 1.65 3 3.6c1.2 1.3 2.5 2.6 4.1 3.9 1.5 1.3 3 2.3 4.5 3.1-.6 1.2-1.4 2.7-2.2 4.5-.9 1.8-1.4 3.1-1.7 4-2.1-1.4-4.1-3.3-6.1-5.6s-3.6-4.7-5-7.2q-2.1-3.75-3.3-6.9c.3 3.3.4 6.5.4 9.4v6.4c0 1.3-.3 2.4-.8 3.4s-1.3 1.8-2.4 2.5q-1.65 1.05-4.2 1.5c-1.7.4-3.7.5-6.1.5l-3.4-8.7c.5.1 1.3.2 2.3.3s2 .2 2.9.2q2.1 0 3-.6t.9-1.8v-19.1l-.6.3c-.4 2.7-1.1 5.3-2 7.9q-1.35 3.9-3.3 7.2c-1.2 2.2-2.6 4.2-4.1 6s-3.1 3.2-4.7 4.3c-.8-1.3-2.5-3.6-5-6.9q4.2-2.85 7.2-6.6c2-2.5 3.4-5.4 4.4-8.5H49l-2.4.1v-7.9l2.4.1h7.8l.5-.7c.9.7 1.9 1.5 2.9 2.4 1 1 1.7 1.6 2 1.9v-9.7H49.6l.1-2.9v-22.6c0-1.4 0-2.4-.1-2.9h11.5c1.1-3.1 1.8-5.5 2-7l8.3 1.4-.7 1.2c-.1.5-.7 2-1.5 4.4h13.5l-.1 2.9v22.6l.1 2.9h-13v2.2c.5 2.5 1.5 5.2 2.8 8.1 2.2-1.9 4-3.5 5.4-5 1.4-1.4 2.4-2.7 3-3.6l5.4 6.4-.9.7c-2.5 2.8-5.6 5.4-9.1 7.9m-1.4-38.2H57.5v4.4H75v-4.4zm-17.4 10.6v4.5H75v-4.5zM224.6 270.1c3.6 0 6-.1 7.2-.2v9.8c-1.3-.1-3.7-.2-7.2-.2h-51.1c-3.6 0-6 .1-7.2.2v-9.8c1.3.1 3.7.2 7.2.2h19.4v-55.6c0-1.5 0-2.9-.1-4.3h2.3c1.1 0 2.4.1 3.9.2s2.6.2 3.3.2c-.1 1.5-.1 2.8-.1 3.8V234h21c1.9 0 3.3 0 4.1-.1v9.5c-.8-.1-2.1-.1-4.1-.1h-21v26.8zM358.8 271.5c3.1.8 6.5 1.7 10.4 2.9 3.9 1.1 6.9 2.1 9 2.9-2.3 3.4-3.8 5.6-4.5 6.5-2.2-.9-5-2-8.4-3.2s-6.5-2.3-9.4-3.2c-2.8-.9-5.1-1.6-6.7-2.1l5.9-3.7H336l5.8 3.6c-2.6 1.5-6.3 3.1-11 4.8-4.8 1.7-9.3 2.9-13.6 3.8l-5.3-7.2c1.8-.1 4.3-.4 7.6-.9 3.2-.5 6.2-1.1 9-1.9s4.8-1.5 6-2.2h-11.3c.1-1 .1-2 .1-2.9v-22.3c0-.9 0-1.9-.1-2.9H368l-.1 2.9v22.3l.1 2.9h-9.2zm-44.5-35.4c.1-.9.1-1.7.1-2.4V220c0-.7 0-1.4-.1-2.3h12.1c-1.3-2.5-2.5-4.4-3.5-5.8l7.7-2c.6.9 2 3.5 4.4 7.9h6.4v-7l-.1-2.2c5 .2 7.7.4 8.1.4-.1.7-.1 1.3-.1 1.8v7h6.4c.8-1.3 1.6-2.6 2.4-4.2.8-1.5 1.4-2.8 1.7-3.7l8.1 2.5-.7 1.1-2.6 4.3H376l-.1 2.3v13.8l.1 2.4h-7.8v-11.7h-46v11.7h-7.9zm48.3-8.8-.1 2v8.8l.1 2h-34.8c.1-.8.1-1.4.1-2v-8.8c0-.6 0-1.3-.1-2zm-2.8 21.2h-28.3v2.9h28.3zm0 10.1v-2.7h-28.3v2.7zm-28.3 4.7v3.1h28.3v-3.1zm4.2-28.3h18.9v-2.7h-18.9zM471.8 230.9v9.8c0 9.3-.8 17.5-2.4 24.8s-3.9 12.7-6.8 16.3c-3.2-3.8-5.3-6.2-6.3-7.3q2.4-3.45 4.2-8.7c1.8-5.25 2.1-7.3 2.7-11.5.6-4.3.9-8.9.9-13.9v-26.6l-.1-2.6h55.7l-.1 2.4v15l.1 2.4h-47.9zm45.4 42.6c2.8 0 4.7 0 5.8-.1v7.9c-1.1-.1-3-.2-5.8-.2H476c-2.8 0-4.8.1-5.8.2v-7.9c1.1.1 3 .1 5.8.1h15.8v-5h-12.3c-2.2 0-3.8.1-4.8.2v-7.6c1 .1 2.6.2 4.8.2h12.3v-3.4l-.1-1.1c-.6.1-1.9.1-3.9.2s-3.7.2-5.1.2c-1.4.1-2.5.1-3.5.1l-3.1.3-1.5-7c.7-.1 1.7-.4 3-1.1 1.2-.7 2.7-1.7 4.4-3s3.2-2.7 4.5-4.1h-7.4c-2.5 0-4.3.1-5.3.2V235c1.1.1 2.8.1 5.3.1h36.5c2.5 0 4.3 0 5.3-.1v7.7c-1-.1-2.7-.2-5.3-.2h-7c3.5 3.2 6.2 6 8.4 8.4 2.1 2.4 3.5 4 4.3 5l-6.1 4.4q-1.65-2.55-3.6-4.8c-2.4.2-6.3.5-11.5.7l-.1 1.6v3.4h12.4c2.3 0 3.9-.1 4.9-.2v7.6c-1-.1-2.6-.2-4.9-.2H500v5h17.2zm-5.4-54.8h-40v4.8h40zm-18.7 23.9 2.8 1.4q-.3.15-1.2.9c-1.5 1.5-3.6 3.2-6.3 5.3 1.2-.1 3.9-.2 8.1-.4s7.3-.4 9.2-.5c-.5-.5-1.7-1.7-3.5-3.4l5-3.3z" class="st1"/></svg>