<svg xmlns="http://www.w3.org/2000/svg" xml:space="preserve" width="468.4" height="41.3" style="overflow:visible" viewBox="0 0 468.4 41.3"><style>.st0{fill:#fff}</style><path d="M31.4 25.1c1.6 0 2.7 0 3.3-.1v3.4c-.6-.1-1.7-.1-3.3-.1h-28c-1.6 0-2.7 0-3.3.1V25c.6.1 1.7.1 3.3.1h7.3c-.4-1.2-.7-2.1-1-2.7H6c.1-.4.1-.8.1-1.1v-5.1c0-.4 0-.7-.1-1.1h22.7v7.3h-3.5l-1.1 2.7zM15.3 7.2H3.7c-1.5 0-2.6 0-3.2.1V3.9c.6.1 1.7.1 3.2.1h11.6V2.3c0-.4 0-.8-.1-1.2.5 0 1.2 0 2 .1.9 0 1.5.1 1.9.1-.1.4-.1.8-.1 1.1V4h11.7c1.5 0 2.6 0 3.2-.1v3.4c-.6-.1-1.7-.1-3.2-.1H19.1v2.4h10.2c1.4 0 2.3 0 2.9-.1v3.3c-.6-.1-1.5-.1-2.9-.1H6.1c-1.4 0-2.3 0-2.9.1V9.5c.6.1 1.5.1 2.9.1h9.2zm15.1 23.4v10.7h-3.9v-1.6H8.2v1.6H4.4c.1-.5.1-.9.1-1.2v-8.2c0-.4 0-.8-.1-1.3zm-22.2 6h18.3v-2.9H8.2zm16.7-19H9.8v2.3h15.1zM13 22.4l.9 2.7h6.9c.4-1.1.8-2 1-2.7zM66.7 19.5c.2 1.6.5 3.4.9 5.1s1 3.6 1.7 5.4 1.6 3.4 2.5 4.7c1 1.3 1.9 2.2 2.9 2.9-1.1 1.4-1.9 2.3-2.2 2.9-.9-.7-1.7-1.6-2.5-2.6-.8-1.1-1.5-2.4-2.3-3.9-.7-1.5-1.4-3.3-2-5.4-.4 1.8-.8 3.5-1.4 5s-1.2 2.7-1.9 3.7-1.3 1.8-1.9 2.3-1 .9-1.4 1.1q-1.05-1.35-2.1-2.4v1.3H45.1V41h-3.3c.1-.5.1-1 .1-1.3V28.8l.1-1.9q-1.2 1.8-2.4 3c-.6-.9-1.2-1.9-1.9-2.8 1-.9 2.1-2.2 3.1-3.8s1.8-3.3 2.3-5.1l2.9.8-.2.4-.9 2.4h4.4c-.1-.3-.6-1.2-1.3-2.8l3-.8c.2.4.5 1 .9 1.7.3.7.6 1.3.8 1.9H58v2.7h-5.7V27h5v2.6h-5v2.3h5v2.6h-5v2.7H57v1c1.2-.8 2.3-1.8 3.2-3.2.9-1.3 1.6-2.9 2.2-4.8s1-4 1.2-6.4c.3-2.4.4-5.1.4-8v-1.4l3 .1v.8c-.2 1.3-.2 2.7-.3 4.2M44.9 7.2h-3.6c-1.1 0-1.9 0-2.4.1V4.1c.5.1 1.3.1 2.4.1h3.6v-3c.8 0 1.8 0 3 .1v6.9c0 .3 0 .7.1 1.1h-3.1l.1-1.1v-1zm3.6 3.3V18h-8.1c.1-.4.1-.8.1-1.1v-5.3c0-.3 0-.6-.1-1.1zM43 15.8h3v-3.1h-3zm6.2 8.6h-4.1v2.5h4.1zm0 7.3v-2.3h-4.1v2.3zm-4.1 2.5v2.7h4.1v-2.7zm5.1-16.3c.1-.4.1-.8.1-1.1v-5.3c0-.3 0-.6-.1-1.1h8.1V15c.9-1.3 1.7-3.1 2.4-5.6.8-2.5 1.3-5.2 1.7-8.1l3 .7-.2.5c-.3 1.7-.6 3.5-1 5.4h7.2l.4-.4c.3.2.7.6 1.2 1s.9.8 1.3 1.2l-.3.1c-.2 1-.4 2.2-.8 3.6-.3 1.4-.8 2.8-1.3 4.3-.5 1.4-1 2.6-1.5 3.5q-.3-.3-1.2-.9c-.6-.4-1.1-.8-1.6-1.1.6-.8 1.1-2 1.7-3.5s1.1-3.1 1.5-4.7h-7.4c-.9 3.1-1.9 5.4-3 7-.2-.3-.5-.7-.9-1.3s-.8-1-1.2-1.4v2.6zm.5-8.5.1-1.1V1.2c.8 0 1.8 0 3 .1v2.8h3.6c1.1 0 1.9 0 2.4-.1v3.3c-.5-.1-1.3-.1-2.4-.1h-3.6v1c0 .3 0 .7.1 1.1h-3.2zm5.1 3.3h-3v3.1h3zM88.4 13.1c-.1.1-.1.3-.2.5-.8 3.7-1.9 7.2-3.2 10.4s-2.7 6-4.2 8.2c-.3-.4-.8-1-1.3-1.6-.6-.6-1.1-1.2-1.5-1.5.5-.6 1-1.4 1.6-2.4s1.2-2.1 1.8-3.5 1.3-3.1 1.9-5c.6-2 1.2-4.1 1.6-6.6zM98 2.5c-.1.6-.1 1.2-.1 1.7v29l.1 3.1c0 .8-.2 1.4-.5 2s-.8 1-1.5 1.4q-1.05.6-2.7.9c-1.1.2-2.5.3-4.1.3-.7-1.6-1.3-3.1-2-4.5 1.3.2 2.6.3 4 .3q1.2 0 2.1-.3t.9-1.2V4.3c0-.6 0-1.2-.1-1.8 1.8-.2 3.1-.1 3.9 0m8.1 8.9c3.8 7.5 6.4 13.6 8 18.3l-3.1 2.6c-.8-2.7-1.9-5.8-3.4-9.3-1.5-3.4-3.1-6.8-4.7-9.9zM130.4 21.3l-3.5 1.1c.4 2.6.6 5.6.6 8.8 0 3-.2 5.1-.5 6.4s-.8 2.1-1.5 2.6-1.6.7-2.9.7h-.8c-.4 0-.9 0-1.3-.1-.6-2.1-1.1-3.5-1.3-4q1.35.3 2.7.3c.7 0 1.1-.1 1.4-.4s.5-.9.7-1.8.2-2.3.2-4.1q0-4.5-.3-7.5l-4.1 1.2-1.8.6-.6-4 2-.4c.7-.1 2-.5 3.9-1-.2-1-.5-2-.9-2.9-.3-.9-.7-1.7-1.2-2.5l1.3-.4c.6-.8 1.3-1.8 2-3s1.3-2.5 1.9-3.8h-8V3.3h9.5l.3-.4c.7.6 1.5 1.5 2.4 2.5-.1.1-.1.1-.2.1s-.2.1-.2.1c-.6 1.6-1.4 3.4-2.4 5.2s-1.9 3.3-2.8 4.5c.1.2.2.6.4 1s.3.9.4 1.4q.15.75.3 1.2c2-.6 3.4-1.1 4.3-1.4zm15.4 9.5c.5.4 1.4 1.1 2.7 2.2s2.8 2.6 4.6 4.4l-2.3 3.1q-.75-.9-2.1-2.4c-.9-.9-1.8-1.9-2.8-2.8s-1.8-1.7-2.5-2.2c-1.9 1.6-3.9 3.1-6 4.3s-4.4 2.2-6.7 2.9q-.75-2.1-1.5-3.6 6.75-2.1 12-6.6c3.5-3 6.3-6.5 8.4-10.6l3 1.8-.3.3q-1.35 2.55-3 4.8c-1.1 1.7-2.3 3.2-3.5 4.4m-7.4-20.9h-5.1c-1.2 0-2 0-2.5.1V6.4c.5.1 1.3.1 2.5.1h7.4c-1-1.9-1.7-3.3-2.3-4.1l3.2-1.4q.6.75 1.5 2.4c.6 1.1 1.1 2.1 1.4 2.8l-.4.2h6.4c1.1 0 1.9 0 2.4-.1V10c-.5-.1-1.3-.1-2.4-.1H142c-.6 1.1-1.2 2.4-2.1 3.8-.8 1.4-1.6 2.6-2.4 3.7 2.2-.2 4.3-.4 6.3-.5q1.65-2.55 3-5.4l3.2 1.7-.3.3c-1.8 3.5-3.6 6.4-5.6 8.9-2 2.4-4.1 4.5-6.2 6-2.1 1.6-4.4 2.8-6.8 3.8-.4-1-.9-2.2-1.7-3.5 2.2-.8 4.3-1.9 6.2-3.3q3-2.1 5.4-4.8c-.6.1-1.9.2-3.9.4s-3.4.4-4.2.5l-.7-3.8c.5-.3 1.1-.8 1.9-1.5.7-.7 1.5-1.6 2.2-2.8.9-1.2 1.6-2.3 2.1-3.5M181 36c3.9 0 7.8-.3 11.6-.9-.1.5-.3 1.2-.5 2.1s-.3 1.6-.4 2.1c-3.1.4-6.6.6-10.7.6-.8 0-1.7-.1-2.6-.2s-1.9-.3-2.8-.6-1.9-.6-2.7-1-1.6-.8-2.2-1.2c-.7-.4-1.3-.9-1.9-1.4s-1.2-1.1-1.9-1.8l-1.1-1.1c-.2-.2-.4-.4-.6-.5s-.4-.1-.6-.1c-.2.1-.4.2-.6.4-.2.1-.3.4-.5.6-.2.3-.4.6-.6 1s-.5.9-.8 1.5c-.3.5-.5 1-.7 1.5s-.4.9-.6 1.4-.4.8-.5 1l-2.9-2.6c1-2.3 2-4.3 3.1-5.8s2-2.6 2.8-3.1c.6-.4 1.1-.5 1.7-.6.6 0 1.1.2 1.6.6l1.1 1.1c2.8-2 5.7-4.6 8.7-7.6 3-3.1 5.4-6 7.2-8.8h-20.1c-1.3 0-2.2 0-2.8.1V8.9c.5.1 1.4.1 2.8.1h10.9c-.7-1-1.5-2-2.2-2.9s-1.3-1.6-1.7-2.1-.7-.8-.9-1l3.1-2.1c.5.5 1.2 1.3 2.2 2.4s2.1 2.4 3.2 3.9L175.4 9h9.8l.4-.4c.6.4 1.1.9 1.7 1.4s1.1 1 1.6 1.4l-.6.3c-1.2 2.2-2.6 4.5-4.5 6.9-1.8 2.4-3.9 4.7-6.4 7.2-2.4 2.4-4.9 4.6-7.3 6.4 3.1 2.5 6.7 3.8 10.9 3.8M213.3 32.9c-.6.5-1.3 1.2-2.2 2.3q-1.5-2.55-3.9-5.7l.1 9.8c0 .8 0 1.3.1 1.6h-3.5c.1-.3.1-.8.1-1.6l.1-10c-.9 1.7-1.9 3.4-3 4.9s-2.2 2.7-3.3 3.5l-1.7-3.5c1.2-.8 2.5-2 3.8-3.5s2.4-3.1 3.2-4.8h-6.2v-3.4h7.2V20l-.1-1.1c.4 0 1 0 1.7.1.8 0 1.3.1 1.7.1-.1.4-.1.7-.1.9v2.5h7.2v3.4H207V27l1-1c.7.7 1.5 1.7 2.5 3 .9 1.3 1.9 2.6 2.8 3.9m-.8-14.6h-16.1v-3.5h10.4c.2-.5.4-1.2.7-2.1s.5-1.8.7-2.5c.2-.8.3-1.3.3-1.6l3 1.1-.3.5c-.1.4-.3 1-.5 1.8s-.6 1.7-.9 2.8h4.9v3.5zm-.5-10h-15.3V5.1h6.9c-.4-.9-.9-1.7-1.5-2.6l2.7-1.7c.2.3.5.7.9 1.4s.9 1.6 1.5 2.8h6.8v3.3c-.4.1-1.1 0-2 0m-10.9 6.4c-.5-1.9-1.1-3.5-1.8-5l2.9-.8c.7 2 1.1 3.3 1.2 3.7s.2.8.3 1.3zm29.1.3h1.8v3.6h-4.2V39l.1 1.9h-3.4c.1-.8.1-1.4.1-1.9V18.5h-4.3c0 1.2 0 2.5-.1 4s-.2 3.1-.5 4.7q-.3 2.4-.9 4.8c-.4 1.6-.9 3.2-1.5 4.6-.6 1.5-1.3 2.7-2.1 3.7-.9-1.1-1.9-2-2.8-3 1.5-2 2.7-4.6 3.5-7.9s1.1-7.2 1.1-11.7V4.5l2 1.1c1.8-.4 3.8-1.1 5.9-1.9q3.15-1.2 4.8-2.4c.7 1.1 1.4 2.1 2 3.3l-.7.2q-5.7 2.7-10.5 3.9V15zM249.6 10.2q-.6 9.75-3 16.8c1.5 1.2 2.7 2.1 3.4 2.9-1.1 2.4-1.8 3.6-1.9 3.9-.3-.4-.7-.8-1.2-1.3s-1.1-1.1-1.8-1.7c-2 4.2-4.5 7.3-7.7 9.4-.3-.7-1-1.8-2.1-3.1 3-2.1 5.3-5 7.1-8.6-1-.8-2-1.6-3.1-2.4s-1.9-1.4-2.6-1.9c.8-2.6 1.5-6 2.3-10.3h-3.1v-3.7h3.7c.6-3.6.9-6.6 1.1-9 .2 0 .6.1 1.3.2s1.2.1 1.6.2.6.1.7.1c-.2.3-.3.7-.3 1-.2 1.8-.6 4.3-1.1 7.5zm-9.2 12.4c.9.6 2 1.4 3.4 2.4 1.1-3.1 1.8-6.8 2.3-11.2h-3.9c-.6 3.3-1.2 6.2-1.8 8.8m29.3-8.3c1.2 1.6 2 2.6 2.6 3.1-.1.9-.2 1.7-.4 2.4s-.4 1.3-.7 1.7-.7.8-1.1 1.1c-.4.2-1 .4-1.5.4-.8 0-1.6-.2-2.3-.5s-1.4-.8-2-1.4-1.1-1.4-1.5-2.2-.8-1.7-1.1-2.7-.5-1.9-.7-2.7l-5.6.1v5.2c2.3-.7 4.3-1.5 6-2.2-.1 2.1-.1 3.3-.1 3.6-1.3.4-2.6.8-4.1 1.2q-2.1.6-3.6 1.2c-.5.2-1 .4-1.6.7l-1.2-3.2c.4-.2.7-.6.9-1.1s.4-1.2.4-1.9v-14l2 .8c2.2-.1 4.5-.4 7-.9s4.5-1 6.2-1.6l2.2 3-1 .2c-2.5.6-4.1 1-5 1.2q.15 2.85.3 4.2l5-.1c.9 0 1.6 0 2-.1l.1 3.6h-2.1l-4.5.1c.5 2 1.1 3.4 1.8 4.4s1.5 1.4 2.3 1.4c.3 0 .5-.2.7-.5s.4-.8.5-1.5c0-.7.1-1.7.1-3m-1 9.7v16.9h-3.3v-1.8h-9.9v1.8h-3.4c.1-.6.1-1.2.1-1.5V25.5c0-.4 0-.9-.1-1.5zm-13.5-13.8 5-.1c-.2-1.2-.3-2.4-.4-3.7-1.7.3-3.2.5-4.6.6zm10.1 17.1h-9.9v2.6h9.9zm-9.8 8.5h9.9V33h-9.9zM285.4 13.1c-.1.1-.1.3-.2.5-.8 3.7-1.9 7.2-3.2 10.4s-2.7 6-4.2 8.2c-.3-.4-.8-1-1.3-1.6-.6-.6-1.1-1.2-1.5-1.5.5-.6 1-1.4 1.6-2.4s1.2-2.1 1.8-3.5 1.3-3.1 1.9-5c.6-2 1.2-4.1 1.6-6.6zm9.5-10.6c-.1.6-.1 1.2-.1 1.7v29l.1 3.1c0 .8-.2 1.4-.5 2s-.8 1-1.5 1.4q-1.05.6-2.7.9c-1.1.2-2.5.3-4.1.3-.7-1.6-1.3-3.1-2-4.5 1.3.2 2.6.3 4 .3q1.2 0 2.1-.3t.9-1.2V4.3c0-.6 0-1.2-.1-1.8 1.8-.2 3.1-.1 3.9 0m8.2 8.9c3.8 7.5 6.4 13.6 8 18.3l-3.1 2.6c-.8-2.7-1.9-5.8-3.4-9.3-1.5-3.4-3.1-6.8-4.7-9.9zM340.1 23.6c.6 1.1 1.3 2.4 2.2 3.8s2.1 2.7 3.5 4 2.9 2.4 4.5 3.2c-.1.2-.4.6-.7 1.1-.4.6-.8 1.4-1.4 2.4-1.1-.7-2.4-1.6-3.7-2.9-1.4-1.2-2.7-2.8-3.9-4.7-1.3-1.9-2.3-3.8-3.1-5.8l-1.1.5c.4 1.4.8 3 1 4.7.3 1.7.4 3.2.4 4.6 0 1.3-.2 2.4-.7 3.2s-1.3 1.5-2.3 1.9c-1.1.4-2.6.7-4.7.7-.6 0-1.2 0-1.9-.1-.1-.3-.2-.9-.5-1.7s-.5-1.5-.7-2.1c.4.1 1 .1 1.7.2s1.2.1 1.6.1c1.4 0 2.5-.2 3-.6s.9-1 .9-1.9c0-.7 0-1.5-.1-2.3s-.2-1.5-.2-2c-1.5 1.3-3.2 2.6-5.3 3.8-2 1.2-4.1 2.3-6.2 3.2s-4.1 1.6-5.8 2.1c-.3-.5-.9-1.6-1.9-3.4 3.6-.9 7-2.2 10.2-3.8s6-3.4 8.3-5.3c-.3-1.1-.6-1.8-.8-2.3-2.3 1.5-4.7 2.9-7.5 4.1q-4.05 1.8-8.1 2.7c-.1-.4-.4-.9-.7-1.6-.4-.7-.7-1.3-.9-1.7 6.4-1.3 11.7-3.4 15.8-6.4-.2-.3-.4-.6-.7-1s-.5-.7-.7-.8c-2.9 1.6-6.9 3-12 4.1-.4-.8-1-1.9-1.9-3.2 3-.4 5.9-1.1 8.8-2 2.8-.9 5.1-1.9 6.9-2.9h-10.5v-3.8c.5.1 1.4.1 2.6.1h17.9c1.2 0 2.1 0 2.6-.1v3.8h-7.7c-.5.4-1.1.8-1.9 1.3q-1.2.75-1.8 1.2c.4.4.9 1.1 1.4 1.9s1 1.7 1.4 2.6l3-1.5c1.2-.6 2.3-1.3 3.5-2.1 1.1-.8 1.9-1.5 2.3-2l2.7 2.8-.9.6c-2.4 1.3-4.3 2.5-5.9 3.3m-24.2-9.1c.1-.5.1-.9.1-1.2v-7c0-.4 0-.8-.1-1.2h14.6c-.6-1.4-1.2-2.6-1.9-3.8l3.8-.5c.7 1.2 1.4 2.6 2.1 4.4h14.2v9.4H345v-6h-25.5v6h-3.6zM360.5 19.9c0 4.5-.4 8.5-1.1 12s-1.8 6.3-3.2 8.3c-1.1-1.2-2-2.3-2.8-3 1.1-2 2-4.4 2.5-7.3s.9-6.3.9-10.1v-13c0-.4 0-.8-.1-1.3h14.7c-.7-1.4-1.5-2.8-2.3-4.1l3.3-1.5c.7 1.1 1.6 2.7 2.7 4.7l-1.9.8H385c1.4 0 2.4 0 3-.1V9c-.6-.1-1.6-.1-3-.1h-24.6v11zm18.2 16.6c5 0 8.8-.1 11.3-.4-.3 1.4-.6 2.6-.8 3.6-2.3.3-5.8.4-10.4.4q-4.2 0-7.2-.9c-2-.6-3.6-1.6-4.9-2.8-.7.9-1.6 1.6-2.6 2.4-1 .7-2 1.3-3.1 1.7-.4-.6-1.2-1.7-2.6-3 1.1-.4 2.2-.9 3.2-1.5s1.9-1.4 2.8-2.3c-.5-.8-1-1.7-1.4-2.8-.4-1-.7-2.1-1-3.3.4-.2 1.4-.8 2.9-1.6.1.9.3 1.8.6 2.6.3.9.6 1.6 1 2.2.5-.9 1-1.8 1.4-3q.6-1.65.9-3.3H365c-.1 0-.7.1-1.8.2l-.9-3.5c.2 0 .6-.3 1.1-.7q.75-.6 1.8-2.1c1.05-1.5 1.4-2.1 2-3.4h-5.1v-3.6h6.9l.4-.5c1 .9 1.9 1.7 2.5 2.4l-.5.3c-1.3 2.4-2.3 4.2-3.1 5.3-.7 1.1-1.2 1.9-1.6 2.3h3l.2-.3c.8.7 1.6 1.4 2.2 2.1l-.4.2c-.3 2.1-.8 4-1.3 5.7s-1.2 3.3-1.9 4.6c1.1 1 2.5 1.7 4.1 2.2 1.8.5 3.8.8 6.1.8m8.5-22.6q-.9.3-2.4.6t-2.4.6V20h5.6v3.5h-5.6v5.6h6.7v3.4h-16.4V29h6.3v-5.6h-5.4V20h5.4v-4.3c-1.8.2-3.4.4-4.9.5-.2-.6-.6-1.8-1.2-3.4 1 0 2.4-.1 4-.3 1.6-.1 3.3-.4 5-.8q2.7-.6 4.2-1.2l1.9 3.1zM425.3 7.3h3.4V11c-.6-.1-1.8-.1-3.4-.1h-12.6c-.5 1.6-.9 3-1.3 4.1h12.1l-.1 2.1v21.8l.1 2h-3.7v-2.3h-16.9v2.3h-3.7c.1-.7.1-1.4.1-2V17c0-.6 0-1.2-.1-2.1h8.4c.4-1 .9-2.3 1.4-4.1h-11.7c-1.6 0-2.8 0-3.4.1V7.2h11c-.7-1.3-1.7-3-3.1-4.9L405 1c1.1 1.7 2.1 3.4 3 5.2l-2.3 1.1h8.3c.3-.5.7-1.2 1.2-2.2s.9-1.8 1.2-2.5.5-1.3.6-1.6l3.7 1.3-.4.5q-1.35 2.7-2.4 4.5zm-5.5 14.5v-3.7h-16.9v3.7zm-16.9 3v3.4h16.9v-3.4zm0 10.5h16.9v-4.1h-16.9zM453.5 36.8c1.6 0 3.9-.1 6.7-.3 2.9-.2 5.6-.5 8.2-.9-.1.4-.2.8-.4 1.4s-.3 1.1-.4 1.7-.2.9-.2 1c-1.7.2-3.9.4-6.8.6s-5.3.3-7.3.3q-2.25 0-4.5-.3t-3.9-.9c-1.1-.4-2.1-.8-2.9-1.3s-1.4-1-1.9-1.5q-.75-.75-1.2-1.5c-.6 1.3-1.3 2.4-2 3.4s-1.5 1.8-2.3 2.5c-.2-.4-.5-.9-1-1.6-.4-.7-.8-1.2-1.2-1.6 1.5-1.3 2.7-2.8 3.7-4.7s1.7-4.2 2.1-7h-2.7c-.6 0-1.1 0-1.3.1l-.6-3c.4-.2.8-.6 1.4-1.3.4-.6.9-1.5 1.5-2.5.5-1.1 1-2.1 1.4-3h-5v-3.5h6.7l.2-.3c1.3 1.1 2.1 1.9 2.6 2.5l-.6.3c-.6 1.3-1.2 2.6-1.9 3.9s-1.4 2.5-2 3.5h1.8l.3-.4c.3.2.6.5 1.1 1l1.3 1.3-.5.3c-.4 2.5-.9 4.7-1.5 6.7.5 1.7 1.9 3 4.2 4 2.3.6 5.3 1.1 8.9 1.1m-12.3-28-2.6 2.4c-.6-1-1.3-2.2-2.2-3.5s-1.7-2.4-2.5-3.2l2.5-2.2c.3.3.7.8 1.3 1.4.6.7 1.2 1.5 1.9 2.4.6 1.1 1.2 2 1.6 2.7m4.4 19.8c-1.2 0-2.1 0-2.6.1v-3.4c.5.1 1.4.1 2.6.1h3.9v-3h-2.7c-1.1 0-1.9 0-2.4.1v-3.3c.5.1 1.3.1 2.4.1h2.7v-1.1l-.1-1.3c.4 0 .9 0 1.7.1s1.3.1 1.6.1l-.1 1.1v1.1h5.1v-1.1l-.1-1.3c.4 0 .9 0 1.7.1s1.3.1 1.6.1l-.1 1.1v1.1h3.1c1.1 0 2 0 2.6-.1v3.3c-.6-.1-1.5-.1-2.6-.1h-3.1v3h4.6c1.2 0 2.1 0 2.6-.1v3.4c-.5-.1-1.4-.1-2.6-.1zm-2.4-16.2V2.6h10.5v8h-1.1l2.6 1.3c-.1.7-.2 1.3-.4 1.9s-.6 1-1.1 1.4-1.1.6-1.9.8-1.7.3-2.8.3c-1.2 0-2.2 0-3-.1s-1.5-.3-1.9-.6c-.3-.2-.5-.6-.6-1-.2-.7-.3-1.3-.3-2.2m2.1 22.4c-.2-.3-.9-1.3-2-2.9.6-.2 1.5-.4 2.5-.8 1-.3 2.1-.8 3.2-1.3s1.9-1 2.5-1.4l2.3 2.2c-.4.3-1.1.8-2.1 1.3s-2.1 1.1-3.5 1.6c-1.4.7-2.4 1.1-2.9 1.3m5.3-29.4h-4.3v2.3h4.3zm.9 7.4c.2-.2.3-.5.4-.9s.2-.9.2-1.4h-5.8v2.2c0 .3.1.5.4.6s1.1.1 2.4.1c.6 0 1.1 0 1.4-.1.4-.1.8-.2 1-.5m1 9.5v3h5.1v-3zm3.5-9.9V2.6h10.5v8h-1.1l2.5 1.3c-.1.7-.2 1.3-.4 1.9s-.6 1-1.1 1.4-1.1.6-1.9.8-1.7.3-2.8.3c-1.2 0-2.2 0-3-.1s-1.5-.3-1.9-.6c-.3-.2-.5-.6-.6-1-.2-.7-.2-1.3-.2-2.2m9.4 22.3c-1.1-.6-2.3-1.3-3.9-2.1-1.5-.7-3-1.4-4.4-1.9l2.3-2.2c1.1.4 2.4.9 4 1.5 1.5.6 2.9 1.3 4 1.8-.5.9-1.2 1.8-2 2.9m-2-29.3h-4.3v2.3h4.3zm.8 7.4c.4-.4.6-1.1.7-2.3h-5.8v2.2c0 .2.1.4.4.6.3.1 1.1.1 2.4.1.6 0 1.1 0 1.4-.1.4-.1.7-.2.9-.5" class="st0"/></svg>