<svg xmlns="http://www.w3.org/2000/svg" xml:space="preserve" width="221.4" height="55.9" style="overflow:visible" viewBox="0 0 221.4 55.9"><style>.st0{fill:#9b9b9b}</style><path d="M102.1 42.5h9.9c1.3 0 2.3 0 2.8-.1v2.9c-.6 0-1.5-.1-2.8-.1H89.5c-1.3 0-2.3 0-2.8.1v-2.9c.5 0 1.5.1 2.8.1H99v-2.6h-6.5v-2.3c-1.8 1.2-3.7 2.2-5.6 2.9-.2-.4-1-1.2-2.3-2.4 1.6-.4 3.2-1.1 5-2s3.2-1.8 4.3-2.8h-8.7v-2.9c.6 0 1.6.1 3 .1h4.5V20.4h-3.5c-1.3 0-2.3 0-2.8.1v-2.9c.5 0 1.5.1 2.8.1h3.5v-2c0-.4 0-.8-.1-1.2.8 0 1.9 0 3.2.1 0 .4-.1.8-.1 1.1v1.9h9.8v-2c0-.4 0-.8-.1-1.2.8 0 1.9 0 3.2.1 0 .4-.1.8-.1 1.1v1.9h3.4c1.4 0 2.3 0 2.8-.1v2.9c-.5 0-1.5-.1-2.8-.1h-3.4v10.2h4.6c1.4 0 2.5 0 3-.1v2.9h-8.9c.5.4 1.3.9 2.2 1.4q1.35.75 3.3 1.5c1.3.5 2.5.9 3.8 1.2-1.1 1.3-1.7 2.1-1.9 2.6-1.9-.6-3.7-1.4-5.4-2.3V40H102v2.5zm-7.7-5.3H99v-1.5c0-.3 0-.6-.1-1 .4 0 .9 0 1.7.1s1.3.1 1.6.1c0 .3-.1.6-.1.9v1.5h6.1q-1.2-.75-2.4-1.8c-.8-.7-1.4-1.3-2-2h-6.5c-.6.7-1.2 1.3-2 2-.7.7-1.5 1.3-2.3 1.8h1.4zm11.2-16.8h-9.8v1.9h9.8zm-9.8 4.1v1.8h9.8v-1.8zm0 4.1v2h9.8v-2zM139.2 24.7q1.5 3 3.9 5.7c1.6 1.9 3.1 3.5 4.7 4.8 1.5 1.3 3 2.4 4.4 3.2-1 1.4-1.6 2.4-1.9 3a34.8 34.8 0 0 1-5.4-4.4 49 49 0 0 1-4.7-5.5c-1.4-1.9-2.5-3.8-3.4-5.8 0 .9.1 2.8.1 5.9s.1 4.8.1 5.4h6.9v3H137v4.3c0 .5 0 1 .1 1.7h-3.5c0-.7.1-1.2.1-1.7V40h-6.5v-3h6.6c0-5.5.1-9.3.2-11.2-.7 1.4-1.6 3.1-2.8 4.9s-2.3 3.4-3.4 4.7q-1.65 1.95-3 3.3c-.9.9-1.6 1.5-2.2 1.9q-.9.6-1.2.9c-.2-.4-.9-1.4-2.2-2.9 2.1-1.2 4.4-3.2 6.7-5.8s4.1-5.3 5.5-8.1h-7.6c-1.5 0-2.5 0-3 .1v-3.2c.6 0 1.6.1 3 .1h10v-6c0-.3 0-.7-.1-1 1.6 0 2.8 0 3.5.1 0 .4-.1.7-.1.9v6h10.7c1.5 0 2.5 0 3-.1v3.2c-.6 0-1.6-.1-3-.1zM154.8 43.3c1.4-.1 2.8-.4 4.4-.7 1.5-.3 2.9-.7 4-1s2-.7 2.5-1l2.7 1.5c-1.3.7-2.9 1.4-5 2.1s-4.2 1.2-6.3 1.7c-.2-.2-.5-.6-1.1-1.3-.7-.7-1.1-1.1-1.2-1.3m2.4-16.5-1.4.7-.7-3 1.5-.5c.9-.3 2.2-.9 4-1.6s3-1.3 3.6-1.6l.2 2.9c-3.3 1.5-5.7 2.5-7.2 3.1m6.6-9-1.4 2.4c-1-.6-2-1.3-3.2-1.9-1.1-.6-2.1-1.1-2.9-1.5l1.4-2.3c1.2.5 2.3 1.1 3.5 1.7s2 1.2 2.6 1.6m6 1.1c-.5.6-1 1.2-1.7 1.7s-1.3 1-1.9 1.4l-2.1-2c1.2-.6 2.3-1.5 3.3-2.6s1.7-2.3 2.2-3.5l2.8.6-.2.3c-.2.5-.5 1-.7 1.5h11.1l.3-.3c1.1.8 2 1.4 2.6 2l-.5.2c-.4.7-1 1.5-1.7 2.4s-1.4 1.6-2.1 2.2c-.3-.3-1.1-.7-2.7-1.4.4-.3.9-.6 1.5-1.1s1-1 1.4-1.4h-5.9v.1l-.1 1.1c.3.6.6 1.1 1 1.6s.9.9 1.5 1.3 1.2.7 1.9.9 1.6.5 2.6.7 2.3.3 3.7.4c-.5 1.1-.8 2-1 2.6-1.8-.2-3.4-.5-4.7-.9s-2.5-.9-3.6-1.5-2-1.4-2.7-2.5c-.8 1.1-1.9 2-3.4 2.7s-3.3 1.3-5.4 1.7h15.6v13.1h-21l.1-1.2V28.4c0-.3 0-.8-.1-1.2h4.1c-.4-.9-.8-1.6-1.2-2.2 1.5-.2 2.9-.5 4.1-.8s2.2-.8 3-1.3 1.4-1.1 1.9-1.8.7-1.4.8-2.3h-2.8zm8.3 12.1v-1.7h-14.8V31zm-14.8 1.9v1.7h14.8v-1.7zm0 5.4h14.8v-2h-14.8zm9.6 3.9 2.7-1.5q2.7.6 10.5 3l-1.9 2.4c-1.6-.6-3.4-1.3-5.6-2.1-2.2-.7-4-1.3-5.7-1.8M204.2 34.6l-2.1 1.6q-1.65-2.85-3.3-4.8l.1 13 .1 1.6h-3.3l.1-1.6c0-1.4 0-3.4.1-5.9 0-2.5.1-4.5.1-6-.7 2-1.5 3.7-2.4 5.3q-1.35 2.4-2.7 3.9c-.1-.3-.3-.8-.7-1.4-.3-.6-.7-1.1-.9-1.5.5-.5 1-1.1 1.5-1.7.5-.7 1-1.4 1.5-2.2s1-1.7 1.6-2.9c.6-1.1 1-2.3 1.4-3.6h-5.2v-2.9h5.9v-9.9c0-.3 0-.7-.1-1.1.8 0 1.9 0 3.1.1 0 .4-.1.7-.1 1v9.9h5.2v2.9h-5.2v2.3l1.7-1.1c1.4 1.8 2.6 3.5 3.6 5m-9.6-11.4-2.4.7c-.2-1-.5-2.2-.8-3.4s-.7-2.3-1-3.3l2.6-.6c.6 2.3 1.1 4.5 1.6 6.6m9.5-5.7c-.3 1.1-.6 2.3-1.1 3.5-.4 1.3-.8 2.3-1.2 3.1l-2.2-1c.4-.9.9-2.1 1.3-3.5s.7-2.6.8-3.4l2.6.9zm15.3 19.2-1.1.1v7l.1 2.2h-3.3l.1-2.2v-6.5l-9.1 1.3c-1.3.2-1.9.3-2 .3l-.2-3c.3 0 1-.1 2.1-.2l9.3-1.3V14.6c.3 0 .9 0 1.6.1.7 0 1.3.1 1.6.1V34l.8-.1c.1 0 .5-.1 1-.2s.9-.1 1.1-.2l.2 3c-.5 0-1.2.1-2.2.2m-6.1-7.7-1.6 2.6c-1.6-1.2-3.5-2.5-5.8-3.7l1.5-2.5c.8.4 1.8 1 3 1.6 1.1.7 2 1.4 2.9 2m.3-8.2-1.6 2.6c-.7-.6-1.7-1.3-2.7-2.1-1.1-.8-2-1.4-2.9-1.8l1.5-2.4q.75.45 2.4 1.5c1.1.7 2.2 1.4 3.3 2.2M60.1 27.4l-9.4-8.8V4.7C50.7 3.2 49.5 2 48 2h-5c-1.5 0-2.7 1.2-2.7 2.7v4L31.5.4c-.5-.5-1.3-.5-1.8 0L.4 27.4c-.5.5-.6 1.3-.1 1.9.3.3.6.4 1 .4.3 0 .6-.1.9-.4l4.2-3.9v27.5c0 1.6 1.3 2.9 2.9 2.9h11.5c1.5 0 2.7-1.2 2.7-2.7V37h11.8v16.1c0 1.5 1.2 2.7 2.7 2.7h13.1c1.6 0 2.9-1.3 2.9-2.9V25.3l4.2 4c.5.5 1.4.5 1.9-.1.6-.5.6-1.3 0-1.8m-17-22.8h5V16l-5-4.8zM51.4 23v30c0 .1-.1.3-.3.3H38V37.1c0-1.5-1.2-2.7-2.7-2.7H23.6c-1.5 0-2.7 1.2-2.7 2.7v16.1H9.4c-.1 0-.3-.1-.3-.3V23L30.7 3.2 51.6 23z" class="st0"/></svg>