<!--Generator: Adobe Illustrator 25.0.0, SVG Export Plug-In-->
<svg version="1.1" xmlns="http://www.w3.org/2000/svg" xmlns:xlink="http://www.w3.org/1999/xlink" x="0px" y="0px" width="221.4px" height="55.9px" viewBox="0 0 221.4 55.9" style="overflow:visible;enable-background:new 0 0 221.4 55.9;" xml:space="preserve">
    <style type="text/css">
        .st0{fill:#9B9B9B;}
    </style>
    <defs/>
    <g>
        <g>
            <path class="st0" d="M102.1,42.5h9.9c1.3,0,2.3,0,2.8-0.1v2.9c-0.6,0-1.5-0.1-2.8-0.1H89.5c-1.3,0-2.3,0-2.8,0.1v-2.9
			c0.5,0,1.5,0.1,2.8,0.1H99v-2.6h-4.5c-0.9,0-1.6,0-2,0v-2.3c-1.8,1.2-3.7,2.2-5.6,2.9c-0.2-0.4-1-1.2-2.3-2.4c1.6-0.4,3.2-1.1,5-2
			s3.2-1.8,4.3-2.8h-5.7c-1.4,0-2.5,0-3,0v-2.9c0.6,0,1.6,0.1,3,0.1h4.5V20.4h-3.5c-1.3,0-2.3,0-2.8,0.1v-2.9c0.5,0,1.5,0.1,2.8,0.1
			h3.5v-2c0-0.4,0-0.8-0.1-1.2c0.8,0,1.9,0,3.2,0.1c0,0.4-0.1,0.8-0.1,1.1v1.9h9.8v-2c0-0.4,0-0.8-0.1-1.2c0.8,0,1.9,0,3.2,0.1
			c0,0.4-0.1,0.8-0.1,1.1v1.9h3.4c1.4,0,2.3,0,2.8-0.1v2.9c-0.5,0-1.5-0.1-2.8-0.1h-3.4v10.2h4.6c1.4,0,2.5,0,3-0.1v2.9
			c-0.6,0-1.6,0-3,0h-5.9c0.5,0.4,1.3,0.9,2.2,1.4c0.9,0.5,2,1,3.3,1.5c1.3,0.5,2.5,0.9,3.8,1.2c-1.1,1.3-1.7,2.1-1.9,2.6
			c-1.9-0.6-3.7-1.4-5.4-2.3V40c-0.4,0-1,0-2,0h-5.2V42.5z M94.4,37.2H99v-1.5c0-0.3,0-0.6-0.1-1c0.4,0,0.9,0,1.7,0.1
			s1.3,0.1,1.6,0.1c0,0.3-0.1,0.6-0.1,0.9v1.5h5.2h0.9c-0.8-0.5-1.6-1.1-2.4-1.8c-0.8-0.7-1.4-1.3-2-2h-6.5c-0.6,0.7-1.2,1.3-2,2
			c-0.7,0.7-1.5,1.3-2.3,1.8H94.4z M105.6,20.4h-9.8v1.9h9.8V20.4z M95.8,24.5v1.8h9.8v-1.8H95.8z M95.8,28.6v2h9.8v-2H95.8z"/>
            <path class="st0" d="M139.2,24.7c1,2,2.3,3.9,3.9,5.7c1.6,1.9,3.1,3.5,4.7,4.8c1.5,1.3,3,2.4,4.4,3.2c-1,1.4-1.6,2.4-1.9,3
			c-1.8-1.2-3.6-2.6-5.4-4.4c-1.7-1.7-3.3-3.6-4.7-5.5c-1.4-1.9-2.5-3.8-3.4-5.8c0,0.9,0.1,2.8,0.1,5.9c0,3.1,0.1,4.8,0.1,5.4h4.9
			c0.9,0,1.6,0,2,0v3c-0.4,0-1.1,0-2,0H137l0,4.3c0,0.5,0,1,0.1,1.7h-3.5c0-0.7,0.1-1.2,0.1-1.7l0-4.3h-4.5c-0.9,0-1.6,0-2,0v-3
			c0.4,0,1.1,0,2,0h4.6c0-5.5,0.1-9.3,0.2-11.2c-0.7,1.4-1.6,3.1-2.8,4.9c-1.2,1.8-2.3,3.4-3.4,4.7c-1.1,1.3-2.1,2.4-3,3.3
			c-0.9,0.9-1.6,1.5-2.2,1.9c-0.6,0.4-1,0.7-1.2,0.9c-0.2-0.4-0.9-1.4-2.2-2.9c2.1-1.2,4.4-3.2,6.7-5.8c2.3-2.6,4.1-5.3,5.5-8.1
			h-7.6c-1.5,0-2.5,0-3,0.1v-3.2c0.6,0,1.6,0.1,3,0.1h10v-6c0-0.3,0-0.7-0.1-1c1.6,0,2.8,0,3.5,0.1c0,0.4-0.1,0.7-0.1,0.9v6h10.7
			c1.5,0,2.5,0,3-0.1v3.2c-0.6,0-1.6-0.1-3-0.1H139.2z"/>
            <path class="st0" d="M154.8,43.3c1.4-0.1,2.8-0.4,4.4-0.7c1.5-0.3,2.9-0.7,4-1c1.1-0.3,2-0.7,2.5-1l2.7,1.5
			c-1.3,0.7-2.9,1.4-5,2.1c-2.1,0.7-4.2,1.2-6.3,1.7c-0.2-0.2-0.5-0.6-1.1-1.3C155.3,43.9,154.9,43.5,154.8,43.3z M157.2,26.8
			l-1.4,0.7l-0.7-3l1.5-0.5c0.9-0.3,2.2-0.9,4-1.6c1.8-0.7,3-1.3,3.6-1.6l0.2,2.9C161.1,25.2,158.7,26.2,157.2,26.8z M163.8,17.8
			l-1.4,2.4c-1-0.6-2-1.3-3.2-1.9c-1.1-0.6-2.1-1.1-2.9-1.5l1.4-2.3c1.2,0.5,2.3,1.1,3.5,1.7S163.2,17.4,163.8,17.8z M169.8,18.9
			c-0.5,0.6-1,1.2-1.7,1.7s-1.3,1-1.9,1.4l-2.1-2c1.2-0.6,2.3-1.5,3.3-2.6s1.7-2.3,2.2-3.5l2.8,0.6l-0.2,0.3c-0.2,0.5-0.5,1-0.7,1.5
			h11.1l0.3-0.3c1.1,0.8,2,1.4,2.6,2l-0.5,0.2c-0.4,0.7-1,1.5-1.7,2.4c-0.7,0.9-1.4,1.6-2.1,2.2c-0.3-0.3-1.1-0.7-2.7-1.4
			c0.4-0.3,0.9-0.6,1.5-1.1s1-1,1.4-1.4h-5.9V19l-0.1,1.1c0.3,0.6,0.6,1.1,1,1.6c0.4,0.5,0.9,0.9,1.5,1.3c0.6,0.4,1.2,0.7,1.9,0.9
			c0.7,0.2,1.6,0.5,2.6,0.7c1,0.2,2.3,0.3,3.7,0.4c-0.5,1.1-0.8,2-1,2.6c-1.8-0.2-3.4-0.5-4.7-0.9s-2.5-0.9-3.6-1.5
			c-1.1-0.6-2-1.4-2.7-2.5c-0.8,1.1-1.9,2-3.4,2.7c-1.5,0.7-3.3,1.3-5.4,1.7h15.6l0,1.2v10.7l0,1.2h-21l0.1-1.2V28.4
			c0-0.3,0-0.8-0.1-1.2h4.1c-0.4-0.9-0.8-1.6-1.2-2.2c1.5-0.2,2.9-0.5,4.1-0.8c1.2-0.3,2.2-0.8,3-1.3c0.8-0.5,1.4-1.1,1.9-1.8
			c0.5-0.7,0.7-1.4,0.8-2.3H169.8z M178.1,31v-1.7h-14.8V31H178.1z M163.3,32.9v1.7h14.8v-1.7H163.3z M163.3,38.3h14.8v-2h-14.8
			V38.3z M172.9,42.2l2.7-1.5c1.8,0.4,5.3,1.4,10.5,3l-1.9,2.4c-1.6-0.6-3.4-1.3-5.6-2.1C176.4,43.3,174.6,42.7,172.9,42.2z"/>
            <path class="st0" d="M204.2,34.6l-2.1,1.6c-1.1-1.9-2.2-3.5-3.3-4.8l0.1,13L199,46h-3.3l0.1-1.6c0-1.4,0-3.4,0.1-5.9
			c0-2.5,0.1-4.5,0.1-6c-0.7,2-1.5,3.7-2.4,5.3c-0.9,1.6-1.8,2.9-2.7,3.9c-0.1-0.3-0.3-0.8-0.7-1.4c-0.3-0.6-0.7-1.1-0.9-1.5
			c0.5-0.5,1-1.1,1.5-1.7c0.5-0.7,1-1.4,1.5-2.2c0.5-0.8,1-1.7,1.6-2.9c0.6-1.1,1-2.3,1.4-3.6h-3.4c-0.8,0-1.4,0-1.8,0v-2.9
			c0.4,0,1,0,1.8,0h4.1v-9.9c0-0.3,0-0.7-0.1-1.1c0.8,0,1.9,0,3.1,0.1c0,0.4-0.1,0.7-0.1,1v9.9h3.4l1.8,0v2.9l-1.8,0h-3.4v2.3
			l1.7-1.1C202,31.4,203.2,33.1,204.2,34.6z M194.6,23.2l-2.4,0.7c-0.2-1-0.5-2.2-0.8-3.4c-0.3-1.2-0.7-2.3-1-3.3l2.6-0.6
			C193.6,18.9,194.1,21.1,194.6,23.2z M204.1,17.5c-0.3,1.1-0.6,2.3-1.1,3.5c-0.4,1.3-0.8,2.3-1.2,3.1l-2.2-1
			c0.4-0.9,0.9-2.1,1.3-3.5c0.4-1.4,0.7-2.6,0.8-3.4l2.6,0.9L204.1,17.5z M219.4,36.7l-1.1,0.1v7l0.1,2.2h-3.3l0.1-2.2v-6.5
			l-9.1,1.3c-1.3,0.2-1.9,0.3-2,0.3l-0.2-3c0.3,0,1-0.1,2.1-0.2l9.3-1.3V16.1c0-0.7,0-1.3,0-1.5c0.3,0,0.9,0,1.6,0.1
			c0.7,0,1.3,0.1,1.6,0.1c0,0.3,0,0.8,0,1.4v17.8l0.8-0.1c0.1,0,0.5-0.1,1-0.2c0.5-0.1,0.9-0.1,1.1-0.2l0.2,3
			C221.1,36.5,220.4,36.6,219.4,36.7z M213.3,29l-1.6,2.6c-1.6-1.2-3.5-2.5-5.8-3.7l1.5-2.5c0.8,0.4,1.8,1,3,1.6
			C211.5,27.7,212.4,28.4,213.3,29z M213.6,20.8l-1.6,2.6c-0.7-0.6-1.7-1.3-2.7-2.1c-1.1-0.8-2-1.4-2.9-1.8l1.5-2.4
			c0.5,0.3,1.3,0.8,2.4,1.5C211.4,19.3,212.5,20,213.6,20.8z"/>
        </g>
    </g>
    <path class="st0" d="M60.1,27.4l-9.4-8.8V4.7c0-1.5-1.2-2.7-2.7-2.7h-5c-1.5,0-2.7,1.2-2.7,2.7v4l-8.8-8.3c-0.5-0.5-1.3-0.5-1.8,0
	l-29.3,27c-0.5,0.5-0.6,1.3-0.1,1.9c0.3,0.3,0.6,0.4,1,0.4c0.3,0,0.6-0.1,0.9-0.4l4.2-3.9v27.5c0,1.6,1.3,2.9,2.9,2.9h11.5
	c1.5,0,2.7-1.2,2.7-2.7l0-16.1l11.8,0v16.1c0,1.5,1.2,2.7,2.7,2.7h13.1c1.6,0,2.9-1.3,2.9-2.9V25.3l4.2,4c0.5,0.5,1.4,0.5,1.9-0.1
	C60.7,28.7,60.7,27.9,60.1,27.4z M43.1,4.6l5,0V16l-5-4.8L43.1,4.6z M51.4,23v30c0,0.1-0.1,0.3-0.3,0.3l-13.1,0V37.1
	c0-1.5-1.2-2.7-2.7-2.7H23.6c-1.5,0-2.7,1.2-2.7,2.7l0,16.1H9.4c-0.1,0-0.3-0.1-0.3-0.3V23L30.7,3.2L51.6,23H51.4z"/>
</svg>
