<!--Generator: Adobe Illustrator 25.0.0, SVG Export Plug-In-->
<svg version="1.1" xmlns="http://www.w3.org/2000/svg" xmlns:xlink="http://www.w3.org/1999/xlink" x="0px" y="0px" width="628.1px" height="98.1px" viewBox="0 0 628.1 98.1" style="overflow:visible;enable-background:new 0 0 628.1 98.1;" xml:space="preserve">
    <style type="text/css">
        .st0{fill:#FFFFFF;}
	.st1{fill:none;stroke:#FFFFFF;stroke-width:4.9664;stroke-miterlimit:10;}
    </style>
    <defs/>
    <g>
        <g>
            <path class="st0" d="M87.8,73.4c3.3,3.3,6.3,6.1,8.9,8.3c-0.3,5-1.6,8.8-3.7,11.4c-2.1,2.6-5.2,3.9-9.3,3.9c-2.9,0-5.9-0.6-9-1.8
			c-3.1-1.2-6-3-8.7-5.5c-7.1,3.5-15.5,6-25.2,7.3c-0.3-0.9-1-2.3-2-4.1c-1-1.8-2.3-4.1-3.9-6.9c9.9-0.9,17.8-2.6,24-5.2
			c-2.2-3.7-4-7.9-5.5-12.8l-20.6,0.3v3.2c6.9-0.6,11.8-1,14.6-1.5c-0.3,3.9-0.4,7-0.4,9.3l-14.2,1.4l0.1,5.7c0,2.6-0.9,4.7-2.6,6.2
			c-1.7,1.6-4.1,2.8-7.3,3.5c-3.2,0.8-7.2,1.1-12.1,1.1c-0.2-0.6-0.6-1.5-1.2-2.8c-0.6-1.3-2-4.2-4.2-8.8c0.8,0.1,2,0.3,3.9,0.4
			c1.8,0.1,3.4,0.2,4.9,0.2c2.2,0,3.7-0.2,4.6-0.7c0.9-0.5,1.4-1.3,1.4-2.4v-1.7c-3.5,0.3-8.1,0.7-13.5,1l-5,0.5
			C1.2,80.9,0.7,77.5,0,73c1.2,0.1,3.3,0.1,6.4,0.1c2.8,0,7.3-0.2,13.6-0.7v-4L9.9,68.6c-3.8,0-7,0.1-9.7,0.3L0.1,58.7
			c0.5,0.1,1,0.1,1.6,0.1c0.6,0,3.3,0,8.1,0L20,58.6v-2.5c-6.9,0.3-12.3,0.4-16,0.3c-0.8-2.7-1.8-5.5-3-8.4
			c3.1,0.1,6.9,0.2,11.5,0.1c4.6-0.1,9.5-0.4,14.8-0.9c5.2-0.5,9.6-1.2,13-1.9l5.7,7.8l-2.5,0.4c-4.7,0.7-8.3,1.2-10.8,1.5v3.4
			l18.3-0.3c-0.5-2.8-0.9-5.9-1.2-9.1c0-0.2,0-0.5-0.1-0.9c-0.1-0.4-0.2-1.1-0.4-2.2c7.7,0.3,11.8,0.6,12.4,0.6l0.1,2.7
			c0.2,3,0.5,5.9,0.9,8.6l13.7-0.2c-1.7-1.2-3.6-2.3-5.5-3.4c-1.9-1.1-3.6-1.9-4.9-2.5l6.6-6.4c3.5,1.3,6.6,2.7,9.2,4
			c2.6,1.4,4.3,2.3,5.1,2.8l-5.1,5.4l3.5-0.1c5.3-0.1,8.5-0.3,9.7-0.4L95,67.3c-2.6-0.1-5.9-0.1-9.7,0l-8.2,0.1l8.4,5.4l-0.8,0.9
			c-1.2,1.7-2.7,3.5-4.3,5.2c-1.6,1.7-3.2,3.2-4.8,4.4c1.2,0.8,2.4,1.4,3.8,1.8c1.4,0.5,2.6,0.7,3.8,0.7c1.5,0,2.6-0.9,3.4-2.7
			C87.4,81.3,87.8,78.1,87.8,73.4z M83.8,45.1H9.7c-4.6,0-7.7,0.1-9.5,0.2v-9.9c1.7,0.1,4.9,0.2,9.5,0.2h30v-4.1H16
			c-3.7,0-6.4,0.1-7.8,0.2V23c1.5,0.1,4.1,0.2,7.8,0.2h23.6v-3.5H13.1c-4.2,0-7.2,0.1-8.7,0.2V10c1.6,0.1,4.5,0.2,8.7,0.2h12.4
			c-1.9-3.2-3.4-5.3-4.3-6.5l12.8-3.5c0.7,1,1.8,2.8,3.4,5.6c1.6,2.8,2.4,4.2,2.4,4.4h14.6c1-1.6,2.1-3.4,3.2-5.4
			c1.1-2,1.8-3.6,2.2-4.8l13.7,4.8l-1.4,1.6c-0.7,1.2-1.5,2.5-2.4,3.9h10.6c4.3,0,7.2-0.1,8.7-0.2v9.9c-1.5-0.1-4.4-0.2-8.7-0.2
			H53.7v3.5h23.3c3.7,0,6.4-0.1,7.9-0.2v8.7c-1.5-0.1-4.2-0.2-7.9-0.2H53.7v4.1h30.1c4.6,0,7.7-0.1,9.5-0.2v9.9
			C91.6,45.2,88.4,45.1,83.8,45.1z M65,67.6c1,2.8,2.1,5.4,3.4,7.7c0.6-0.4,1.6-1.3,3-2.6c1.5-1.3,2.9-3.1,4.4-5.2L65,67.6z"/>
            <path class="st0" d="M201.9,57.6c-1.9,4-3.5,7.7-5,11c-1.9-1.4-3.6-2.7-5.3-4.1c-0.1,8.7-0.3,14.4-0.7,17.2
			c-0.4,2.8-0.9,4.9-1.5,6.4c-1,2.8-3.2,4.9-6.4,6.4c-3.2,1.5-7.5,2.2-12.8,2.2c-0.4-1.9-1.8-6.5-4.1-13.7c0.8,0.3,1.8,0.5,2.8,0.7
			c1,0.2,2,0.3,2.9,0.3c3.4,0,5.6-1.1,6.5-3.3c0.3-0.6,0.5-1.5,0.7-2.7c0.2-1.1,0.3-3.5,0.5-7h-7.3c-0.8,2.4-1.8,4.8-3.1,7.3
			c-1.3,2.5-3.1,5-5.4,7.5s-5.1,4.7-8.3,6.6c-3.2,1.9-6.4,3.4-9.5,4.5c-2.6-3.5-5.5-6.8-8.4-10.1c5.6-1.7,10.2-3.9,13.8-6.4
			c3.6-2.5,6.4-5.7,8.2-9.4h-7.5l-5.4,0.1v-6.4c-1.5,1.2-3.4,2.5-5.7,3.9c-0.1-0.5-0.6-1.6-1.3-3.3c-0.7-1.7-1.6-3.8-2.8-6.1v16.5
			l0.2,10.1c0,3.3-1.3,6-3.9,8.1c-2.6,2.2-6.1,3.2-10.5,3.2l-5.3-13.8c1.8,0.2,3.5,0.3,5,0.3c1,0,1.9-0.1,2.6-0.4c0.7-0.2,1-0.9,1-2
			v-5.5V64.1h-7.7c-0.6,7.6-1.4,14.2-2.7,20c-1.2,5.8-2.7,10.3-4.4,13.6c-0.1-0.2-0.5-0.7-1.2-1.4c-0.7-0.7-3.5-3.4-8.6-8.1
			c2.2-4.2,3.8-9.9,4.9-16.9c1.1-7,1.7-16,1.7-26.8V6.9l-0.2-3.3h29.3l-0.2,5.6v47.1c2.3-1,4.5-2.5,6.7-4.4c2.2-1.9,4.1-4,5.8-6.2
			h-2.5c-3.4,0-5.8,0-7.2,0.1V34.1c1.4,0.1,3.8,0.1,7.2,0.1h8.5c0.8-2.3,1.6-4.5,2.2-6.7h-9.1c-3.3,0-5.5,0-6.8,0.1V16.5
			c1,0.1,2.9,0.1,5.6,0.1c-1.3-3-3-6.4-5-10.1L153.1,3c0.9,1.5,1.9,3.4,3.1,5.8c1.2,2.4,2.2,4.6,2.9,6.6l-3.2,1.1h5.1
			c0.8-4.4,1.3-9.7,1.4-15.8l12,1.2l-0.4,1.1c-0.1,1.7-0.4,4-0.7,6.8c-0.3,2.8-0.6,5-0.9,6.6h5c1.1-1.9,2.2-4.2,3.3-6.9
			c1.1-2.6,1.9-4.9,2.3-6.9L194.2,7l-0.7,1.2c-0.5,1-1.2,2.4-2.1,4.2c-0.9,1.7-1.7,3.1-2.3,4.2h1.2c3.3,0,5.5,0,6.8-0.1v11.1
			c-1.2-0.1-3.5-0.1-6.8-0.1h-22c-0.3,1.5-0.8,3.7-1.7,6.7h25.6c3.5,0,5.9,0,7.2-0.1v11.7c-1.3-0.1-3.7-0.1-7.2-0.1h-3.5
			c1.5,2,3.4,4.1,5.7,6.2C196.8,54,199.3,55.9,201.9,57.6z M118.7,52.4h7.2V39.8h-7.1v5.1L118.7,52.4z M125.9,15.9h-7.1V28h7.1V15.9
			z M174.4,59.7h12c-1.9-1.9-3.6-4.1-5.3-6.5c-1.6-2.4-3.1-4.9-4.4-7.6H162c-0.9,1.9-2.2,4-3.7,6.5c-1.6,2.4-3.6,5-6.1,7.6h10
			c0.2-2.1,0.3-4.3,0.3-6.7l-0.1-3.2l12.7,0.4c-0.2,1-0.3,1.8-0.3,2.4C174.7,55,174.6,57.4,174.4,59.7z"/>
            <path class="st0" d="M294,61.9h-31.9l-0.9,4.8h33.4l-0.2,4.2c-0.1,5.8-0.3,9.9-0.8,12.3c-0.5,2.4-1.1,4.3-1.9,5.6
			c-0.9,1.7-2.3,3.2-4.2,4.4c-1.9,1.2-4.5,2.2-7.9,3c-3.3,0.8-7.6,1.1-12.9,1.1c-0.6-2.1-2.1-6.4-4.4-13c2.6,0.7,5.3,1,8,1
			c1.7,0,3.4-0.2,5-0.5c1.6-0.3,2.8-1.1,3.6-2.3c0.6-0.9,0.9-2.6,1.1-5.1H257c-2.6,4.7-6,8.8-10.2,12.2c-4.2,3.4-9,6.1-14.5,8
			c-0.9-2-3.5-6-7.9-12c4.4-1.2,8.5-3,12-5.5c3.6-2.5,6.4-5.3,8.5-8.4c2.1-3.1,3.6-6.4,4.3-9.9h-16.6h-2.8c-0.3,3.7-1,7.6-2,11.8
			c-1,4.2-2.4,8.3-4.4,12.3c-2,4-4.4,7.3-7.1,10c-1.7-2.5-5.2-6.5-10.4-12.1c1.5-1.6,3-3.5,4.3-5.7c1.4-2.2,2.5-4.6,3.4-7.2
			c0.9-2.6,1.6-5.6,2.1-9.1c0.5-3.4,0.8-7.2,0.8-11.3V10.1c0-4,0-6.3-0.1-6.9l8.9,2.9c5.4,0.1,12.2,0,20.4-0.2
			c8.2-0.2,16.7-0.7,25.5-1.4c8.8-0.7,16-1.6,21.7-2.6c3.3,4.1,6.5,8.2,9.4,12.2c-1.3,0-2.7,0.1-4.1,0.2
			c-24.6,2.1-47.2,3.2-67.8,3.4v3.1h66l-0.1,3.2v18.6l0.1,3.2h-28.6l3.1,5.3h23c4.1,0,6.9-0.1,8.4-0.2V62
			C300.9,61.9,298.1,61.9,294,61.9z M282.4,35.9v-5h-52v5H282.4z M230.4,51.3h2.5h22.2L252,46h-21.6v5.1V51.3z"/>
            <path class="st0" d="M332.4,30v11.8c0,12.1-1.1,22.9-3.4,32.3c-2.3,9.5-5.5,16.6-9.6,21.4c-2.2-2.6-5.6-6.4-10.2-11.2
			c2.2-3,4-6.6,5.5-10.9c1.5-4.3,2.6-9.1,3.4-14.4c0.8-5.3,1.2-11.2,1.2-17.7V7.5l-0.2-3.9h81.4c-0.1,0.6-0.1,1.7-0.1,3.2v19.9
			l0.1,3.2H332.4z M396.4,82.9c4.1,0,6.9-0.1,8.5-0.2v11.5c-1.6-0.1-4.4-0.2-8.5-0.2h-58.6c-4.2,0-7,0.1-8.6,0.2V82.7
			c1.6,0.1,4.5,0.2,8.6,0.2h21.7v-5.4h-16.9c-3.4,0-5.8,0.1-7.2,0.2V67.1c1.4,0.1,3.8,0.2,7.2,0.2h16.9v-4v-0.9l-16.6,0.7l-4.7,0.3
			l-2.4-10c1.4-0.1,3.3-0.9,5.7-2.2c2.4-1.4,5.2-3.5,8.4-6.3h-7.2c-3.8,0-6.5,0.1-7.9,0.2V34.3c1.5,0.1,4.1,0.1,7.9,0.1h51.7
			c3.8,0,6.5,0,7.9-0.1v10.8c-1.5-0.1-4.1-0.2-7.9-0.2h-6.7c6,5.3,11.1,10.3,15.1,15l-10.3,6.5c-0.6-0.9-1.9-2.7-4.2-5.5
			c-4.5,0.3-9.4,0.6-14.7,0.8l-0.1,1.7v4h16.9c3.4,0,5.8-0.1,7.2-0.2v10.6c-1.4-0.1-3.8-0.2-7.2-0.2h-16.9v5.4H396.4z M387.5,14.3
			h-55.1v5.1h55.1V14.3z M364.5,44.9l2.2,1c-0.6,0.3-1,0.6-1.5,1c-1.4,1.3-3.7,3.2-6.9,5.7c4.6-0.1,11.7-0.5,21.3-0.9l-5.4-5
			l3.5-1.9H364.5z"/>
        </g>
        <g>
            <g>
                <path class="st0" d="M505.3,32.3c1.6,0,2.6,0,3.3-0.1v3.5c-0.7-0.1-1.8-0.1-3.5-0.1h-4.3V36l0.1,2.7c0,0.7-0.2,1.2-0.5,1.7
				c-0.3,0.5-0.8,0.9-1.5,1.2c-0.7,0.3-1.6,0.6-2.8,0.8s-2.6,0.3-4.2,0.3c-0.1-0.3-0.4-0.8-0.7-1.5c-0.4-0.7-0.8-1.5-1.3-2.4
				c1.4,0.2,2.7,0.3,3.9,0.3c0.9,0,1.6-0.1,2.1-0.3c0.5-0.2,0.8-0.5,0.8-1V36v-0.5h-12.9c0.8,0.3,1.8,0.6,2.8,1
				c1,0.4,1.9,0.8,2.6,1.1l-2,2.8c-0.8-0.6-1.9-1.2-3.3-1.8c-1.4-0.6-2.6-1.1-3.6-1.4l1.3-1.8h-4.4c-1.6,0-2.8,0-3.4,0.1v-3.5
				c0.7,0.1,1.8,0.1,3.4,0.1h19.5v-0.7l-0.1-1c0.5,0,1.2,0,2.2,0.1c1,0,1.7,0.1,2.1,0.1c-0.1,0.3-0.1,0.6-0.1,0.9v0.6h4.1
				c-0.4-0.6-0.9-1.4-1.7-2.3c-1.7,0.1-4.1,0.2-7.2,0.3s-6.6,0.2-10.5,0.3c-3.8,0.1-6.8,0.2-8.9,0.2l-2,0.1l-0.3-3.4l2.5,0.2
				c2.2,0.1,6.3,0.1,12.4,0v-1.7h-10.9c0.1-0.4,0.1-0.8,0.1-1.2v-8.8c0-0.3,0-0.8-0.1-1.2h10.9v-1.7h-11.9c-1.6,0-2.7,0-3.3,0.1V9.6
				c0.6,0.1,1.7,0.1,3.3,0.1h11.9V8.5c0-0.4,0-0.9-0.1-1.5c0.5,0,1.2,0,2.2,0.1c1,0,1.6,0.1,2,0.1c-0.1,0.5-0.1,1-0.1,1.3v1.2h11.4
				c1.6,0,2.7,0,3.3-0.1v3.2c-0.7-0.1-1.8-0.1-3.3-0.1h-11.4v1.7h10.9l0,1.2v8.8l0,1c0.6,0.6,1.3,1.3,2.1,2.2c0.8,0.8,1.4,1.6,2,2.3
				L505.3,32.3z M489.3,17.2h-7v1.7h7V17.2z M482.3,23.2h7v-1.8h-7V23.2z M500.3,17.2h-7v1.7h7V17.2z M500.3,23.2v-1.8h-7v1.8H500.3
				z M493.3,27.5l7.7-0.2c-0.7-0.7-1.1-1.2-1.4-1.4h-6.3V27.5z"/>
                <path class="st0" d="M521.8,15.4c-0.8,0.9-1.8,1.8-3,2.5s-2.6,1.3-4.1,1.8l-1.6-2.8c1-0.3,1.9-0.6,2.8-1c0.9-0.4,1.7-0.9,2.3-1.5
				c0.6-0.5,1.1-1.1,1.4-1.8c0.3-0.7,0.5-1.4,0.5-2.2V8l-0.1-0.9c0.2,0,0.5,0,1.1,0c0.5,0,1,0,1.5,0.1s0.8,0.1,0.9,0.1
				c-0.1,0.3-0.1,0.5-0.1,0.8v2.6c0,0.6-0.1,1.2-0.2,1.9c2.5,1.4,4.5,2.6,6.1,3.8c-0.7,0.8-1.5,1.8-2.2,2.7
				C526.1,18.2,524.4,16.9,521.8,15.4z M518.9,9.2c-0.3,0.8-0.7,1.7-1.1,2.5c-0.4,0.8-0.8,1.5-1.2,2l-2.8-1.1c0.5-0.6,1-1.3,1.4-2.2
				c0.4-0.8,0.8-1.6,1-2.3l3,0.7L518.9,9.2z M547.3,19.7c0,0.2,0,0.6,0,1v5.4l0,1.1h-4.1v-4.6h-25.1v4.6H514
				c0.1-0.4,0.1-0.8,0.1-1.1v-5.4c0-0.3,0-0.7-0.1-1H547.3z M544.1,33.4c0,0.2,0,0.6,0,1.1v7.1l0,1.2H540v-1.5h-18.8v1.5h-4.1
				c0.1-0.4,0.1-0.8,0.1-1.2v-7.1c0-0.3,0-0.7-0.1-1.1h9.9c0.4-0.6,0.8-1.3,1.2-2h-7.7c0.1-0.4,0.1-0.7,0.1-1V25c0-0.3,0-0.7-0.1-1
				h20.1c0,0.2,0,0.6,0,1v5.4l0,1h-8c-0.3,0.6-0.8,1.2-1.3,2H544.1z M521.2,38.6H540v-2.4h-18.8V38.6z M524.5,26.7v2.2h12.2v-2.2
				H524.5z M529.7,9.7c-0.1,0.2-0.4,0.7-0.8,1.4s-0.7,1.3-0.9,1.7c-0.2,0.4-0.4,0.7-0.5,0.9l-2.6-1.2c0.3-0.4,0.7-1.1,1.1-2.1
				c0.4-0.9,0.8-1.6,0.9-2.1l2.9,0.9L529.7,9.7z M539.1,15.5c-0.8,0.9-1.8,1.7-3,2.4c-1.2,0.7-2.6,1.2-4,1.6l-1.6-2.8
				c1.5-0.4,2.8-0.9,3.9-1.5s1.9-1.3,2.5-2.2c0.6-0.8,0.8-1.7,0.8-2.6V8l-0.1-0.9c0.2,0,0.5,0,1.1,0c0.5,0,1,0,1.5,0.1
				c0.4,0,0.7,0.1,0.9,0.1C541,7.5,541,7.8,541,8.1v2.6c0,0.3,0,0.6-0.1,1c-0.1,0.4-0.1,0.8-0.2,1c1.1,0.6,2.3,1.2,3.5,1.9
				c1.2,0.7,2.3,1.3,3.2,2c-0.6,0.8-1.4,1.8-2.3,2.9c-0.7-0.6-1.5-1.2-2.7-2C541.3,16.8,540.2,16.1,539.1,15.5z M535.7,9.2
				c-0.1,0.7-0.3,1.5-0.6,2.3c-0.3,0.8-0.6,1.5-0.9,2l-2.8-0.9c0.3-0.5,0.7-1.2,1-2.1s0.6-1.6,0.6-2.2l2.9,0.6L535.7,9.2z
				 M547.1,9.5c-0.2,0.4-0.5,1.1-0.9,1.9c-0.4,0.8-0.8,1.5-1.2,2.1c-0.3-0.2-1.2-0.5-2.6-1.1c0.2-0.3,0.4-0.7,0.7-1.1
				c0.3-0.5,0.5-1,0.8-1.6c0.3-0.6,0.5-1,0.6-1.3l2.8,0.9L547.1,9.5z"/>
                <path class="st0" d="M586.2,11v29.1c0,0.7,0,1.5,0.1,2.5H582c0.1-0.9,0.1-1.7,0.1-2.4c-7.9,0.4-17.4,0.7-28.3,0.7
				c0.1-0.8,0.1-1.6,0.1-2.2V10.9c0-0.5,0-1-0.1-1.7c0.5,0,1.2,0,2.2,0.1c1,0,1.7,0.1,2.1,0.1c-0.1,0.3-0.1,0.8-0.1,1.5v25.9
				c8.5,0,16.6-0.2,24.1-0.7V11c0-0.6,0-1.2-0.1-1.9c0.5,0,1.2,0,2.2,0.1c1,0,1.7,0.1,2.1,0.1C586.2,9.7,586.2,10.2,586.2,11z
				 M558.8,31.7c3.6-2.5,6.7-5.5,9.4-9.2c-0.5-0.4-1.5-1.2-2.9-2.4c-1.4-1.2-3-2.3-4.7-3.4l2.5-3.5c2.2,1.5,4.7,3.4,7.5,5.7
				c1-1.6,1.9-3.2,2.6-5c0.8-1.8,1.4-3.5,1.9-5.3c0.6,0.3,1.9,0.9,3.9,2l-0.2,0.4c-0.6,1.8-1.4,3.7-2.2,5.4
				c-0.8,1.8-1.8,3.5-2.8,5.1c2.8,2.4,5,4.4,6.5,5.9l-2.3,4c-2.1-2.1-4.3-4.2-6.7-6.3c-2.9,3.8-6.1,7-9.8,9.6
				c-0.2-0.2-0.5-0.7-1-1.2C560.2,33,559.5,32.4,558.8,31.7z"/>
                <path class="st0" d="M620.3,37.6c0.3-0.3,0.6-0.7,0.8-1.1c0.2-0.5,0.3-1.1,0.4-1.8c0.1-0.7,0.1-1.4,0.1-2.1
				c0.4,0.3,0.9,0.6,1.5,0.9c0.6,0.3,1,0.6,1.4,0.8s0.7,0.4,1,0.5c-0.1,1.2-0.3,2.3-0.6,3.2c-0.3,0.9-0.8,1.7-1.5,2.3
				s-1.7,1.1-2.9,1.5c-1.3,0.3-3,0.5-5.3,0.5c-2.2,0-3.9-0.1-5.1-0.2c-1.2-0.1-2-0.4-2.6-0.8c-0.5-0.4-0.9-0.9-1.1-1.7
				c-0.2-0.7-0.4-1.7-0.4-3l0-4.9l-9.5,1.1c-2.1,0.3-3.3,0.5-3.5,0.5l-0.2-4c0.9,0,2.1-0.1,3.5-0.4L606,28v-4.7
				c-2.7,0.4-5.2,0.6-7.7,0.8l-1.3-3.3h-4c0.1-0.4,0.1-0.8,0.1-1.2v-7.2c0-0.3,0-0.7-0.1-1.1h15.4c-0.6-1.3-1.2-2.3-1.7-3.2l3.7-1.5
				c0.3,0.4,0.6,1,1,1.8c0.4,0.8,0.9,1.8,1.5,2.9h13.3c0,0.2,0,0.6,0,1.1v7.2l0,1.2H622v-5.9h-24.9v5.5c3.5-0.1,7.1-0.5,10.9-1.1
				s6.8-1.4,9-2.3l2.6,3.3l-1.1,0.2c-0.5,0.2-1.5,0.4-3,0.8c-1.5,0.4-3.3,0.8-5.4,1.2v4.9l12.8-1.6c1.4-0.2,2.6-0.3,3.5-0.5l0.3,4
				c-0.2,0-0.4,0-0.7,0c-0.2,0-1.2,0.1-2.9,0.3l-13.1,1.6v5.5c0,0.8,0.4,1.4,1.1,1.6c0.8,0.1,2.2,0.2,4.3,0.2c1.2,0,2.2-0.1,3-0.2
				C619.3,38.2,619.9,38,620.3,37.6z"/>
                <path class="st0" d="M481.5,63.2v24.9c0,0.6,0,1.4,0.1,2.3h-4.3c0.1-0.9,0.1-1.7,0.1-2.3c0-2,0.1-4.9,0.2-8.5
				c0.1-3.6,0.2-7,0.4-10.1c-0.6,1-1.2,1.9-1.8,2.9c-0.6,0.9-1.2,1.7-1.8,2.3c-0.6-1.6-1.1-3-1.8-4.2c0.9-1,1.9-2.4,3-4.2
				c1-1.8,2-3.7,3-5.9s1.6-4.2,2.1-5.9l3.8,1.5c-0.1,0.1-0.1,0.2-0.2,0.3C483.2,58.8,482.4,61.2,481.5,63.2z M506.3,85.4
				c1.3,0,2.2,0,2.7-0.1V89c-0.6-0.1-1.5-0.1-2.7-0.1h-20.4c-1.4,0-2.4,0-2.9,0.1v-3.7c0.6,0.1,1.5,0.1,2.9,0.1h0.6v-20
				c0-0.6,0-1.2-0.1-2h7l0.2-2.2h-7.1c-1.3,0-2.2,0-2.7,0.1v-3.6c0.5,0.1,1.4,0.1,2.7,0.1h7.3l0.2-2.4c0-0.4,0-0.6,0-0.8l4,0.3
				c-0.1,0.1-0.1,0.2-0.1,0.4l-0.2,2.5h7.9c1.2,0,2.1,0,2.6-0.1v3.6c-0.5-0.1-1.4-0.1-2.6-0.1h-8.1c-0.1,1-0.1,1.8-0.2,2.2h8.1
				l-0.1,2v20H506.3z M501.4,67h-11v2.3h11V67z M501.4,74.6v-2.3h-11v2.3H501.4z M490.4,77.7v2.3h11v-2.3H490.4z M490.4,83v2.4h11
				V83H490.4z"/>
                <path class="st0" d="M521,70.5v17.8c0,0.9,0,1.5,0.1,1.8h-4c0.1-0.3,0.1-0.9,0.1-1.8c0-0.1,0-0.3,0-0.6c0-0.3,0-1.7,0.1-4.1
				c0-2.4,0.1-5.4,0.2-8.9c-1.4,1.6-2.6,2.7-3.6,3.4c-0.1-0.4-0.4-1-0.8-1.8c-0.4-0.8-0.7-1.4-1-1.9c1.8-1.2,3.6-3,5.4-5.2
				s3.1-4.2,3.8-5.9l3.2,2.1l-0.4,0.4C523.3,67.3,522.2,68.9,521,70.5z M523.8,56.8c-0.6,0.8-1.4,1.8-2.4,3c-1,1.2-2.2,2.3-3.5,3.5
				c-1.3,1.2-2.5,2-3.4,2.5c-0.1-0.2-0.3-0.6-0.7-1.2c-0.4-0.6-0.8-1.3-1.4-2.1c1.6-0.9,3.3-2.2,5.1-4c1.8-1.7,3-3.2,3.6-4.3
				l3.1,2.2L523.8,56.8z M545.9,76.4c1.3,0,2.2,0,2.7-0.1v3.4c-0.5-0.1-1.4-0.1-2.7-0.1h-2.5v3.8l0.1,2.8c0,1-0.3,1.7-0.9,2.3
				c-0.6,0.6-1.6,1-2.8,1.2c-1.2,0.3-2.8,0.4-4.7,0.4c-0.3-0.7-1-2-1.9-3.9c1.3,0.2,2.5,0.3,3.7,0.3c1,0,1.7-0.1,2.1-0.3
				c0.4-0.2,0.6-0.5,0.6-0.9v-1.8v-3.8h-13.3c-1.3,0-2.2,0-2.7,0.1v-3.4c0.5,0.1,1.4,0.1,2.7,0.1h13.3v-2.6h-13
				c-1.3,0-2.2,0-2.7,0.1v-3.4c0.5,0.1,1.4,0.1,2.7,0.1h19.1c1.3,0,2.2,0,2.7-0.1v3.4c-0.5-0.1-1.4-0.1-2.7-0.1h-2.2v2.6H545.9z
				 M528.9,79.9c2,1.2,3.9,2.6,5.7,4.3c-0.9,0.8-1.9,1.5-2.9,2.3c-0.6-0.7-1.5-1.6-2.5-2.4c-1-0.9-2-1.6-2.8-2.2L528.9,79.9z
				 M526.6,68.2c0.1-0.5,0.1-0.9,0.1-1.3v-9.7c0-0.3,0-0.7-0.1-1.3H545l0,1.3v9.7l0,1.3H526.6z M541.2,58.8h-10.7v1.8h10.7V58.8z
				 M530.5,65.3h10.7v-2h-10.7V65.3z"/>
                <path class="st0" d="M560.4,63.1V88c0,0.6,0,1.4,0.1,2.3h-4.4c0.1-0.9,0.1-1.7,0.1-2.3c0-2.1,0.1-4.9,0.2-8.6
				c0.1-3.7,0.2-7,0.4-9.9c-1.3,2.1-2.5,3.8-3.6,5.1c-0.2-0.7-0.9-2.1-2-4.2c0.8-0.8,1.8-2,2.8-3.7c1.1-1.6,2.2-3.7,3.3-6.1
				s1.9-4.5,2.3-6.3l3.9,1.5l-0.2,0.3C562.3,58.6,561.4,61,560.4,63.1z M585.3,59.8c1.3,0,2.3,0,2.8-0.1v3.7
				c-0.6-0.1-1.5-0.1-2.8-0.1H565c-1.3,0-2.3,0-2.8,0.1v-3.7c0.6,0.1,1.5,0.1,2.8,0.1h8.6c-0.8-1.2-1.7-2.4-2.8-3.7l3.4-1.9
				c1.2,1.1,2.3,2.5,3.3,4.2l-2.3,1.3H585.3z M585.1,77.2l0,1.4V89l0,1.3H581v-1.6h-12.1v1.6h-4.2c0.1-0.5,0.1-0.9,0.1-1.3V78.6
				l-0.1-1.4H585.1z M581.9,69h-14.4c-1.1,0-1.8,0-2.2,0v-3.3c0.4,0,1.2,0,2.2,0h14.4l2.2,0V69L581.9,69z M565.3,74.7v-3.3
				c0.4,0,1.2,0,2.2,0h14.4l2.2,0v3.3l-2.2,0h-14.4C566.5,74.7,565.7,74.7,565.3,74.7z M568.9,85.4H581v-4.9h-12.1V85.4z"/>
                <path class="st0" d="M604.8,85c-0.2-0.4-0.4-0.9-0.6-1.6c-0.3-0.6-0.6-1.3-1-2.1s-0.8-1.5-1.2-2.1v9.5c0,0.7,0,1.2,0.1,1.5h-3.9
				c0.1-0.3,0.1-0.8,0.1-1.5l0.1-8.7c-0.8,1.6-1.7,3.1-2.8,4.5c-1.1,1.4-2.1,2.6-3.1,3.5c-0.1-0.2-0.3-0.7-0.6-1.3
				c-0.3-0.7-0.7-1.5-1.2-2.4c0.6-0.4,1.2-1,1.9-1.8c0.7-0.8,1.5-1.7,2.2-2.8c0.7-1.1,1.4-2.3,1.9-3.5h-4.1c0.1-0.5,0.1-0.9,0.1-1.2
				v-8.5c0-0.3,0-0.7-0.1-1.2h5.7v-3h-4.5l-2.1,0v-3.6l2.1,0h4.5v-3l-0.1-1.2c0.4,0,1.1,0,2,0.1c0.9,0,1.5,0.1,1.9,0.1
				c-0.1,0.4-0.1,0.7-0.1,1v3h4.5c1,0,1.7,0,2.1,0v3.6c-0.4,0-1.1,0-2.1,0H602v3h5.8c0,0.2,0,0.6,0,1.2v8.5l0,1.2H602v1.7l1.9-1
				c0.7,0.9,1.4,1.9,2.1,3.1c0.7,1.2,1.4,2.3,1.9,3.4L604.8,85z M596,68.3v4.6h2.4v-4.6H596z M604.4,72.9v-4.6H602v4.6H604.4z
				 M605.2,87.4c0.8-0.2,1.7-0.4,2.9-0.8c1.2-0.4,2.3-0.8,3.6-1.4c1.2-0.6,2.1-1.1,2.6-1.5l2.6,2.1c-1,0.8-2.3,1.6-4,2.4
				c-1.7,0.9-3.5,1.6-5.4,2.2C607.1,90,606.4,88.9,605.2,87.4z M614.5,59.5h-3l-2,0v-3.3l2,0h15.1c-0.1,0.5-0.1,0.9-0.1,1.2
				c0,1.6-0.1,2.9-0.2,3.8c-0.1,0.9-0.3,1.6-0.5,2.2c-0.3,0.9-1.1,1.5-2.1,2c-1.1,0.5-2.6,0.7-4.5,0.7c-0.1-0.2-0.5-1.3-1.2-3.5
				c0.3,0.1,0.6,0.2,1,0.3c0.4,0.1,0.7,0.1,1.1,0.1c0.4,0,0.9-0.1,1.3-0.2s0.7-0.4,0.9-0.9c0.2-0.5,0.3-1.3,0.4-2.4h-4.6
				c-0.4,1.5-1.2,2.8-2.5,4c-1.2,1.2-2.8,2.1-4.8,2.8h15l0,1.5v14.3l0,1.5h-15.4c0.1-0.6,0.1-1.1,0.1-1.5V67.8l-0.1-1.4l-0.5,0.2
				c-0.3-0.7-1-1.8-2-3.2c1.3-0.3,2.4-0.7,3.3-1.1c0.9-0.4,1.6-0.9,2.1-1.4S614.3,59.9,614.5,59.5z M622.2,69.3h-8.1v1.9h8.1V69.3z
				 M614.1,75.8h8.1v-1.9h-8.1V75.8z M614.1,80.6h8.1v-2.1h-8.1V80.6z M621,84c1.2,0.5,2.4,1.1,3.7,1.7s2.4,1.3,3.5,2l-1.9,2.8
				c-2-1.4-4.4-2.9-7.2-4.3L621,84z"/>
            </g>
        </g>
        <line class="st1" x1="445.2" y1="3.4" x2="445.2" y2="98.1"/>
    </g>
</svg>
