<svg xmlns="http://www.w3.org/2000/svg" xml:space="preserve" width="628.1" height="98.1" style="overflow:visible" viewBox="0 0 628.1 98.1"><style>.st0{fill:#fff}</style><path d="M87.8 73.4c3.3 3.3 6.3 6.1 8.9 8.3-.3 5-1.6 8.8-3.7 11.4Q89.85 97 83.7 97q-4.35 0-9-1.8c-3.1-1.2-6-3-8.7-5.5-7.1 3.5-15.5 6-25.2 7.3-.3-.9-1-2.3-2-4.1q-1.5-2.7-3.9-6.9c9.9-.9 17.8-2.6 24-5.2-2.2-3.7-4-7.9-5.5-12.8l-20.6.3v3.2c6.9-.6 11.8-1 14.6-1.5-.3 3.9-.4 7-.4 9.3l-14.2 1.4.1 5.7c0 2.6-.9 4.7-2.6 6.2-1.7 1.6-4.1 2.8-7.3 3.5-3.2.8-7.2 1.1-12.1 1.1-.2-.6-.6-1.5-1.2-2.8s-2-4.2-4.2-8.8c.8.1 2 .3 3.9.4 1.8.1 3.4.2 4.9.2 2.2 0 3.7-.2 4.6-.7s1.4-1.3 1.4-2.4v-1.7c-3.5.3-8.1.7-13.5 1l-5 .5C1.2 80.9.7 77.5 0 73c1.2.1 3.3.1 6.4.1 2.8 0 7.3-.2 13.6-.7v-4l-10.1.2c-3.8 0-7 .1-9.7.3L.1 58.7c.5.1 1 .1 1.6.1h8.1l10.2-.2v-2.5c-6.9.3-12.3.4-16 .3Q2.8 52.35 1 48c3.1.1 6.9.2 11.5.1s9.5-.4 14.8-.9c5.2-.5 9.6-1.2 13-1.9l5.7 7.8-2.5.4q-7.05 1.05-10.8 1.5v3.4l18.3-.3c-.5-2.8-.9-5.9-1.2-9.1 0-.2 0-.5-.1-.9s-.2-1.1-.4-2.2c7.7.3 11.8.6 12.4.6l.1 2.7c.2 3 .5 5.9.9 8.6l13.7-.2c-1.7-1.2-3.6-2.3-5.5-3.4s-3.6-1.9-4.9-2.5l6.6-6.4c3.5 1.3 6.6 2.7 9.2 4 2.6 1.4 4.3 2.3 5.1 2.8l-5.1 5.4 3.5-.1c5.3-.1 8.5-.3 9.7-.4v10.3c-2.6-.1-5.9-.1-9.7 0l-8.2.1 8.4 5.4-.8.9c-1.2 1.7-2.7 3.5-4.3 5.2s-3.2 3.2-4.8 4.4c1.2.8 2.4 1.4 3.8 1.8 1.4.5 2.6.7 3.8.7 1.5 0 2.6-.9 3.4-2.7s1.2-5 1.2-9.7m-4-28.3H9.7c-4.6 0-7.7.1-9.5.2v-9.9c1.7.1 4.9.2 9.5.2h30v-4.1H16c-3.7 0-6.4.1-7.8.2V23c1.5.1 4.1.2 7.8.2h23.6v-3.5H13.1c-4.2 0-7.2.1-8.7.2V10c1.6.1 4.5.2 8.7.2h12.4c-1.9-3.2-3.4-5.3-4.3-6.5L34 .2c.7 1 1.8 2.8 3.4 5.6s2.4 4.2 2.4 4.4h14.6c1-1.6 2.1-3.4 3.2-5.4s1.8-3.6 2.2-4.8l13.7 4.8-1.4 1.6q-1.05 1.8-2.4 3.9h10.6c4.3 0 7.2-.1 8.7-.2V20c-1.5-.1-4.4-.2-8.7-.2H53.7v3.5H77c3.7 0 6.4-.1 7.9-.2v8.7c-1.5-.1-4.2-.2-7.9-.2H53.7v4.1h30.1c4.6 0 7.7-.1 9.5-.2v9.9c-1.7-.2-4.9-.3-9.5-.3M65 67.6c1 2.8 2.1 5.4 3.4 7.7.6-.4 1.6-1.3 3-2.6 1.5-1.3 2.9-3.1 4.4-5.2zM201.9 57.6c-1.9 4-3.5 7.7-5 11-1.9-1.4-3.6-2.7-5.3-4.1-.1 8.7-.3 14.4-.7 17.2s-.9 4.9-1.5 6.4c-1 2.8-3.2 4.9-6.4 6.4s-7.5 2.2-12.8 2.2c-.4-1.9-1.8-6.5-4.1-13.7.8.3 1.8.5 2.8.7s2 .3 2.9.3c3.4 0 5.6-1.1 6.5-3.3.3-.6.5-1.5.7-2.7.2-1.1.3-3.5.5-7h-7.3c-.8 2.4-1.8 4.8-3.1 7.3q-1.95 3.75-5.4 7.5c-3.45 3.75-5.1 4.7-8.3 6.6s-6.4 3.4-9.5 4.5c-2.6-3.5-5.5-6.8-8.4-10.1 5.6-1.7 10.2-3.9 13.8-6.4s6.4-5.7 8.2-9.4H152l-5.4.1v-6.4q-2.25 1.8-5.7 3.9c-.1-.5-.6-1.6-1.3-3.3s-1.6-3.8-2.8-6.1v16.5l.2 10.1q0 4.95-3.9 8.1c-2.6 2.2-6.1 3.2-10.5 3.2l-5.3-13.8c1.8.2 3.5.3 5 .3 1 0 1.9-.1 2.6-.4.7-.2 1-.9 1-2V64.1h-7.7c-.6 7.6-1.4 14.2-2.7 20-1.2 5.8-2.7 10.3-4.4 13.6-.1-.2-.5-.7-1.2-1.4s-3.5-3.4-8.6-8.1c2.2-4.2 3.8-9.9 4.9-16.9s1.7-16 1.7-26.8V6.9l-.2-3.3H137l-.2 5.6v47.1c2.3-1 4.5-2.5 6.7-4.4s4.1-4 5.8-6.2h-2.5c-3.4 0-5.8 0-7.2.1V34.1c1.4.1 3.8.1 7.2.1h8.5c.8-2.3 1.6-4.5 2.2-6.7h-9.1c-3.3 0-5.5 0-6.8.1V16.5c1 .1 2.9.1 5.6.1-1.3-3-3-6.4-5-10.1L153.1 3c.9 1.5 1.9 3.4 3.1 5.8s2.2 4.6 2.9 6.6l-3.2 1.1h5.1c.8-4.4 1.3-9.7 1.4-15.8l12 1.2L174 3c-.1 1.7-.4 4-.7 6.8q-.45 4.2-.9 6.6h5q1.65-2.85 3.3-6.9c1.1-2.6 1.9-4.9 2.3-6.9L194.2 7l-.7 1.2-2.1 4.2c-.9 1.7-1.7 3.1-2.3 4.2h1.2c3.3 0 5.5 0 6.8-.1v11.1c-1.2-.1-3.5-.1-6.8-.1h-22c-.3 1.5-.8 3.7-1.7 6.7h25.6c3.5 0 5.9 0 7.2-.1v11.7c-1.3-.1-3.7-.1-7.2-.1h-3.5c1.5 2 3.4 4.1 5.7 6.2q3.6 3.15 7.5 5.7m-83.2-5.2h7.2V39.8h-7.1v5.1zm7.2-36.5h-7.1V28h7.1zm48.5 43.8h12c-1.9-1.9-3.6-4.1-5.3-6.5-1.6-2.4-3.1-4.9-4.4-7.6H162c-.9 1.9-2.2 4-3.7 6.5-1.6 2.4-3.6 5-6.1 7.6h10c.2-2.1.3-4.3.3-6.7l-.1-3.2 12.7.4q-.3 1.5-.3 2.4c-.1 2.4-.2 4.8-.4 7.1M294 61.9h-31.9l-.9 4.8h33.4l-.2 4.2c-.1 5.8-.3 9.9-.8 12.3s-1.1 4.3-1.9 5.6c-.9 1.7-2.3 3.2-4.2 4.4s-4.5 2.2-7.9 3c-3.3.8-7.6 1.1-12.9 1.1-.6-2.1-2.1-6.4-4.4-13 2.6.7 5.3 1 8 1 1.7 0 3.4-.2 5-.5s2.8-1.1 3.6-2.3c.6-.9.9-2.6 1.1-5.1h-23c-2.6 4.7-6 8.8-10.2 12.2s-9 6.1-14.5 8c-.9-2-3.5-6-7.9-12 4.4-1.2 8.5-3 12-5.5 3.6-2.5 6.4-5.3 8.5-8.4s3.6-6.4 4.3-9.9h-19.4c-.3 3.7-1 7.6-2 11.8s-2.4 8.3-4.4 12.3-4.4 7.3-7.1 10c-1.7-2.5-5.2-6.5-10.4-12.1 1.5-1.6 3-3.5 4.3-5.7 1.4-2.2 2.5-4.6 3.4-7.2s1.6-5.6 2.1-9.1c.5-3.4.8-7.2.8-11.3V10.1c0-4 0-6.3-.1-6.9l8.9 2.9c5.4.1 12.2 0 20.4-.2s16.7-.7 25.5-1.4 16-1.6 21.7-2.6c3.3 4.1 6.5 8.2 9.4 12.2-1.3 0-2.7.1-4.1.2-24.6 2.1-47.2 3.2-67.8 3.4v3.1h66l-.1 3.2v18.6l.1 3.2h-28.6l3.1 5.3h23c4.1 0 6.9-.1 8.4-.2V62c-1.4-.1-4.2-.1-8.3-.1m-11.6-26v-5h-52v5zm-52 15.4h24.7L252 46h-21.6v5.3M332.4 30v11.8c0 12.1-1.1 22.9-3.4 32.3-2.3 9.5-5.5 16.6-9.6 21.4-2.2-2.6-5.6-6.4-10.2-11.2 2.2-3 4-6.6 5.5-10.9s2.6-9.1 3.4-14.4q1.2-7.95 1.2-17.7V7.5l-.2-3.9h81.4c-.1.6-.1 1.7-.1 3.2v19.9l.1 3.2h-68.1zm64 52.9c4.1 0 6.9-.1 8.5-.2v11.5c-1.6-.1-4.4-.2-8.5-.2h-58.6c-4.2 0-7 .1-8.6.2V82.7c1.6.1 4.5.2 8.6.2h21.7v-5.4h-16.9c-3.4 0-5.8.1-7.2.2V67.1c1.4.1 3.8.2 7.2.2h16.9v-4.9l-16.6.7-4.7.3-2.4-10c1.4-.1 3.3-.9 5.7-2.2q3.6-2.1 8.4-6.3h-7.2c-3.8 0-6.5.1-7.9.2V34.3c1.5.1 4.1.1 7.9.1h51.7c3.8 0 6.5 0 7.9-.1v10.8c-1.5-.1-4.1-.2-7.9-.2h-6.7c6 5.3 11.1 10.3 15.1 15l-10.3 6.5c-.6-.9-1.9-2.7-4.2-5.5-4.5.3-9.4.6-14.7.8l-.1 1.7v4h16.9c3.4 0 5.8-.1 7.2-.2v10.6c-1.4-.1-3.8-.2-7.2-.2h-16.9V83h22.9zm-8.9-68.6h-55.1v5.1h55.1zm-23 30.6 2.2 1c-.6.3-1 .6-1.5 1q-2.1 1.95-6.9 5.7c4.6-.1 11.7-.5 21.3-.9l-5.4-5 3.5-1.9h-13.2zM505.3 32.3c1.6 0 2.6 0 3.3-.1v3.5c-.7-.1-1.8-.1-3.5-.1h-4.3v.4l.1 2.7c0 .7-.2 1.2-.5 1.7q-.45.75-1.5 1.2c-.7.3-1.6.6-2.8.8s-2.6.3-4.2.3c-.1-.3-.4-.8-.7-1.5-.4-.7-.8-1.5-1.3-2.4q2.1.3 3.9.3 1.35 0 2.1-.3c.5-.2.8-.5.8-1v-2.3h-12.9c.8.3 1.8.6 2.8 1s1.9.8 2.6 1.1l-2 2.8q-1.2-.9-3.3-1.8c-1.4-.6-2.6-1.1-3.6-1.4l1.3-1.8h-4.4c-1.6 0-2.8 0-3.4.1V32c.7.1 1.8.1 3.4.1h19.5v-.7l-.1-1c.5 0 1.2 0 2.2.1 1 0 1.7.1 2.1.1-.1.3-.1.6-.1.9v.6h4.1c-.4-.6-.9-1.4-1.7-2.3q-2.55.15-7.2.3c-4.65.15-6.6.2-10.5.3-3.8.1-6.8.2-8.9.2l-2 .1-.3-3.4 2.5.2c2.2.1 6.3.1 12.4 0v-1.7h-10.9c.1-.4.1-.8.1-1.2v-8.8c0-.3 0-.8-.1-1.2h10.9v-1.7h-11.9c-1.6 0-2.7 0-3.3.1V9.6c.6.1 1.7.1 3.3.1h11.9V8.5c0-.4 0-.9-.1-1.5.5 0 1.2 0 2.2.1 1 0 1.6.1 2 .1-.1.5-.1 1-.1 1.3v1.2h11.4c1.6 0 2.7 0 3.3-.1v3.2c-.7-.1-1.8-.1-3.3-.1h-11.4v1.7h10.9v11c.6.6 1.3 1.3 2.1 2.2.8.8 1.4 1.6 2 2.3zm-16-15.1h-7v1.7h7zm-7 6h7v-1.8h-7zm18-6h-7v1.7h7zm0 6v-1.8h-7v1.8zm-7 4.3 7.7-.2c-.7-.7-1.1-1.2-1.4-1.4h-6.3zM521.8 15.4c-.8.9-1.8 1.8-3 2.5s-2.6 1.3-4.1 1.8l-1.6-2.8c1-.3 1.9-.6 2.8-1s1.7-.9 2.3-1.5c.6-.5 1.1-1.1 1.4-1.8s.5-1.4.5-2.2V8l-.1-.9h1.1c.5 0 1 0 1.5.1s.8.1.9.1c-.1.3-.1.5-.1.8v2.6c0 .6-.1 1.2-.2 1.9 2.5 1.4 4.5 2.6 6.1 3.8-.7.8-1.5 1.8-2.2 2.7-1-.9-2.7-2.2-5.3-3.7m-2.9-6.2c-.3.8-.7 1.7-1.1 2.5s-.8 1.5-1.2 2l-2.8-1.1c.5-.6 1-1.3 1.4-2.2.4-.8.8-1.6 1-2.3l3 .7zm28.4 10.5v7.5h-4.1v-4.6h-25.1v4.6H514c.1-.4.1-.8.1-1.1v-5.4c0-.3 0-.7-.1-1zm-3.2 13.7v9.4H540v-1.5h-18.8v1.5h-4.1c.1-.4.1-.8.1-1.2v-7.1c0-.3 0-.7-.1-1.1h9.9c.4-.6.8-1.3 1.2-2h-7.7c.1-.4.1-.7.1-1V25c0-.3 0-.7-.1-1h20.1v7.4h-8c-.3.6-.8 1.2-1.3 2zm-22.9 5.2H540v-2.4h-18.8zm3.3-11.9v2.2h12.2v-2.2zm5.2-17c-.1.2-.4.7-.8 1.4s-.7 1.3-.9 1.7-.4.7-.5.9l-2.6-1.2c.3-.4.7-1.1 1.1-2.1.4-.9.8-1.6.9-2.1l2.9.9zm9.4 5.8q-1.2 1.35-3 2.4c-1.2.7-2.6 1.2-4 1.6l-1.6-2.8q2.25-.6 3.9-1.5c1.65-.9 1.9-1.3 2.5-2.2.6-.8.8-1.7.8-2.6V8l-.1-.9h1.1c.5 0 1 0 1.5.1.4 0 .7.1.9.1-.1.2-.1.5-.1.8v2.6c0 .3 0 .6-.1 1s-.1.8-.2 1c1.1.6 2.3 1.2 3.5 1.9s2.3 1.3 3.2 2c-.6.8-1.4 1.8-2.3 2.9-.7-.6-1.5-1.2-2.7-2-1.1-.7-2.2-1.4-3.3-2m-3.4-6.3c-.1.7-.3 1.5-.6 2.3s-.6 1.5-.9 2l-2.8-.9c.3-.5.7-1.2 1-2.1s.6-1.6.6-2.2l2.9.6zm11.4.3c-.2.4-.5 1.1-.9 1.9q-.6 1.2-1.2 2.1c-.3-.2-1.2-.5-2.6-1.1.2-.3.4-.7.7-1.1.3-.5.5-1 .8-1.6s.5-1 .6-1.3l2.8.9zM586.2 11v29.1c0 .7 0 1.5.1 2.5H582c.1-.9.1-1.7.1-2.4-7.9.4-17.4.7-28.3.7.1-.8.1-1.6.1-2.2V10.9c0-.5 0-1-.1-1.7.5 0 1.2 0 2.2.1 1 0 1.7.1 2.1.1-.1.3-.1.8-.1 1.5v25.9c8.5 0 16.6-.2 24.1-.7V11c0-.6 0-1.2-.1-1.9.5 0 1.2 0 2.2.1 1 0 1.7.1 2.1.1-.1.4-.1.9-.1 1.7m-27.4 20.7c3.6-2.5 6.7-5.5 9.4-9.2-.5-.4-1.5-1.2-2.9-2.4s-3-2.3-4.7-3.4l2.5-3.5q3.3 2.25 7.5 5.7c1-1.6 1.9-3.2 2.6-5 .8-1.8 1.4-3.5 1.9-5.3.6.3 1.9.9 3.9 2l-.2.4c-.6 1.8-1.4 3.7-2.2 5.4-.8 1.8-1.8 3.5-2.8 5.1 2.8 2.4 5 4.4 6.5 5.9l-2.3 4c-2.1-2.1-4.3-4.2-6.7-6.3-2.9 3.8-6.1 7-9.8 9.6-.2-.2-.5-.7-1-1.2-.3-.5-1-1.1-1.7-1.8M620.3 37.6c.3-.3.6-.7.8-1.1.2-.5.3-1.1.4-1.8s.1-1.4.1-2.1q.6.45 1.5.9c.6.3 1 .6 1.4.8s.7.4 1 .5c-.1 1.2-.3 2.3-.6 3.2s-.8 1.7-1.5 2.3-1.7 1.1-2.9 1.5c-1.3.3-3 .5-5.3.5-2.2 0-3.9-.1-5.1-.2s-2-.4-2.6-.8c-.5-.4-.9-.9-1.1-1.7-.2-.7-.4-1.7-.4-3v-4.9l-9.5 1.1c-2.1.3-3.3.5-3.5.5l-.2-4c.9 0 2.1-.1 3.5-.4l9.7-.9v-4.7c-2.7.4-5.2.6-7.7.8l-1.3-3.3h-4c.1-.4.1-.8.1-1.2v-7.2c0-.3 0-.7-.1-1.1h15.4c-.6-1.3-1.2-2.3-1.7-3.2l3.7-1.5c.3.4.6 1 1 1.8s.9 1.8 1.5 2.9h13.3v9.5H622v-5.9h-24.9v5.5c3.5-.1 7.1-.5 10.9-1.1s6.8-1.4 9-2.3l2.6 3.3-1.1.2c-.5.2-1.5.4-3 .8q-2.25.6-5.4 1.2v4.9l12.8-1.6c1.4-.2 2.6-.3 3.5-.5l.3 4h-.7c-.2 0-1.2.1-2.9.3L610 31.2v5.5c0 .8.4 1.4 1.1 1.6.8.1 2.2.2 4.3.2 1.2 0 2.2-.1 3-.2.9-.1 1.5-.3 1.9-.7M481.5 63.2v24.9c0 .6 0 1.4.1 2.3h-4.3c.1-.9.1-1.7.1-2.3 0-2 .1-4.9.2-8.5s.2-7 .4-10.1c-.6 1-1.2 1.9-1.8 2.9-.6.9-1.2 1.7-1.8 2.3-.6-1.6-1.1-3-1.8-4.2q1.35-1.5 3-4.2c1-1.8 2-3.7 3-5.9s1.6-4.2 2.1-5.9l3.8 1.5c-.1.1-.1.2-.2.3-1.1 2.5-1.9 4.9-2.8 6.9m24.8 22.2c1.3 0 2.2 0 2.7-.1V89c-.6-.1-1.5-.1-2.7-.1h-20.4c-1.4 0-2.4 0-2.9.1v-3.7c.6.1 1.5.1 2.9.1h.6v-20c0-.6 0-1.2-.1-2h7l.2-2.2h-7.1c-1.3 0-2.2 0-2.7.1v-3.6c.5.1 1.4.1 2.7.1h7.3l.2-2.4v-.8l4 .3c-.1.1-.1.2-.1.4l-.2 2.5h7.9c1.2 0 2.1 0 2.6-.1v3.6c-.5-.1-1.4-.1-2.6-.1h-8.1c-.1 1-.1 1.8-.2 2.2h8.1l-.1 2v20zM501.4 67h-11v2.3h11zm0 7.6v-2.3h-11v2.3zm-11 3.1V80h11v-2.3zm0 5.3v2.4h11V83zM521 70.5v17.8c0 .9 0 1.5.1 1.8h-4c.1-.3.1-.9.1-1.8v-.6c0-.3 0-1.7.1-4.1 0-2.4.1-5.4.2-8.9-1.4 1.6-2.6 2.7-3.6 3.4-.1-.4-.4-1-.8-1.8s-.7-1.4-1-1.9c1.8-1.2 3.6-3 5.4-5.2s3.1-4.2 3.8-5.9l3.2 2.1-.4.4c-.8 1.5-1.9 3.1-3.1 4.7m2.8-13.7q-.9 1.2-2.4 3c-1 1.2-2.2 2.3-3.5 3.5s-2.5 2-3.4 2.5c-.1-.2-.3-.6-.7-1.2s-.8-1.3-1.4-2.1c1.6-.9 3.3-2.2 5.1-4 1.8-1.7 3-3.2 3.6-4.3l3.1 2.2zm22.1 19.6c1.3 0 2.2 0 2.7-.1v3.4c-.5-.1-1.4-.1-2.7-.1h-2.5v3.8l.1 2.8c0 1-.3 1.7-.9 2.3s-1.6 1-2.8 1.2c-1.2.3-2.8.4-4.7.4-.3-.7-1-2-1.9-3.9 1.3.2 2.5.3 3.7.3q1.5 0 2.1-.3t.6-.9v-5.6h-13.3c-1.3 0-2.2 0-2.7.1v-3.4c.5.1 1.4.1 2.7.1h13.3v-2.6h-13c-1.3 0-2.2 0-2.7.1v-3.4c.5.1 1.4.1 2.7.1h19.1c1.3 0 2.2 0 2.7-.1V74c-.5-.1-1.4-.1-2.7-.1h-2.2v2.6h2.4zm-17 3.5c2 1.2 3.9 2.6 5.7 4.3-.9.8-1.9 1.5-2.9 2.3-.6-.7-1.5-1.6-2.5-2.4-1-.9-2-1.6-2.8-2.2zm-2.3-11.7c.1-.5.1-.9.1-1.3v-9.7c0-.3 0-.7-.1-1.3H545v12.3zm14.6-9.4h-10.7v1.8h10.7zm-10.7 6.5h10.7v-2h-10.7zM560.4 63.1V88c0 .6 0 1.4.1 2.3h-4.4c.1-.9.1-1.7.1-2.3 0-2.1.1-4.9.2-8.6s.2-7 .4-9.9q-1.95 3.15-3.6 5.1c-.2-.7-.9-2.1-2-4.2.8-.8 1.8-2 2.8-3.7 1.1-1.6 2.2-3.7 3.3-6.1s1.9-4.5 2.3-6.3l3.9 1.5-.2.3c-1 2.5-1.9 4.9-2.9 7m24.9-3.3c1.3 0 2.3 0 2.8-.1v3.7c-.6-.1-1.5-.1-2.8-.1H565c-1.3 0-2.3 0-2.8.1v-3.7c.6.1 1.5.1 2.8.1h8.6c-.8-1.2-1.7-2.4-2.8-3.7l3.4-1.9q1.8 1.65 3.3 4.2l-2.3 1.3h10.1zm-.2 17.4v13.1H581v-1.6h-12.1v1.6h-4.2c.1-.5.1-.9.1-1.3V78.6l-.1-1.4zm-3.2-8.2h-16.6v-3.3h18.8V69zm-16.6 5.7v-3.3h18.8v3.3h-18.8m3.6 10.7H581v-4.9h-12.1zM604.8 85c-.2-.4-.4-.9-.6-1.6-.3-.6-.6-1.3-1-2.1s-.8-1.5-1.2-2.1v9.5c0 .7 0 1.2.1 1.5h-3.9c.1-.3.1-.8.1-1.5l.1-8.7c-.8 1.6-1.7 3.1-2.8 4.5s-2.1 2.6-3.1 3.5c-.1-.2-.3-.7-.6-1.3q-.45-1.05-1.2-2.4c.6-.4 1.2-1 1.9-1.8s1.5-1.7 2.2-2.8 1.4-2.3 1.9-3.5h-4.1c.1-.5.1-.9.1-1.2v-8.5c0-.3 0-.7-.1-1.2h5.7v-3h-6.6v-3.6h6.6v-3l-.1-1.2c.4 0 1.1 0 2 .1.9 0 1.5.1 1.9.1-.1.4-.1.7-.1 1v3h6.6v3.6H602v3h5.8v10.9H602v1.7l1.9-1c.7.9 1.4 1.9 2.1 3.1s1.4 2.3 1.9 3.4zM596 68.3v4.6h2.4v-4.6zm8.4 4.6v-4.6H602v4.6zm.8 14.5c.8-.2 1.7-.4 2.9-.8s2.3-.8 3.6-1.4c1.2-.6 2.1-1.1 2.6-1.5l2.6 2.1c-1 .8-2.3 1.6-4 2.4-1.7.9-3.5 1.6-5.4 2.2-.4-.4-1.1-1.5-2.3-3m9.3-27.9h-5v-3.3h17.1c-.1.5-.1.9-.1 1.2 0 1.6-.1 2.9-.2 3.8s-.3 1.6-.5 2.2c-.3.9-1.1 1.5-2.1 2-1.1.5-2.6.7-4.5.7-.1-.2-.5-1.3-1.2-3.5.3.1.6.2 1 .3s.7.1 1.1.1.9-.1 1.3-.2.7-.4.9-.9.3-1.3.4-2.4h-4.6c-.4 1.5-1.2 2.8-2.5 4-1.2 1.2-2.8 2.1-4.8 2.8h15v17.3h-15.4c.1-.6.1-1.1.1-1.5V67.8l-.1-1.4-.5.2c-.3-.7-1-1.8-2-3.2 1.3-.3 2.4-.7 3.3-1.1s1.6-.9 2.1-1.4 1-1 1.2-1.4m7.7 9.8h-8.1v1.9h8.1zm-8.1 6.5h8.1v-1.9h-8.1zm0 4.8h8.1v-2.1h-8.1zM621 84c1.2.5 2.4 1.1 3.7 1.7s2.4 1.3 3.5 2l-1.9 2.8c-2-1.4-4.4-2.9-7.2-4.3z" class="st0"/><path d="M445.2 3.4v94.7" style="fill:none;stroke:#fff;stroke-width:4.9664;stroke-miterlimit:10"/></svg>