<!--Generator: Adobe Illustrator 25.0.0, SVG Export Plug-In-->
<svg version="1.1" xmlns="http://www.w3.org/2000/svg" xmlns:xlink="http://www.w3.org/1999/xlink" x="0px" y="0px" width="405px" height="97.8px" viewBox="0 0 405 97.8" style="overflow:visible;enable-background:new 0 0 405 97.8;" xml:space="preserve">
    <style type="text/css">
        .st0{fill:#FFFFFF;}
    </style>
    <defs/>
    <g>
        <path class="st0" d="M87.8,73.4c3.3,3.3,6.3,6.1,8.9,8.3c-0.3,5-1.6,8.8-3.7,11.4c-2.1,2.6-5.2,3.9-9.3,3.9c-2.9,0-5.9-0.6-9-1.8
		c-3.1-1.2-6-3-8.7-5.5c-7.1,3.5-15.5,6-25.2,7.3c-0.3-0.9-1-2.3-2-4.1c-1-1.8-2.3-4.1-3.9-6.9c9.9-0.9,17.8-2.6,24-5.2
		c-2.2-3.7-4-7.9-5.5-12.8l-20.6,0.3v3.2c6.9-0.6,11.8-1,14.6-1.5c-0.3,3.9-0.4,7-0.4,9.3l-14.2,1.4l0.1,5.7c0,2.6-0.9,4.7-2.6,6.2
		c-1.7,1.6-4.1,2.8-7.3,3.5c-3.2,0.8-7.2,1.1-12.1,1.1c-0.2-0.6-0.6-1.5-1.2-2.8c-0.6-1.3-2-4.2-4.2-8.8c0.8,0.1,2,0.3,3.9,0.4
		c1.8,0.1,3.4,0.2,4.9,0.2c2.2,0,3.7-0.2,4.6-0.7c0.9-0.5,1.4-1.3,1.4-2.4v-1.7c-3.5,0.3-8.1,0.7-13.5,1l-5,0.5
		C1.2,80.9,0.7,77.5,0,73c1.2,0.1,3.3,0.1,6.4,0.1c2.8,0,7.3-0.2,13.6-0.7v-4L9.9,68.6c-3.8,0-7,0.1-9.7,0.3L0.1,58.7
		c0.5,0.1,1,0.1,1.6,0.1c0.6,0,3.3,0,8.1,0L20,58.6v-2.5c-6.9,0.3-12.3,0.4-16,0.3c-0.8-2.7-1.8-5.5-3-8.4c3.1,0.1,6.9,0.2,11.5,0.1
		c4.6-0.1,9.5-0.4,14.8-0.9c5.2-0.5,9.6-1.2,13-1.9l5.7,7.8l-2.5,0.4c-4.7,0.7-8.3,1.2-10.8,1.5v3.4l18.3-0.3
		c-0.5-2.8-0.9-5.9-1.2-9.1c0-0.2,0-0.5-0.1-0.9c-0.1-0.4-0.2-1.1-0.4-2.2c7.7,0.3,11.8,0.6,12.4,0.6l0.1,2.7c0.2,3,0.5,5.9,0.9,8.6
		l13.7-0.2c-1.7-1.2-3.6-2.3-5.5-3.4c-1.9-1.1-3.6-1.9-4.9-2.5l6.6-6.4c3.5,1.3,6.6,2.7,9.2,4c2.6,1.4,4.3,2.3,5.1,2.8l-5.1,5.4
		l3.5-0.1c5.3-0.1,8.5-0.3,9.7-0.4L95,67.3c-2.6-0.1-5.9-0.1-9.7,0l-8.2,0.1l8.4,5.4l-0.8,0.9c-1.2,1.7-2.7,3.5-4.3,5.2
		c-1.6,1.7-3.2,3.2-4.8,4.4c1.2,0.8,2.4,1.4,3.8,1.8c1.4,0.5,2.6,0.7,3.8,0.7c1.5,0,2.6-0.9,3.4-2.7C87.4,81.3,87.8,78.1,87.8,73.4z
		 M83.8,45.1H9.7c-4.6,0-7.7,0.1-9.5,0.2v-9.9c1.7,0.1,4.9,0.2,9.5,0.2h30v-4.1H16c-3.7,0-6.4,0.1-7.8,0.2V23
		c1.5,0.1,4.1,0.2,7.8,0.2h23.6v-3.5H13.1c-4.2,0-7.2,0.1-8.7,0.2V10c1.6,0.1,4.5,0.2,8.7,0.2h12.4c-1.9-3.2-3.4-5.3-4.3-6.5
		l12.8-3.5c0.7,1,1.8,2.8,3.4,5.6c1.6,2.8,2.4,4.2,2.4,4.4h14.6c1-1.6,2.1-3.4,3.2-5.4c1.1-2,1.8-3.6,2.2-4.8l13.7,4.8l-1.4,1.6
		c-0.7,1.2-1.5,2.5-2.4,3.9h10.6c4.3,0,7.2-0.1,8.7-0.2v9.9c-1.5-0.1-4.4-0.2-8.7-0.2H53.7v3.5h23.3c3.7,0,6.4-0.1,7.9-0.2v8.7
		c-1.5-0.1-4.2-0.2-7.9-0.2H53.7v4.1h30.1c4.6,0,7.7-0.1,9.5-0.2v9.9C91.6,45.2,88.4,45.1,83.8,45.1z M65,67.6
		c1,2.8,2.1,5.4,3.4,7.7c0.6-0.4,1.6-1.3,3-2.6c1.5-1.3,2.9-3.1,4.4-5.2L65,67.6z"/>
        <path class="st0" d="M201.9,57.6c-1.9,4-3.5,7.7-5,11c-1.9-1.4-3.6-2.7-5.3-4.1c-0.1,8.7-0.3,14.4-0.7,17.2
		c-0.4,2.8-0.9,4.9-1.5,6.4c-1,2.8-3.2,4.9-6.4,6.4c-3.2,1.5-7.5,2.2-12.8,2.2c-0.4-1.9-1.8-6.5-4.1-13.7c0.8,0.3,1.8,0.5,2.8,0.7
		c1,0.2,2,0.3,2.9,0.3c3.4,0,5.6-1.1,6.5-3.3c0.3-0.6,0.5-1.5,0.7-2.7c0.2-1.1,0.3-3.5,0.5-7h-7.3c-0.8,2.4-1.8,4.8-3.1,7.3
		c-1.3,2.5-3.1,5-5.4,7.5s-5.1,4.7-8.3,6.6c-3.2,1.9-6.4,3.4-9.5,4.5c-2.6-3.5-5.5-6.8-8.4-10.1c5.6-1.7,10.2-3.9,13.8-6.4
		c3.6-2.5,6.4-5.7,8.2-9.4h-7.5l-5.4,0.1v-6.4c-1.5,1.2-3.4,2.5-5.7,3.9c-0.1-0.5-0.6-1.6-1.3-3.3c-0.7-1.7-1.6-3.8-2.8-6.1v16.5
		l0.2,10.1c0,3.3-1.3,6-3.9,8.1c-2.6,2.2-6.1,3.2-10.5,3.2l-5.3-13.8c1.8,0.2,3.5,0.3,5,0.3c1,0,1.9-0.1,2.6-0.4c0.7-0.2,1-0.9,1-2
		v-5.5V64.1h-7.7c-0.6,7.6-1.4,14.2-2.7,20c-1.2,5.8-2.7,10.3-4.4,13.6c-0.1-0.2-0.5-0.7-1.2-1.4c-0.7-0.7-3.5-3.4-8.6-8.1
		c2.2-4.2,3.8-9.9,4.9-16.9c1.1-7,1.7-16,1.7-26.8V6.9l-0.2-3.3h29.3l-0.2,5.6v47.1c2.3-1,4.5-2.5,6.7-4.4c2.2-1.9,4.1-4,5.8-6.2
		h-2.5c-3.4,0-5.8,0-7.2,0.1V34.1c1.4,0.1,3.8,0.1,7.2,0.1h8.5c0.8-2.3,1.6-4.5,2.2-6.7h-9.1c-3.3,0-5.5,0-6.8,0.1V16.5
		c1,0.1,2.9,0.1,5.6,0.1c-1.3-3-3-6.4-5-10.1L153.1,3c0.9,1.5,1.9,3.4,3.1,5.8c1.2,2.4,2.2,4.6,2.9,6.6l-3.2,1.1h5.1
		c0.8-4.4,1.3-9.7,1.4-15.8l12,1.2l-0.4,1.1c-0.1,1.7-0.4,4-0.7,6.8c-0.3,2.8-0.6,5-0.9,6.6h5c1.1-1.9,2.2-4.2,3.3-6.9
		c1.1-2.6,1.9-4.9,2.3-6.9L194.2,7l-0.7,1.2c-0.5,1-1.2,2.4-2.1,4.2c-0.9,1.7-1.7,3.1-2.3,4.2h1.2c3.3,0,5.5,0,6.8-0.1v11.1
		c-1.2-0.1-3.5-0.1-6.8-0.1h-22c-0.3,1.5-0.8,3.7-1.7,6.7h25.6c3.5,0,5.9,0,7.2-0.1v11.7c-1.3-0.1-3.7-0.1-7.2-0.1h-3.5
		c1.5,2,3.4,4.1,5.7,6.2C196.8,54,199.3,55.9,201.9,57.6z M118.7,52.4h7.2V39.8h-7.1v5.1L118.7,52.4z M125.9,15.9h-7.1V28h7.1V15.9z
		 M174.4,59.7h12c-1.9-1.9-3.6-4.1-5.3-6.5c-1.6-2.4-3.1-4.9-4.4-7.6H162c-0.9,1.9-2.2,4-3.7,6.5c-1.6,2.4-3.6,5-6.1,7.6h10
		c0.2-2.1,0.3-4.3,0.3-6.7l-0.1-3.2l12.7,0.4c-0.2,1-0.3,1.8-0.3,2.4C174.7,55,174.6,57.4,174.4,59.7z"/>
        <path class="st0" d="M294,61.9h-31.9l-0.9,4.8h33.4l-0.2,4.2c-0.1,5.8-0.3,9.9-0.8,12.3c-0.5,2.4-1.1,4.3-1.9,5.6
		c-0.9,1.7-2.3,3.2-4.2,4.4c-1.9,1.2-4.5,2.2-7.9,3c-3.3,0.8-7.6,1.1-12.9,1.1c-0.6-2.1-2.1-6.4-4.4-13c2.6,0.7,5.3,1,8,1
		c1.7,0,3.4-0.2,5-0.5c1.6-0.3,2.8-1.1,3.6-2.3c0.6-0.9,0.9-2.6,1.1-5.1H257c-2.6,4.7-6,8.8-10.2,12.2c-4.2,3.4-9,6.1-14.5,8
		c-0.9-2-3.5-6-7.9-12c4.4-1.2,8.5-3,12-5.5c3.6-2.5,6.4-5.3,8.5-8.4c2.1-3.1,3.6-6.4,4.3-9.9h-16.6h-2.8c-0.3,3.7-1,7.6-2,11.8
		c-1,4.2-2.4,8.3-4.4,12.3c-2,4-4.4,7.3-7.1,10c-1.7-2.5-5.2-6.5-10.4-12.1c1.5-1.6,3-3.5,4.3-5.7c1.4-2.2,2.5-4.6,3.4-7.2
		c0.9-2.6,1.6-5.6,2.1-9.1c0.5-3.4,0.8-7.2,0.8-11.3V10.1c0-4,0-6.3-0.1-6.9l8.9,2.9c5.4,0.1,12.2,0,20.4-0.2
		c8.2-0.2,16.7-0.7,25.5-1.4c8.8-0.7,16-1.6,21.7-2.6c3.3,4.1,6.5,8.2,9.4,12.2c-1.3,0-2.7,0.1-4.1,0.2c-24.6,2.1-47.2,3.2-67.8,3.4
		v3.1h66l-0.1,3.2v18.6l0.1,3.2h-28.6l3.1,5.3h23c4.1,0,6.9-0.1,8.4-0.2V62C300.9,61.9,298.1,61.9,294,61.9z M282.4,35.9v-5h-52v5
		H282.4z M230.4,51.3h2.5h22.2L252,46h-21.6v5.1V51.3z"/>
        <path class="st0" d="M332.4,30v11.8c0,12.1-1.1,22.9-3.4,32.3c-2.3,9.5-5.5,16.6-9.6,21.4c-2.2-2.6-5.6-6.4-10.2-11.2
		c2.2-3,4-6.6,5.5-10.9c1.5-4.3,2.6-9.1,3.4-14.4c0.8-5.3,1.2-11.2,1.2-17.7V7.5l-0.2-3.9h81.4c-0.1,0.6-0.1,1.7-0.1,3.2v19.9
		l0.1,3.2H332.4z M396.4,82.9c4.1,0,6.9-0.1,8.5-0.2v11.5c-1.6-0.1-4.4-0.2-8.5-0.2h-58.6c-4.2,0-7,0.1-8.6,0.2V82.7
		c1.6,0.1,4.5,0.2,8.6,0.2h21.7v-5.4h-16.9c-3.4,0-5.8,0.1-7.2,0.2V67.1c1.4,0.1,3.8,0.2,7.2,0.2h16.9v-4v-0.9l-16.6,0.7l-4.7,0.3
		l-2.4-10c1.4-0.1,3.3-0.9,5.7-2.2c2.4-1.4,5.2-3.5,8.4-6.3h-7.2c-3.8,0-6.5,0.1-7.9,0.2V34.3c1.5,0.1,4.1,0.1,7.9,0.1h51.7
		c3.8,0,6.5,0,7.9-0.1v10.8c-1.5-0.1-4.1-0.2-7.9-0.2h-6.7c6,5.3,11.1,10.3,15.1,15l-10.3,6.5c-0.6-0.9-1.9-2.7-4.2-5.5
		c-4.5,0.3-9.4,0.6-14.7,0.8l-0.1,1.7v4h16.9c3.4,0,5.8-0.1,7.2-0.2v10.6c-1.4-0.1-3.8-0.2-7.2-0.2h-16.9v5.4H396.4z M387.5,14.3
		h-55.1v5.1h55.1V14.3z M364.5,44.9l2.2,1c-0.6,0.3-1,0.6-1.5,1c-1.4,1.3-3.7,3.2-6.9,5.7c4.6-0.1,11.7-0.5,21.3-0.9l-5.4-5l3.5-1.9
		H364.5z"/>
    </g>
</svg>
