<svg xmlns="http://www.w3.org/2000/svg" xml:space="preserve" width="153" height="36.4" style="overflow:visible" viewBox="0 0 153 36.4"><style>.st0{fill:#fff}</style><path d="M31.5 25.7c1.6 0 2.6 0 3.3-.1v3.5c-.7-.1-1.8-.1-3.5-.1H27v.5l.1 2.7c0 .7-.2 1.2-.5 1.7q-.45.75-1.5 1.2c-.7.3-1.6.6-2.8.8s-2.6.3-4.2.3c-.1-.3-.4-.8-.7-1.5-.4-.7-.8-1.5-1.3-2.4q2.1.3 3.9.3 1.35 0 2.1-.3c.5-.2.8-.5.8-1V29H10.1c.8.3 1.8.6 2.8 1s1.9.8 2.6 1.1l-2 2.8q-1.2-.9-3.3-1.8c-1.4-.6-2.6-1.1-3.6-1.4l1.3-1.8H3.4c-1.6 0-2.8 0-3.4.1v-3.5c.7.1 1.8.1 3.4.1h19.5v-.7l-.1-1c.5 0 1.2 0 2.2.1 1 0 1.7.1 2.1.1-.1.3-.1.6-.1.9v.6h4.1c-.4-.6-.9-1.4-1.7-2.3q-2.55.15-7.2.3c-4.65.15-6.6.2-10.5.3-3.7.2-6.7.3-8.7.3l-2 .1-.3-3.4 2.5.1c2.2.1 6.3.1 12.4 0v-1.7H4.7c.1-.4.1-.8.1-1.2V9.2c0-.3 0-.8-.1-1.2h10.9V6.3h-12C2 6.3.9 6.3.3 6.4V3.1c.6.1 1.7.1 3.3.1h11.9V2c0-.4 0-.9-.1-1.5.5 0 1.2 0 2.2.1 1 0 1.6.1 2 .1-.1.5-.1 1-.1 1.3v1.2h11.4c1.6 0 2.7 0 3.3-.1v3.2c-.7-.1-1.8-.1-3.3-.1H19.5V8h10.9v11c.6.6 1.3 1.3 2.1 2.2.8.8 1.4 1.6 2 2.3zm-16-15h-7v1.7h7zm-7 6h7v-1.8h-7zm18.1-6h-7v1.7h7zm0 6v-1.8h-7v1.8zM19.5 21l7.7-.2c-.7-.7-1.1-1.2-1.4-1.4h-6.3zM48 8.8c-.8.9-1.8 1.8-3 2.5s-2.6 1.3-4.1 1.8l-1.6-2.8c1-.3 1.9-.6 2.8-1s1.7-.9 2.3-1.5c.6-.5 1.1-1.1 1.4-1.8s.5-1.4.5-2.2V1.5l-.1-.9h1.1c.5 0 1 0 1.5.1s.8.1.9.1c-.1.3-.1.5-.1.8v2.6c0 .6-.1 1.2-.2 1.9C52 7.4 54 8.6 55.5 9.8c-.7.8-1.5 1.8-2.2 2.7-.9-.9-2.7-2.1-5.3-3.7m-2.9-6.2c-.3.8-.7 1.7-1.1 2.5s-.8 1.5-1.2 2L40 6c.5-.6 1-1.3 1.4-2.2.4-.8.8-1.6 1-2.3l3 .7zm28.4 10.5v7.5h-4.1V16h-25v4.6h-4.1c.1-.4.1-.8.1-1.1v-5.4c0-.3 0-.7-.1-1zm-3.2 13.8v9.4h-4.1v-1.5H47.4v1.5h-4.1c.1-.4.1-.8.1-1.2V28c0-.3 0-.7-.1-1.1h9.9c.4-.6.8-1.3 1.2-2h-7.7c.1-.4.1-.7.1-1v-5.4c0-.3 0-.7-.1-1h20.1v7.4h-8c-.3.6-.8 1.2-1.3 2zm-22.9 5.2h18.8v-2.4H47.4zm3.3-12v2.2H63v-2.2zm5.2-16.9c-.1.2-.4.7-.8 1.4s-.6 1.4-.8 1.7c-.2.4-.4.7-.5.9L51.2 6c.3-.4.7-1.1 1.1-2.1.4-.9.8-1.6.9-2.1l2.9.9zM65.3 9q-1.2 1.35-3 2.4c-1.2.7-2.6 1.2-4 1.6l-1.6-2.8q2.25-.6 3.9-1.5c1.65-.9 1.9-1.3 2.5-2.2.6-.8.8-1.7.8-2.6V1.5l-.1-.9h1.1c.5 0 1 0 1.5.1.4 0 .7.1.9.1-.1.3-.1.5-.1.8v2.6c0 .3 0 .6-.1 1s-.1.8-.2 1c1.1.6 2.3 1.2 3.5 1.9s2.3 1.3 3.2 2c-.6.8-1.4 1.8-2.3 2.9-.7-.6-1.5-1.2-2.7-2-1.1-.8-2.2-1.4-3.3-2m-3.4-6.3c-.1.7-.3 1.5-.6 2.3s-.6 1.5-.9 2l-2.8-.9c.3-.5.7-1.2 1-2.1s.6-1.6.6-2.2l2.9.6zm11.4.3c-.2.4-.5 1.1-.9 1.9q-.6 1.2-1.2 2.1c-.3-.2-1.2-.5-2.6-1.1.2-.3.4-.7.7-1.1.3-.5.5-1 .8-1.6s.5-1 .6-1.3l2.8.9zM112.5 4.5v29.1c0 .7 0 1.5.1 2.5h-4.3c.1-.9.1-1.7.1-2.4-7.9.4-17.4.7-28.3.7.1-.8.1-1.6.1-2.2V4.4c0-.5 0-1-.1-1.7.5 0 1.2 0 2.2.1 1 0 1.7.1 2.1.1-.1.3-.1.8-.1 1.5v25.9c8.5 0 16.6-.2 24.1-.7V4.5c0-.6 0-1.2-.1-1.9.5 0 1.2 0 2.2.1 1 0 1.7.1 2.1.1-.1.3-.1.9-.1 1.7M85.1 25.1c3.6-2.5 6.7-5.5 9.4-9.2-.5-.4-1.5-1.2-2.9-2.4s-3-2.3-4.7-3.4l2.5-3.5q3.3 2.25 7.5 5.7c1-1.6 1.9-3.2 2.6-5 .8-1.8 1.4-3.5 1.9-5.3.6.3 1.9.9 3.9 2l-.2.4c-.6 1.8-1.4 3.7-2.2 5.4-.8 1.8-1.8 3.5-2.8 5.1 2.8 2.4 5 4.4 6.5 5.9l-2.3 4c-2.1-2.1-4.3-4.2-6.7-6.3-2.9 3.8-6.1 7-9.8 9.6-.2-.2-.5-.7-1-1.2-.4-.4-1-1-1.7-1.8M146.6 31.1c.3-.3.6-.7.8-1.1.2-.5.3-1.1.4-1.8s.1-1.4.1-2.1q.6.45 1.5.9c.6.3 1 .6 1.4.8s.7.4 1 .5c-.1 1.2-.3 2.3-.6 3.2s-.8 1.7-1.5 2.3-1.7 1.1-2.9 1.5c-1.3.3-3 .5-5.3.5-2.2 0-3.9-.1-5.1-.2s-2-.4-2.6-.8c-.5-.4-.9-.9-1.1-1.7-.2-.7-.4-1.7-.4-3v-4.9l-9.5 1.1c-2.1.3-3.3.5-3.5.5l-.2-4c.9 0 2.1-.1 3.5-.4l9.7-1.2v-4.7c-2.7.4-5.2.6-7.7.8l-1.3-3.3h-4c.1-.4.1-.8.1-1.2v-7c0-.3 0-.7-.1-1.1h15.4c-.6-1.3-1.2-2.3-1.7-3.2l3.7-1.5c.3.4.6 1 1 1.8s.9 1.8 1.5 2.9h13.3v9.5h-4.1V8.3h-24.9v5.5c3.5-.1 7.1-.5 10.9-1.1s6.8-1.4 9-2.3l2.6 3.3-1.1.2c-.5.2-1.5.4-3 .8q-2.25.6-5.4 1.2v4.9l12.8-1.6c1.4-.2 2.6-.3 3.5-.5l.3 4h-.7c-.2 0-1.2.1-2.9.3l-13.1 1.6v5.5c0 .8.4 1.4 1.1 1.6.8.1 2.2.2 4.3.2 1.2 0 2.2-.1 3-.2.7 0 1.3-.3 1.8-.6" class="st0"/></svg>