<!--Generator: Adobe Illustrator 25.0.0, SVG Export Plug-In-->
<svg version="1.1" xmlns="http://www.w3.org/2000/svg" xmlns:xlink="http://www.w3.org/1999/xlink" x="0px" y="0px" width="153px" height="36.4px" viewBox="0 0 153 36.4" style="overflow:visible;enable-background:new 0 0 153 36.4;" xml:space="preserve">
    <style type="text/css">
        .st0{fill:#FFFFFF;}
    </style>
    <defs/>
    <path class="st0" d="M31.5,25.7c1.6,0,2.6,0,3.3-0.1v3.5c-0.7-0.1-1.8-0.1-3.5-0.1H27v0.5l0.1,2.7c0,0.7-0.2,1.2-0.5,1.7
	c-0.3,0.5-0.8,0.9-1.5,1.2c-0.7,0.3-1.6,0.6-2.8,0.8s-2.6,0.3-4.2,0.3c-0.1-0.3-0.4-0.8-0.7-1.5c-0.4-0.7-0.8-1.5-1.3-2.4
	c1.4,0.2,2.7,0.3,3.9,0.3c0.9,0,1.6-0.1,2.1-0.3c0.5-0.2,0.8-0.5,0.8-1v-1.8v-0.5H10.1c0.8,0.3,1.8,0.6,2.8,1c1,0.4,1.9,0.8,2.6,1.1
	l-2,2.8c-0.8-0.6-1.9-1.2-3.3-1.8c-1.4-0.6-2.6-1.1-3.6-1.4l1.3-1.8H3.4c-1.6,0-2.8,0-3.4,0.1v-3.5c0.7,0.1,1.8,0.1,3.4,0.1h19.5
	v-0.7l-0.1-1c0.5,0,1.2,0,2.2,0.1c1,0,1.7,0.1,2.1,0.1c-0.1,0.3-0.1,0.6-0.1,0.9v0.6h4.1c-0.4-0.6-0.9-1.4-1.7-2.3
	c-1.7,0.1-4.1,0.2-7.2,0.3s-6.6,0.2-10.5,0.3C8,24.1,5,24.2,3,24.2l-2,0.1l-0.3-3.4L3.2,21c2.2,0.1,6.3,0.1,12.4,0v-1.7H4.7
	c0.1-0.4,0.1-0.8,0.1-1.2V9.2c0-0.3,0-0.8-0.1-1.2h10.9V6.3H3.6c-1.6,0-2.7,0-3.3,0.1V3.1c0.6,0.1,1.7,0.1,3.3,0.1h11.9V2
	c0-0.4,0-0.9-0.1-1.5c0.5,0,1.2,0,2.2,0.1c1,0,1.6,0.1,2,0.1c-0.1,0.5-0.1,1-0.1,1.3v1.2h11.4c1.6,0,2.7,0,3.3-0.1v3.2
	c-0.7-0.1-1.8-0.1-3.3-0.1H19.5V8h10.9l0,1.2v8.8l0,1c0.6,0.6,1.3,1.3,2.1,2.2c0.8,0.8,1.4,1.6,2,2.3L31.5,25.7z M15.5,10.7h-7v1.7
	h7V10.7z M8.5,16.7h7v-1.8h-7V16.7z M26.6,10.7h-7v1.7h7V10.7z M26.6,16.7v-1.8h-7v1.8H26.6z M19.5,21l7.7-0.2
	c-0.7-0.7-1.1-1.2-1.4-1.4h-6.3V21z"/>
    <path class="st0" d="M48,8.8c-0.8,0.9-1.8,1.8-3,2.5s-2.6,1.3-4.1,1.8l-1.6-2.8c1-0.3,1.9-0.6,2.8-1c0.9-0.4,1.7-0.9,2.3-1.5
	c0.6-0.5,1.1-1.1,1.4-1.8c0.3-0.7,0.5-1.4,0.5-2.2V1.5l-0.1-0.9c0.2,0,0.5,0,1.1,0c0.5,0,1,0,1.5,0.1s0.8,0.1,0.9,0.1
	c-0.1,0.3-0.1,0.5-0.1,0.8v2.6c0,0.6-0.1,1.2-0.2,1.9C52,7.4,54,8.6,55.5,9.8c-0.7,0.8-1.5,1.8-2.2,2.7C52.4,11.6,50.6,10.4,48,8.8z
	 M45.1,2.6c-0.3,0.8-0.7,1.7-1.1,2.5c-0.4,0.8-0.8,1.5-1.2,2L40,6c0.5-0.6,1-1.3,1.4-2.2c0.4-0.8,0.8-1.6,1-2.3l3,0.7L45.1,2.6z
	 M73.5,13.1c0,0.2,0,0.6,0,1v5.4l0,1.1h-4.1V16H44.4v4.6h-4.1c0.1-0.4,0.1-0.8,0.1-1.1v-5.4c0-0.3,0-0.7-0.1-1H73.5z M70.3,26.9
	c0,0.2,0,0.6,0,1.1v7.1l0,1.2h-4.1v-1.5H47.4v1.5h-4.1c0.1-0.4,0.1-0.8,0.1-1.2v-7.1c0-0.3,0-0.7-0.1-1.1h9.9c0.4-0.6,0.8-1.3,1.2-2
	h-7.7c0.1-0.4,0.1-0.7,0.1-1v-5.4c0-0.3,0-0.7-0.1-1h20.1c0,0.2,0,0.6,0,1v5.4l0,1h-8c-0.3,0.6-0.8,1.2-1.3,2H70.3z M47.4,32.1h18.8
	v-2.4H47.4V32.1z M50.7,20.1v2.2H63v-2.2H50.7z M55.9,3.2c-0.1,0.2-0.4,0.7-0.8,1.4S54.5,6,54.3,6.3c-0.2,0.4-0.4,0.7-0.5,0.9
	L51.2,6c0.3-0.4,0.7-1.1,1.1-2.1c0.4-0.9,0.8-1.6,0.9-2.1l2.9,0.9L55.9,3.2z M65.3,9c-0.8,0.9-1.8,1.7-3,2.4c-1.2,0.7-2.6,1.2-4,1.6
	l-1.6-2.8c1.5-0.4,2.8-0.9,3.9-1.5s1.9-1.3,2.5-2.2c0.6-0.8,0.8-1.7,0.8-2.6V1.5l-0.1-0.9c0.2,0,0.5,0,1.1,0c0.5,0,1,0,1.5,0.1
	c0.4,0,0.7,0.1,0.9,0.1c-0.1,0.3-0.1,0.5-0.1,0.8v2.6c0,0.3,0,0.6-0.1,1c-0.1,0.4-0.1,0.8-0.2,1c1.1,0.6,2.3,1.2,3.5,1.9
	c1.2,0.7,2.3,1.3,3.2,2c-0.6,0.8-1.4,1.8-2.3,2.9c-0.7-0.6-1.5-1.2-2.7-2C67.5,10.2,66.4,9.6,65.3,9z M61.9,2.7
	c-0.1,0.7-0.3,1.5-0.6,2.3c-0.3,0.8-0.6,1.5-0.9,2l-2.8-0.9c0.3-0.5,0.7-1.2,1-2.1s0.6-1.6,0.6-2.2l2.9,0.6L61.9,2.7z M73.3,3
	c-0.2,0.4-0.5,1.1-0.9,1.9c-0.4,0.8-0.8,1.5-1.2,2.1c-0.3-0.2-1.2-0.5-2.6-1.1c0.2-0.3,0.4-0.7,0.7-1.1c0.3-0.5,0.5-1,0.8-1.6
	c0.3-0.6,0.5-1,0.6-1.3l2.8,0.9L73.3,3z"/>
    <path class="st0" d="M112.5,4.5v29.1c0,0.7,0,1.5,0.1,2.5h-4.3c0.1-0.9,0.1-1.7,0.1-2.4c-7.9,0.4-17.4,0.7-28.3,0.7
	c0.1-0.8,0.1-1.6,0.1-2.2V4.4c0-0.5,0-1-0.1-1.7c0.5,0,1.2,0,2.2,0.1c1,0,1.7,0.1,2.1,0.1c-0.1,0.3-0.1,0.8-0.1,1.5v25.9
	c8.5,0,16.6-0.2,24.1-0.7V4.5c0-0.6,0-1.2-0.1-1.9c0.5,0,1.2,0,2.2,0.1c1,0,1.7,0.1,2.1,0.1C112.5,3.1,112.5,3.7,112.5,4.5z
	 M85.1,25.1c3.6-2.5,6.7-5.5,9.4-9.2c-0.5-0.4-1.5-1.2-2.9-2.4c-1.4-1.2-3-2.3-4.7-3.4l2.5-3.5c2.2,1.5,4.7,3.4,7.5,5.7
	c1-1.6,1.9-3.2,2.6-5c0.8-1.8,1.4-3.5,1.9-5.3c0.6,0.3,1.9,0.9,3.9,2l-0.2,0.4c-0.6,1.8-1.4,3.7-2.2,5.4c-0.8,1.8-1.8,3.5-2.8,5.1
	c2.8,2.4,5,4.4,6.5,5.9l-2.3,4c-2.1-2.1-4.3-4.2-6.7-6.3c-2.9,3.8-6.1,7-9.8,9.6c-0.2-0.2-0.5-0.7-1-1.2
	C86.4,26.5,85.8,25.9,85.1,25.1z"/>
    <path class="st0" d="M146.6,31.1c0.3-0.3,0.6-0.7,0.8-1.1c0.2-0.5,0.3-1.1,0.4-1.8c0.1-0.7,0.1-1.4,0.1-2.1c0.4,0.3,0.9,0.6,1.5,0.9
	c0.6,0.3,1,0.6,1.4,0.8s0.7,0.4,1,0.5c-0.1,1.2-0.3,2.3-0.6,3.2c-0.3,0.9-0.8,1.7-1.5,2.3s-1.7,1.1-2.9,1.5c-1.3,0.3-3,0.5-5.3,0.5
	c-2.2,0-3.9-0.1-5.1-0.2c-1.2-0.1-2-0.4-2.6-0.8c-0.5-0.4-0.9-0.9-1.1-1.7c-0.2-0.7-0.4-1.7-0.4-3l0-4.9l-9.5,1.1
	c-2.1,0.3-3.3,0.5-3.5,0.5l-0.2-4c0.9,0,2.1-0.1,3.5-0.4l9.7-1.2v-4.7c-2.7,0.4-5.2,0.6-7.7,0.8l-1.3-3.3h-4
	c0.1-0.4,0.1-0.8,0.1-1.2V5.8c0-0.3,0-0.7-0.1-1.1h15.4c-0.6-1.3-1.2-2.3-1.7-3.2l3.7-1.5c0.3,0.4,0.6,1,1,1.8
	c0.4,0.8,0.9,1.8,1.5,2.9h13.3c0,0.2,0,0.6,0,1.1v7.2l0,1.2h-4.1V8.3h-24.9v5.5c3.5-0.1,7.1-0.5,10.9-1.1s6.8-1.4,9-2.3l2.6,3.3
	l-1.1,0.2c-0.5,0.2-1.5,0.4-3,0.8c-1.5,0.4-3.3,0.8-5.4,1.2v4.9l12.8-1.6c1.4-0.2,2.6-0.3,3.5-0.5l0.3,4c-0.2,0-0.4,0-0.7,0
	c-0.2,0-1.2,0.1-2.9,0.3l-13.1,1.6v5.5c0,0.8,0.4,1.4,1.1,1.6c0.8,0.1,2.2,0.2,4.3,0.2c1.2,0,2.2-0.1,3-0.2
	C145.5,31.7,146.1,31.4,146.6,31.1z"/>
</svg>
