<!--Generator: Adobe Illustrator 25.0.0, SVG Export Plug-In-->
<svg version="1.1" xmlns="http://www.w3.org/2000/svg" xmlns:xlink="http://www.w3.org/1999/xlink" x="0px" y="0px" width="155.6px" height="36.3px" viewBox="0 0 155.6 36.3" style="overflow:visible;enable-background:new 0 0 155.6 36.3;" xml:space="preserve">
    <style type="text/css">
        .st0{fill:#FFFFFF;}
    </style>
    <defs/>
    <path class="st0" d="M9,9v24.9c0,0.6,0,1.4,0.1,2.3H4.7c0.1-0.9,0.1-1.7,0.1-2.3c0-2,0.1-4.9,0.2-8.5c0.1-3.6,0.2-7,0.4-10.1
	c-0.6,1-1.2,1.9-1.8,2.9c-0.6,0.9-1.2,1.7-1.8,2.3c-0.6-1.6-1.1-3-1.8-4.2c0.9-1,1.9-2.4,3-4.2C4,10.2,5,8.2,6,6S7.6,1.8,8,0.1
	l3.8,1.5c-0.1,0.1-0.1,0.2-0.2,0.3C10.8,4.6,9.9,7,9,9z M33.8,31.1c1.3,0,2.2,0,2.7-0.1v3.7c-0.6-0.1-1.5-0.1-2.7-0.1H13.4
	c-1.4,0-2.4,0-2.9,0.1v-3.7c0.6,0.1,1.5,0.1,2.9,0.1H14v-20c0-0.6,0-1.2-0.1-2h7l0.2-2.2H14c-1.3,0-2.2,0-2.7,0.1V3.3
	c0.5,0.1,1.4,0.1,2.7,0.1h7.3l0.2-2.4c0-0.4,0-0.6,0-0.8l4,0.3c-0.1,0.1-0.1,0.2-0.1,0.4l-0.2,2.5h7.9c1.2,0,2.1,0,2.6-0.1v3.6
	c-0.5-0.1-1.4-0.1-2.6-0.1H25c-0.1,1-0.1,1.8-0.2,2.2H33l-0.1,2v20H33.8z M29,12.7H18V15h11V12.7z M29,20.4v-2.3H18v2.3H29z
	 M18,23.4v2.3h11v-2.3H18z M18,28.7v2.4h11v-2.4H18z"/>
    <path class="st0" d="M48.5,16.3v17.8c0,0.9,0,1.5,0.1,1.8h-4c0.1-0.3,0.1-0.9,0.1-1.8c0-0.1,0-0.3,0-0.6c0-0.3,0-1.7,0.1-4.1
	c0-2.4,0.1-5.4,0.2-8.9c-1.4,1.6-2.6,2.7-3.6,3.4c-0.1-0.4-0.4-1-0.8-1.8c-0.4-0.8-0.7-1.4-1-1.9c1.8-1.2,3.6-3,5.4-5.2
	s3.1-4.2,3.8-5.9l3.2,2.1l-0.4,0.4C50.8,13.1,49.8,14.7,48.5,16.3z M51.4,2.6c-0.6,0.8-1.4,1.8-2.4,3c-1,1.2-2.2,2.3-3.5,3.5
	c-1.3,1.2-2.5,2-3.4,2.5c-0.1-0.2-0.3-0.6-0.7-1.2c-0.4-0.6-0.8-1.3-1.4-2.1c1.6-0.9,3.3-2.2,5.1-4c1.8-1.7,3-3.2,3.6-4.3l3.1,2.2
	L51.4,2.6z M73.4,22.1c1.3,0,2.2,0,2.7-0.1v3.4c-0.5-0.1-1.4-0.1-2.7-0.1h-2.5v3.8l0.1,2.8c0,1-0.3,1.7-0.9,2.3
	c-0.6,0.6-1.6,1-2.8,1.2c-1.2,0.3-2.8,0.4-4.7,0.4c-0.3-0.7-1-2-1.9-3.9c1.3,0.2,2.5,0.3,3.7,0.3c1,0,1.7-0.1,2.1-0.3
	c0.4-0.2,0.6-0.5,0.6-0.9v-1.8v-3.8H53.8c-1.3,0-2.2,0-2.7,0.1v-3.4c0.5,0.1,1.4,0.1,2.7,0.1h13.3v-2.6H54c-1.3,0-2.2,0-2.7,0.1
	v-3.4c0.5,0.1,1.4,0.1,2.7,0.1h19.1c1.3,0,2.2,0,2.7-0.1v3.4c-0.5-0.1-1.4-0.1-2.7-0.1h-2.2v2.6H73.4z M56.4,25.7
	c2,1.2,3.9,2.6,5.7,4.3c-0.9,0.8-1.9,1.5-2.9,2.3c-0.6-0.7-1.5-1.6-2.5-2.4c-1-0.9-2-1.6-2.8-2.2L56.4,25.7z M54.2,13.9
	c0.1-0.5,0.1-0.9,0.1-1.3V2.9c0-0.3,0-0.7-0.1-1.3h18.4l0,1.3v9.7l0,1.3H54.2z M68.7,4.6H58v1.8h10.7V4.6z M58,11h10.7V9H58V11z"/>
    <path class="st0" d="M87.9,8.9v24.9c0,0.6,0,1.4,0.1,2.3h-4.4c0.1-0.9,0.1-1.7,0.1-2.3c0-2.1,0.1-4.9,0.2-8.6c0.1-3.7,0.2-7,0.4-9.9
	c-1.3,2.1-2.5,3.8-3.6,5.1c-0.2-0.7-0.9-2.1-2-4.2c0.8-0.8,1.8-2,2.8-3.7c1.1-1.6,2.2-3.7,3.3-6.1S86.6,1.8,87,0l3.9,1.5l-0.2,0.3
	C89.8,4.4,88.9,6.7,87.9,8.9z M112.8,5.6c1.3,0,2.3,0,2.8-0.1v3.7c-0.6-0.1-1.5-0.1-2.8-0.1H92.5c-1.3,0-2.3,0-2.8,0.1V5.5
	c0.6,0.1,1.5,0.1,2.8,0.1h8.6c-0.8-1.2-1.7-2.4-2.8-3.7l3.4-1.9c1.2,1.1,2.3,2.5,3.3,4.2l-2.3,1.3H112.8z M112.7,23l0,1.4v10.4
	l0,1.3h-4.1v-1.6H96.4V36h-4.2c0.1-0.5,0.1-0.9,0.1-1.3V24.4L92.2,23H112.7z M109.5,14.8H95c-1.1,0-1.8,0-2.2,0v-3.3
	c0.4,0,1.2,0,2.2,0h14.4l2.2,0v3.3L109.5,14.8z M92.8,20.5v-3.3c0.4,0,1.2,0,2.2,0h14.4l2.2,0v3.3l-2.2,0H95
	C94,20.4,93.2,20.5,92.8,20.5z M96.4,31.1h12.1v-4.9H96.4V31.1z"/>
    <path class="st0" d="M132.3,30.7c-0.2-0.4-0.4-0.9-0.6-1.6c-0.3-0.6-0.6-1.3-1-2.1s-0.8-1.5-1.2-2.1v9.5c0,0.7,0,1.2,0.1,1.5h-3.9
	c0.1-0.3,0.1-0.8,0.1-1.5l0.1-8.7c-0.8,1.6-1.7,3.1-2.8,4.5c-1.1,1.4-2.1,2.6-3.1,3.5c-0.1-0.2-0.3-0.7-0.6-1.3
	c-0.3-0.7-0.7-1.5-1.2-2.4c0.6-0.4,1.2-1,1.9-1.8c0.7-0.8,1.5-1.7,2.2-2.8c0.7-1.1,1.4-2.3,1.9-3.5h-4.1c0.1-0.5,0.1-0.9,0.1-1.2
	v-8.5c0-0.3,0-0.7-0.1-1.2h5.7v-3h-4.5l-2.1,0V4.3l2.1,0h4.5v-3l-0.1-1.2c0.4,0,1.1,0,2,0.1c0.9,0,1.5,0.1,1.9,0.1
	c-0.1,0.4-0.1,0.7-0.1,1v3h4.5c1,0,1.7,0,2.1,0v3.6c-0.4,0-1.1,0-2.1,0h-4.5v3h5.8c0,0.2,0,0.6,0,1.2v8.5l0,1.2h-5.8v1.7l1.9-1
	c0.7,0.9,1.4,1.9,2.1,3.1c0.7,1.2,1.4,2.3,1.9,3.4L132.3,30.7z M123.5,14.1v4.6h2.4v-4.6H123.5z M132,18.6v-4.6h-2.4v4.6H132z
	 M132.8,33.2c0.8-0.2,1.7-0.4,2.9-0.8c1.2-0.4,2.3-0.8,3.6-1.4c1.2-0.6,2.1-1.1,2.6-1.5l2.6,2.1c-1,0.8-2.3,1.6-4,2.4
	c-1.7,0.9-3.5,1.6-5.4,2.2C134.7,35.7,133.9,34.7,132.8,33.2z M142,5.2h-3l-2,0V1.9l2,0h15.1c-0.1,0.5-0.1,0.9-0.1,1.2
	c0,1.6-0.1,2.9-0.2,3.8c-0.1,0.9-0.3,1.6-0.5,2.2c-0.3,0.9-1.1,1.5-2.1,2c-1.1,0.5-2.6,0.7-4.5,0.7c-0.1-0.2-0.5-1.3-1.2-3.5
	c0.3,0.1,0.6,0.2,1,0.3c0.4,0.1,0.7,0.1,1.1,0.1c0.4,0,0.9-0.1,1.3-0.2s0.7-0.4,0.9-0.9c0.2-0.5,0.3-1.3,0.4-2.4h-4.6
	c-0.4,1.5-1.2,2.8-2.5,4c-1.2,1.2-2.8,2.1-4.8,2.8h15l0,1.5v14.3l0,1.5H138c0.1-0.6,0.1-1.1,0.1-1.5V13.5l-0.1-1.4l-0.5,0.2
	c-0.3-0.7-1-1.8-2-3.2c1.3-0.3,2.4-0.7,3.3-1.1c0.9-0.4,1.6-0.9,2.1-1.4S141.8,5.6,142,5.2z M149.8,15h-8.1V17h8.1V15z M141.6,21.6
	h8.1v-1.9h-8.1V21.6z M141.6,26.3h8.1v-2.1h-8.1V26.3z M148.5,29.8c1.2,0.5,2.4,1.1,3.7,1.7s2.4,1.3,3.5,2l-1.9,2.8
	c-2-1.4-4.4-2.9-7.2-4.3L148.5,29.8z"/>
</svg>
