<svg xmlns="http://www.w3.org/2000/svg" xml:space="preserve" width="155.6" height="36.3" style="overflow:visible" viewBox="0 0 155.6 36.3"><style>.st0{fill:#fff}</style><path d="M9 9v24.9c0 .6 0 1.4.1 2.3H4.7c.1-.9.1-1.7.1-2.3 0-2 .1-4.9.2-8.5s.2-7 .4-10.1c-.6 1-1.2 1.9-1.8 2.9-.6.9-1.2 1.7-1.8 2.3-.6-1.6-1.1-3-1.8-4.2q1.35-1.5 3-4.2C4 10.2 5 8.2 6 6S7.6 1.8 8 .1l3.8 1.5c-.1.1-.1.2-.2.3C10.8 4.6 9.9 7 9 9m24.8 22.1c1.3 0 2.2 0 2.7-.1v3.7c-.6-.1-1.5-.1-2.7-.1H13.4c-1.4 0-2.4 0-2.9.1V31c.6.1 1.5.1 2.9.1h.6v-20c0-.6 0-1.2-.1-2h7l.2-2.2H14c-1.3 0-2.2 0-2.7.1V3.3c.5.1 1.4.1 2.7.1h7.3l.2-2.4V.2l4 .3c-.1.1-.1.2-.1.4l-.2 2.5h7.9c1.2 0 2.1 0 2.6-.1v3.6c-.5-.1-1.4-.1-2.6-.1H25c-.1 1-.1 1.8-.2 2.2H33l-.1 2v20h.9zM29 12.7H18V15h11zm0 7.7v-2.3H18v2.3zm-11 3v2.3h11v-2.3zm0 5.3v2.4h11v-2.4zM48.5 16.3v17.8c0 .9 0 1.5.1 1.8h-4c.1-.3.1-.9.1-1.8v-.6c0-.3 0-1.7.1-4.1 0-2.4.1-5.4.2-8.9-1.4 1.6-2.6 2.7-3.6 3.4-.1-.4-.4-1-.8-1.8s-.7-1.4-1-1.9c1.8-1.2 3.6-3 5.4-5.2s3.1-4.2 3.8-5.9l3.2 2.1-.4.4c-.8 1.5-1.8 3.1-3.1 4.7m2.9-13.7q-.9 1.2-2.4 3c-1 1.2-2.2 2.3-3.5 3.5s-2.5 2-3.4 2.5c-.1-.2-.3-.6-.7-1.2s-.8-1.3-1.4-2.1c1.6-.9 3.3-2.2 5.1-4 1.8-1.7 3-3.2 3.6-4.3l3.1 2.2zm22 19.5c1.3 0 2.2 0 2.7-.1v3.4c-.5-.1-1.4-.1-2.7-.1h-2.5v3.8l.1 2.8c0 1-.3 1.7-.9 2.3s-1.6 1-2.8 1.2c-1.2.3-2.8.4-4.7.4-.3-.7-1-2-1.9-3.9 1.3.2 2.5.3 3.7.3q1.5 0 2.1-.3t.6-.9v-5.6H53.8c-1.3 0-2.2 0-2.7.1v-3.4c.5.1 1.4.1 2.7.1h13.3v-2.6H54c-1.3 0-2.2 0-2.7.1v-3.4c.5.1 1.4.1 2.7.1h19.1c1.3 0 2.2 0 2.7-.1v3.4c-.5-.1-1.4-.1-2.7-.1h-2.2v2.6h2.5zm-17 3.6c2 1.2 3.9 2.6 5.7 4.3-.9.8-1.9 1.5-2.9 2.3-.6-.7-1.5-1.6-2.5-2.4-1-.9-2-1.6-2.8-2.2zm-2.2-11.8c.1-.5.1-.9.1-1.3V2.9c0-.3 0-.7-.1-1.3h18.4v12.3zm14.5-9.3H58v1.8h10.7zM58 11h10.7V9H58zM87.9 8.9v24.9c0 .6 0 1.4.1 2.3h-4.4c.1-.9.1-1.7.1-2.3 0-2.1.1-4.9.2-8.6s.2-7 .4-9.9q-1.95 3.15-3.6 5.1c-.2-.7-.9-2.1-2-4.2.8-.8 1.8-2 2.8-3.7 1.1-1.6 2.2-3.7 3.3-6.1S86.6 1.8 87 0l3.9 1.5-.2.3c-.9 2.6-1.8 4.9-2.8 7.1m24.9-3.3c1.3 0 2.3 0 2.8-.1v3.7c-.6-.1-1.5-.1-2.8-.1H92.5c-1.3 0-2.3 0-2.8.1V5.5c.6.1 1.5.1 2.8.1h8.6c-.8-1.2-1.7-2.4-2.8-3.7l3.4-1.9q1.8 1.65 3.3 4.2l-2.3 1.3h10.1zm-.1 17.4v13.1h-4.1v-1.6H96.4V36h-4.2c.1-.5.1-.9.1-1.3V24.4l-.1-1.4zm-3.2-8.2H92.8v-3.3h18.8v3.3zm-16.7 5.7v-3.3h18.8v3.3H95c-1-.1-1.8 0-2.2 0m3.6 10.6h12.1v-4.9H96.4zM132.3 30.7c-.2-.4-.4-.9-.6-1.6-.3-.6-.6-1.3-1-2.1s-.8-1.5-1.2-2.1v9.5c0 .7 0 1.2.1 1.5h-3.9c.1-.3.1-.8.1-1.5l.1-8.7c-.8 1.6-1.7 3.1-2.8 4.5s-2.1 2.6-3.1 3.5c-.1-.2-.3-.7-.6-1.3q-.45-1.05-1.2-2.4c.6-.4 1.2-1 1.9-1.8s1.5-1.7 2.2-2.8 1.4-2.3 1.9-3.5h-4.1c.1-.5.1-.9.1-1.2v-8.5c0-.3 0-.7-.1-1.2h5.7V8h-6.6V4.3h6.6v-3l-.1-1.2c.4 0 1.1 0 2 .1.9 0 1.5.1 1.9.1-.1.4-.1.7-.1 1v3h6.6v3.6h-6.6v3h5.8v10.9h-5.8v1.7l1.9-1c.7.9 1.4 1.9 2.1 3.1s1.4 2.3 1.9 3.4zm-8.8-16.6v4.6h2.4v-4.6zm8.5 4.5V14h-2.4v4.6zm.8 14.6c.8-.2 1.7-.4 2.9-.8s2.3-.8 3.6-1.4c1.2-.6 2.1-1.1 2.6-1.5l2.6 2.1c-1 .8-2.3 1.6-4 2.4-1.7.9-3.5 1.6-5.4 2.2-.4-.5-1.2-1.5-2.3-3m9.2-28h-5V1.9h17.1c-.1.5-.1.9-.1 1.2 0 1.6-.1 2.9-.2 3.8s-.3 1.6-.5 2.2c-.3.9-1.1 1.5-2.1 2-1.1.5-2.6.7-4.5.7-.1-.2-.5-1.3-1.2-3.5.3.1.6.2 1 .3s.7.1 1.1.1.9-.1 1.3-.2.7-.4.9-.9.3-1.3.4-2.4h-4.6c-.4 1.5-1.2 2.8-2.5 4-1.2 1.2-2.8 2.1-4.8 2.8h15v17.3H138c.1-.6.1-1.1.1-1.5V13.5l-.1-1.4-.5.2c-.3-.7-1-1.8-2-3.2 1.3-.3 2.4-.7 3.3-1.1s1.6-.9 2.1-1.4.9-1 1.1-1.4m7.8 9.8h-8.1v2h8.1zm-8.2 6.6h8.1v-1.9h-8.1zm0 4.7h8.1v-2.1h-8.1zm6.9 3.5c1.2.5 2.4 1.1 3.7 1.7s2.4 1.3 3.5 2l-1.9 2.8c-2-1.4-4.4-2.9-7.2-4.3z" class="st0"/></svg>