<!--Generator: Adobe Illustrator 25.0.0, SVG Export Plug-In-->
<svg version="1.1" xmlns="http://www.w3.org/2000/svg" xmlns:xlink="http://www.w3.org/1999/xlink" x="0px" y="0px" width="382.4px" height="208.9px" viewBox="0 0 382.4 208.9" style="overflow:visible;enable-background:new 0 0 382.4 208.9;" xml:space="preserve">
    <style type="text/css">
        .st0{fill:#FFFFFF;}
    </style>
    <defs/>
    <g>
        <path class="st0" d="M209.8,0c1.4,0,2.9,0.3,4.5,0.4c32.7,2,64.5,13.3,90.6,33.3c22.3,17.2,39.6,40.7,48.8,67.3
		c0.1,0.4,0,1.4-0.3,1.7c-0.2,0.3-0.9,0.7-1.4,0.7l-6.3,0c-0.9,0-1.9-0.6-2.3-1.6c-4.6-13.4-11.4-25.9-20.1-37.2
		c-12.3-15.9-27.8-29-45.5-38.5c-50.5-27.2-115.4-25.5-164.1,5c-11,6.9-21,15.1-29.8,24.6c-0.6,0.7-1.5,1-2.4,0.8
		c-0.4-0.1-0.9-0.7-1-1c-0.1-0.3,0-1.1,0.3-1.4c28.5-32.5,68.8-51,111.8-53.7c1.7-0.1,3.1,0,4.5-0.3H209.8z"/>
        <path class="st0" d="M382.4,138.3v7.6c-0.5,0.9-1.1,1.4-2.2,1.4l-21.4,0c-0.3,7.7-1,15-2.3,22.4c-0.2,1.2-1.4,1.9-2.5,2l-5.9,0
		c-1-0.1-1.9-1-1.7-2.1c1.3-7.3,2.2-14.6,2.4-22.3l-22.1,0c-1,0-1.7-0.9-1.8-1.8l0-6.7c0.1-0.9,0.7-1.8,1.8-1.8l22.2,0
		c-0.3-7.7-1.1-14.9-2.4-22.3c-0.2-1.1,0.7-2,1.7-2.1l5.9,0c1.3,0,2.3,0.8,2.6,2.1c1.3,7.4,2,14.6,2.3,22.3l21.2,0
		C381.1,136.9,381.9,137.3,382.4,138.3z"/>
        <path class="st0" d="M60.8,127c10.1-0.3,22.9,0.9,31.9,5.7c2.2,1.2,4.2,2.8,5.5,4.8c2.4,3.7,1.8,7.9-0.9,11c-5,5.7-12.4,3-12.4,1.5
		c0.1-1.3,2.6-1.3,4.9-3.7c0.9-0.9,0.9-2,0.1-2.9c-0.7-0.5-1.4-0.8-2.2-1.2c-8.7-2.7-17.5-4.2-26.8-4.5l0.6,29.6
		c9.9,2,19.9,1.9,29.8,0.1c4.5-0.9,8.6-2.3,12.6-4.4c10.2-5.3,16-15.7,11.8-27c-4-10.7-11.7-19.1-20.8-26c-9-6.9-18.9-12.1-29.6-16
		c-6.7-2.4-13.1-4.5-20.1-6c-10.3-2.2-20.6-3.1-31.1-2.3c-3.4,0.3-6.5,0.7-9.6,2.3c1.9,1,3.8,0.2,5.7,1.6c0.5,0.3,0.8,1.2,0.7,1.6
		c-0.5,2.3-6.7,1.5-9.1,0.6c-1.1-0.4-2-1.5-1.8-2.8c0.8-4.7,4.2-8.1,8.7-9.4c12.8-3.6,26.3-3.5,39.4-0.9c8.8,1.8,17.3,4.2,25.7,7.5
		c17.4,6.8,33,17.1,44.8,31.6c9.6,11.8,15.3,26.4,6.7,40.5c-2.8,4.5-6.2,8.3-10.7,11.3c-3.5,2.3-7.1,4-11.1,5.3
		c-14.2,4.7-27.5,4.9-42,1.3c0,2-0.1,3.7-1,5.1c-0.7,1.1-2.2,1.4-3.4,1.6c-3.2,0.5-5.9-1.3-6.6-4.5c-0.5-2.2-0.7-4.5-1-6.9
		c-9.5-4.1-22.7-13.2-28.2-22c-2.8-4.5-2-8.7,2.2-12c7.1-5.4,17.5-8,26.4-9.5c0.3-7.4,0.6-15.4,2.8-22.4c0.3-0.4,0.7-1,1-1.1
		c1.7-0.7,3.9,2.6,4.6,4.1C60.5,114.7,60.6,120.3,60.8,127z M24,147.9c7.1,7.3,15.8,12.7,25.4,16l-0.1-25.7
		c-8.1,0.4-15.7,1.8-23.3,4c-1.2,0.6-2.5,1.1-3.1,2.2C22.4,145.7,23.2,146.8,24,147.9z"/>
        <path class="st0" d="M315.5,137.6c1.6,11.5-3,20.2-11.5,27.7c-4.6,4.1-11,6.6-17.3,5.1c-5.1,11.7-8.4,24-10,36.7
		c-0.1,0.8-0.8,1.6-1.3,1.8c-2.5,1.1-9.6-5-9.3-13.9c0.4-10.6,5.1-22.4,9.5-32c-3.7-6.1-3.1-13.6-0.7-20c2.8-7.2,7.3-13.5,13.2-18.6
		c0.5-0.4,1.6-0.6,2-0.2c0.7,2.6,0,5.6-1.4,8l-5.3,9.5c-1.7,3.1-3.3,8.1-2.6,11.7c5.1-7.6,15.4-22.4,24.6-24.7
		c3.1-0.8,6.2,0.4,7.9,3.2C314.5,133.5,315.2,135.5,315.5,137.6z M308.7,146.9c1.2-2.6,1.7-5.3,1.3-8.1c-0.1-0.6-0.7-1.4-1.1-1.5
		c-0.4,0-1.4,0.2-1.8,0.6c-6.1,6.4-11.5,13.4-15.6,21.4C299.5,158.1,305.3,154,308.7,146.9z"/>
        <path class="st0" d="M154.2,150.1c6.1-2.5,13.5-1.4,19.8,0.4c1.8,0.5,3.3,1.2,4.9,2c0.4,0.2,0.8,0.9,0.9,1.2c0.2,2-3.9,3.1-5.4,3.5
		c-5.7,1.6-8.6-1.1-14.2-2.9c-2.4-0.8-6.3-0.5-6.6,2.3c-0.1,0.8,0.5,1.7,1.3,2.1c2.6,1.5,5.5,2,8.5,1.9c6.9-0.1,14.7-1.2,20.2-5.5
		c0.6-0.4,1-1.4,1-2c-0.2-2.7-5.7-4-8-4.5c-5.2-1-10.3-1.4-15.5-1.9c-3-0.2-5.8-0.5-8.7-1.1c-1.9-0.4-3.9-1.7-4.4-3.7
		c-1-4,0.7-8.1,3.9-10.7c2.5-2,5.4-3.3,8.5-4.1c9.3-2.6,23.1-3.4,31.8,1c0.9,0.4,1.2,1.3,1,2.2c-0.6,2-2.3,3.4-4.4,3.8
		c-3,0.5-6,0.7-9.1,0.8c-4.6,0.2-9.1,0.3-13.7,0.7c-1.6,0.1-9.9,1.1-10.1,2.6c-0.1,0.8,2.4,1.2,3.2,1.3l17.4,2.1
		c3.9,0.5,10.3,1.8,12.7,5c3.3,4.4,3.8,10.4,1.3,15.2c-1.6,3-4.3,5.1-7.5,6.4c-9.4,3.8-20.3,2.3-28.4-3.6c-1.7-1.3-3.1-2.8-4-4.6
		C148.5,156.1,150.3,151.7,154.2,150.1z"/>
        <path class="st0" d="M247.7,159.3c5.8-1,11.2-2.4,17.1-2.6c2.5-0.1,4.6,3,4,5.2c-0.3,1.1-1.2,1.9-2,2.6c-5.2,4.3-15.4,9.7-22.2,8.5
		c-2.3-0.4-4.1-2-5.6-3.7c-4.6-5.1-2.2-12.5-0.1-18.3c-0.7-2.1-1.9-5.1-0.5-6.9c1.2-0.5,2.2-0.7,3.6-0.9l3.4-7c-3.5,0-6-1.7-7.5-4.6
		c-0.2-0.5-0.5-1.3-0.3-1.8c0.2-0.4,0.9-1,1.5-1.1c8.9-2.1,17.9-3.1,27-3.3c2.1,0,3.8,0.4,5.4,1.9c1.6,1.5,2.8,3.4,3.6,5.4
		c0.4,1-0.2,2.1-1.2,2.3c-5.8,1.3-13.5,1.6-19.7,2l-1.8,5.5c4.2-0.2,8-0.3,12.1-0.1c0.9,0.1,1.8,0.6,1.8,1.6
		c0.1,1.6,0.1,3.1-0.3,4.7c-0.2,0.8-1.5,1.3-2.3,1.3l-14.6,0.8l-2.3,7.7c0,0.1,0,0.5,0,0.6C247.1,159.2,247.5,159.3,247.7,159.3z"/>
        <path class="st0" d="M199.8,169.9c-3.9-0.5-4.5-5.4-4.6-8.7c-0.2-8.7,0.8-17.3,3.2-25.6c0.6-2.1,1.5-4,2.8-5.6
		c1.3-1.6,3.4-1.9,4.9-0.5c4.1,3.7,8.8,11.1,11.7,16c1.6,2.6,3.1,5.1,4.8,7.6c0.2,0.3,1.3,0.8,1.4,0.5c0.5-1.4,0.3-2.9,0.1-4.4
		c-1.3-8.4-3.4-16.6-5.7-24.7c-0.4-1.5-0.9-4.5,0.5-5.2c0.3-0.2,1.3-0.2,1.6,0c4.8,2.8,8.5,8.3,10.5,13.6c3.2,8.7,3.6,18.2,1.4,27.1
		c-0.6,2.5-1.8,4.5-3.7,6.1c-2.7,2.2-6.4,1.8-8.7-0.7c-4.3-4.6-8.1-12-11-17.6c-0.7-1.4-1.3-2.6-2.5-3.8c-0.7,2.4-0.8,4.5-0.8,6.8
		l-0.5,11.9c-0.1,1.9-0.4,3.9-1.3,5.5C202.9,169.6,201.2,170.1,199.8,169.9z"/>
        <path class="st0" d="M133.5,118c-0.6,1.1-1.2,2-1.8,2.8c-0.9,1.1-2.3,1-3.2,0.1c-3.4-3.3-0.9-6-2.9-8.5c-4-5.1-2.6-11.4,1.3-16.2
		c5.5-6.7,15.1-11.9,23.9-11c3.1,0.3,5.8,1.8,7.7,4.3c5.5,0.9,9.5,5,8.3,10.8c-0.7,3.3-2.6,6-5.1,8.3
		C154.6,115.4,143.8,121.7,133.5,118z M130,107.2c3.4-5,7.1-9,11.6-12.7C136.8,94.1,126.2,102.3,130,107.2z M158.4,104.2
		c2.1-2.1,3.6-5.3,1.9-7.5c-1.8-2.3-5.4-1.5-7.8-0.2c-5.1,2.8-11.9,9-14.9,14.2C145.3,111.8,152.8,109.5,158.4,104.2z"/>
        <path class="st0" d="M144.5,168.6c-0.4,1.9-2,2.7-3.7,2.8c-1.9,0-3.8-0.2-5-1.7c-1-1.2-1.3-2.9-1.5-4.5c-0.6-5.9-0.5-11.7-0.3-17.7
		c0.2-5.1,0.8-15.3,3-19.6c0.5-1,1.5-1.3,2.6-0.8c1.5,0.7,2.6,2.2,3,3.9c0.8,3.1,1.2,6.3,1.4,9.6l1.1,24.3
		C145,166,144.8,167.4,144.5,168.6z"/>
    </g>
</svg>
