<svg xmlns="http://www.w3.org/2000/svg" xml:space="preserve" width="480" height="40.6" style="overflow:visible" viewBox="0 0 480 40.6"><style>.st0{fill:#fff}</style><path d="M7.4 15.4v22.4l.1 2.7H3.8l.1-2.7V15.4H0v-4h3.9V2.8c0-.7 0-1.3-.1-2 .4 0 1.1 0 1.9.1.8 0 1.5.1 1.8.1 0 .4-.1 1-.1 1.8v8.7H11v4H7.4zm14.5 7v1.2c0 4.3-.1 7.3-.2 9.2-.1 1.8-.3 3.2-.6 4.1-.3 1.1-1 1.9-2 2.5s-2.4.9-4.1.9c-.2-.7-.6-2.1-1.2-4.1q.3.15.9.3c.4.1.7.1 1 .1.5 0 1-.1 1.4-.3s.8-.7 1.1-1.4c0-.1.1-.3.1-.6.1-.3.1-.9.2-1.9.1-.9.1-3.1.2-6.4H16c-.2 1.7-.4 3.4-.7 4.9s-.7 2.8-1.1 4-1 2.3-1.6 3.3-1.3 1.9-2.1 2.5L8 37.8c1.4-1.2 2.4-2.7 3.2-4.4.7-1.7 1.2-4.2 1.4-7.5H9.4v-3.6h3.3v-3.8c1.3.1 2.5.1 3.5.2v3.7zm-9.8-7.5c2-.7 3.6-1.6 4.9-2.8 1.3-1.1 2.3-2.4 3.1-3.9h-7.6V4.7h8.7c.1-.4.1-.8.2-1.5.1-.6.1-1.1.1-1.5V.6l3.5.3v.8c0 .4 0 .9-.1 1.5s-.1 1.1-.2 1.5h9L33.6 6q-.15 4.65-.3 6.3c-.2 1-.4 1.8-.7 2.4-.4 1-1.3 1.7-2.6 2.3s-3.2.8-5.6.8c0-.2-.1-.5-.2-.9s-.3-1-.6-1.9c-.3-.8-.4-1.4-.5-1.6.8.3 1.6.4 2.6.4 1.9 0 3.1-.5 3.7-1.4.4-.9.6-2.3.7-4.2h-6.3c-.8 2.2-2 4.2-3.6 5.8-1.6 1.7-3.5 2.9-5.8 3.7zm23.2 7.5c-.1.5-.1.9-.1 1.2 0 3.9 0 6.8-.1 8.8q-.15 3-.6 4.5c-.3 1.1-.9 1.9-1.9 2.5s-2.3.9-3.9.9c-.1-.5-.5-1.9-1.2-4.1q.3.15.9.3c.4.1.7.1.9.1.6 0 1.1-.1 1.4-.4s.6-.7.8-1.3c0-.1.1-.3.1-.6.1-.3.1-.9.2-1.9s.1-3.1.2-6.4h-2.6c-.2 2.7-.5 5-1.1 7-.5 2-1.2 3.6-2 4.8S24.7 40 24 40.7l-2.6-3c1.4-1.3 2.4-2.7 3.1-4.4s1.2-4.1 1.4-7.3h-2.8v-3.6H26v-3.6l3.5.2v3.5h5.8zM48.3 10.7V38c0 .6 0 1.4.1 2.4h-4c.1-.9.1-1.8.1-2.4 0-2.1 0-5.4.1-9.8q.15-6.75.3-11.7c-.7 1.2-1.4 2.3-2.2 3.4s-1.5 2-2.2 2.8c0-.1-.1-.2-.1-.3-.1-.1-.2-.5-.5-1.2-.3-.6-.7-1.5-1.3-2.6 1.4-1.4 2.8-3.4 4.4-6 1.5-2.6 2.7-4.9 3.6-7.1.9-2.1 1.4-3.9 1.7-5.3l3.5 1.5-.2.4c-1 3.2-2.1 6-3.3 8.6m24.4 1.6h-9.5v5.8h10.5v3.8H63.2v6h10.5v3.8H63.2v6.6l.1 2.3h-3.8l.1-2.3v-26H58c-.9 2-1.9 3.9-3 5.6s-2.1 3.2-3.2 4.4c-.6-1-1.3-2.2-2.3-3.6.8-.9 1.7-2.1 2.5-3.4.9-1.3 1.6-2.7 2.3-4.1s1.4-3 2-4.7q1.05-2.7 1.8-6L61.6 2c-.2.3-.3.5-.3.5-.6 2.2-1.2 4.2-1.9 6.1h15.3v3.8c-.3-.1-1-.1-2-.1M112.3 5v33l.1 2.6h-3.5v-2.7H84.2v2.7h-3.5c.1-1.1.1-1.9.1-2.6V5c0-.7 0-1.5-.1-2.6h31.8zM84.2 34.5h24.7V5.9H84.2zm18.5-8.2h5.4V29h-5.4v1.9c0 .2 0 .5-.1.9s-.3.8-.6 1.1-.6.6-1.1.8c-.4.2-1 .4-1.7.5s-1.7.2-2.9.2l-1.1-2.8c-.6.7-1.2 1.4-1.8 2.2-.3-.3-.8-.7-1.6-1.3-.7-.6-1.7-1.2-2.8-1.9l1.3-1.4h-5.6v-2.7h14.9V26l-.1-1c1.4 0 2.5 0 3 .1-.1.3-.1.6-.1.9v.3zm-15.6-4q1.8.15 8.1 0v-1.5h-7.3c.1-.5.1-.9.1-1.1V13c0-.3 0-.6-.1-1.1h7.3v-1.5h-9.5V7.9h9.5v-.5l-.1-1.1h1.4c.6 0 1 .1 1.3.1h.4c-.1.4-.1.7-.1 1V8h9.3v2.6h-9.3v1.5h7.2v8q.6.9 1.5 2.1c.5.8 1 1.6 1.3 2.3l-2.7 1.6c-.1-.4-.4-.9-.7-1.6-7.8.3-13.6.5-17.5.5l-1.4.1-.8-2.9zm8.1-8.4h-4.5v1.5h4.5zm-4.4 3.3v1.6h4.5v-1.6zm9 12.9V29h-8.2c1.7.9 2.9 1.6 3.6 2.2 1.2.1 2 .1 2.4.1.8 0 1.4-.1 1.7-.3.4-.2.5-.5.5-.9m2.7-14.7v-1.5H98v1.5zM98 18.8h4.4v-1.6H98zm.1 2v1.4l5.4-.2-.7-1.2zM152.4 35.8c-.7-1.1-1.4-2.4-2.2-4.1q-1.2-2.4-2.1-5.7-.9-3.15-1.5-6.3c-1 .8-1.7 1.3-2.2 1.6 1.5 4.4 2.2 8.7 2.2 12.9 0 .8-.1 1.6-.2 2.3-.2.7-.5 1.4-.9 1.9-.5.5-1.1.9-2 1.2s-2.1.4-3.7.4c-.2 0-.8 0-1.7-.1l-1.1-3.6q2.1.3 3 .3c1.3 0 2.3-.2 2.8-.7s.8-1.2.8-2.3q0-2.85-.6-5.7c-1.5 2.2-3.3 4.2-5.4 6.1s-4.2 3.4-6.3 4.4c-.2-.5-.6-1.7-1.4-3.4 1.5-.6 3.2-1.7 4.9-3.1 1.8-1.4 3.3-2.9 4.5-4.3s2.1-2.6 2.8-3.7c-.2-.8-.5-1.7-.9-2.8-.6.7-1.3 1.5-2.2 2.4s-2 1.8-3.2 2.8c-1.2.9-2.4 1.7-3.5 2.3q-.15-.6-1.2-3v.5c0 1.1-.1 2-.4 2.9-.2.9-.6 1.6-1.1 2.3-.5.6-1.1 1.1-1.9 1.4s-1.6.5-2.6.5c-.1-.2-.1-.4-.2-.6s-.6-1.3-1.5-3.2c.5.2 1.2.3 1.9.3.5 0 1-.2 1.4-.6q.6-.6.9-1.5c.2-.6.3-1.3.3-1.9 0-1.4-.3-2.9-1-4.4s-1.6-2.8-2.8-4c.4-1.2 1-3 1.6-5.3s1.2-4.4 1.6-6.3h-4.6V38l.1 2.5h-3.2c.1-1 .1-1.8.1-2.5V3.6l-.1-1.1h8.6l.4-.5c.3.3.7.6 1.3 1.1.5.5 1 .9 1.4 1.4l-.5.3c-.3 1.4-.8 3.2-1.4 5.2-.6 2.1-1 3.6-1.4 4.7-.3 1-.6 1.8-.7 2.2 1 1.3 1.8 2.6 2.5 4.1s1 3 1.1 4.4c.8-.4 1.6-.8 2.4-1.4.8-.5 1.6-1.1 2.3-1.7s1.4-1.2 2.1-1.9 1.4-1.5 2-2.5l-1.1-2.2c-1 .9-2.1 1.7-3.4 2.6-1.2.8-2.4 1.5-3.5 2-.1-.4-.4-.9-.7-1.6-.4-.7-.7-1.3-1-1.7 1.2-.4 2.4-1.1 3.7-1.8q1.95-1.2 3.3-2.4c.9-.8 1.7-1.5 2.2-2.1h-5.6c-1.1 0-1.9 0-2.4.1V7.3c.5.1 1.3.1 2.4.1h4c-.4-.8-.8-1.7-1.3-2.7q-.75-1.5-1.5-2.4l3-1.2q.45.75 1.2 2.1c.5.9 1 2 1.5 3.1l-2.2 1.1h5.6c.6-.9 1.1-2 1.8-3.3.6-1.3 1.1-2.4 1.2-3.1l3.2 1.5-.1.5c-.7 1.4-1.4 2.9-2.2 4.5h3.2c1.1 0 1.9 0 2.4-.1V11c-.5-.1-1.3-.1-2.4-.1h-7.8c-.2.4-.6.8-1 1.4-.5.6-.8 1-1.2 1.3.8 1.4 1.6 2.9 2.3 4.6 1.4-1 2.7-2.1 4-3.3s2.3-2.4 3-3.3l2.3 3-.4.3q-1.65 1.5-3 2.7c.3 2 .7 4 1.3 6s1.2 3.7 1.9 5.1 1.3 2.6 1.9 3.4zM168.9 38.1l10.9-33.3h3.5l-10.9 33.3zM199.4 26.9l2.1.6c.1 5.2-.3 9.5-1 13.1l-2.2-1.5c.4-1.6.7-3.5.9-5.8.1-2.3.2-4.5.2-6.4m13.2-5.3c-.1.4-.1.8-.1 1.1 0 4.1 0 7.3-.1 9.4s-.3 3.8-.6 4.8c-.2.8-.6 1.5-1.1 2s-1.2.9-2 1.1-1.5.3-2.3.3c-.1-.4-.5-1.7-1.1-3.8.6.3 1.1.4 1.7.4q1.65 0 2.1-1.8c0-.1.1-.3.1-.6.1-.3.1-.9.2-1.9s.1-3.6.2-7.9h-9.9c.1-.7.1-1.3.1-1.8v-19c0-.5 0-1.1-.1-1.8h12.5v3.1h-3.8v3.5h2.9v3h-2.9V15h2.9v2.9h-2.9v3.8h4.2zm-10.5 5.9 1.7-.4c.4 3 .6 6.3.7 9.9l-1.9.4c0-1.4 0-3.1-.1-5s-.2-3.6-.4-4.9m3.7-22.3h-3.1v3.5h3.1zm0 9.8v-3.4h-3.1V15zm-3.1 6.6h3.1v-3.8h-3.1zm1.8 5.5 1.6-.4q.3 1.2.6 3.3c.2 1.4.4 2.7.5 4.1l-1.7.4q0-1.5-.3-3.6c-.2-1.4-.4-2.7-.7-3.8m4.9 4.8-1.3.4c-.1-.8-.2-1.7-.4-2.8s-.4-2-.6-2.8l1.3-.3c.3 1.7.7 3.5 1 5.5m22.6 3.5h2.2V39H214c.1-1 .1-1.8.1-2.5V4.9l-.1-2.6h20V6h-16.7v29.4zm-6.7-14.7v11.7h-6.5c.1-.5.1-.9.1-1.2v-9.3c0-.4 0-.8-.1-1.2zm-5-3c.1-.5.1-.8.1-1.1V10c0-.3 0-.7-.1-1.1h10.9v8.9h-10.9zm.7 12h2v-6.3h-2zm2.2-14.7h5.3v-3.5h-5.3zm10 5.7v11.7h-6.5c.1-.5.1-.9.1-1.2v-9.3c0-.4 0-.8-.1-1.2zm-4.3 9h2v-6.3h-2zM244 18.9c0 4.7-.4 8.8-1.1 12.5-.7 3.6-1.7 6.4-3 8.3-.3-.6-1.1-1.8-2.3-3.5.6-1 1.1-2.4 1.6-4 .5-1.7.9-3.7 1.1-6 .2-2.4.4-4.8.4-7.4V5.3l-.1-1.1h14.5c-.4-.9-.9-1.8-1.4-2.6l2.8-1.3c.7 1.1 1.4 2.4 2 4h11c1.4 0 2.4 0 3-.1v3.4c-.6-.1-1.6-.1-3-.1H266v2.6h5.7v2.7H266V18c0 .6 0 1 .1 1.2h-2.9c.1-.2.1-.6.1-1.2v-5.4H259V9.9h4.3V7.3h-10v2.5h4.3v2.7h-4.4v6.7h-2.9v-6.7h-5.1V9.8h5V7.3H244zm27.1 15c1.2.6 2.2 1.1 3.1 1.5-.1 1.1-.4 2-.9 2.6s-1.3 1.2-2.4 1.6-2.9.6-5.3.6c-2.1 0-3.7 0-4.7-.1q-1.5-.15-2.1-.6c-.7-.5-1-1.4-1-2.8v-5.9h-3.3c-.1.9-.4 1.9-.8 2.8-.4 1-1 1.8-1.6 2.6-.7.8-1.4 1.4-2.2 1.9s-1.6.9-2.6 1.3c-.9.4-1.9.6-3 .8-.2-.3-.5-.8-1-1.5s-.9-1.3-1.2-1.7c2.6-.3 4.7-.9 6.1-1.9 1.5-1 2.4-2.4 2.9-4.3h-3.9c.1-.5.1-.9.1-1.2v-8c0-.3 0-.7-.1-1.2h9.1c.2-.3.3-.7.5-1-.8-.1-1.4-.3-1.9-.8-.3-.3-.5-.7-.7-1.2-.1-.5-.2-1.1-.2-1.6v-1.7l-.1-.8h.6c.3 0 .9.1 1.9.3q-.15.3 0 .6v1.9c0 .5.2.8.7.8h1.3c0 .1-.1.2-.1.4s-.1.5-.1.9-.1.6-.1.8l2 .3c-.1.1-.2.3-.3.4l-.4.7h10.3v10.4h-4c.3.1.9.2 1.7.5l-.2.4c-.3.6-1 1.3-2 2.1l3.4-.5-.7-1.4 1.7-.7c.6.7 1 1.6 1.5 2.7m-23-14.3-2.1-.9c.4-.6.7-1.3.9-2.2q.3-1.2.3-3l2.2.2-.1.6q0 1.5-.3 3c-.3 1-.6 1.8-.9 2.3m8.9 3.1h-6.4v1.8h6.4zm-6.3 5.8h6.4v-1.9h-6.4zm8.3-10c.3-.6.6-1.3.7-2 .2-.8.2-1.7.2-2.8l2.3.3c-.1.1-.1.3-.1.6-.1 1.9-.4 3.4-.9 4.7zm7.5 4.2h-6.4v1.8h6.4zm-6.4 5.8h6.4v-1.9h-6.4zm9.9 8c.4-.3.7-.7.9-1.3l-1.3.5-.2-.8c-.2 0-1.1.2-2.7.5s-2.7.5-3.4.7l-1.1.2-.5-2.2q.9-.45 2.1-1.5c1.2-1.05 1.2-1.3 1.5-1.8h-4V36c0 .6.2.9.6 1s1.8.2 4.2.2c1.1 0 2 0 2.6-.1.4-.1.9-.3 1.3-.6m-2.2-17.7c-.3-.3-.5-.7-.7-1.2s-.2-1.1-.2-1.6v-2.1l-.1-.8c.5 0 1.3.1 2.5.3q-.15.45 0 .6v2.3c0 .2.1.4.2.6.1.1.4.2.6.3h.8c.3 0 .5 0 .7-.1-.1.3-.1 1.1-.2 2.4-.7.1-1.3 0-1.9 0-.7-.1-1.2-.3-1.7-.7M308.9 29c1.6 0 2.7 0 3.3-.1v3.5c-.6-.1-1.7-.1-3.3-.1h-4.5v3.9c0 .7-.1 1.4-.4 1.9s-.8.9-1.4 1.3c-.7.4-1.5.6-2.7.8q-1.65.3-4.2.3-.3-.75-1.8-3.9c.1 0 .5.1 1.3.2s1.6.2 2.6.2c1.1 0 1.9-.1 2.3-.4.4-.2.7-.6.7-1.1v-3h-14c.9.3 1.9.8 3.1 1.3s2.2 1.1 3.1 1.7l-1.8 2.8c-.8-.6-1.9-1.3-3.2-2.1-1.3-.7-2.5-1.3-3.5-1.7l1.4-2.1h-4.6c-1.5 0-2.7 0-3.3.1V29c.7.1 1.8.1 3.3.1H301v-1l-.1-1.1c.4 0 1.1 0 2 .1.9 0 1.5.1 1.9.1-.1.4-.1.7-.1 1v1h4.2zM293.3 6.8h-12.1c-1.5 0-2.6 0-3.2.1V3.7c.6.1 1.7.1 3.2.1h12.1V2.2c0-.5 0-1-.1-1.5.9 0 2.2 0 3.7.1-.1.6-.1 1.1-.1 1.5v1.5h11.6c1.5 0 2.6 0 3.2-.1V7c-.6-.1-1.7-.1-3.2-.1h-11.6V9h10.8v12.4c1.5 1.5 2.9 3.2 4.1 4.9l-2.8 2.4q-.3-.6-.9-1.5c-.6-.9-.6-1-.9-1.3-2.9.1-7.5.3-13.6.5s-10.4.3-13 .3l-1.9.1-.3-3.4 2.4.2c2.5.1 6.7.1 12.5 0v-2.3h-10.8c.1-.5.1-.9.1-1.3v-9.8c0-.4 0-.9-.1-1.3h10.8V6.8zm0 4.9h-7.4V14h7.4zm-7.4 7.1h7.4v-2.4h-7.4zm18.4-7.1h-7.4V14h7.4zm0 7.1v-2.4h-7.4v2.4zm-7.4 4.9c1.5 0 4.3-.1 8.2-.3-.6-.7-1.1-1.3-1.6-1.8l.2-.1h-6.8zM342 23.1c.6 1.1 1.3 2.4 2.2 3.8s2.1 2.7 3.5 4 2.9 2.4 4.5 3.2c-.1.2-.4.6-.7 1.1-.4.6-.8 1.4-1.4 2.4-1.1-.7-2.4-1.6-3.7-2.9-1.4-1.2-2.7-2.8-3.9-4.7-1.3-1.9-2.3-3.8-3.1-5.8l-1.1.5c.4 1.4.8 3 1 4.7.3 1.7.4 3.2.4 4.6 0 1.3-.2 2.4-.7 3.2s-1.3 1.5-2.3 1.9c-1.1.4-2.6.7-4.7.7-.6 0-1.2 0-1.9-.1-.1-.3-.2-.9-.5-1.7s-.5-1.5-.7-2.1c.4.1 1 .1 1.7.2s1.2.1 1.6.1c1.4 0 2.5-.2 3-.6s.9-1 .9-1.9c0-.7 0-1.5-.1-2.3s-.2-1.5-.2-2c-1.5 1.3-3.2 2.6-5.3 3.8-2 1.2-4.1 2.3-6.2 3.2s-4.1 1.6-5.8 2.1c-.3-.5-.9-1.6-1.9-3.4 3.6-.9 7-2.2 10.2-3.8s6-3.4 8.3-5.3c-.3-1.1-.6-1.8-.8-2.3-2.3 1.5-4.7 2.9-7.5 4.1q-4.05 1.8-8.1 2.7c-.1-.4-.4-.9-.7-1.6-.4-.7-.7-1.3-.9-1.7 6.4-1.3 11.7-3.4 15.8-6.4-.2-.3-.4-.6-.7-1s-.5-.7-.7-.8c-2.9 1.6-6.9 3-12 4.1-.4-.8-1-1.9-1.9-3.2 3-.4 5.9-1.1 8.8-2 2.8-.9 5.1-1.9 6.9-2.9h-10.5v-3.8c.5.1 1.4.1 2.6.1h17.9c1.2 0 2.1 0 2.6-.1V15h-7.7c-.5.4-1.1.8-1.9 1.3q-1.2.75-1.8 1.2c.4.4.9 1.1 1.4 1.9s1 1.7 1.4 2.6l3-1.5c1.2-.6 2.3-1.3 3.5-2.1 1.1-.8 1.9-1.5 2.3-2l2.7 2.8-.9.6c-2.3 1.3-4.2 2.5-5.9 3.3M317.9 14c.1-.5.1-.9.1-1.2v-7c0-.4 0-.8-.1-1.2h14.6c-.6-1.4-1.2-2.6-1.9-3.8l3.8-.5c.7 1.2 1.4 2.6 2.1 4.4h14.2v9.4H347v-6h-25.5v6h-3.6zM365.7 36c.6-.5 1.3-1.3 2-2.2.7-1 1.4-1.9 1.9-2.8s.9-1.7 1.1-2.4l3.2 1.3-.3.5q-.45 1.2-1.2 2.7c-.5 1-1.1 2.1-1.9 3.1q-1.05 1.5-2.1 2.7c-.2-.3-.6-.7-1.2-1.3-.5-.7-1-1.2-1.5-1.6m8.6-27.2h-3.9c-1.6 0-2.7 0-3.3.1V5.3c.6.1 1.7.1 3.3.1h7.2c-.6-1.2-1.4-2.6-2.6-4.2l3.1-1.1c.7.9 1.5 2.5 2.7 4.5l-1.6.8h7.2c.6-.8 1.2-1.7 1.9-2.8s1.1-2 1.4-2.7l3.3 1.5-.4.5c-.9 1.5-1.7 2.6-2.2 3.5h7.1c1.6 0 2.7 0 3.3-.1v3.6c-.6-.1-1.7-.1-3.3-.1h-6.9l2.4 1.6-.4.4c-.9 1.4-2 2.8-3.2 4.1h1.2c.6 0 1.1-.1 1.9-.1s1.2-.1 1.3-.1c.9-1.2 1.7-2.5 2.3-3.7l2.8 2.1-.5.4c-1.2 1.6-2.6 3.3-4 4.9s-2.8 3-4.1 4.2c2.5-.1 4.7-.3 6.4-.5-.2-.5-.4-1.1-.6-1.7s-.5-1.2-.8-1.8l2.8-1c.2.4.5 1 .8 1.7.3.8.7 1.8 1.1 3s.8 2.3 1.1 3.4q-.3.15-1.5.6c-.8.3-1.3.6-1.6.6l-.4-1.9-10.6 1c-.7.1-1.2.1-1.5.3l-.8-3.7q1.05-.3 2.4-1.2c.9-.6 1.6-1.2 2.4-1.9.7-.7 1.3-1.3 1.8-1.9l-4.2.4-1.5.2-.7-3.3c.3-.1.8-.5 1.4-1.1s1.2-1.4 1.9-2.4 1.3-1.9 1.7-2.7h-14.5l2 1.5-.5.4c-.8 1.2-2 2.6-3.5 4.2 1.5-.1 3.1-.1 4.6-.3.9-1.2 1.7-2.4 2.5-3.7l2.7 2.2-.6.4c-.5.6-1.3 1.7-2.4 3.1s-2.2 2.6-3.2 3.7c-1.1 1-1.9 1.8-2.6 2.4 1.5-.1 3.3-.2 5.3-.4-.2-.6-.6-1.5-1-2.7l2.8-1.1c.4.9.9 2.1 1.4 3.4s.9 2.6 1.2 3.8l-3.1 1.2-.4-1.7c-2.2.3-5.7.6-10.6 1.1-.7.1-1.2.1-1.5.2l-.7-3.6c2.5-.6 5.1-2.4 7.8-5.3-1.3.1-3 .2-5 .4l-1.5.2-.7-3.3c.6-.2 1.3-.6 2-1.1.7-.6 1.4-1.3 2.1-2.2s1.3-1.7 1.8-2.7m14.3 27c.4-.3.6-.8.8-1.4s.3-1.5.3-2.6c.2.1 1.4.8 3.5 2-.1 1.6-.4 2.8-.9 3.7s-1.4 1.6-2.6 2-3.1.7-5.7.7c-2.2 0-3.8-.1-4.9-.2s-1.9-.3-2.3-.7-.8-.8-.9-1.5c-.2-.6-.3-1.5-.3-2.6V28l3.8.3c-.1.2-.1.4-.1.6v6.4c0 .6.2.9.7 1.1.7.1 2.1.2 4.3.2 1.1 0 2-.1 2.7-.2.6-.1 1.1-.3 1.6-.6m-7.8-7.7 2.4-1.9c.7.5 1.6 1.1 2.6 2s1.8 1.7 2.5 2.4l-2.6 2.4c-.5-.7-1.3-1.6-2.3-2.6-1-.9-1.8-1.7-2.6-2.3m14.6-.5c.8.9 1.8 2.1 2.9 3.6s2.1 3.1 3 4.7l-3 2.2c-.4-1-1.2-2.4-2.2-4.1s-2.1-3.3-3.3-4.7zM437.5 21.3h-4.9c-1.1 4.2-2.5 7.5-4.3 10 4.6 2.1 8.2 4 10.8 5.5-.6 1-1.2 2.3-2 3.8-3.1-2.1-6.9-4.3-11.5-6.4-1.8 1.6-4 2.9-6.7 3.9q-4.05 1.5-10.2 2.4c-.1-.4-.3-1.1-.6-1.9s-.5-1.5-.8-2.1c6.1-.6 10.9-2 14.2-4.1-1.6-.7-3.3-1.4-5.1-2-1.8-.7-3.4-1.2-4.8-1.7 1.3-1.6 2.8-4 4.5-7.4H410c-1.7 0-2.8 0-3.4.1v-3.9H418c.8-1.7 1.4-3.1 1.8-4.3.4-1.1.7-2 .9-2.6l3.7.8-.3.8c-.5 1.6-1.2 3.3-2.2 5.3h19v3.9c-.7-.1-1.8-.1-3.4-.1m-30.1-6.6c.1-.5.1-.9.1-1.2V6.4c0-.4 0-.8-.1-1.2H422c-.3-.7-.7-1.4-1-2s-.6-1.2-.8-1.5l3.2-1.5c.4.6.8 1.4 1.3 2.4.5.9.9 1.8 1.3 2.6h13.2v9.5h-3.6v-6h-24.5v6zm17.2 15c1.8-2.1 3.2-4.9 4.1-8.4h-8.6c-1.3 2.5-2.3 4.3-3 5.5 2.6 1 5.1 1.9 7.5 2.9M476.6 36c1.6 0 2.8 0 3.4-.1v3.8c-.6-.1-1.8-.1-3.4-.1H449c-1.7 0-2.8 0-3.4.1v-3.8c.6.1 1.8.1 3.4.1h11.7v-4.1H452c-1.4 0-2.3 0-2.9.1v-3.8c.6.1 1.5.1 2.9.1h8.7v-3.4h-7.9c.1-.5.1-.9.1-1.3v-8.3c0-.4 0-.8-.1-1.3h19.6v10.9h-8v3.4h9.5c1.4 0 2.4 0 2.9-.1V32c-.6-.1-1.5-.1-2.9-.1h-9.5V36zm-30.3-18.1c.1-.5.1-.9.1-1.3v-8c0-.4 0-.8-.1-1.3h7.5c-.8-1.5-1.8-3.1-2.9-4.7l3.2-1.2c.9 1.4 2 3.3 3.3 5.9h3.3V1.9l-.1-1.1c1.7 0 3 0 3.7.1l-.1 1v5.5h3.9c.6-1 1.2-2.1 1.7-3.3.6-1.2.9-2.2 1.1-2.9l3.3 1.3-.1.5c-.5 1.1-1.2 2.5-2.2 4.4h7V18h-3.6v-7.1H450V18h-3.7zm10-.6v4.3H469v-4.3z" class="st0"/></svg>