<svg xmlns="http://www.w3.org/2000/svg" xml:space="preserve" width="405" height="97.8" style="overflow:visible" viewBox="0 0 405 97.8"><style>.st0{fill:#fff}</style><path d="M87.8 73.4c3.3 3.3 6.3 6.1 8.9 8.3-.3 5-1.6 8.8-3.7 11.4Q89.85 97 83.7 97q-4.35 0-9-1.8c-3.1-1.2-6-3-8.7-5.5-7.1 3.5-15.5 6-25.2 7.3-.3-.9-1-2.3-2-4.1q-1.5-2.7-3.9-6.9c9.9-.9 17.8-2.6 24-5.2-2.2-3.7-4-7.9-5.5-12.8l-20.6.3v3.2c6.9-.6 11.8-1 14.6-1.5-.3 3.9-.4 7-.4 9.3l-14.2 1.4.1 5.7c0 2.6-.9 4.7-2.6 6.2-1.7 1.6-4.1 2.8-7.3 3.5-3.2.8-7.2 1.1-12.1 1.1-.2-.6-.6-1.5-1.2-2.8s-2-4.2-4.2-8.8c.8.1 2 .3 3.9.4 1.8.1 3.4.2 4.9.2 2.2 0 3.7-.2 4.6-.7s1.4-1.3 1.4-2.4v-1.7c-3.5.3-8.1.7-13.5 1l-5 .5C1.2 80.9.7 77.5 0 73c1.2.1 3.3.1 6.4.1 2.8 0 7.3-.2 13.6-.7v-4l-10.1.2c-3.8 0-7 .1-9.7.3L.1 58.7c.5.1 1 .1 1.6.1h8.1l10.2-.2v-2.5c-6.9.3-12.3.4-16 .3Q2.8 52.35 1 48c3.1.1 6.9.2 11.5.1s9.5-.4 14.8-.9c5.2-.5 9.6-1.2 13-1.9l5.7 7.8-2.5.4q-7.05 1.05-10.8 1.5v3.4l18.3-.3c-.5-2.8-.9-5.9-1.2-9.1 0-.2 0-.5-.1-.9s-.2-1.1-.4-2.2c7.7.3 11.8.6 12.4.6l.1 2.7c.2 3 .5 5.9.9 8.6l13.7-.2c-1.7-1.2-3.6-2.3-5.5-3.4s-3.6-1.9-4.9-2.5l6.6-6.4c3.5 1.3 6.6 2.7 9.2 4 2.6 1.4 4.3 2.3 5.1 2.8l-5.1 5.4 3.5-.1c5.3-.1 8.5-.3 9.7-.4v10.3c-2.6-.1-5.9-.1-9.7 0l-8.2.1 8.4 5.4-.8.9c-1.2 1.7-2.7 3.5-4.3 5.2s-3.2 3.2-4.8 4.4c1.2.8 2.4 1.4 3.8 1.8 1.4.5 2.6.7 3.8.7 1.5 0 2.6-.9 3.4-2.7s1.2-5 1.2-9.7m-4-28.3H9.7c-4.6 0-7.7.1-9.5.2v-9.9c1.7.1 4.9.2 9.5.2h30v-4.1H16c-3.7 0-6.4.1-7.8.2V23c1.5.1 4.1.2 7.8.2h23.6v-3.5H13.1c-4.2 0-7.2.1-8.7.2V10c1.6.1 4.5.2 8.7.2h12.4c-1.9-3.2-3.4-5.3-4.3-6.5L34 .2c.7 1 1.8 2.8 3.4 5.6s2.4 4.2 2.4 4.4h14.6c1-1.6 2.1-3.4 3.2-5.4s1.8-3.6 2.2-4.8l13.7 4.8-1.4 1.6q-1.05 1.8-2.4 3.9h10.6c4.3 0 7.2-.1 8.7-.2V20c-1.5-.1-4.4-.2-8.7-.2H53.7v3.5H77c3.7 0 6.4-.1 7.9-.2v8.7c-1.5-.1-4.2-.2-7.9-.2H53.7v4.1h30.1c4.6 0 7.7-.1 9.5-.2v9.9c-1.7-.2-4.9-.3-9.5-.3M65 67.6c1 2.8 2.1 5.4 3.4 7.7.6-.4 1.6-1.3 3-2.6 1.5-1.3 2.9-3.1 4.4-5.2zM201.9 57.6c-1.9 4-3.5 7.7-5 11-1.9-1.4-3.6-2.7-5.3-4.1-.1 8.7-.3 14.4-.7 17.2s-.9 4.9-1.5 6.4c-1 2.8-3.2 4.9-6.4 6.4s-7.5 2.2-12.8 2.2c-.4-1.9-1.8-6.5-4.1-13.7.8.3 1.8.5 2.8.7s2 .3 2.9.3c3.4 0 5.6-1.1 6.5-3.3.3-.6.5-1.5.7-2.7.2-1.1.3-3.5.5-7h-7.3c-.8 2.4-1.8 4.8-3.1 7.3q-1.95 3.75-5.4 7.5c-3.45 3.75-5.1 4.7-8.3 6.6s-6.4 3.4-9.5 4.5c-2.6-3.5-5.5-6.8-8.4-10.1 5.6-1.7 10.2-3.9 13.8-6.4s6.4-5.7 8.2-9.4H152l-5.4.1v-6.4q-2.25 1.8-5.7 3.9c-.1-.5-.6-1.6-1.3-3.3s-1.6-3.8-2.8-6.1v16.5l.2 10.1q0 4.95-3.9 8.1c-2.6 2.2-6.1 3.2-10.5 3.2l-5.3-13.8c1.8.2 3.5.3 5 .3 1 0 1.9-.1 2.6-.4.7-.2 1-.9 1-2V64.1h-7.7c-.6 7.6-1.4 14.2-2.7 20-1.2 5.8-2.7 10.3-4.4 13.6-.1-.2-.5-.7-1.2-1.4s-3.5-3.4-8.6-8.1c2.2-4.2 3.8-9.9 4.9-16.9s1.7-16 1.7-26.8V6.9l-.2-3.3H137l-.2 5.6v47.1c2.3-1 4.5-2.5 6.7-4.4s4.1-4 5.8-6.2h-2.5c-3.4 0-5.8 0-7.2.1V34.1c1.4.1 3.8.1 7.2.1h8.5c.8-2.3 1.6-4.5 2.2-6.7h-9.1c-3.3 0-5.5 0-6.8.1V16.5c1 .1 2.9.1 5.6.1-1.3-3-3-6.4-5-10.1L153.1 3c.9 1.5 1.9 3.4 3.1 5.8s2.2 4.6 2.9 6.6l-3.2 1.1h5.1c.8-4.4 1.3-9.7 1.4-15.8l12 1.2L174 3c-.1 1.7-.4 4-.7 6.8q-.45 4.2-.9 6.6h5q1.65-2.85 3.3-6.9c1.1-2.6 1.9-4.9 2.3-6.9L194.2 7l-.7 1.2-2.1 4.2c-.9 1.7-1.7 3.1-2.3 4.2h1.2c3.3 0 5.5 0 6.8-.1v11.1c-1.2-.1-3.5-.1-6.8-.1h-22c-.3 1.5-.8 3.7-1.7 6.7h25.6c3.5 0 5.9 0 7.2-.1v11.7c-1.3-.1-3.7-.1-7.2-.1h-3.5c1.5 2 3.4 4.1 5.7 6.2q3.6 3.15 7.5 5.7m-83.2-5.2h7.2V39.8h-7.1v5.1zm7.2-36.5h-7.1V28h7.1zm48.5 43.8h12c-1.9-1.9-3.6-4.1-5.3-6.5-1.6-2.4-3.1-4.9-4.4-7.6H162c-.9 1.9-2.2 4-3.7 6.5-1.6 2.4-3.6 5-6.1 7.6h10c.2-2.1.3-4.3.3-6.7l-.1-3.2 12.7.4q-.3 1.5-.3 2.4c-.1 2.4-.2 4.8-.4 7.1M294 61.9h-31.9l-.9 4.8h33.4l-.2 4.2c-.1 5.8-.3 9.9-.8 12.3s-1.1 4.3-1.9 5.6c-.9 1.7-2.3 3.2-4.2 4.4s-4.5 2.2-7.9 3c-3.3.8-7.6 1.1-12.9 1.1-.6-2.1-2.1-6.4-4.4-13 2.6.7 5.3 1 8 1 1.7 0 3.4-.2 5-.5s2.8-1.1 3.6-2.3c.6-.9.9-2.6 1.1-5.1h-23c-2.6 4.7-6 8.8-10.2 12.2s-9 6.1-14.5 8c-.9-2-3.5-6-7.9-12 4.4-1.2 8.5-3 12-5.5 3.6-2.5 6.4-5.3 8.5-8.4s3.6-6.4 4.3-9.9h-19.4c-.3 3.7-1 7.6-2 11.8s-2.4 8.3-4.4 12.3-4.4 7.3-7.1 10c-1.7-2.5-5.2-6.5-10.4-12.1 1.5-1.6 3-3.5 4.3-5.7 1.4-2.2 2.5-4.6 3.4-7.2s1.6-5.6 2.1-9.1c.5-3.4.8-7.2.8-11.3V10.1c0-4 0-6.3-.1-6.9l8.9 2.9c5.4.1 12.2 0 20.4-.2s16.7-.7 25.5-1.4 16-1.6 21.7-2.6c3.3 4.1 6.5 8.2 9.4 12.2-1.3 0-2.7.1-4.1.2-24.6 2.1-47.2 3.2-67.8 3.4v3.1h66l-.1 3.2v18.6l.1 3.2h-28.6l3.1 5.3h23c4.1 0 6.9-.1 8.4-.2V62c-1.4-.1-4.2-.1-8.3-.1m-11.6-26v-5h-52v5zm-52 15.4h24.7L252 46h-21.6v5.3M332.4 30v11.8c0 12.1-1.1 22.9-3.4 32.3-2.3 9.5-5.5 16.6-9.6 21.4-2.2-2.6-5.6-6.4-10.2-11.2 2.2-3 4-6.6 5.5-10.9s2.6-9.1 3.4-14.4q1.2-7.95 1.2-17.7V7.5l-.2-3.9h81.4c-.1.6-.1 1.7-.1 3.2v19.9l.1 3.2h-68.1zm64 52.9c4.1 0 6.9-.1 8.5-.2v11.5c-1.6-.1-4.4-.2-8.5-.2h-58.6c-4.2 0-7 .1-8.6.2V82.7c1.6.1 4.5.2 8.6.2h21.7v-5.4h-16.9c-3.4 0-5.8.1-7.2.2V67.1c1.4.1 3.8.2 7.2.2h16.9v-4.9l-16.6.7-4.7.3-2.4-10c1.4-.1 3.3-.9 5.7-2.2q3.6-2.1 8.4-6.3h-7.2c-3.8 0-6.5.1-7.9.2V34.3c1.5.1 4.1.1 7.9.1h51.7c3.8 0 6.5 0 7.9-.1v10.8c-1.5-.1-4.1-.2-7.9-.2h-6.7c6 5.3 11.1 10.3 15.1 15l-10.3 6.5c-.6-.9-1.9-2.7-4.2-5.5-4.5.3-9.4.6-14.7.8l-.1 1.7v4h16.9c3.4 0 5.8-.1 7.2-.2v10.6c-1.4-.1-3.8-.2-7.2-.2h-16.9V83h22.9zm-8.9-68.6h-55.1v5.1h55.1zm-23 30.6 2.2 1c-.6.3-1 .6-1.5 1q-2.1 1.95-6.9 5.7c4.6-.1 11.7-.5 21.3-.9l-5.4-5 3.5-1.9h-13.2z" class="st0"/></svg>