<!--Generator: Adobe Illustrator 25.0.0, SVG Export Plug-In-->
<svg version="1.1" xmlns="http://www.w3.org/2000/svg" xmlns:xlink="http://www.w3.org/1999/xlink" x="0px" y="0px" width="468.4px" height="41.3px" viewBox="0 0 468.4 41.3" style="overflow:visible;enable-background:new 0 0 468.4 41.3;" xml:space="preserve">
    <style type="text/css">
        .st0{fill:#FFFFFF;}
    </style>
    <defs/>
    <g>
        <path class="st0" d="M31.4,25.1c1.6,0,2.7,0,3.3-0.1v3.4c-0.6-0.1-1.7-0.1-3.3-0.1h-28c-1.6,0-2.7,0-3.3,0.1V25
		c0.6,0.1,1.7,0.1,3.3,0.1h7.3c-0.4-1.2-0.7-2.1-1-2.7H6c0.1-0.4,0.1-0.8,0.1-1.1v-5.1c0-0.4,0-0.7-0.1-1.1h22.7c0,0.2,0,0.6,0,1.1
		v5.1l0,1.1h-3.5l-1.1,2.7H31.4z M15.3,7.2H3.7c-1.5,0-2.6,0-3.2,0.1V3.9C1.1,4,2.2,4,3.7,4h11.6V2.3c0-0.4,0-0.8-0.1-1.2
		c0.5,0,1.2,0,2,0.1c0.9,0,1.5,0.1,1.9,0.1c-0.1,0.4-0.1,0.8-0.1,1.1V4h11.7c1.5,0,2.6,0,3.2-0.1v3.4c-0.6-0.1-1.7-0.1-3.2-0.1H19.1
		v2.4h10.2c1.4,0,2.3,0,2.9-0.1v3.3c-0.6-0.1-1.5-0.1-2.9-0.1H6.1c-1.4,0-2.3,0-2.9,0.1V9.5c0.6,0.1,1.5,0.1,2.9,0.1h9.2V7.2z
		 M30.4,30.6l0,1.3V40l0,1.3h-3.9v-1.6H8.2v1.6H4.4c0.1-0.5,0.1-0.9,0.1-1.2v-8.2c0-0.4,0-0.8-0.1-1.3H30.4z M8.2,36.6h18.3v-2.9
		H8.2V36.6z M24.9,17.6H9.8v2.3h15.1V17.6z M13,22.4l0.9,2.7h6.9c0.4-1.1,0.8-2,1-2.7H13z"/>
        <path class="st0" d="M66.7,19.5c0.2,1.6,0.5,3.4,0.9,5.1s1,3.6,1.7,5.4c0.7,1.8,1.6,3.4,2.5,4.7c1,1.3,1.9,2.2,2.9,2.9
		c-1.1,1.4-1.9,2.3-2.2,2.9c-0.9-0.7-1.7-1.6-2.5-2.6c-0.8-1.1-1.5-2.4-2.3-3.9c-0.7-1.5-1.4-3.3-2-5.4c-0.4,1.8-0.8,3.5-1.4,5
		c-0.6,1.5-1.2,2.7-1.9,3.7s-1.3,1.8-1.9,2.3c-0.6,0.5-1,0.9-1.4,1.1c-0.7-0.9-1.4-1.7-2.1-2.4v1.3c-0.4,0-1,0-1.7,0H45.1v1.4h-3.3
		c0.1-0.5,0.1-1,0.1-1.3V28.8l0.1-1.9c-0.8,1.2-1.6,2.2-2.4,3c-0.6-0.9-1.2-1.9-1.9-2.8c1-0.9,2.1-2.2,3.1-3.8
		c1-1.6,1.8-3.3,2.3-5.1L46,19l-0.2,0.4c-0.3,0.8-0.6,1.6-0.9,2.4h4.4c-0.1-0.3-0.6-1.2-1.3-2.8l3-0.8c0.2,0.4,0.5,1,0.9,1.7
		c0.3,0.7,0.6,1.3,0.8,1.9h3.5c0.8,0,1.4,0,1.8,0v2.7c-0.4,0-1,0-1.8,0h-3.9v2.5h3.2l1.8,0v2.6l-1.8,0h-3.2v2.3h3.2l1.8,0v2.6
		l-1.8,0h-3.2v2.7h3c0.7,0,1.3,0,1.7,0v1c1.2-0.8,2.3-1.8,3.2-3.2c0.9-1.3,1.6-2.9,2.2-4.8c0.6-1.9,1-4,1.2-6.4
		c0.3-2.4,0.4-5.1,0.4-8l0-1.4l3,0.1l0,0.8C66.8,16.6,66.8,18,66.7,19.5z M44.9,7.2h-3.6c-1.1,0-1.9,0-2.4,0.1V4.1
		c0.5,0.1,1.3,0.1,2.4,0.1h3.6V2.3l0-1.1c0.8,0,1.8,0,3,0.1c0,0.2,0,0.5,0,1v5.9c0,0.3,0,0.7,0.1,1.1h-3.1l0.1-1.1V7.2z M48.5,10.5
		c0,0.2,0,0.6,0,1.1v5.3l0,1.1h-8.1c0.1-0.4,0.1-0.8,0.1-1.1v-5.3c0-0.3,0-0.6-0.1-1.1H48.5z M43,15.8h3v-3.1h-3V15.8z M49.2,24.4
		h-4.1v2.5h4.1V24.4z M49.2,31.7v-2.3h-4.1v2.3H49.2z M45.1,34.2v2.7h4.1v-2.7H45.1z M50.2,17.9c0.1-0.4,0.1-0.8,0.1-1.1v-5.3
		c0-0.3,0-0.6-0.1-1.1h8.1c0,0.2,0,0.6,0,1.1V15c0.9-1.3,1.7-3.1,2.4-5.6c0.8-2.5,1.3-5.2,1.7-8.1l3,0.7l-0.2,0.5
		c-0.3,1.7-0.6,3.5-1,5.4h7.2l0.4-0.4c0.3,0.2,0.7,0.6,1.2,1s0.9,0.8,1.3,1.2l-0.3,0.1c-0.2,1-0.4,2.2-0.8,3.6
		c-0.3,1.4-0.8,2.8-1.3,4.3c-0.5,1.4-1,2.6-1.5,3.5c-0.2-0.2-0.6-0.5-1.2-0.9c-0.6-0.4-1.1-0.8-1.6-1.1c0.6-0.8,1.1-2,1.7-3.5
		c0.6-1.5,1.1-3.1,1.5-4.7h-7.4c-0.9,3.1-1.9,5.4-3,7c-0.2-0.3-0.5-0.7-0.9-1.3c-0.4-0.6-0.8-1-1.2-1.4v1.5l0,1.1H50.2z M50.7,9.4
		l0.1-1.1V2.3l0-1.1c0.8,0,1.8,0,3,0.1c0,0.2,0,0.5,0,1v1.8h3.6c1.1,0,1.9,0,2.4-0.1v3.3c-0.5-0.1-1.3-0.1-2.4-0.1h-3.6v1
		c0,0.3,0,0.7,0.1,1.1H50.7z M55.8,12.7h-3v3.1h3V12.7z"/>
        <path class="st0" d="M88.4,13.1c-0.1,0.1-0.1,0.3-0.2,0.5c-0.8,3.7-1.9,7.2-3.2,10.4s-2.7,6-4.2,8.2c-0.3-0.4-0.8-1-1.3-1.6
		c-0.6-0.6-1.1-1.2-1.5-1.5c0.5-0.6,1-1.4,1.6-2.4s1.2-2.1,1.8-3.5c0.6-1.4,1.3-3.1,1.9-5c0.6-2,1.2-4.1,1.6-6.6L88.4,13.1z M98,2.5
		c-0.1,0.6-0.1,1.2-0.1,1.7v29l0.1,3.1c0,0.8-0.2,1.4-0.5,2c-0.3,0.6-0.8,1-1.5,1.4c-0.7,0.4-1.6,0.7-2.7,0.9
		c-1.1,0.2-2.5,0.3-4.1,0.3c-0.7-1.6-1.3-3.1-2-4.5c1.3,0.2,2.6,0.3,4,0.3c0.8,0,1.5-0.1,2.1-0.3c0.6-0.2,0.9-0.6,0.9-1.2v-1.9v-29
		c0-0.6,0-1.2-0.1-1.8C95.9,2.3,97.2,2.4,98,2.5z M106.1,11.4c3.8,7.5,6.4,13.6,8,18.3l-3.1,2.6c-0.8-2.7-1.9-5.8-3.4-9.3
		c-1.5-3.4-3.1-6.8-4.7-9.9L106.1,11.4z"/>
        <path class="st0" d="M130.4,21.3l-3.5,1.1c0.4,2.6,0.6,5.6,0.6,8.8c0,3-0.2,5.1-0.5,6.4c-0.3,1.3-0.8,2.1-1.5,2.6
		c-0.7,0.5-1.6,0.7-2.9,0.7c-0.1,0-0.4,0-0.8,0s-0.9,0-1.3-0.1c-0.6-2.1-1.1-3.5-1.3-4c0.9,0.2,1.8,0.3,2.7,0.3
		c0.7,0,1.1-0.1,1.4-0.4c0.3-0.3,0.5-0.9,0.7-1.8s0.2-2.3,0.2-4.1c0-3-0.1-5.5-0.3-7.5l-4.1,1.2l-1.8,0.6l-0.6-4l2-0.4
		c0.7-0.1,2-0.5,3.9-1c-0.2-1-0.5-2-0.9-2.9c-0.3-0.9-0.7-1.7-1.2-2.5l1.3-0.4c0.6-0.8,1.3-1.8,2-3c0.7-1.2,1.3-2.5,1.9-3.8H120
		l-1.6,0V3.3l1.6,0h7.9l0.3-0.4c0.7,0.6,1.5,1.5,2.4,2.5c-0.1,0.1-0.1,0.1-0.2,0.1s-0.2,0.1-0.2,0.1c-0.6,1.6-1.4,3.4-2.4,5.2
		s-1.9,3.3-2.8,4.5c0.1,0.2,0.2,0.6,0.4,1c0.2,0.4,0.3,0.9,0.4,1.4c0.1,0.5,0.2,0.9,0.3,1.2c2-0.6,3.4-1.1,4.3-1.4L130.4,21.3z
		 M145.8,30.8c0.5,0.4,1.4,1.1,2.7,2.2c1.3,1.1,2.8,2.6,4.6,4.4l-2.3,3.1c-0.5-0.6-1.2-1.4-2.1-2.4c-0.9-0.9-1.8-1.9-2.8-2.8
		s-1.8-1.7-2.5-2.2c-1.9,1.6-3.9,3.1-6,4.3s-4.4,2.2-6.7,2.9c-0.5-1.4-1-2.6-1.5-3.6c4.5-1.4,8.5-3.6,12-6.6c3.5-3,6.3-6.5,8.4-10.6
		l3,1.8l-0.3,0.3c-0.9,1.7-1.9,3.3-3,4.8C148.2,28.1,147,29.6,145.8,30.8z M138.4,9.9h-5.1c-1.2,0-2,0-2.5,0.1V6.4
		c0.5,0.1,1.3,0.1,2.5,0.1h7.4c-1-1.9-1.7-3.3-2.3-4.1l3.2-1.4c0.4,0.5,0.9,1.3,1.5,2.4c0.6,1.1,1.1,2.1,1.4,2.8l-0.4,0.2h6.4
		c1.1,0,1.9,0,2.4-0.1V10c-0.5-0.1-1.3-0.1-2.4-0.1h-8.5c-0.6,1.1-1.2,2.4-2.1,3.8c-0.8,1.4-1.6,2.6-2.4,3.7
		c2.2-0.2,4.3-0.4,6.3-0.5c1.1-1.7,2.1-3.5,3-5.4l3.2,1.7l-0.3,0.3c-1.8,3.5-3.6,6.4-5.6,8.9c-2,2.4-4.1,4.5-6.2,6
		c-2.1,1.6-4.4,2.8-6.8,3.8c-0.4-1-0.9-2.2-1.7-3.5c2.2-0.8,4.3-1.9,6.2-3.3c2-1.4,3.8-3,5.4-4.8c-0.6,0.1-1.9,0.2-3.9,0.4
		c-2,0.2-3.4,0.4-4.2,0.5l-0.7-3.8c0.5-0.3,1.1-0.8,1.9-1.5c0.7-0.7,1.5-1.6,2.2-2.8C137.2,12.2,137.9,11.1,138.4,9.9z"/>
        <path class="st0" d="M181,36c3.9,0,7.8-0.3,11.6-0.9c-0.1,0.5-0.3,1.2-0.5,2.1c-0.2,0.9-0.3,1.6-0.4,2.1c-3.1,0.4-6.6,0.6-10.7,0.6
		c-0.8,0-1.7-0.1-2.6-0.2c-0.9-0.1-1.9-0.3-2.8-0.6s-1.9-0.6-2.7-1c-0.8-0.4-1.6-0.8-2.2-1.2c-0.7-0.4-1.3-0.9-1.9-1.4
		c-0.6-0.5-1.2-1.1-1.9-1.8c-0.7-0.7-1-1-1.1-1.1c-0.2-0.2-0.4-0.4-0.6-0.5c-0.2-0.1-0.4-0.1-0.6-0.1c-0.2,0.1-0.4,0.2-0.6,0.4
		c-0.2,0.1-0.3,0.4-0.5,0.6c-0.2,0.3-0.4,0.6-0.6,1c-0.2,0.4-0.5,0.9-0.8,1.5c-0.3,0.5-0.5,1-0.7,1.5s-0.4,0.9-0.6,1.4
		s-0.4,0.8-0.5,1l-2.9-2.6c1-2.3,2-4.3,3.1-5.8c1.1-1.5,2-2.6,2.8-3.1c0.6-0.4,1.1-0.5,1.7-0.6c0.6,0,1.1,0.2,1.6,0.6l1.1,1.1
		c2.8-2,5.7-4.6,8.7-7.6c3-3.1,5.4-6,7.2-8.8h-20.1c-1.3,0-2.2,0-2.8,0.1V8.9c0.5,0.1,1.4,0.1,2.8,0.1h10.9c-0.7-1-1.5-2-2.2-2.9
		c-0.7-0.9-1.3-1.6-1.7-2.1c-0.4-0.5-0.7-0.8-0.9-1l3.1-2.1c0.5,0.5,1.2,1.3,2.2,2.4c1,1.1,2.1,2.4,3.2,3.9L175.4,9h9.8l0.4-0.4
		c0.6,0.4,1.1,0.9,1.7,1.4c0.6,0.5,1.1,1,1.6,1.4l-0.6,0.3c-1.2,2.2-2.6,4.5-4.5,6.9c-1.8,2.4-3.9,4.7-6.4,7.2
		c-2.4,2.4-4.9,4.6-7.3,6.4C173.2,34.7,176.8,36,181,36z"/>
        <path class="st0" d="M213.3,32.9c-0.6,0.5-1.3,1.2-2.2,2.3c-1-1.7-2.3-3.6-3.9-5.7l0.1,9.8c0,0.8,0,1.3,0.1,1.6h-3.5
		c0.1-0.3,0.1-0.8,0.1-1.6l0.1-10c-0.9,1.7-1.9,3.4-3,4.9c-1.1,1.5-2.2,2.7-3.3,3.5l-1.7-3.5c1.2-0.8,2.5-2,3.8-3.5
		c1.3-1.5,2.4-3.1,3.2-4.8h-4.1l-2.1,0v-3.4l2.1,0h5.1v-2.5l-0.1-1.1c0.4,0,1,0,1.7,0.1c0.8,0,1.3,0.1,1.7,0.1
		c-0.1,0.4-0.1,0.7-0.1,0.9v2.5h5.1l2.1,0v3.4l-2.1,0H207l0,1.1L208,26c0.7,0.7,1.5,1.7,2.5,3C211.4,30.3,212.4,31.6,213.3,32.9z
		 M212.5,18.3h-13.9c-1,0-1.7,0-2.2,0v-3.5c0.4,0,1.2,0,2.2,0h8.2c0.2-0.5,0.4-1.2,0.7-2.1c0.3-0.9,0.5-1.8,0.7-2.5
		c0.2-0.8,0.3-1.3,0.3-1.6l3,1.1l-0.3,0.5c-0.1,0.4-0.3,1-0.5,1.8s-0.6,1.7-0.9,2.8h2.7c1,0,1.7,0,2.2,0v3.5
		C214.2,18.3,213.5,18.3,212.5,18.3z M212,8.3h-13.1l-2.2,0V5.1l2.2,0h4.7c-0.4-0.9-0.9-1.7-1.5-2.6l2.7-1.7
		c0.2,0.3,0.5,0.7,0.9,1.4s0.9,1.6,1.5,2.8h4.8c0.9,0,1.6,0,2,0v3.3C213.6,8.4,212.9,8.3,212,8.3z M201.1,14.7
		c-0.5-1.9-1.1-3.5-1.8-5l2.9-0.8c0.7,2,1.1,3.3,1.2,3.7c0.1,0.4,0.2,0.8,0.3,1.3L201.1,14.7z M230.2,15l1.8,0v3.6l-1.8,0h-2.4v20.4
		l0.1,1.9h-3.4c0.1-0.8,0.1-1.4,0.1-1.9V18.5h-4.3c0,1.2,0,2.5-0.1,4c-0.1,1.5-0.2,3.1-0.5,4.7c-0.2,1.6-0.5,3.2-0.9,4.8
		c-0.4,1.6-0.9,3.2-1.5,4.6c-0.6,1.5-1.3,2.7-2.1,3.7c-0.9-1.1-1.9-2-2.8-3c1.5-2,2.7-4.6,3.5-7.9c0.8-3.3,1.1-7.2,1.1-11.7V7.1
		c0-1.4,0-2.3,0-2.6l2,1.1c1.8-0.4,3.8-1.1,5.9-1.9c2.1-0.8,3.7-1.6,4.8-2.4c0.7,1.1,1.4,2.1,2,3.3l-0.7,0.2
		c-3.8,1.8-7.3,3.1-10.5,3.9V15H230.2z"/>
        <path class="st0" d="M249.6,10.2c-0.4,6.5-1.4,12.1-3,16.8c1.5,1.2,2.7,2.1,3.4,2.9c-1.1,2.4-1.8,3.6-1.9,3.9
		c-0.3-0.4-0.7-0.8-1.2-1.3c-0.5-0.5-1.1-1.1-1.8-1.7c-2,4.2-4.5,7.3-7.7,9.4c-0.3-0.7-1-1.8-2.1-3.1c3-2.1,5.3-5,7.1-8.6
		c-1-0.8-2-1.6-3.1-2.4c-1.1-0.8-1.9-1.4-2.6-1.9c0.8-2.6,1.5-6,2.3-10.3h-1.5l-1.6,0v-3.7l1.6,0h2.1c0.6-3.6,0.9-6.6,1.1-9
		c0.2,0,0.6,0.1,1.3,0.2c0.7,0.1,1.2,0.1,1.6,0.2s0.6,0.1,0.7,0.1C244.1,2,244,2.4,244,2.7c-0.2,1.8-0.6,4.3-1.1,7.5H249.6z
		 M240.4,22.6c0.9,0.6,2,1.4,3.4,2.4c1.1-3.1,1.8-6.8,2.3-11.2h-3.9C241.6,17.1,241,20,240.4,22.6z M269.7,14.3
		c1.2,1.6,2,2.6,2.6,3.1c-0.1,0.9-0.2,1.7-0.4,2.4c-0.2,0.7-0.4,1.3-0.7,1.7s-0.7,0.8-1.1,1.1c-0.4,0.2-1,0.4-1.5,0.4
		c-0.8,0-1.6-0.2-2.3-0.5c-0.7-0.3-1.4-0.8-2-1.4c-0.6-0.6-1.1-1.4-1.5-2.2c-0.4-0.8-0.8-1.7-1.1-2.7c-0.3-1-0.5-1.9-0.7-2.7
		l-5.6,0.1v5.2c2.3-0.7,4.3-1.5,6-2.2c-0.1,2.1-0.1,3.3-0.1,3.6c-1.3,0.4-2.6,0.8-4.1,1.2c-1.4,0.4-2.6,0.8-3.6,1.2
		c-0.5,0.2-1,0.4-1.6,0.7l-1.2-3.2c0.4-0.2,0.7-0.6,0.9-1.1s0.4-1.2,0.4-1.9V5.3c0-1.2,0-1.9,0-2.2l2,0.8c2.2-0.1,4.5-0.4,7-0.9
		c2.5-0.5,4.5-1,6.2-1.6l2.2,3l-1,0.2c-2.5,0.6-4.1,1-5,1.2c0.1,1.9,0.2,3.3,0.3,4.2l5-0.1c0.9,0,1.6,0,2-0.1l0.1,3.6
		c-0.4,0-1.1,0-2.1,0l-4.5,0.1c0.5,2,1.1,3.4,1.8,4.4c0.7,1,1.5,1.4,2.3,1.4c0.3,0,0.5-0.2,0.7-0.5c0.2-0.3,0.4-0.8,0.5-1.5
		C269.6,16.6,269.7,15.6,269.7,14.3z M268.7,24l0,1.5v13.9l0,1.5h-3.3v-1.8h-9.9v1.8h-3.4c0.1-0.6,0.1-1.2,0.1-1.5V25.5
		c0-0.4,0-0.9-0.1-1.5H268.7z M255.2,10.2l5-0.1c-0.2-1.2-0.3-2.4-0.4-3.7c-1.7,0.3-3.2,0.5-4.6,0.6V10.2z M265.3,27.3h-9.9v2.6h9.9
		V27.3z M255.5,35.8h9.9V33h-9.9V35.8z"/>
        <path class="st0" d="M285.4,13.1c-0.1,0.1-0.1,0.3-0.2,0.5c-0.8,3.7-1.9,7.2-3.2,10.4s-2.7,6-4.2,8.2c-0.3-0.4-0.8-1-1.3-1.6
		c-0.6-0.6-1.1-1.2-1.5-1.5c0.5-0.6,1-1.4,1.6-2.4s1.2-2.1,1.8-3.5c0.6-1.4,1.3-3.1,1.9-5c0.6-2,1.2-4.1,1.6-6.6L285.4,13.1z
		 M294.9,2.5c-0.1,0.6-0.1,1.2-0.1,1.7v29l0.1,3.1c0,0.8-0.2,1.4-0.5,2c-0.3,0.6-0.8,1-1.5,1.4c-0.7,0.4-1.6,0.7-2.7,0.9
		c-1.1,0.2-2.5,0.3-4.1,0.3c-0.7-1.6-1.3-3.1-2-4.5c1.3,0.2,2.6,0.3,4,0.3c0.8,0,1.5-0.1,2.1-0.3c0.6-0.2,0.9-0.6,0.9-1.2v-1.9v-29
		c0-0.6,0-1.2-0.1-1.8C292.8,2.3,294.1,2.4,294.9,2.5z M303.1,11.4c3.8,7.5,6.4,13.6,8,18.3l-3.1,2.6c-0.8-2.7-1.9-5.8-3.4-9.3
		c-1.5-3.4-3.1-6.8-4.7-9.9L303.1,11.4z"/>
        <path class="st0" d="M340.1,23.6c0.6,1.1,1.3,2.4,2.2,3.8c0.9,1.4,2.1,2.7,3.5,4c1.4,1.3,2.9,2.4,4.5,3.2c-0.1,0.2-0.4,0.6-0.7,1.1
		c-0.4,0.6-0.8,1.4-1.4,2.4c-1.1-0.7-2.4-1.6-3.7-2.9c-1.4-1.2-2.7-2.8-3.9-4.7c-1.3-1.9-2.3-3.8-3.1-5.8l-1.1,0.5
		c0.4,1.4,0.8,3,1,4.7c0.3,1.7,0.4,3.2,0.4,4.6c0,1.3-0.2,2.4-0.7,3.2c-0.5,0.8-1.3,1.5-2.3,1.9c-1.1,0.4-2.6,0.7-4.7,0.7
		c-0.6,0-1.2,0-1.9-0.1c-0.1-0.3-0.2-0.9-0.5-1.7c-0.3-0.8-0.5-1.5-0.7-2.1c0.4,0.1,1,0.1,1.7,0.2c0.7,0.1,1.2,0.1,1.6,0.1
		c1.4,0,2.5-0.2,3-0.6s0.9-1,0.9-1.9c0-0.7,0-1.5-0.1-2.3c-0.1-0.8-0.2-1.5-0.2-2c-1.5,1.3-3.2,2.6-5.3,3.8c-2,1.2-4.1,2.3-6.2,3.2
		c-2.1,0.9-4.1,1.6-5.8,2.1c-0.3-0.5-0.9-1.6-1.9-3.4c3.6-0.9,7-2.2,10.2-3.8s6-3.4,8.3-5.3c-0.3-1.1-0.6-1.8-0.8-2.3
		c-2.3,1.5-4.7,2.9-7.5,4.1c-2.7,1.2-5.4,2.1-8.1,2.7c-0.1-0.4-0.4-0.9-0.7-1.6c-0.4-0.7-0.7-1.3-0.9-1.7c6.4-1.3,11.7-3.4,15.8-6.4
		c-0.2-0.3-0.4-0.6-0.7-1c-0.3-0.4-0.5-0.7-0.7-0.8c-2.9,1.6-6.9,3-12,4.1c-0.4-0.8-1-1.9-1.9-3.2c3-0.4,5.9-1.1,8.8-2
		c2.8-0.9,5.1-1.9,6.9-2.9h-7.9c-1.2,0-2,0-2.6,0v-3.8c0.5,0.1,1.4,0.1,2.6,0.1h17.9c1.2,0,2.1,0,2.6-0.1v3.8c-0.5,0-1.4,0-2.6,0
		h-5.1c-0.5,0.4-1.1,0.8-1.9,1.3c-0.8,0.5-1.4,0.9-1.8,1.2c0.4,0.4,0.9,1.1,1.4,1.9c0.5,0.8,1,1.7,1.4,2.6c0.8-0.4,1.8-0.9,3-1.5
		s2.3-1.3,3.5-2.1c1.1-0.8,1.9-1.5,2.3-2l2.7,2.8l-0.9,0.6C343.6,21.6,341.7,22.8,340.1,23.6z M315.9,14.5c0.1-0.5,0.1-0.9,0.1-1.2
		v-7c0-0.4,0-0.8-0.1-1.2h14.6c-0.6-1.4-1.2-2.6-1.9-3.8l3.8-0.5c0.7,1.2,1.4,2.6,2.1,4.4h14.2c0,0.3,0,0.7,0,1.2v7l0,1.2H345v-6
		h-25.5v6H315.9z"/>
        <path class="st0" d="M360.5,19.9c0,4.5-0.4,8.5-1.1,12c-0.7,3.5-1.8,6.3-3.2,8.3c-1.1-1.2-2-2.3-2.8-3c1.1-2,2-4.4,2.5-7.3
		s0.9-6.3,0.9-10.1V6.8c0-0.4,0-0.8-0.1-1.3h14.7c-0.7-1.4-1.5-2.8-2.3-4.1l3.3-1.5c0.7,1.1,1.6,2.7,2.7,4.7l-1.9,0.8h11.8
		c1.4,0,2.4,0,3-0.1v3.7c-0.6-0.1-1.6-0.1-3-0.1h-24.6V19.9z M378.7,36.5c5,0,8.8-0.1,11.3-0.4c-0.3,1.4-0.6,2.6-0.8,3.6
		c-2.3,0.3-5.8,0.4-10.4,0.4c-2.8,0-5.2-0.3-7.2-0.9c-2-0.6-3.6-1.6-4.9-2.8c-0.7,0.9-1.6,1.6-2.6,2.4c-1,0.7-2,1.3-3.1,1.7
		c-0.4-0.6-1.2-1.7-2.6-3c1.1-0.4,2.2-0.9,3.2-1.5c1-0.6,1.9-1.4,2.8-2.3c-0.5-0.8-1-1.7-1.4-2.8c-0.4-1-0.7-2.1-1-3.3
		c0.4-0.2,1.4-0.8,2.9-1.6c0.1,0.9,0.3,1.8,0.6,2.6c0.3,0.9,0.6,1.6,1,2.2c0.5-0.9,1-1.8,1.4-3c0.4-1.1,0.7-2.2,0.9-3.3h-3.8
		c-0.1,0-0.7,0.1-1.8,0.2l-0.9-3.5c0.2,0,0.6-0.3,1.1-0.7c0.5-0.4,1.1-1.1,1.8-2.1s1.4-2.1,2-3.4h-3.7l-1.4,0v-3.6l1.4,0h5.5
		l0.4-0.5c1,0.9,1.9,1.7,2.5,2.4l-0.5,0.3c-1.3,2.4-2.3,4.2-3.1,5.3c-0.7,1.1-1.2,1.9-1.6,2.3h3l0.2-0.3c0.8,0.7,1.6,1.4,2.2,2.1
		l-0.4,0.2c-0.3,2.1-0.8,4-1.3,5.7s-1.2,3.3-1.9,4.6c1.1,1,2.5,1.7,4.1,2.2C374.4,36.2,376.4,36.5,378.7,36.5z M387.2,13.9
		c-0.6,0.2-1.4,0.4-2.4,0.6c-1,0.2-1.8,0.4-2.4,0.6V20h3.6c0.9,0,1.5,0,2,0v3.5c-0.4,0-1.1,0-2,0h-3.6v5.6h4.8l1.9,0v3.4l-1.9,0
		h-12.6l-1.9,0V29l1.9,0h4.4v-5.6h-3.4l-2,0V20l2,0h3.4v-4.3c-1.8,0.2-3.4,0.4-4.9,0.5c-0.2-0.6-0.6-1.8-1.2-3.4c1,0,2.4-0.1,4-0.3
		c1.6-0.1,3.3-0.4,5-0.8c1.8-0.4,3.2-0.8,4.2-1.2l1.9,3.1L387.2,13.9z"/>
        <path class="st0" d="M425.3,7.3c1.6,0,2.8,0,3.4,0V11c-0.6-0.1-1.8-0.1-3.4-0.1h-12.6c-0.5,1.6-0.9,3-1.3,4.1h12.1l-0.1,2.1v21.8
		l0.1,2h-3.7v-2.3h-16.9v2.3h-3.7c0.1-0.7,0.1-1.4,0.1-2V17c0-0.6,0-1.2-0.1-2.1h8.4c0.4-1,0.9-2.3,1.4-4.1h-11.7
		c-1.6,0-2.8,0-3.4,0.1V7.2c0.7,0,1.8,0,3.4,0h7.6c-0.7-1.3-1.7-3-3.1-4.9L405,1c1.1,1.7,2.1,3.4,3,5.2l-2.3,1.1h8.3
		c0.3-0.5,0.7-1.2,1.2-2.2c0.5-1,0.9-1.8,1.2-2.5c0.3-0.7,0.5-1.3,0.6-1.6l3.7,1.3l-0.4,0.5c-0.9,1.8-1.7,3.3-2.4,4.5H425.3z
		 M419.8,21.8v-3.7h-16.9v3.7H419.8z M402.9,24.8v3.4h16.9v-3.4H402.9z M402.9,35.3h16.9v-4.1h-16.9V35.3z"/>
        <path class="st0" d="M453.5,36.8c1.6,0,3.9-0.1,6.7-0.3c2.9-0.2,5.6-0.5,8.2-0.9c-0.1,0.4-0.2,0.8-0.4,1.4s-0.3,1.1-0.4,1.7
		c-0.1,0.6-0.2,0.9-0.2,1c-1.7,0.2-3.9,0.4-6.8,0.6s-5.3,0.3-7.3,0.3c-1.5,0-3-0.1-4.5-0.3c-1.5-0.2-2.8-0.5-3.9-0.9
		c-1.1-0.4-2.1-0.8-2.9-1.3c-0.8-0.5-1.4-1-1.9-1.5c-0.5-0.5-0.9-1-1.2-1.5c-0.6,1.3-1.3,2.4-2,3.4c-0.7,1-1.5,1.8-2.3,2.5
		c-0.2-0.4-0.5-0.9-1-1.6c-0.4-0.7-0.8-1.2-1.2-1.6c1.5-1.3,2.7-2.8,3.7-4.7s1.7-4.2,2.1-7h-2.7c-0.6,0-1.1,0-1.3,0.1l-0.6-3
		c0.4-0.2,0.8-0.6,1.4-1.3c0.4-0.6,0.9-1.5,1.5-2.5c0.5-1.1,1-2.1,1.4-3h-3.5l-1.5,0v-3.5l1.5,0h5.2l0.2-0.3
		c1.3,1.1,2.1,1.9,2.6,2.5l-0.6,0.3c-0.6,1.3-1.2,2.6-1.9,3.9s-1.4,2.5-2,3.5h1.8l0.3-0.4c0.3,0.2,0.6,0.5,1.1,1s0.9,0.9,1.3,1.3
		l-0.5,0.3c-0.4,2.5-0.9,4.7-1.5,6.7c0.5,1.7,1.9,3,4.2,4C446.9,36.3,449.9,36.8,453.5,36.8z M441.2,8.8l-2.6,2.4
		c-0.6-1-1.3-2.2-2.2-3.5c-0.9-1.3-1.7-2.4-2.5-3.2l2.5-2.2c0.3,0.3,0.7,0.8,1.3,1.4c0.6,0.7,1.2,1.5,1.9,2.4
		C440.2,7.2,440.8,8.1,441.2,8.8z M445.6,28.6c-1.2,0-2.1,0-2.6,0.1v-3.4c0.5,0.1,1.4,0.1,2.6,0.1h3.9v-3h-2.7c-1.1,0-1.9,0-2.4,0.1
		v-3.3c0.5,0.1,1.3,0.1,2.4,0.1h2.7v-1.1l-0.1-1.3c0.4,0,0.9,0,1.7,0.1s1.3,0.1,1.6,0.1l-0.1,1.1v1.1h5.1v-1.1l-0.1-1.3
		c0.4,0,0.9,0,1.7,0.1s1.3,0.1,1.6,0.1l-0.1,1.1v1.1h3.1c1.1,0,2,0,2.6-0.1v3.3c-0.6-0.1-1.5-0.1-2.6-0.1h-3.1v3h4.6
		c1.2,0,2.1,0,2.6-0.1v3.4c-0.5-0.1-1.4-0.1-2.6-0.1H445.6z M443.2,12.4V3.2l0-0.6h10.5l0,1.1v5.8l0,1.1h-1.1l2.6,1.3
		c-0.1,0.7-0.2,1.3-0.4,1.9c-0.2,0.6-0.6,1-1.1,1.4c-0.5,0.4-1.1,0.6-1.9,0.8c-0.8,0.2-1.7,0.3-2.8,0.3c-1.2,0-2.2,0-3-0.1
		c-0.8-0.1-1.5-0.3-1.9-0.6c-0.3-0.2-0.5-0.6-0.6-1C443.3,13.9,443.2,13.3,443.2,12.4z M445.3,34.8c-0.2-0.3-0.9-1.3-2-2.9
		c0.6-0.2,1.5-0.4,2.5-0.8c1-0.3,2.1-0.8,3.2-1.3c1.1-0.5,1.9-1,2.5-1.4l2.3,2.2c-0.4,0.3-1.1,0.8-2.1,1.3c-1,0.5-2.1,1.1-3.5,1.6
		C446.8,34.2,445.8,34.6,445.3,34.8z M450.6,5.4h-4.3v2.3h4.3V5.4z M451.5,12.8c0.2-0.2,0.3-0.5,0.4-0.9c0.1-0.4,0.2-0.9,0.2-1.4
		h-5.8v2.2c0,0.3,0.1,0.5,0.4,0.6c0.3,0.1,1.1,0.1,2.4,0.1c0.6,0,1.1,0,1.4-0.1C450.9,13.2,451.3,13.1,451.5,12.8z M452.5,22.3v3
		h5.1v-3H452.5z M456,12.4V3.2l0-0.6h10.5l0,1.1v5.8l0,1.1h-1.1l2.5,1.3c-0.1,0.7-0.2,1.3-0.4,1.9c-0.2,0.6-0.6,1-1.1,1.4
		c-0.5,0.4-1.1,0.6-1.9,0.8c-0.8,0.2-1.7,0.3-2.8,0.3c-1.2,0-2.2,0-3-0.1c-0.8-0.1-1.5-0.3-1.9-0.6c-0.3-0.2-0.5-0.6-0.6-1
		C456,13.9,456,13.3,456,12.4z M465.4,34.7c-1.1-0.6-2.3-1.3-3.9-2.1c-1.5-0.7-3-1.4-4.4-1.9l2.3-2.2c1.1,0.4,2.4,0.9,4,1.5
		c1.5,0.6,2.9,1.3,4,1.8C466.9,32.7,466.2,33.6,465.4,34.7z M463.4,5.4h-4.3v2.3h4.3V5.4z M464.2,12.8c0.4-0.4,0.6-1.1,0.7-2.3h-5.8
		v2.2c0,0.2,0.1,0.4,0.4,0.6c0.3,0.1,1.1,0.1,2.4,0.1c0.6,0,1.1,0,1.4-0.1C463.7,13.2,464,13.1,464.2,12.8z"/>
    </g>
</svg>
