<svg xmlns="http://www.w3.org/2000/svg" xml:space="preserve" width="272.1" height="40.3" style="overflow:visible" viewBox="0 0 272.1 40.3"><style>.st0{fill:#fff}</style><path d="m9.7 21.4 2.4-1.3q1.2 2.1 2.1 4.5c.7 1.6 1.2 3.1 1.6 4.6l-2.7 1.6c-.4-1.5-.9-3.2-1.5-4.9-.7-1.7-1.3-3.2-1.9-4.5v16.9l.1 1.9H6.3v-1.9c0-1.8 0-4.2.1-7.3s.1-5.6.2-7.5C5.9 25.9 5.2 28 4.3 30c-.8 2-1.7 3.5-2.5 4.7q-.45-1.2-1.8-3.6c.1-.1.3-.4.6-.8s.7-1.1 1.3-2.2q.9-1.65 2.1-4.5c.8-1.9 1.4-3.8 1.9-5.7H.6v-3.7h5.9V1.9c0-.5 0-.9-.1-1.3 1.5 0 2.7 0 3.3.1v13.7h5.2V18H9.7zm-4.3-9.8-2.6.8q-.15-.75-.6-3.3C1.9 7.4 1.4 5.7.9 4l2.8-.7c.3 1.1.6 2.5.9 4.1.4 1.6.6 3 .8 4.2M15 4.5c-.7 3.5-1.5 6.3-2.2 8.3l-2.4-1.3c.4-1.1.9-2.5 1.3-4.3s.7-3.2.8-4.2l2.8 1.1zm19.1 10h2.2v3.1H16.1v-3.1h8.1v-2.8h-6.5V8.8h6.5V6.2h-7.6v-3h7.6V1.8L24 .4c.4 0 1 0 1.9.1.8 0 1.4.1 1.7.1-.1.5-.1.9-.1 1.2v1.4h8.1v3.1h-8.1v2.6h6.8v2.9h-6.8v2.8h6.6zm.5 6.9v11.7l.1 2.9c0 .6-.1 1.2-.4 1.7s-.7.9-1.2 1.3c-.6.3-1.3.6-2.2.8q-1.35.3-3.3.3c-.4-1-.9-2.3-1.7-3.9.3.1.8.1 1.4.2s1.1.1 1.6.1c.7 0 1.2-.1 1.7-.2.4-.2.7-.5.7-1.1v-1.7H20.9v5.2c0 .8 0 1.4.1 1.8h-3.5c.1-.3.1-.9.1-1.8V21.2c0-.3 0-.7-.1-1.2h17.2zm-3.4 1.5H20.9v2.5h10.3zm-10.3 5.2v2.5h10.3v-2.5zM39.9 37.9c.4-1.1.7-2.6 1-4.3s.5-3.4.6-5l2.4.6c-.1 1.6-.2 3.3-.5 5.3-.3 1.9-.6 3.6-1 5.1zm.2-14.2c.2-.1.3-.2.5-.3s.3-.3.4-.4c1.4-2.2 3-4.8 4.7-7.8l-3.7.7-1.1.3-.7-3.1c.1-.1.2-.2.4-.3.1-.1.3-.3.3-.4.9-1.7 2-3.7 3-6C45 4 45.7 2.1 46.2.4l2.6 1.9c-.2.3-.4.6-.5.9-1.9 4.1-3.5 7.3-4.7 9.5 1.3-.2 2.5-.4 3.7-.7q1.65-3.3 2.4-5.4l2.6 1.9-.7 1.1c-.7 1.4-1.5 3-2.5 4.8s-2 3.5-2.9 5.1c-1 1.6-1.8 2.9-2.3 3.7 1.2-.2 2.7-.6 4.6-1.1-.4-1.5-.8-2.7-1.1-3.4l2.2-.9c.2.5.5 1.2.8 2.1s.7 1.9 1 3.1.6 2.2.8 3.1l-2.6 1c-.1-.4-.2-1.1-.4-2.1-1.3.3-3.6.9-6.9 1.6l-1.4.4zm5 5.2 2.2-.4c.3 1.2.5 2.6.7 4.2s.4 3.1.5 4.3l-2.5.6q-.15-4.05-.9-8.7m5.8-1.6c.8 1.6 1.5 3.3 2 5.2q-1.35.75-2.1 1.2c-.4-1.9-1-3.7-1.8-5.5zm13.5 3.3.1 3.6c-.8.3-2.5.8-5.1 1.6-2.7.8-4.6 1.3-5.8 1.6l-1.7.6-.6-3.8 1.9-.4c.1 0 1.3-.3 3.4-.9v-6.6h-3.9v-3.5h3.9V19c0-.4 0-.9-.1-1.3.4 0 .9 0 1.7.1.7 0 1.3.1 1.6.1-.1.4-.1.8-.1 1.1v3.8h4.5v3.5h-4.5V32zm6.7-.8q1.8 3.6 5.4 6.3c-.8 2.1-1.3 3.4-1.4 4.1-2.2-1.9-4-4.3-5.5-7.2-1.3 2.7-3.2 5-5.6 7.1-.1-.4-.4-1-.7-1.8-.4-.8-.7-1.5-1-2 2.4-1.7 4.2-4 5.5-6.8-.6-1.6-1.1-3.5-1.6-5.7s-.8-4.6-1-7.2c-.2.4-.4.8-.7 1.3s-.6.9-.8 1.3c-.1-.3-.3-1-.7-2l-1.7.8c0-.1-.1-.4-.2-.8s-.2-.9-.4-1.6L53.8 17l-1.4.3-.7-3.5c.4-.1.8-.7 1.3-1.6s.9-1.9 1.2-3.1c.4-1.1.6-2.2.9-3.1h-3.2V2.5h12.2v3.4H58c-.7 2.5-1.5 4.9-2.3 7.2l4.2-.9c-.4-1.3-.8-2.4-1.1-3.3l2.3-.9c.8 1.7 1.5 3.6 2.1 5.8.8-1.6 1.6-3.6 2.3-6Q66.55 4.2 67 .6l2.9.8-.2.4c-.3 1.8-.7 4-1.4 6.6h7.4V12H74c-.1 3.5-.4 6.6-.8 9.4q-.75 3.9-2.1 8.4m-1.6-4.3c.4-1.4.7-2.8 1-4.2q.45-2.1.6-4.5c.15-2.4.2-3.2.3-4.9h-3.9c.2 5.7.9 10.3 2 13.6M95.9 21.8v18.5h-3.5v-2.4h-7.7v2.4H81c.1-.6.1-1.2.1-1.7V23.4c0-.4 0-1-.1-1.6zM84.7 34.2h7.7v-8.9h-7.7zm2.2-16.7c.1-.6.1-1.1.1-1.5V4c0-.4 0-.9-.1-1.5h20.9v15zm17.3-11.3H90.6v7.6h13.6zm10.2 17.2v16.9h-3.7v-2.4h-7.8v2.4h-3.7c.1-.6.1-1.2.1-1.7V23.4c0-.4 0-1-.1-1.6h15.1zm-11.5 10.8h7.8v-8.9h-7.8zM123.5 28.4v4.8h-3.3c.1-.8.1-1.5.1-2.1V6.4c0-.6 0-1.2-.1-2.1H131l-.1 1.9v20.3l.1 1.9zm4.2-20.6h-4.2v17.3h4.2zm18.5 13.4c.6 1.4 1.3 2.7 2.1 4s1.5 2.3 2.2 3.2 1.5 1.7 2.2 2.5c.8.8 1.7 1.6 2.6 2.3-.4.6-.7 1.2-1.1 1.9s-.6 1.2-.7 1.5c-1.1-.9-2.1-2-3.2-3.3-1.1-1.2-2.1-2.7-3.2-4.4s-2-3.6-2.9-5.6c.1 2.1.1 4.8.1 8.3s.1 5.6.1 6.6c0 .9 0 1.5.1 1.9h-3.7c.1-.3.1-.9.1-1.9 0-3.1.1-8 .2-14.7-1.4 3-3 5.6-5 8s-4.2 4.3-6.7 5.9c-.2-.4-.5-.9-1-1.5-.5-.7-.9-1.2-1.2-1.7 1.6-.8 3.3-2.1 5-3.7s3.1-3.3 4.3-5c1.1-1.7 2-3.1 2.5-4.4h-4.1c-1.2 0-2 0-2.5.1v-3.9c.5.1 1.3.1 2.5.1h6.2v-5.9h-7.8V7.8h7.8V2.1c0-.4 0-.9-.1-1.5.4 0 1 0 1.9.1.8 0 1.4.1 1.7.1-.1.5-.1.9-.1 1.3v5.7h8.6v3.8h-8.6v5.9h7.7c1.2 0 2 0 2.5-.1v3.9c-.5-.1-1.3-.1-2.5-.1zM179.5 36q2.7 0 6.9-.3c2.8-.2 5.6-.6 8.3-1-.1.4-.4 1.8-.9 4.1q-2.25.3-6.6.6c-2.9.2-5.5.3-7.7.3-2.1 0-4.1-.2-5.9-.6-1.9-.4-3.6-1-5-1.8-1.5-.9-2.6-1.9-3.4-3.3-.7 1.3-1.4 2.4-2.2 3.5-.8 1-1.6 1.8-2.4 2.5-.8-1.3-1.5-2.4-2.3-3.2 1.2-.9 2.2-1.9 3.1-3.2s1.6-2.6 2.1-4 .9-2.6 1.1-3.8h-2.7c-.6 0-1 0-1.3.1l-.6-3.3c.4-.2.9-.6 1.3-1.3 1-1.5 1.9-3 2.6-4.5l-3.5.1h-1.5v-3.5h6.9l.2-.3.1.1s.3.2.7.5.7.6 1 .9.6.5.8.8l-.6.2c-.1.2-.7 1.2-1.7 2.9-1 1.8-1.7 3.1-2.2 3.9h1.8l.3-.4c.3.2.6.5 1.1 1 .5.4.9.9 1.3 1.3l-.5.3c-.3 1.9-.8 3.9-1.5 5.8.3.8.8 1.6 1.5 2.3s1.7 1.3 2.8 1.8 2.4.9 3.9 1.1c1.4.2 3 .4 4.7.4M167.1 7.9l-2.6 2.4c-.3-.5-.7-1.3-1.4-2.3s-1.3-1.9-1.9-2.7-1.1-1.4-1.4-1.8l2.5-2.2c.6.6 1.4 1.6 2.4 2.9 1 1.5 1.8 2.7 2.4 3.7m10.2 3.8h-5.6c-1.2 0-2 0-2.6.1V8.5c.5.1 1.4.1 2.6.1h8.1V5.9c-2.5.2-5.1.4-7.8.4q-.15-.3-.3-.9c-.1-.4-.3-.9-.6-1.4q-.3-.75-.6-1.2 5.1.15 9.3-.3c4.2-.45 4.9-.5 6.3-.8s2.6-.6 3.4-.8l1.9 3.1-1 .2c-2.3.5-4.8 1-7.5 1.4v3.1h7.8c1.2 0 2 0 2.6-.1v3.3c-.5-.1-1.4-.1-2.6-.1h-5c1.1.9 2.4 1.8 3.9 2.6s3 1.4 4.4 1.9c-.2.5-.5 1.1-.8 1.8q-.45 1.05-.6 1.5c-1.8-.6-3.5-1.5-5.2-2.7-1.7-1.1-3.2-2.4-4.5-3.8l.1 3.9c0 .6 0 1 .1 1.3h-3.4c.1-.2.1-.7.1-1.3l.1-3.8c-1 .9-2.2 1.9-3.5 2.7s-2.6 1.6-3.8 2.2-2.3 1.1-3.2 1.4c-.1-.4-.3-.9-.5-1.6s-.5-1.3-.7-1.7c1.5-.5 3.2-1.1 4.8-1.9s3.1-1.7 4.3-2.6m7 18.5c2.3 0 3.7-.4 4.3-1.3.3-.5.5-1.3.7-2.3h-6.9c.3-1 .8-2.5 1.3-4.5H180c-.3 1.6-.7 3.1-1.3 4.3-.6 1.3-1.2 2.3-1.9 3.3-.7.9-1.5 1.8-2.4 2.5s-1.7 1.3-2.6 1.8c-.6-.9-1.3-1.9-2.4-3.1q1.05-.45 2.1-1.2c.7-.5 1.4-1 1.9-1.6.6-.6 1-1.2 1.4-1.8s.7-1.3 1-2 .5-1.5.7-2.3h-5v-3H185l.4-.4c1.1.8 1.8 1.4 2.3 1.9l-.4.2-.7 2.9h6.1v1.2c-.1 1.9-.2 3.2-.4 4s-.4 1.5-.7 2-.6.9-1.1 1.3-1.1.7-1.7.9-1.3.4-2 .5-1.4.2-2.2.2c-.7 0-1.4.1-2 .1-.3-1-.7-2.3-1.3-4 .9.3 1.9.4 3 .4M218.2 20.1c.7 1.9 1.5 3.8 2.6 5.6q1.65 2.7 3.6 4.8c1.4 1.4 2.8 2.7 4.4 3.7s3.3 1.8 5 2.4q-.3.45-.9 1.2-.6.9-.9 1.5l-.5 1c-1.3-.5-2.6-1.2-3.8-1.9-1.2-.8-2.5-1.7-3.7-2.8-1.3-1.1-2.5-2.5-3.7-4.1s-2.1-3.1-2.8-4.5-1.2-2.6-1.6-3.6c-.3.9-.7 1.9-1.3 3-.5 1.1-1.2 2.3-2 3.6-.8 1.2-1.7 2.4-2.8 3.5q-1.5 1.65-3.3 3c-1.2.9-2.3 1.7-3.4 2.3s-2.1 1.1-3 1.4q-.3-.75-1.2-1.8c-.6-.8-1-1.4-1.5-1.9 4-1.5 7.4-3.6 10.1-6.4q4.05-4.2 5.4-9.9h-11.6c-1.4 0-2.5 0-3 .1V16c.6.1 1.6.1 3 .1h12.3l.1-2.1V7.7h-9.3c-1.6 0-2.7 0-3.3.1V3.6c.6.1 1.7.1 3.3.1h22.1c1.6 0 2.8 0 3.4-.1v4.1c-.6-.1-1.8-.1-3.4-.1h-9.2V14l-.1 1.9h12.3c1.5 0 2.5 0 3.1-.1v4.3c-.6-.1-1.6-.1-3.1-.1h-11.3zM265.9 34.7c.3-.4.6-.8.8-1.3s.3-1.2.4-2 .1-1.6.1-2.4c2 1.4 3.2 2.1 3.5 2.3-.2 2.5-.7 4.3-1.4 5.5-.8 1.1-1.9 1.9-3.2 2.3q-2.1.6-5.4.6c-2.1 0-3.8-.1-4.9-.2-1.2-.1-2-.4-2.5-.8s-.9-1-1.1-1.7-.4-1.8-.4-3.2v-6l-9.8 1.3-3.4.5-.2-4c1.4-.1 2.6-.3 3.4-.4l10-1.4V18c-1.3.2-2.6.4-4 .6-1.3.2-2.6.3-3.9.4 0-.1-.5-1.4-1.3-3.7q5.25-.15 10.8-1.2c3.7-.7 6.7-1.6 9.1-2.6l2.4 3.3-1 .2c-2.7.9-5.5 1.7-8.5 2.4v6l13.2-1.8c1.7-.2 2.8-.4 3.3-.5l.2 4h-.7c-.3 0-1.2.1-2.7.4l-13.4 1.8v6.6c0 .4.1.8.2 1.1s.5.6.9.7c.8.1 2.3.2 4.5.2 1.3 0 2.3-.1 3-.2.9-.3 1.5-.6 2-1m-27.2-19.2c.1-.5.1-.9.1-1.3V6.5c0-.4 0-.8-.1-1.2H254c-.8-1.8-1.4-3.1-1.9-3.8l3.3-1.5c.9 1.7 1.8 3.5 2.6 5.3h13.2v10.3h-3.6V8.9h-25.3v6.7h-3.6z" class="st0"/></svg>