<!--Generator: Adobe Illustrator 25.0.0, SVG Export Plug-In-->
<svg version="1.1" xmlns="http://www.w3.org/2000/svg" xmlns:xlink="http://www.w3.org/1999/xlink" x="0px" y="0px" width="272.1px" height="40.3px" viewBox="0 0 272.1 40.3" style="overflow:visible;enable-background:new 0 0 272.1 40.3;" xml:space="preserve">
    <style type="text/css">
        .st0{fill:#FFFFFF;}
    </style>
    <defs/>
    <g>
        <path class="st0" d="M9.7,21.4l2.4-1.3c0.8,1.4,1.5,2.9,2.1,4.5c0.7,1.6,1.2,3.1,1.6,4.6l-2.7,1.6c-0.4-1.5-0.9-3.2-1.5-4.9
		C10.9,24.2,10.3,22.7,9.7,21.4v16.9l0.1,1.9H6.3l0-1.9c0-1.8,0-4.2,0.1-7.3c0.1-3.1,0.1-5.6,0.2-7.5C5.9,25.9,5.2,28,4.3,30
		c-0.8,2-1.7,3.5-2.5,4.7c-0.3-0.8-0.9-2-1.8-3.6c0.1-0.1,0.3-0.4,0.6-0.8c0.3-0.4,0.7-1.1,1.3-2.2c0.6-1.1,1.3-2.6,2.1-4.5
		c0.8-1.9,1.4-3.8,1.9-5.7H2.5c-0.8,0-1.5,0-1.9,0v-3.7c0.4,0,1.1,0,1.9,0h4V1.9c0-0.5,0-0.9-0.1-1.3c1.5,0,2.7,0,3.3,0.1
		C9.7,1.2,9.7,1.6,9.7,2v12.4H13l1.9,0V18L13,18H9.7V21.4z M5.4,11.6l-2.6,0.8c-0.1-0.5-0.3-1.6-0.6-3.3C1.9,7.4,1.4,5.7,0.9,4
		l2.8-0.7C4,4.4,4.3,5.8,4.6,7.4C5,9,5.2,10.4,5.4,11.6z M15,4.5c-0.7,3.5-1.5,6.3-2.2,8.3l-2.4-1.3c0.4-1.1,0.9-2.5,1.3-4.3
		c0.4-1.8,0.7-3.2,0.8-4.2l2.8,1.1L15,4.5z M34.1,14.5l2.2,0v3.1l-2.2,0H18.4c-1.1,0-1.8,0-2.3,0v-3.1c0.5,0,1.2,0,2.3,0h5.8v-2.8
		h-4.5c-0.9,0-1.6,0-2,0V8.8c0.4,0,1.1,0,2,0h4.5V6.2h-5.4c-1,0-1.7,0-2.2,0V3.2c0.4,0,1.2,0,2.2,0h5.4V1.8L24,0.4
		c0.4,0,1,0,1.9,0.1c0.8,0,1.4,0.1,1.7,0.1c-0.1,0.5-0.1,0.9-0.1,1.2v1.4h5.9c1,0,1.7,0,2.2,0v3.1c-0.4,0-1.2,0-2.2,0h-5.9v2.6h4.8
		l2,0v2.9l-2,0h-4.8v2.8H34.1z M34.6,21.4v11.7l0.1,2.9c0,0.6-0.1,1.2-0.4,1.7c-0.3,0.5-0.7,0.9-1.2,1.3c-0.6,0.3-1.3,0.6-2.2,0.8
		c-0.9,0.2-2,0.3-3.3,0.3c-0.4-1-0.9-2.3-1.7-3.9c0.3,0.1,0.8,0.1,1.4,0.2c0.6,0.1,1.1,0.1,1.6,0.1c0.7,0,1.2-0.1,1.7-0.2
		c0.4-0.2,0.7-0.5,0.7-1.1v-1.7H20.9v5.2c0,0.8,0,1.4,0.1,1.8h-3.5c0.1-0.3,0.1-0.9,0.1-1.8V21.2c0-0.3,0-0.7-0.1-1.2h17.2
		L34.6,21.4z M31.2,22.9H20.9v2.5h10.3V22.9z M20.9,28.1v2.5h10.3v-2.5H20.9z"/>
        <path class="st0" d="M39.9,37.9c0.4-1.1,0.7-2.6,1-4.3c0.3-1.7,0.5-3.4,0.6-5l2.4,0.6c-0.1,1.6-0.2,3.3-0.5,5.3
		c-0.3,1.9-0.6,3.6-1,5.1L39.9,37.9z M40.1,23.7c0.2-0.1,0.3-0.2,0.5-0.3s0.3-0.3,0.4-0.4c1.4-2.2,3-4.8,4.7-7.8l-3.7,0.7l-1.1,0.3
		l-0.7-3.1c0.1-0.1,0.2-0.2,0.4-0.3c0.1-0.1,0.3-0.3,0.3-0.4c0.9-1.7,2-3.7,3-6C45,4,45.7,2.1,46.2,0.4l2.6,1.9
		c-0.2,0.3-0.4,0.6-0.5,0.9c-1.9,4.1-3.5,7.3-4.7,9.5c1.3-0.2,2.5-0.4,3.7-0.7c1.1-2.2,1.9-4,2.4-5.4l2.6,1.9l-0.7,1.1
		c-0.7,1.4-1.5,3-2.5,4.8c-1,1.8-2,3.5-2.9,5.1c-1,1.6-1.8,2.9-2.3,3.7c1.2-0.2,2.7-0.6,4.6-1.1c-0.4-1.5-0.8-2.7-1.1-3.4l2.2-0.9
		c0.2,0.5,0.5,1.2,0.8,2.1c0.3,0.9,0.7,1.9,1,3.1c0.3,1.2,0.6,2.2,0.8,3.1l-2.6,1c-0.1-0.4-0.2-1.1-0.4-2.1
		c-1.3,0.3-3.6,0.9-6.9,1.6l-1.4,0.4L40.1,23.7z M45.1,28.9l2.2-0.4c0.3,1.2,0.5,2.6,0.7,4.2c0.2,1.6,0.4,3.1,0.5,4.3L46,37.6
		C45.9,34.9,45.6,32,45.1,28.9z M50.9,27.3c0.8,1.6,1.5,3.3,2,5.2c-0.9,0.5-1.6,0.9-2.1,1.2c-0.4-1.9-1-3.7-1.8-5.5L50.9,27.3z
		 M64.4,30.6l0.1,3.6c-0.8,0.3-2.5,0.8-5.1,1.6c-2.7,0.8-4.6,1.3-5.8,1.6L51.9,38l-0.6-3.8l1.9-0.4c0.1,0,1.3-0.3,3.4-0.9v-6.6h-2.2
		l-1.7,0v-3.5l1.7,0h2.2v-3.8c0-0.4,0-0.9-0.1-1.3c0.4,0,0.9,0,1.7,0.1c0.7,0,1.3,0.1,1.6,0.1c-0.1,0.4-0.1,0.8-0.1,1.1v3.8h2.8
		l1.7,0v3.5l-1.7,0h-2.8V32L64.4,30.6z M71.1,29.8c1.2,2.4,3,4.5,5.4,6.3c-0.8,2.1-1.3,3.4-1.4,4.1c-2.2-1.9-4-4.3-5.5-7.2
		c-1.3,2.7-3.2,5-5.6,7.1c-0.1-0.4-0.4-1-0.7-1.8c-0.4-0.8-0.7-1.5-1-2c2.4-1.7,4.2-4,5.5-6.8c-0.6-1.6-1.1-3.5-1.6-5.7
		c-0.5-2.2-0.8-4.6-1-7.2c-0.2,0.4-0.4,0.8-0.7,1.3c-0.3,0.5-0.6,0.9-0.8,1.3c-0.1-0.3-0.3-1-0.7-2l-1.7,0.8c0-0.1-0.1-0.4-0.2-0.8
		c-0.1-0.4-0.2-0.9-0.4-1.6l-6.9,1.4l-1.4,0.3l-0.7-3.5c0.4-0.1,0.8-0.7,1.3-1.6c0.5-0.9,0.9-1.9,1.2-3.1c0.4-1.1,0.6-2.2,0.9-3.1
		h-1.5l-1.7,0V2.5l1.7,0h8.8l1.7,0v3.4l-1.7,0H58c-0.7,2.5-1.5,4.9-2.3,7.2l4.2-0.9c-0.4-1.3-0.8-2.4-1.1-3.3L61.1,8
		c0.8,1.7,1.5,3.6,2.1,5.8c0.8-1.6,1.6-3.6,2.3-6C66.2,5.4,66.7,3,67,0.6l2.9,0.8l-0.2,0.4c-0.3,1.8-0.7,4-1.4,6.6h5.9l1.5,0v3.6
		l-1.5,0H74c-0.1,3.5-0.4,6.6-0.8,9.4C72.7,24,72,26.8,71.1,29.8z M69.5,25.5c0.4-1.4,0.7-2.8,1-4.2c0.3-1.4,0.5-2.9,0.6-4.5
		s0.2-3.2,0.3-4.9h-3.9C67.7,17.6,68.4,22.2,69.5,25.5z"/>
        <path class="st0" d="M95.9,21.8l0,1.6v15.3l0,1.6h-3.5v-2.4h-7.7v2.4H81c0.1-0.6,0.1-1.2,0.1-1.7V23.4c0-0.4,0-1-0.1-1.6H95.9z
		 M84.7,34.2h7.7v-8.9h-7.7V34.2z M86.9,17.5C87,16.9,87,16.4,87,16V4c0-0.4,0-0.9-0.1-1.5h20.9c0,0.4,0,0.9,0,1.5v12l0,1.5H86.9z
		 M104.2,6.2H90.6v7.6h13.6V6.2z M114.4,23.4v15.2l0,1.7h-3.7v-2.4h-7.8v2.4h-3.7c0.1-0.6,0.1-1.2,0.1-1.7V23.4c0-0.4,0-1-0.1-1.6
		h15.1L114.4,23.4z M102.9,34.2h7.8v-8.9h-7.8V34.2z"/>
        <path class="st0" d="M123.5,28.4v4.8h-3.3c0.1-0.8,0.1-1.5,0.1-2.1V6.4c0-0.6,0-1.2-0.1-2.1H131l-0.1,1.9v20.3l0.1,1.9H123.5z
		 M127.7,7.8h-4.2v17.3h4.2V7.8z M146.2,21.2c0.6,1.4,1.3,2.7,2.1,4c0.8,1.3,1.5,2.3,2.2,3.2s1.5,1.7,2.2,2.5
		c0.8,0.8,1.7,1.6,2.6,2.3c-0.4,0.6-0.7,1.2-1.1,1.9c-0.4,0.7-0.6,1.2-0.7,1.5c-1.1-0.9-2.1-2-3.2-3.3c-1.1-1.2-2.1-2.7-3.2-4.4
		c-1.1-1.7-2-3.6-2.9-5.6c0.1,2.1,0.1,4.8,0.1,8.3s0.1,5.6,0.1,6.6c0,0.9,0,1.5,0.1,1.9h-3.7c0.1-0.3,0.1-0.9,0.1-1.9
		c0-3.1,0.1-8,0.2-14.7c-1.4,3-3,5.6-5,8c-2,2.4-4.2,4.3-6.7,5.9c-0.2-0.4-0.5-0.9-1-1.5c-0.5-0.7-0.9-1.2-1.2-1.7
		c1.6-0.8,3.3-2.1,5-3.7c1.7-1.6,3.1-3.3,4.3-5c1.1-1.7,2-3.1,2.5-4.4h-4.1c-1.2,0-2,0-2.5,0.1v-3.9c0.5,0.1,1.3,0.1,2.5,0.1h6.2
		v-5.9h-5.5c-1.1,0-1.9,0-2.3,0V7.8c0.5,0,1.2,0,2.3,0h5.5V2.1c0-0.4,0-0.9-0.1-1.5c0.4,0,1,0,1.9,0.1c0.8,0,1.4,0.1,1.7,0.1
		c-0.1,0.5-0.1,0.9-0.1,1.3v5.7h6.3c1.1,0,1.9,0,2.3,0v3.8c-0.5,0-1.2,0-2.3,0h-6.3v5.9h7.7c1.2,0,2,0,2.5-0.1v3.9
		c-0.5-0.1-1.3-0.1-2.5-0.1H146.2z"/>
        <path class="st0" d="M179.5,36c1.8,0,4.1-0.1,6.9-0.3c2.8-0.2,5.6-0.6,8.3-1c-0.1,0.4-0.4,1.8-0.9,4.1c-1.5,0.2-3.7,0.4-6.6,0.6
		c-2.9,0.2-5.5,0.3-7.7,0.3c-2.1,0-4.1-0.2-5.9-0.6c-1.9-0.4-3.6-1-5-1.8c-1.5-0.9-2.6-1.9-3.4-3.3c-0.7,1.3-1.4,2.4-2.2,3.5
		c-0.8,1-1.6,1.8-2.4,2.5c-0.8-1.3-1.5-2.4-2.3-3.2c1.2-0.9,2.2-1.9,3.1-3.2c0.9-1.3,1.6-2.6,2.1-4c0.5-1.4,0.9-2.6,1.1-3.8h-2.7
		c-0.6,0-1,0-1.3,0.1l-0.6-3.3c0.4-0.2,0.9-0.6,1.3-1.3c1-1.5,1.9-3,2.6-4.5l-3.5,0.1l-1.5,0v-3.5l1.5,0h5.4l0.2-0.3
		c0,0,0.1,0.1,0.1,0.1s0.3,0.2,0.7,0.5c0.4,0.3,0.7,0.6,1,0.9c0.3,0.3,0.6,0.5,0.8,0.8l-0.6,0.2c-0.1,0.2-0.7,1.2-1.7,2.9
		c-1,1.8-1.7,3.1-2.2,3.9h1.8l0.3-0.4c0.3,0.2,0.6,0.5,1.1,1c0.5,0.4,0.9,0.9,1.3,1.3l-0.5,0.3c-0.3,1.9-0.8,3.9-1.5,5.8
		c0.3,0.8,0.8,1.6,1.5,2.3c0.7,0.7,1.7,1.3,2.8,1.8c1.1,0.5,2.4,0.9,3.9,1.1C176.2,35.8,177.8,36,179.5,36z M167.1,7.9l-2.6,2.4
		c-0.3-0.5-0.7-1.3-1.4-2.3s-1.3-1.9-1.9-2.7c-0.6-0.8-1.1-1.4-1.4-1.8l2.5-2.2c0.6,0.6,1.4,1.6,2.4,2.9
		C165.7,5.7,166.5,6.9,167.1,7.9z M177.3,11.7h-5.6c-1.2,0-2,0-2.6,0.1V8.5c0.5,0.1,1.4,0.1,2.6,0.1h8.1V5.9
		c-2.5,0.2-5.1,0.4-7.8,0.4c-0.1-0.2-0.2-0.5-0.3-0.9c-0.1-0.4-0.3-0.9-0.6-1.4c-0.2-0.5-0.4-0.9-0.6-1.2c3.4,0.1,6.5,0,9.3-0.3
		s4.9-0.5,6.3-0.8c1.4-0.3,2.6-0.6,3.4-0.8l1.9,3.1l-1,0.2c-2.3,0.5-4.8,1-7.5,1.4v3.1h7.8c1.2,0,2,0,2.6-0.1v3.3
		c-0.5-0.1-1.4-0.1-2.6-0.1h-5c1.1,0.9,2.4,1.8,3.9,2.6s3,1.4,4.4,1.9c-0.2,0.5-0.5,1.1-0.8,1.8c-0.3,0.7-0.5,1.2-0.6,1.5
		c-1.8-0.6-3.5-1.5-5.2-2.7c-1.7-1.1-3.2-2.4-4.5-3.8l0.1,3.9c0,0.6,0,1,0.1,1.3h-3.4c0.1-0.2,0.1-0.7,0.1-1.3l0.1-3.8
		c-1,0.9-2.2,1.9-3.5,2.7s-2.6,1.6-3.8,2.2c-1.2,0.6-2.3,1.1-3.2,1.4c-0.1-0.4-0.3-0.9-0.5-1.6c-0.2-0.7-0.5-1.3-0.7-1.7
		c1.5-0.5,3.2-1.1,4.8-1.9C174.6,13.5,176.1,12.6,177.3,11.7z M184.3,30.2c2.3,0,3.7-0.4,4.3-1.3c0.3-0.5,0.5-1.3,0.7-2.3h-6.9
		c0.3-1,0.8-2.5,1.3-4.5h-3.7c-0.3,1.6-0.7,3.1-1.3,4.3c-0.6,1.3-1.2,2.3-1.9,3.3c-0.7,0.9-1.5,1.8-2.4,2.5s-1.7,1.3-2.6,1.8
		c-0.6-0.9-1.3-1.9-2.4-3.1c0.7-0.3,1.4-0.7,2.1-1.2c0.7-0.5,1.4-1,1.9-1.6c0.6-0.6,1-1.2,1.4-1.8c0.4-0.6,0.7-1.3,1-2
		c0.3-0.7,0.5-1.5,0.7-2.3h-3.2c-0.8,0-1.4,0-1.8,0V19c0.4,0,1,0,1.8,0H185l0.4-0.4c1.1,0.8,1.8,1.4,2.3,1.9l-0.4,0.2l-0.7,2.9h6.1
		l0,1.2c-0.1,1.9-0.2,3.2-0.4,4c-0.2,0.8-0.4,1.5-0.7,2c-0.3,0.5-0.6,0.9-1.1,1.3c-0.5,0.4-1.1,0.7-1.7,0.9c-0.6,0.2-1.3,0.4-2,0.5
		s-1.4,0.2-2.2,0.2c-0.7,0-1.4,0.1-2,0.1c-0.3-1-0.7-2.3-1.3-4C182.2,30.1,183.2,30.2,184.3,30.2z"/>
        <path class="st0" d="M218.2,20.1c0.7,1.9,1.5,3.8,2.6,5.6c1.1,1.8,2.3,3.4,3.6,4.8c1.4,1.4,2.8,2.7,4.4,3.7c1.6,1,3.3,1.8,5,2.4
		c-0.2,0.3-0.5,0.7-0.9,1.2c-0.4,0.6-0.7,1.1-0.9,1.5c-0.2,0.4-0.4,0.8-0.5,1c-1.3-0.5-2.6-1.2-3.8-1.9c-1.2-0.8-2.5-1.7-3.7-2.8
		c-1.3-1.1-2.5-2.5-3.7-4.1c-1.2-1.6-2.1-3.1-2.8-4.5s-1.2-2.6-1.6-3.6c-0.3,0.9-0.7,1.9-1.3,3c-0.5,1.1-1.2,2.3-2,3.6
		c-0.8,1.2-1.7,2.4-2.8,3.5c-1,1.1-2.1,2.1-3.3,3c-1.2,0.9-2.3,1.7-3.4,2.3c-1.1,0.6-2.1,1.1-3,1.4c-0.2-0.5-0.6-1.1-1.2-1.8
		c-0.6-0.8-1-1.4-1.5-1.9c4-1.5,7.4-3.6,10.1-6.4c2.7-2.8,4.5-6.1,5.4-9.9h-11.6c-1.4,0-2.5,0-3,0.1v-4.3c0.6,0.1,1.6,0.1,3,0.1
		h12.3l0.1-2.1V7.7h-9.3c-1.6,0-2.7,0-3.3,0.1V3.6c0.6,0.1,1.7,0.1,3.3,0.1h22.1c1.6,0,2.8,0,3.4-0.1v4.1c-0.6-0.1-1.8-0.1-3.4-0.1
		h-9.2v6.4l-0.1,1.9h12.3c1.5,0,2.5,0,3.1-0.1v4.3c-0.6-0.1-1.6-0.1-3.1-0.1H218.2z"/>
        <path class="st0" d="M265.9,34.7c0.3-0.4,0.6-0.8,0.8-1.3c0.2-0.5,0.3-1.2,0.4-2c0.1-0.8,0.1-1.6,0.1-2.4c2,1.4,3.2,2.1,3.5,2.3
		c-0.2,2.5-0.7,4.3-1.4,5.5c-0.8,1.1-1.9,1.9-3.2,2.3c-1.4,0.4-3.2,0.6-5.4,0.6c-2.1,0-3.8-0.1-4.9-0.2c-1.2-0.1-2-0.4-2.5-0.8
		c-0.5-0.4-0.9-1-1.1-1.7s-0.4-1.8-0.4-3.2l0-6l-9.8,1.3l-3.4,0.5l-0.2-4c1.4-0.1,2.6-0.3,3.4-0.4l10-1.4v-5.8
		c-1.3,0.2-2.6,0.4-4,0.6c-1.3,0.2-2.6,0.3-3.9,0.4c0-0.1-0.5-1.4-1.3-3.7c3.5-0.1,7.1-0.5,10.8-1.2c3.7-0.7,6.7-1.6,9.1-2.6
		l2.4,3.3l-1,0.2c-2.7,0.9-5.5,1.7-8.5,2.4v6l13.2-1.8c1.7-0.2,2.8-0.4,3.3-0.5l0.2,4c-0.2,0-0.4,0-0.7,0c-0.3,0-1.2,0.1-2.7,0.4
		l-13.4,1.8v6.6c0,0.4,0.1,0.8,0.2,1.1s0.5,0.6,0.9,0.7c0.8,0.1,2.3,0.2,4.5,0.2c1.3,0,2.3-0.1,3-0.2
		C264.8,35.4,265.4,35.1,265.9,34.7z M238.7,15.5c0.1-0.5,0.1-0.9,0.1-1.3V6.5c0-0.4,0-0.8-0.1-1.2H254c-0.8-1.8-1.4-3.1-1.9-3.8
		l3.3-1.5c0.9,1.7,1.8,3.5,2.6,5.3h13.2l0,1.2v7.8l0,1.3h-3.6V8.9h-25.3v6.7H238.7z"/>
    </g>
</svg>
