<!-- Generator: Adobe Illustrator 25.0.0, SVG Export Plug-In  -->
<svg version="1.1" xmlns="http://www.w3.org/2000/svg" xmlns:xlink="http://www.w3.org/1999/xlink" x="0px" y="0px" width="137.7px"
	 height="25.6px" viewBox="0 0 137.7 25.6" style="overflow:visible;enable-background:new 0 0 137.7 25.6;" xml:space="preserve">
<style type="text/css">
	.st0{opacity:0.81;}
	.st1{fill:#FFFFFF;}
</style>
<defs>
</defs>
<g class="st0">
	<path class="st1" d="M5.2,14.5l1.5,2c-0.2,0.5-0.5,1.2-1,2c-0.4,0.8-1,1.8-1.6,2.9c-0.6,1.1-1.1,2-1.6,2.7
		c-0.2,0.3-0.4,0.7-0.6,1.2L0,23.4l0.7-0.8c0.5-0.7,1.2-1.9,2.1-3.5C3.6,17.6,4.4,16,5.2,14.5z M6.1,10.3l-1.2,1.9
		c-0.5-0.4-1.2-0.9-2.1-1.5C2,10.1,1.1,9.5,0.1,9l1.2-1.8C2,7.6,2.8,8.1,3.8,8.7C4.7,9.3,5.5,9.8,6.1,10.3z M7.2,3.7
		C6.8,4.4,6.4,5,6,5.6C4.1,4.1,2.5,3,1.2,2.3l1.2-1.9C4,1.4,5.7,2.5,7.2,3.7z M23.3,22.5c0.9,0,1.5,0,1.9-0.1v2.1c-0.4,0-1.1,0-2,0
		h-16c-0.9,0-1.6,0-2,0v-2.1c0.4,0,1.1,0.1,2,0.1h0.7v-7.6c0-0.2,0-0.6-0.1-0.9h15.5l0,0.9V22.5z M9,11.9l0.1-1V2.3
		c0-0.2,0-0.6-0.1-0.9h13.2l0,0.9v8.7l0,1H9z M9.9,15.9v6.6h2.5v-6.6H9.9z M20.2,3.2h-9.1V10h9.1V3.2z M12.8,9.6
		c-0.1-0.1-0.3-0.3-0.5-0.6c-0.3-0.3-0.5-0.5-0.7-0.7C12.5,7.7,13.3,7,14,6.1c0.6-0.9,1-1.8,1.1-2.8l1.6,0.5L16.6,4
		c-0.1,0.6-0.2,1-0.3,1.2c1.2,1,2.3,1.9,3.2,2.9l-1.2,1.4c-0.8-1-1.7-1.9-2.7-2.9c-0.4,0.6-0.8,1.2-1.3,1.7
		C13.9,8.8,13.4,9.2,12.8,9.6z M16.8,15.9h-2.5v6.6h2.5V15.9z M21.3,15.9h-2.7v6.6h2.7V15.9z"/>
	<path class="st1" d="M48.2,19.5v0.4v4.9c0,0.4,0,0.6,0,0.8H46v-0.8H35.3v0.8H33c0-0.3,0.1-0.6,0.1-0.8v-4.9c0-0.2,0-0.3,0-0.4
		c-0.3,0.1-0.8,0.2-1.6,0.5c-0.8,0.2-1.8,0.4-3,0.7c-0.1-0.3-0.3-0.9-0.8-1.8c1.9-0.2,3.8-0.6,5.5-1.1s3.2-1,4.4-1.6h-7
		c-1,0-1.8,0-2.2,0.1v-1.7c0.5,0,1.2,0.1,2.2,0.1h9.2v-1c-2.3,0.1-4.7,0.1-7,0.1L32,12.1c2.7,0.2,5.5,0.2,8.3,0
		c2.8-0.1,5.3-0.4,7.5-0.8l1.1,1.4l-0.6,0.1c-2.3,0.3-4.6,0.5-6.8,0.7v1h9.2c1.1,0,1.8,0,2.2-0.1v1.7c-0.4,0-1.2-0.1-2.2-0.1h-7
		c0.9,0.5,2,0.9,3.3,1.3c1.3,0.4,2.5,0.7,3.6,0.9c1.1,0.2,2.1,0.4,2.9,0.5c-0.1,0.2-0.3,0.5-0.4,0.9c-0.2,0.3-0.3,0.6-0.3,0.8
		C51.4,20.3,49.9,20,48.2,19.5z M29.2,14.3c-0.4-0.5-0.9-1-1.4-1.5c0.6-0.5,1-0.9,1.3-1.5c0.3-0.5,0.4-1.2,0.4-2.1v-2l0-0.6h10.5
		c0,0.1,0,0.3,0,0.7V10l0,0.7h-8.7c-0.1,0.4-0.2,0.8-0.3,1.2c-0.2,0.5-0.4,0.9-0.7,1.3C29.9,13.7,29.5,14,29.2,14.3z M33.5,3h-3.8
		c-0.6,0-1.1,0-1.4,0V1.6c0.3,0,0.8,0,1.4,0h3.8V1l-0.1-0.7c0.2,0,0.6,0,1,0c0.4,0,0.7,0,0.9,0.1c0.2,0,0.3,0,0.3,0
		c0,0.2-0.1,0.4-0.1,0.6v0.6h3.7c0.6,0,1.1,0,1.4,0V3c-0.3,0-0.8,0-1.4,0h-3.7v1.1h3c0.5,0,1,0,1.3,0v1.4c-0.3,0-0.7,0-1.3,0h-8.2
		l-1.3,0V4.1l1.3,0h3.1V3z M31.3,7.8v1.5v0h2.5V7.8H31.3z M47.1,19.1c-1.1-0.4-2.1-0.8-3.1-1.3c-1-0.5-1.8-1-2.6-1.5l0,1.5
		c0,0.3,0,0.5,0.1,0.7h-2c0-0.1,0.1-0.3,0.1-0.7l0-1.4c-0.7,0.5-1.5,1-2.4,1.5c-0.9,0.5-1.9,0.9-3,1.3H47.1z M35.3,20.3v1.1H46v-1.1
		H35.3z M35.3,23.6H46v-1.2H35.3V23.6z M37.9,9.4V7.8h-2.6v1.6H37.9z M40.3,4.4c1.2-0.4,1.9-0.7,2.2-1c0.3-0.3,0.5-0.7,0.5-1.1V1.4
		c0-0.3,0-0.5,0-0.7h6.4c0,0.2-0.1,0.4-0.1,0.6v1.4c0,0.2,0,0.3,0.1,0.4c0.1,0.1,0.2,0.1,0.4,0.2s0.4,0,0.7,0c0.7,0,1.6,0,2.6-0.1
		l-0.3,1.6C52.4,4.9,51.5,5,50.3,5c-1,0-1.7-0.1-2.1-0.3c-0.4-0.2-0.6-0.6-0.6-1.2V2.2h-2.6v0.3c0,0.4-0.1,0.7-0.3,1.1
		c-0.2,0.4-0.5,0.8-1,1.1c-0.5,0.3-1.1,0.6-1.9,0.9C41.4,5.3,40.9,4.9,40.3,4.4z M41.4,11.4c-0.1-0.3-0.4-0.8-0.8-1.4
		c0.9,0,1.8-0.1,2.6-0.2c0.8-0.1,1.5-0.2,2.1-0.4c-1.2-0.3-2.4-0.5-3.5-0.7l0.6-1.1c1.4,0.2,3,0.5,4.9,1C48,8.3,48.6,7.9,49,7.4
		h-6.5l-1.2,0V5.8l1.2,0H50l0.2-0.3c0.4,0.3,0.9,0.6,1.4,1.1l-0.3,0.1c-0.2,0.4-0.6,0.9-0.9,1.3c-0.4,0.4-0.8,0.8-1.3,1.1
		c1.5,0.5,2.9,0.9,4.1,1.4l-0.9,1.6c-1.8-0.9-3.5-1.6-4.9-2.1C45.7,10.8,43.7,11.3,41.4,11.4z"/>
	<path class="st1" d="M67,20.9l0,0.9h-7.3v2.6h-2.3c0-0.4,0.1-0.8,0.1-1.1V12.7c0-0.3,0-0.7-0.1-1.1h3.8V7.4h-3.6
		c-0.7,0-1.2,0-1.5,0V5.2c0.3,0,0.8,0,1.5,0h3.6V1.1c0-0.3,0-0.6-0.1-0.9c1.1,0,1.8,0,2.3,0.1c0,0.3-0.1,0.6-0.1,0.8v4.2h3.5
		c0.7,0,1.1,0,1.5,0v2.2c-0.3,0-0.8,0-1.5,0h-3.5v4.3H67l0,1V20.9z M59.7,19.8h5v-6.1h-5V19.8z M75.5,18c0.7,1.1,1.6,2.1,2.7,3.1
		c1.1,1,2.2,1.7,3.4,2.3l-0.9,2.1c-2.5-1.4-4.6-3.3-6.4-5.7c-0.6,0.8-1.3,1.6-2.1,2.4c-0.8,0.8-1.6,1.5-2.4,2
		c-0.8,0.5-1.5,1-2.1,1.3c-0.1-0.1-0.2-0.4-0.4-0.8c-0.2-0.4-0.5-0.8-0.8-1.4c1.2-0.5,2.4-1.2,3.6-2.2c1.2-1,2.2-2.1,3-3.2
		c-1.4-2.5-2.3-5.2-2.8-8.1c-0.5,1-1.1,1.8-1.7,2.5c-0.2-0.4-0.7-1-1.3-1.9c0.8-0.9,1.7-2.4,2.5-4.3c0.8-1.9,1.4-3.9,1.8-6l2.1,0.5
		L73.4,1c-0.3,1.3-0.7,2.7-1.2,4.2h7.4l1.3,0v2.1l-1.3,0h-0.8C78.3,11.2,77.2,14.8,75.5,18z M74.2,15.9c0.5-0.9,0.9-1.9,1.2-2.9
		c0.4-1,0.6-2,0.8-3s0.4-1.9,0.5-2.7h-5C72.2,10.7,73,13.6,74.2,15.9z"/>
	<path class="st1" d="M109.1,16l0.8,0v1.8l-0.8,0h-1.8v4.3l0,1h-2.2v-1.7h-7v0.1l0,1.7c0,0.5-0.1,1-0.4,1.3
		c-0.3,0.3-0.8,0.6-1.6,0.8c-0.7,0.2-1.9,0.3-3.4,0.3c-0.1-0.2-0.3-0.6-0.5-1.1c-0.2-0.5-0.4-0.8-0.6-1.1c0.8,0.1,1.6,0.2,2.3,0.2
		c0.6,0,1-0.1,1.4-0.2c0.4-0.1,0.6-0.4,0.6-0.8v-1.2v-0.1h-7.8c-0.9,0-1.5,0-1.9,0v-1.8c0.4,0,1,0,1.9,0H96v-1.9h-9.7
		c-1,0-1.7,0-2.1,0V16c0.4,0,1.1,0.1,2.1,0.1H96v-1.9h-7.7c-0.9,0-1.5,0-1.9,0.1v-1.8c0.4,0,1,0.1,1.9,0.1H96v-1.7h-8
		c0-0.3,0.1-0.5,0.1-0.7V6.4c0-0.2,0-0.4-0.1-0.7h8V4.1h-8.6c-1.1,0-1.9,0-2.3,0.1v-2c0.4,0,1.2,0.1,2.3,0.1H96v-1
		c0-0.4,0-0.7-0.1-1c0.6,0,1.4,0,2.3,0.1c0,0.4-0.1,0.7-0.1,1v1h9c1.1,0,1.8,0,2.3-0.1v2c-0.5,0-1.2-0.1-2.3-0.1h-9v1.6h8.1
		c0,0.2,0,0.4,0,0.7V10l0,0.7h-8.1v1.7h9.2l0,1V16H109.1z M90.2,9.2H96v-2h-5.8V9.2z M104,7.2h-5.9v2h5.9V7.2z M98.1,14.1V16h7v-1.9
		H98.1z M98.1,19.7h7v-1.9h-7V19.7z"/>
	<path class="st1" d="M133.4,22.3c0.3-0.3,0.6-0.7,0.7-1.1c0.1-0.5,0.2-1,0.3-1.5c0-0.5,0-0.9,0-1.1c1.2,0.7,2,1.2,2.2,1.3
		c-0.1,1-0.2,1.8-0.5,2.4c-0.2,0.7-0.6,1.2-1.1,1.6c-0.5,0.4-1.2,0.7-2.1,0.9c-0.9,0.2-2,0.3-3.4,0.3c-1.5,0-2.7,0-3.5-0.1
		c-0.8-0.1-1.4-0.2-1.7-0.4c-0.4-0.2-0.7-0.6-0.8-1.1s-0.3-1.1-0.3-1.9l0-4.1l-7.2,0.9c-1.2,0.1-1.9,0.2-2.3,0.3l-0.1-2.3
		c0.5,0,1.2-0.1,2.3-0.2l7.4-0.9v-4c-1.8,0.3-3.7,0.5-5.7,0.7l-0.9-2.1c1.8-0.1,3.7-0.3,5.6-0.5c2-0.3,3.6-0.6,5.1-1
		c1.4-0.4,2.6-0.7,3.5-1.1l1.5,1.8l-0.7,0.2c-2.1,0.6-4.2,1.2-6.1,1.6V15l9.7-1.2c0.7-0.1,1.5-0.2,2.3-0.3l0.1,2.3
		c-0.5,0-1.3,0.1-2.3,0.2l-9.8,1.2v4.5c0,0.4,0.1,0.6,0.2,0.8s0.4,0.3,0.7,0.4c0.6,0.1,1.7,0.1,3.3,0.1c0.9,0,1.7-0.1,2.2-0.2
		S133,22.6,133.4,22.3z M114,9.7c0-0.3,0.1-0.5,0.1-0.8V4.2c0-0.2,0-0.5-0.1-0.8h11c-0.5-1.1-1-2-1.4-2.6l2.1-0.8
		c0.5,0.8,1.1,1.9,1.9,3.4h9.5c0,0.2,0,0.4,0,0.8v4.8l0,0.8h-2.3V5.4h-18.4v4.3H114z"/>
</g>
</svg>
