<svg xmlns="http://www.w3.org/2000/svg" xml:space="preserve" width="138.6" height="155.5" style="overflow:visible" viewBox="0 0 138.6 155.5"><path d="M126.6 118.9c6.9 6.6 10.8 10.4 11.9 11.3-.4 8.3-2.1 14.5-5.2 18.7q-4.65 6.3-12.9 6.3c-3 0-6.2-.6-9.5-1.7s-6.4-2.7-9.1-4.6c-2.8-2-5.1-3.9-7-6-3.9 2.1-8.3 4.1-13 5.8s-9.4 3.1-13.9 4c-4.5 1-8.1 1.6-10.6 1.9-.6-1.7-1.7-4.1-3.2-7.4-1.5-3.2-2.9-6-4.1-8.2 14.4-1.3 26.3-4.3 35.7-8.7-3.6-6.4-6.6-13.8-8.9-22.2l-31.4.7v6.5c11.5-1.1 18.9-2 22.4-2.5q-.6 8.4-.6 13.8l-21.8 2.2.3 10.1c0 2.7-.6 5-1.7 7.1-1.1 2-2.9 3.7-5.3 5.2s-5.6 2.5-9.6 3.3c-4 .7-8.7 1.1-14.3 1.1l-7.4-17c1.3.2 3.2.4 5.7.7 2.5.2 4.9.3 7.1.3 3.4 0 5.8-.4 7.3-1.2q2.1-1.2 2.1-3.9v-4.4c-8.9.9-15.9 1.5-21.2 1.8-1.4.1-3.7.4-6.8.8L.2 117.6c3.6.2 6.4.3 8.3.3q6.45 0 21-1.2V109l-16 .3c-5.2 0-9.7.2-13.3.5L0 95.4c.7.1 1.5.2 2.3.2h11.2l16.2-.3v-4.9c-7.7.7-15.8 1-24.3 1-.5-2.2-1.8-6.4-4-12.6 9.3.3 19.3 0 30.1-1s19.6-2.4 26.6-4.2l7.1 11.6-3.3.7c-7.3 1.3-12.7 2.2-16.5 2.7V95l28.4-.5c-.8-4.1-1.5-9.2-2-15.3 0-.3-.1-.8-.2-1.4l-.6-3.6c10 .6 15.2.9 15.7 1l.2 4.2c.3 4.8.9 9.7 1.7 14.8l23.3-.5c-2.2-1.7-5-3.6-8.4-5.6q-5.1-3.15-8.7-4.8l8-9.2c3.1 1.3 6.6 3 10.5 5s7.2 4 10.1 5.9l-7.1 8.7 6.2-.2c7.3-.2 11.7-.4 13.3-.7l.3 14.6q-5.4-.15-13.5 0l-30.9.6c.3 1 1 2.9 2 5.7s2.4 5.8 4.1 8.9c1.8-1.5 3.9-3.4 6.1-5.9 2.3-2.5 4.4-5.5 6.4-9.1l11.9 8.9-1.2 1.5c-3.8 6.2-8.4 11.5-13.8 16.1 1.9 1.6 4 2.8 6.3 3.7s4.4 1.3 6.3 1.3c2.5 0 4.3-1.6 5.3-4.9 1-3.1 1.5-8.3 1.5-15.3m-6.3-46.4H13.5c-6.3 0-10.7.1-13.1.3V58.6c2.4.2 6.8.3 13.1.3h44.9v-8.1H23.6c-5.2 0-8.9.1-11 .3V38c2.1.2 5.8.3 11 .3h34.8v-7.1H18.9c-5.8 0-9.9.1-12.2.3V17.3c2.3.2 6.4.3 12.2.3h21.5c-2.1-3.5-4.7-7.4-7.7-11.8L48 .3q1.05 1.5 2.1 3.3c.7 1.2 3.2 5.6 7.4 13.3l-1.5.7h22c1.7-2.7 3.5-5.8 5.3-9.3s3-6.3 3.6-8.3l16.8 6.7-1.8 2.2c-2.2 4.1-3.9 7.1-5 8.7h18.9c5.8 0 9.9-.1 12.1-.3v14.3c-2.2-.2-6.2-.3-12.1-.3H75.4v7.1h34.5c5.1 0 8.8-.1 11-.3v13.3c-2.2-.2-5.9-.3-11-.3H75.4v8.1h44.9c6.3 0 10.8-.1 13.3-.3v14.3c-2.5-.5-7-.7-13.3-.7" style="fill:#d10202"/></svg>