<!--Generator: Adobe Illustrator 25.0.0, SVG Export Plug-In-->
<svg version="1.1" xmlns="http://www.w3.org/2000/svg" xmlns:xlink="http://www.w3.org/1999/xlink" x="0px" y="0px" width="138.6px" height="155.5px" viewBox="0 0 138.6 155.5" style="overflow:visible;enable-background:new 0 0 138.6 155.5;" xml:space="preserve">
    <style type="text/css">
        .st0{fill:#D10202;}
    </style>
    <defs/>
    <path class="st0" d="M126.6,118.9c6.9,6.6,10.8,10.4,11.9,11.3c-0.4,8.3-2.1,14.5-5.2,18.7c-3.1,4.2-7.4,6.3-12.9,6.3
	c-3,0-6.2-0.6-9.5-1.7c-3.3-1.1-6.4-2.7-9.1-4.6c-2.8-2-5.1-3.9-7-6c-3.9,2.1-8.3,4.1-13,5.8c-4.7,1.7-9.4,3.1-13.9,4
	c-4.5,1-8.1,1.6-10.6,1.9c-0.6-1.7-1.7-4.1-3.2-7.4c-1.5-3.2-2.9-6-4.1-8.2c14.4-1.3,26.3-4.3,35.7-8.7c-3.6-6.4-6.6-13.8-8.9-22.2
	l-31.4,0.7v6.5c11.5-1.1,18.9-2,22.4-2.5c-0.4,5.6-0.6,10.2-0.6,13.8l-21.8,2.2l0.3,10.1c0,2.7-0.6,5-1.7,7.1
	c-1.1,2-2.9,3.7-5.3,5.2c-2.4,1.5-5.6,2.5-9.6,3.3c-4,0.7-8.7,1.1-14.3,1.1l-7.4-17c1.3,0.2,3.2,0.4,5.7,0.7
	c2.5,0.2,4.9,0.3,7.1,0.3c3.4,0,5.8-0.4,7.3-1.2c1.4-0.8,2.1-2.1,2.1-3.9v-4.4c-8.9,0.9-15.9,1.5-21.2,1.8c-1.4,0.1-3.7,0.4-6.8,0.8
	l-1.4-15.1c3.6,0.2,6.4,0.3,8.3,0.3c4.3,0,11.3-0.4,21-1.2v-7.7l-16,0.3c-5.2,0-9.7,0.2-13.3,0.5L0,95.4c0.7,0.1,1.5,0.2,2.3,0.2
	c0.8,0,4.5,0,11.2,0l16.2-0.3v-4.9c-7.7,0.7-15.8,1-24.3,1C4.9,89.2,3.6,85,1.4,78.8c9.3,0.3,19.3,0,30.1-1
	c10.8-1,19.6-2.4,26.6-4.2l7.1,11.6l-3.3,0.7c-7.3,1.3-12.7,2.2-16.5,2.7v6.4l28.4-0.5c-0.8-4.1-1.5-9.2-2-15.3
	c0-0.3-0.1-0.8-0.2-1.4c-0.1-0.6-0.3-1.8-0.6-3.6c10,0.6,15.2,0.9,15.7,1l0.2,4.2c0.3,4.8,0.9,9.7,1.7,14.8l23.3-0.5
	c-2.2-1.7-5-3.6-8.4-5.6c-3.4-2.1-6.3-3.7-8.7-4.8l8-9.2c3.1,1.3,6.6,3,10.5,5c3.9,2,7.2,4,10.1,5.9l-7.1,8.7l6.2-0.2
	c7.3-0.2,11.7-0.4,13.3-0.7l0.3,14.6c-3.6-0.1-8.1-0.1-13.5,0L91.7,108c0.3,1,1,2.9,2,5.7c1,2.8,2.4,5.8,4.1,8.9
	c1.8-1.5,3.9-3.4,6.1-5.9c2.3-2.5,4.4-5.5,6.4-9.1l11.9,8.9l-1.2,1.5c-3.8,6.2-8.4,11.5-13.8,16.1c1.9,1.6,4,2.8,6.3,3.7
	c2.3,0.9,4.4,1.3,6.3,1.3c2.5,0,4.3-1.6,5.3-4.9C126.1,131.1,126.6,125.9,126.6,118.9z M120.3,72.5H13.5c-6.3,0-10.7,0.1-13.1,0.3
	V58.6c2.4,0.2,6.8,0.3,13.1,0.3h44.9v-8.1H23.6c-5.2,0-8.9,0.1-11,0.3V38c2.1,0.2,5.8,0.3,11,0.3h34.8v-7.1H18.9
	c-5.8,0-9.9,0.1-12.2,0.3V17.3c2.3,0.2,6.4,0.3,12.2,0.3h21.5c-2.1-3.5-4.7-7.4-7.7-11.8l15.3-5.5c0.7,1,1.4,2.1,2.1,3.3
	c0.7,1.2,3.2,5.6,7.4,13.3l-1.5,0.7H78c1.7-2.7,3.5-5.8,5.3-9.3s3-6.3,3.6-8.3l16.8,6.7l-1.8,2.2c-2.2,4.1-3.9,7.1-5,8.7h18.9
	c5.8,0,9.9-0.1,12.1-0.3v14.3c-2.2-0.2-6.2-0.3-12.1-0.3H75.4v7.1h34.5c5.1,0,8.8-0.1,11-0.3v13.3c-2.2-0.2-5.9-0.3-11-0.3H75.4v8.1
	h44.9c6.3,0,10.8-0.1,13.3-0.3v14.3C131.1,72.7,126.6,72.5,120.3,72.5z"/>
</svg>
