<svg xmlns="http://www.w3.org/2000/svg" xml:space="preserve" width="144.8" height="154.5" style="overflow:visible" viewBox="0 0 144.8 154.5"><path d="m144.8 91.2-6.6 15.8c-3.2-2.4-6.1-4.8-8.8-7.2-.1 14.7-.4 24.3-1 29-.6 4.6-1.3 8.1-2.2 10.5-1.5 4.3-4.5 7.5-8.8 9.8-4.4 2.3-10.4 3.4-17.9 3.4-1-3.9-2.8-10.2-5.4-19 2.9 1 5.7 1.5 8.3 1.5s4.8-.5 6.4-1.4c1.7-1 2.8-2.4 3.6-4.3q1.65-4.8 1.8-19.5h-12.7c-2.7 11.1-7.3 20.2-13.8 27.2-6.5 7.1-14.8 12.5-25 16.3-1.2-1.9-2.8-4.3-4.7-7.1-1.9-2.9-3.6-5.3-5.1-7.3 8.7-2.9 15.7-6.7 21.1-11.3q8.1-6.9 11.7-17.7H73.5c-3.4 0-5.9.1-7.6.2V99.2q-1.65 1.5-4.8 3.9c-2.1 1.6-3.8 2.7-5.1 3.5-1.7-4.1-3.8-8.6-6.3-13.3v28.4l.3 14.9c0 4.8-1.7 8.7-5.2 11.8q-5.25 4.5-14.4 4.5l-6.6-19.1c2.4.3 4.7.5 7 .5 1.5 0 2.8-.2 3.8-.6s1.5-1.4 1.5-3.1V99.7H22.8c-.6 8.7-1.5 17-2.7 24.7s-2.5 14-4 18.9-2.8 8.6-4 11.2C11 153 7 148.8 0 141.7c3.1-6.6 5.6-16 7.3-28.1Q10 95.45 10 69.5V9.6l-.2-4.7H50l-.3 8.6v76.9c8-4.3 14.8-11 20.4-20.2h-5.6c-4.6 0-8 .1-10 .3V53.7c1.9.2 5.2.3 10 .3H78c.5-1.5 1.2-3.5 2-6.1q1.2-3.9 1.8-6.6H67.4c-4.5 0-7.7.1-9.5.2v-16c1.7.1 4.6.2 8.8.2-1.9-5.1-4.4-10.9-7.4-17.1l14.2-4.9c3.5 7.6 6.4 14.9 8.6 22h4.4c1.2-7.7 2-16.3 2.3-25.7l14.8 1.7-.5 1.7c-.8 10-1.6 17.4-2.4 22.3h9.2c1.6-3.2 3.2-7 4.8-11.3s2.7-8.1 3.6-11.5l14.1 6.4-.9 1.8c-.8 2.2-1.9 4.8-3.2 7.6-1.4 2.8-2.5 5.2-3.6 7.1h3.3c4.5 0 7.7-.1 9.5-.2v16c-1.8-.1-5-.2-9.5-.2H95.7c-1 4.7-2.1 9-3.2 12.8h38.8c4.8 0 8.2-.1 10.1-.3v16.8c-1.9-.2-5.3-.3-10.1-.3H123c5.7 8 12.9 15 21.8 20.8M23.6 83.6H36V59.8H23.7V70zM36 21.3H23.7v22.3H36zm68 72.6h19.3c-2.3-2.5-4.5-5.1-6.6-8s-3.8-5.6-5.3-8.3-2.7-5.1-3.7-7.4H86.6c-1.9 4.3-4.2 8.5-7 12.7-2.7 4.2-5.5 7.9-8.3 11h16.9c.4-3 .6-6.8.6-11.3l-.2-4.7 16 .5-.3 3.5q.15 6.45-.3 12" style="fill:#d10202"/></svg>