<!--Generator: Adobe Illustrator 25.0.0, SVG Export Plug-In-->
<svg version="1.1" xmlns="http://www.w3.org/2000/svg" xmlns:xlink="http://www.w3.org/1999/xlink" x="0px" y="0px" width="144.8px" height="154.5px" viewBox="0 0 144.8 154.5" style="overflow:visible;enable-background:new 0 0 144.8 154.5;" xml:space="preserve">
    <style type="text/css">
        .st0{fill:#D10202;}
    </style>
    <defs/>
    <path class="st0" d="M144.8,91.2l-6.6,15.8c-3.2-2.4-6.1-4.8-8.8-7.2c-0.1,14.7-0.4,24.3-1,29c-0.6,4.6-1.3,8.1-2.2,10.5
	c-1.5,4.3-4.5,7.5-8.8,9.8c-4.4,2.3-10.4,3.4-17.9,3.4c-1-3.9-2.8-10.2-5.4-19c2.9,1,5.7,1.5,8.3,1.5c2.6,0,4.8-0.5,6.4-1.4
	c1.7-1,2.8-2.4,3.6-4.3c1.1-3.2,1.7-9.7,1.8-19.5h-12.7c-2.7,11.1-7.3,20.2-13.8,27.2c-6.5,7.1-14.8,12.5-25,16.3
	c-1.2-1.9-2.8-4.3-4.7-7.1c-1.9-2.9-3.6-5.3-5.1-7.3c8.7-2.9,15.7-6.7,21.1-11.3c5.4-4.6,9.3-10.5,11.7-17.7H73.5
	c-3.4,0-5.9,0.1-7.6,0.2V99.2c-1.1,1-2.7,2.3-4.8,3.9c-2.1,1.6-3.8,2.7-5.1,3.5c-1.7-4.1-3.8-8.6-6.3-13.3v28.4l0.3,14.9
	c0,4.8-1.7,8.7-5.2,11.8c-3.5,3-8.3,4.5-14.4,4.5l-6.6-19.1c2.4,0.3,4.7,0.5,7,0.5c1.5,0,2.8-0.2,3.8-0.6c1-0.4,1.5-1.4,1.5-3.1
	v-8.9v-22H22.8c-0.6,8.7-1.5,17-2.7,24.7s-2.5,14-4,18.9c-1.5,4.9-2.8,8.6-4,11.2C11,153,7,148.8,0,141.7c3.1-6.6,5.6-16,7.3-28.1
	C9.1,101.5,10,86.8,10,69.5V9.6L9.8,4.9H50l-0.3,8.6v76.9c8-4.3,14.8-11,20.4-20.2h-5.6c-4.6,0-8,0.1-10,0.3V53.7
	c1.9,0.2,5.2,0.3,10,0.3H78c0.5-1.5,1.2-3.5,2-6.1c0.8-2.6,1.4-4.8,1.8-6.6H67.4c-4.5,0-7.7,0.1-9.5,0.2v-16
	c1.7,0.1,4.6,0.2,8.8,0.2c-1.9-5.1-4.4-10.9-7.4-17.1l14.2-4.9c3.5,7.6,6.4,14.9,8.6,22h4.4c1.2-7.7,2-16.3,2.3-25.7l14.8,1.7
	l-0.5,1.7c-0.8,10-1.6,17.4-2.4,22.3h9.2c1.6-3.2,3.2-7,4.8-11.3c1.6-4.3,2.7-8.1,3.6-11.5l14.1,6.4l-0.9,1.8
	c-0.8,2.2-1.9,4.8-3.2,7.6c-1.4,2.8-2.5,5.2-3.6,7.1h3.3c4.5,0,7.7-0.1,9.5-0.2v16c-1.8-0.1-5-0.2-9.5-0.2H95.7
	c-1,4.7-2.1,9-3.2,12.8h38.8c4.8,0,8.2-0.1,10.1-0.3v16.8c-1.9-0.2-5.3-0.3-10.1-0.3H123C128.7,78.4,135.9,85.4,144.8,91.2z
	 M23.6,83.6H36V59.8H23.7V70L23.6,83.6z M36,21.3H23.7v22.3H36V21.3z M104,93.9h19.3c-2.3-2.5-4.5-5.1-6.6-8
	c-2.1-2.9-3.8-5.6-5.3-8.3c-1.5-2.7-2.7-5.1-3.7-7.4H86.6c-1.9,4.3-4.2,8.5-7,12.7c-2.7,4.2-5.5,7.9-8.3,11h2.1h14.8
	c0.4-3,0.6-6.8,0.6-11.3l-0.2-4.7l16,0.5l-0.3,3.5C104.4,86.2,104.3,90.2,104,93.9z"/>
</svg>
