<!--Generator: Adobe Illustrator 25.0.0, SVG Export Plug-In-->
<svg version="1.1" xmlns="http://www.w3.org/2000/svg" xmlns:xlink="http://www.w3.org/1999/xlink" x="0px" y="0px" width="27.4px" height="29.7px" viewBox="0 0 27.4 29.7" style="overflow:visible;enable-background:new 0 0 27.4 29.7;" xml:space="preserve">
    <style type="text/css">
        .st0{fill:#D10202;}
    </style>
    <defs/>
    <path class="st0" d="M7.1,7.2v20.5c0,0.6,0,1.2,0.1,2H3.5c0-0.7,0.1-1.4,0.1-2c0-1.6,0-3.8,0.1-6.7c0.1-2.9,0.2-5.6,0.3-8
	c-0.9,1.6-1.7,2.9-2.5,3.8c-0.2-0.7-0.7-2-1.5-3.9c0.7-0.8,1.5-1.9,2.2-3.3c0.8-1.4,1.4-2.8,2-4.2s1-2.6,1.3-3.4
	C5.8,1.2,6,0.5,6.1,0.1l3.2,1.2L9.1,1.5C8.5,3.6,7.8,5.5,7.1,7.2z M25.3,4.6c1,0,1.7,0,2.2-0.1v3.3c-0.4,0-1.1-0.1-2.2-0.1H10.4
	c-1,0-1.7,0-2.2,0.1V4.6c0.4,0,1.1,0.1,2.2,0.1h6.1c-0.3-0.5-0.6-1-1-1.6c-0.4-0.5-0.7-1.1-1.1-1.5L17.3,0c0.9,0.9,1.7,2.1,2.5,3.6
	l-1.7,1H25.3z M25.4,18.9l0,1.2v8.5l0,1.1h-3.3v-1.3h-8.7v1.3H10c0-0.4,0.1-0.8,0.1-1.1v-8.5L10,18.9H25.4z M23,12.4H12.1
	c-0.8,0-1.4,0-1.7,0V9.5c0.3,0,0.9,0,1.7,0H23l1.7,0v2.9L23,12.4z M10.4,17.1v-2.9c0.3,0,0.9,0,1.7,0H23l1.7,0v2.9
	C24.3,17,23.7,17,23,17H12.1C11.3,17,10.8,17,10.4,17.1z M13.3,25.5h8.7v-3.7h-8.7V25.5z"/>
</svg>
