<svg xmlns="http://www.w3.org/2000/svg" xml:space="preserve" width="27.4" height="29.7" style="overflow:visible" viewBox="0 0 27.4 29.7"><path d="M7.1 7.2v20.5c0 .6 0 1.2.1 2H3.5c0-.7.1-1.4.1-2 0-1.6 0-3.8.1-6.7s.2-5.6.3-8c-.9 1.6-1.7 2.9-2.5 3.8q-.3-1.05-1.5-3.9c.7-.8 1.5-1.9 2.2-3.3.8-1.4 1.4-2.8 2-4.2s1-2.6 1.3-3.4S6 .5 6.1.1l3.2 1.2-.2.2c-.6 2.1-1.3 4-2 5.7m18.2-2.6c1 0 1.7 0 2.2-.1v3.3c-.4 0-1.1-.1-2.2-.1H10.4c-1 0-1.7 0-2.2.1V4.6c.4 0 1.1.1 2.2.1h6.1c-.3-.5-.6-1-1-1.6-.4-.5-.7-1.1-1.1-1.5L17.3 0c.9.9 1.7 2.1 2.5 3.6l-1.7 1zm.1 14.3v10.8h-3.3v-1.3h-8.7v1.3H10c0-.4.1-.8.1-1.1v-8.5l-.1-1.2zM23 12.4H10.4V9.5h14.3v2.9zm-12.6 4.7v-2.9h14.3v2.9c-.4-.1-1-.1-1.7-.1H12.1c-.8 0-1.3 0-1.7.1m2.9 8.4H22v-3.7h-8.7z" style="fill:#d10202"/></svg>