<svg xmlns="http://www.w3.org/2000/svg" xml:space="preserve" width="27.8" height="29.8" style="overflow:visible" viewBox="0 0 27.8 29.8"><path d="M10.5 25.2c-.2-.6-.5-1.4-.9-2.2s-.7-1.6-1.1-2.2v7.5c0 .6 0 1.1.1 1.3H5.5c0-.2.1-.7.1-1.3 0-1.6 0-3.9.1-6.8-.6 1.3-1.3 2.4-2 3.6-.7 1.1-1.5 2-2.1 2.7-.3-.8-.8-2-1.5-3.5q1.2-1.05 2.4-2.7c1.2-1.65 1.4-2.3 1.9-3.5h-3V8.8h4.2V6.4H.7V3.2h4.8V1c0-.3 0-.6-.1-1H7c.7 0 1.2.1 1.5.1v3.2h4.8v3.2H8.5v2.3h4.3V18H8.6v1.4l1.4-.9c.5.6 1 1.5 1.5 2.5.6 1 1 1.9 1.4 2.7zM4.1 11.6v3.5h1.6v-3.5zm6 3.5v-3.5H8.5v3.5zm.6 11.9c1.2-.3 2.5-.7 3.9-1.3s2.3-1.2 2.8-1.7l2.2 1.9c-.8.6-1.7 1.3-2.8 1.9s-2 1.1-2.8 1.4-1.3.5-1.5.6c-.3-.6-.9-1.6-1.8-2.8m3.9-3c0-.5.1-.9.1-1.3V10h-.1c-.3-.6-.8-1.5-1.7-2.8 2.4-.6 3.9-1.6 4.6-3H14V1.3h12.7l-.1 1c0 1.3-.1 2.4-.1 3.1-.1.8-.2 1.4-.4 1.8-.3.7-.8 1.3-1.6 1.7s-2 .6-3.4.6l-1-3c.2.1.5.2.8.2.4.2.6.3.8.3.4 0 .8-.1 1-.2q.45-.3.6-.6c0-.1.1-.2.1-.5.1-.3.1-.7.1-1.3h-3.2c-.3 1.2-.9 2.3-1.7 3.2-.9 1-2 1.7-3.3 2.3H26v14.4H14.6zm8.6-11.7h-5.7v1.5h5.7zm-5.6 5.3h5.7v-1.5h-5.7zm0 3.9h5.7v-1.6h-5.7zm4.9 2.8c1.9.9 3.7 1.9 5.3 3l-1.5 2.6q-2.55-1.95-5.4-3.6z" style="fill:#d10202"/></svg>