<!--Generator: Adobe Illustrator 25.0.0, SVG Export Plug-In-->
<svg version="1.1" xmlns="http://www.w3.org/2000/svg" xmlns:xlink="http://www.w3.org/1999/xlink" x="0px" y="0px" width="27.8px" height="29.8px" viewBox="0 0 27.8 29.8" style="overflow:visible;enable-background:new 0 0 27.8 29.8;" xml:space="preserve">
    <style type="text/css">
        .st0{fill:#D10202;}
    </style>
    <defs/>
    <path class="st0" d="M10.5,25.2c-0.2-0.6-0.5-1.4-0.9-2.2c-0.4-0.8-0.7-1.6-1.1-2.2v7.5c0,0.6,0,1.1,0.1,1.3H5.5
	c0-0.2,0.1-0.7,0.1-1.3c0-1.6,0-3.9,0.1-6.8c-0.6,1.3-1.3,2.4-2,3.6c-0.7,1.1-1.5,2-2.1,2.7c-0.3-0.8-0.8-2-1.5-3.5
	c0.8-0.7,1.6-1.6,2.4-2.7s1.4-2.3,1.9-3.5h-3c0-0.2,0-0.5,0-1V9.8c0-0.5,0-0.8,0-1h4.2V6.4H2.3c-0.7,0-1.3,0-1.6,0V3.2
	c0.3,0,0.9,0,1.6,0h3.2V1c0-0.3,0-0.6-0.1-1c0.3,0,0.9,0,1.6,0s1.2,0.1,1.5,0.1L8.5,1v2.3h3.2c0.8,0,1.3,0,1.6,0v3.2
	c-0.3,0-0.8,0-1.6,0H8.5v2.3h4.3c0,0.2,0,0.5,0,1v7.2l0,1H8.6v1.4l1.4-0.9c0.5,0.6,1,1.5,1.5,2.5c0.6,1,1,1.9,1.4,2.7L10.5,25.2z
	 M4.1,11.6v3.5h1.6v-3.5H4.1z M10.1,15.1v-3.5H8.5v3.5H10.1z M10.7,27c1.2-0.3,2.5-0.7,3.9-1.3c1.4-0.6,2.3-1.2,2.8-1.7l2.2,1.9
	c-0.8,0.6-1.7,1.3-2.8,1.9c-1.1,0.6-2,1.1-2.8,1.4s-1.3,0.5-1.5,0.6C12.2,29.2,11.6,28.2,10.7,27z M14.6,24c0-0.5,0.1-0.9,0.1-1.3
	V11l0-1l-0.1,0c-0.3-0.6-0.8-1.5-1.7-2.8c2.4-0.6,3.9-1.6,4.6-3h-2l-1.5,0V1.3l1.5,0h11.2l-0.1,1c0,1.3-0.1,2.4-0.1,3.1
	c-0.1,0.8-0.2,1.4-0.4,1.8c-0.3,0.7-0.8,1.3-1.6,1.7c-0.8,0.4-2,0.6-3.4,0.6l-1-3c0.2,0.1,0.5,0.2,0.8,0.2C21.3,6.9,21.5,7,21.7,7
	c0.4,0,0.8-0.1,1-0.2c0.3-0.2,0.5-0.4,0.6-0.6c0-0.1,0.1-0.2,0.1-0.5c0.1-0.3,0.1-0.7,0.1-1.3h-3.2c-0.3,1.2-0.9,2.3-1.7,3.2
	c-0.9,1-2,1.7-3.3,2.3h10.7l0,1.3v11.8l0,1.3H14.6z M23.2,12.3h-5.7v1.5h5.7V12.3z M17.6,17.6h5.7v-1.5h-5.7V17.6z M17.6,21.5h5.7
	v-1.6h-5.7V21.5z M22.5,24.3c1.9,0.9,3.7,1.9,5.3,3l-1.5,2.6c-1.7-1.3-3.5-2.5-5.4-3.6L22.5,24.3z"/>
</svg>
