<svg xmlns="http://www.w3.org/2000/svg" xml:space="preserve" width="25.9" height="29.5" style="overflow:visible" viewBox="0 0 25.9 29.5"><path d="M23.4 20.7c1.2 0 2 0 2.5-.1v3.1c-.5 0-1.4-.1-2.7-.1h-3l.1 2.4q0 .9-.3 1.5c-.2.4-.6.8-1.1 1.1s-1.2.5-2.1.7-1.9.2-3.1.2c-.4-.9-.9-2.1-1.6-3.5 1 .2 2 .3 2.9.3.7 0 1.3-.1 1.6-.3s.5-.4.5-.8v-1.5H7.8c.6.2 1.3.5 2 .8q1.05.45 1.8.9c-.2.4-.8 1.2-1.8 2.6-.3-.2-.7-.5-1.3-.9-.6-.3-1.2-.7-2-1.1-.7-.4-1.4-.6-1.9-.8l1.2-1.6H2.6c-1.3 0-2.1 0-2.6.1v-3.1c.5 0 1.4.1 2.6.1h14.3v-.5l-.1-.8h1.8c.8 0 1.3.1 1.7.1 0 .3-.1.5-.1.7v.5H23c-.3-.6-.7-1.2-1.1-1.8-2.3.1-5.7.2-10.1.4-4.4.1-7.6.2-9.6.2l-1.5.1-.2-2.9 1.9.1q1.95.15 9 0v-1.3h-8c0-.3.1-.7.1-1V7.2c0-.3 0-.6-.1-1h8V4.9H2.8c-1.2 0-2 0-2.5.1V2c.5 0 1.3.1 2.5.1h8.6v-.8c0-.4 0-.8-.1-1.3h1.8c.8 0 1.3.1 1.7.1l-.1 1.1V2H23c1.2 0 2 0 2.5-.1v2.9c-.5 0-1.3-.1-2.5-.1h-8.2V6h8v9c1.2 1.4 2.2 2.6 2.9 3.7zm-12-12.3H6.7v1.3h4.7zm-4.7 4.9h4.7v-1.4H6.7zm12.9-4.9h-4.8v1.3h4.8zm0 4.9v-1.4h-4.8v1.4zm-4.8 3.5 5.4-.2c-.2-.3-.5-.6-.9-1.1h-4.5z" style="fill:#d10202"/></svg>