<!--Generator: Adobe Illustrator 25.0.0, SVG Export Plug-In-->
<svg version="1.1" xmlns="http://www.w3.org/2000/svg" xmlns:xlink="http://www.w3.org/1999/xlink" x="0px" y="0px" width="25.9px" height="29.5px" viewBox="0 0 25.9 29.5" style="overflow:visible;enable-background:new 0 0 25.9 29.5;" xml:space="preserve">
    <style type="text/css">
        .st0{fill:#D10202;}
    </style>
    <defs/>
    <path class="st0" d="M23.4,20.7c1.2,0,2,0,2.5-0.1v3.1c-0.5,0-1.4-0.1-2.7-0.1h-3v0l0.1,2.4c0,0.6-0.1,1.1-0.3,1.5
	c-0.2,0.4-0.6,0.8-1.1,1.1s-1.2,0.5-2.1,0.7c-0.9,0.2-1.9,0.2-3.1,0.2c-0.4-0.9-0.9-2.1-1.6-3.5c1,0.2,2,0.3,2.9,0.3
	c0.7,0,1.3-0.1,1.6-0.3s0.5-0.4,0.5-0.8v-1.5v0H7.8c0.6,0.2,1.3,0.5,2,0.8c0.7,0.3,1.3,0.6,1.8,0.9c-0.2,0.4-0.8,1.2-1.8,2.6
	c-0.3-0.2-0.7-0.5-1.3-0.9c-0.6-0.3-1.2-0.7-2-1.1c-0.7-0.4-1.4-0.6-1.9-0.8l1.2-1.6H2.6c-1.3,0-2.1,0-2.6,0.1v-3.1
	c0.5,0,1.4,0.1,2.6,0.1h14.3v-0.5l-0.1-0.8c0.4,0,1,0,1.8,0s1.3,0.1,1.7,0.1c0,0.3-0.1,0.5-0.1,0.7v0.5H23c-0.3-0.6-0.7-1.2-1.1-1.8
	c-2.3,0.1-5.7,0.2-10.1,0.4c-4.4,0.1-7.6,0.2-9.6,0.2l-1.5,0.1l-0.2-2.9l1.9,0.1c1.3,0.1,4.3,0.1,9,0v-1.3h-8c0-0.3,0.1-0.7,0.1-1
	V7.2c0-0.3,0-0.6-0.1-1h8V4.9H2.8c-1.2,0-2,0-2.5,0.1V2c0.5,0,1.3,0.1,2.5,0.1h8.6V1.3c0-0.4,0-0.8-0.1-1.3c0.4,0,1,0,1.8,0
	c0.8,0,1.3,0.1,1.7,0.1l-0.1,1.1v0.8H23c1.2,0,2,0,2.5-0.1v2.9c-0.5,0-1.3-0.1-2.5-0.1h-8.2v1.3h8l0,1v7.3l0,0.7
	c1.2,1.4,2.2,2.6,2.9,3.7L23.4,20.7z M11.4,8.4H6.7v1.3h4.7V8.4z M6.7,13.3h4.7v-1.4H6.7V13.3z M19.6,8.4h-4.8v1.3h4.8V8.4z
	 M19.6,13.3v-1.4h-4.8v1.4H19.6z M14.8,16.8l5.4-0.2c-0.2-0.3-0.5-0.6-0.9-1.1h-4.5V16.8z"/>
</svg>
