<svg xmlns="http://www.w3.org/2000/svg" xml:space="preserve" width="25.6" height="29.6" style="overflow:visible" viewBox="0 0 25.6 29.6"><path d="M25.6 10.2v6.2h-3.4v-3.7h-18v3.7H.7c0-.3.1-.6.1-.9v-4.4c0-.3 0-.6-.1-.9h.5C.9 9.5.5 8.7 0 7.9c.7-.3 1.4-.5 2.1-.9.7-.3 1.2-.7 1.7-1.1s.8-.9 1.1-1.4c.2-.5.4-1.1.4-1.7V.7L5.2 0h1.5c.7 0 1 .1 1.3.1V3c0 .5-.1 1-.2 1.5.7.4 1.5.9 2.3 1.5s1.5 1 2.1 1.5c-.6.7-1.2 1.5-1.9 2.4-.4-.4-1-.9-1.7-1.4s-1.4-1-2-1.5c-1 1.4-2.6 2.4-4.5 3.2h12.1l-1.3-2.5c.6-.2 1.1-.4 1.7-.6.6-.3 1.2-.6 1.7-1s1-.8 1.3-1.4c.4-.6.6-1.2.6-1.9V0h1.5c.6 0 1.1.1 1.4.1l-.1.7v2.3c0 .2 0 .5-.1.8s-.1.6-.1.8c1.7.9 3.4 2 4.9 3.1-.5.8-1.1 1.6-1.8 2.5h1.7zM4.4 1.8c-.2.7-.5 1.4-.8 2.1S3 5.1 2.7 5.5l-2.2-1c.1-.2.3-.5.5-.9s.5-.8.7-1.3.4-1 .5-1.4l2.4.6zm18.8 19.9v8h-3.4v-1.3H6.3v1.3H2.9c0-.3.1-.7.1-1v-6c0-.3 0-.6-.1-1h7.3l.8-1.5H5.4c0-.3.1-.6.1-.9v-4.6c0-.3 0-.6-.1-.9h15.2v6.4h-5.9l-.9 1.5zM6.3 25.9h13.5v-1.8H6.3zm2.5-9.7v1.6h8.5v-1.6zm3.7-13.9c-.1.2-.3.7-.7 1.5-.4.9-.7 1.4-.8 1.7L9 4.4c.2-.4.5-.9.8-1.7.3-.7.5-1.3.7-1.7l2.3.9zm4.4-.4c-.1.6-.2 1.3-.4 1.9-.2.7-.4 1.2-.6 1.7l-2.3-.8c.3-.4.5-1 .8-1.7.2-.7.4-1.3.4-1.8l2.2.4zm-2.3 8.3h9.1c-.5-.5-1.2-1-2-1.6s-1.5-1.1-2.3-1.5c-1.1 1.4-2.7 2.4-4.8 3.1m10.8-8.1c-.3.7-.8 1.8-1.5 3.2 0 0-.7-.4-2.1-1 .2-.4.5-.9.8-1.7.4-.7.6-1.2.7-1.6l2.2.8z" style="fill:#d10202"/></svg>