<!--Generator: Adobe Illustrator 25.0.0, SVG Export Plug-In-->
<svg version="1.1" xmlns="http://www.w3.org/2000/svg" xmlns:xlink="http://www.w3.org/1999/xlink" x="0px" y="0px" width="25.6px" height="29.6px" viewBox="0 0 25.6 29.6" style="overflow:visible;enable-background:new 0 0 25.6 29.6;" xml:space="preserve">
    <style type="text/css">
        .st0{fill:#D10202;}
    </style>
    <defs/>
    <path class="st0" d="M25.6,10.2l0,0.9v4.4l0,0.9h-3.4v-3.7h-18v3.7H0.7c0-0.3,0.1-0.6,0.1-0.9v-4.4c0-0.3,0-0.6-0.1-0.9h0.5
	C0.9,9.5,0.5,8.7,0,7.9C0.7,7.6,1.4,7.4,2.1,7c0.7-0.3,1.2-0.7,1.7-1.1S4.6,5,4.9,4.5C5.1,4,5.3,3.4,5.3,2.8V0.7L5.2,0
	C5.5,0,6,0,6.7,0S7.7,0.1,8,0.1L8,0.8V3c0,0.5-0.1,1-0.2,1.5C8.5,4.9,9.3,5.4,10.1,6s1.5,1,2.1,1.5C11.6,8.2,11,9,10.3,9.9
	C9.9,9.5,9.3,9,8.6,8.5c-0.7-0.5-1.4-1-2-1.5c-1,1.4-2.6,2.4-4.5,3.2h12.1l-1.3-2.5c0.6-0.2,1.1-0.4,1.7-0.6c0.6-0.3,1.2-0.6,1.7-1
	c0.5-0.4,1-0.8,1.3-1.4c0.4-0.6,0.6-1.2,0.6-1.9v-2L18.2,0c0.3,0,0.8,0,1.5,0c0.6,0,1.1,0.1,1.4,0.1L21,0.8v2.3c0,0.2,0,0.5-0.1,0.8
	s-0.1,0.6-0.1,0.8c1.7,0.9,3.4,2,4.9,3.1c-0.5,0.8-1.1,1.6-1.8,2.5H25.6z M4.4,1.8C4.2,2.5,3.9,3.2,3.6,3.9S3,5.1,2.7,5.5l-2.2-1
	C0.6,4.3,0.8,4,1,3.6c0.2-0.4,0.5-0.8,0.7-1.3c0.2-0.5,0.4-1,0.5-1.4l2.4,0.6L4.4,1.8z M23.2,21.7l0,1v6l0,1h-3.4v-1.3H6.3v1.3H2.9
	c0-0.3,0.1-0.7,0.1-1v-6c0-0.3,0-0.6-0.1-1h7.3l0.8-1.5H5.4c0-0.3,0.1-0.6,0.1-0.9v-4.6c0-0.3,0-0.6-0.1-0.9h15.2l0,0.9v4.6l0,0.9
	h-5.9l-0.9,1.5H23.2z M6.3,25.9h13.5v-1.8H6.3V25.9z M8.8,16.2v1.6h8.5v-1.6H8.8z M12.5,2.3c-0.1,0.2-0.3,0.7-0.7,1.5
	c-0.4,0.9-0.7,1.4-0.8,1.7l-2-1.1c0.2-0.4,0.5-0.9,0.8-1.7C10.1,2,10.3,1.4,10.5,1l2.3,0.9L12.5,2.3z M16.9,1.9
	c-0.1,0.6-0.2,1.3-0.4,1.9c-0.2,0.7-0.4,1.2-0.6,1.7l-2.3-0.8c0.3-0.4,0.5-1,0.8-1.7c0.2-0.7,0.4-1.3,0.4-1.8L17,1.6L16.9,1.9z
	 M14.6,10.2h9.1c-0.5-0.5-1.2-1-2-1.6c-0.8-0.6-1.5-1.1-2.3-1.5C18.3,8.5,16.7,9.5,14.6,10.2z M25.4,2.1c-0.3,0.7-0.8,1.8-1.5,3.2
	c0,0-0.7-0.4-2.1-1c0.2-0.4,0.5-0.9,0.8-1.7C23,1.9,23.2,1.4,23.3,1l2.2,0.8L25.4,2.1z"/>
</svg>
