<svg xmlns="http://www.w3.org/2000/svg" xml:space="preserve" width="24.4" height="28" style="overflow:visible" viewBox="0 0 24.4 28"><path d="M24.3 2.1v23.8c0 .6 0 1.4.1 2.2h-3.6c0-.7.1-1.3.1-1.9-6.3.3-13.2.5-20.9.5 0-.7.1-1.3.1-1.7V2c0-.4 0-.8-.1-1.4 2.2.1 3.4.1 3.6.2 0 .3-.1.7-.1 1.2v21q8.7 0 17.4-.6V2.1c0-.5 0-1.1-.1-1.7 2.3.1 3.4.1 3.6.2 0 .3-.1.8-.1 1.5M3.8 18.7q1.95-1.35 3.6-3.3c1.2-1.2 2.2-2.6 3.2-4-.9-.8-1.8-1.7-2.8-2.5S6 7.3 5.2 6.8l2-3.1q2.4 1.8 5.4 4.5c.7-1.3 1.3-2.6 1.9-4s1-2.8 1.4-4.2c.6.3 1.7.9 3.2 1.7l-.2.4c-.2.7-.5 1.6-.9 2.8-.4 1.1-.9 2.2-1.4 3.3s-.9 1.9-1.3 2.5c2 1.9 3.5 3.5 4.7 4.7L18.1 19c-1.4-1.6-3-3.3-4.8-5-2.1 3-4.4 5.6-7 7.7-.2-.3-.6-.8-1.1-1.4-.5-.7-.9-1.2-1.4-1.6" style="fill:#d10202"/></svg>