<!--Generator: Adobe Illustrator 25.0.0, SVG Export Plug-In-->
<svg version="1.1" xmlns="http://www.w3.org/2000/svg" xmlns:xlink="http://www.w3.org/1999/xlink" x="0px" y="0px" width="24.4px" height="28px" viewBox="0 0 24.4 28" style="overflow:visible;enable-background:new 0 0 24.4 28;" xml:space="preserve">
    <style type="text/css">
        .st0{fill:#D10202;}
    </style>
    <defs/>
    <path class="st0" d="M24.3,2.1v23.8c0,0.6,0,1.4,0.1,2.2h-3.6c0-0.7,0.1-1.3,0.1-1.9C14.6,26.5,7.7,26.7,0,26.7
	C0,26,0.1,25.4,0.1,25v-23c0-0.4,0-0.8-0.1-1.4c2.2,0.1,3.4,0.1,3.6,0.2c0,0.3-0.1,0.7-0.1,1.2V23c5.8,0,11.6-0.2,17.4-0.6V2.1
	c0-0.5,0-1.1-0.1-1.7c2.3,0.1,3.4,0.1,3.6,0.2C24.4,0.9,24.3,1.4,24.3,2.1z M3.8,18.7c1.3-0.9,2.5-2,3.6-3.3c1.2-1.2,2.2-2.6,3.2-4
	c-0.9-0.8-1.8-1.7-2.8-2.5S6,7.3,5.2,6.8l2-3.1c1.6,1.2,3.4,2.7,5.4,4.5c0.7-1.3,1.3-2.6,1.9-4c0.6-1.4,1-2.8,1.4-4.2
	c0.6,0.3,1.7,0.9,3.2,1.7l-0.2,0.4c-0.2,0.7-0.5,1.6-0.9,2.8c-0.4,1.1-0.9,2.2-1.4,3.3s-0.9,1.9-1.3,2.5c2,1.9,3.5,3.5,4.7,4.7
	L18.1,19c-1.4-1.6-3-3.3-4.8-5c-2.1,3-4.4,5.6-7,7.7c-0.2-0.3-0.6-0.8-1.1-1.4C4.7,19.6,4.3,19.1,3.8,18.7z"/>
</svg>
