<!--Generator: Adobe Illustrator 25.0.0, SVG Export Plug-In-->
<svg version="1.1" xmlns="http://www.w3.org/2000/svg" xmlns:xlink="http://www.w3.org/1999/xlink" x="0px" y="0px" width="25.2px" height="29.6px" viewBox="0 0 25.2 29.6" style="overflow:visible;enable-background:new 0 0 25.2 29.6;" xml:space="preserve">
    <style type="text/css">
        .st0{fill:#D10202;}
    </style>
    <defs/>
    <path class="st0" d="M20.3,25.2c0.3-0.3,0.5-0.7,0.6-1.3s0.2-1.5,0.2-2.6c1.2,0.8,2.3,1.5,3.3,2c-0.1,0.9-0.2,1.6-0.4,2.3
	s-0.4,1.2-0.7,1.7c-0.3,0.5-0.7,0.9-1.2,1.2s-1.1,0.6-1.8,0.8c-0.7,0.2-1.5,0.3-2.2,0.3s-1.2,0-1.5,0c-1.6,0-2.9-0.1-3.8-0.2
	c-0.9-0.1-1.6-0.3-2-0.6c-0.4-0.3-0.7-0.8-0.9-1.4s-0.3-1.5-0.3-2.6l0-3.8l-6.7,0.9c-0.1,0-0.5,0.1-1,0.1c-0.5,0.1-0.9,0.1-1.1,0.2
	s-0.4,0.1-0.6,0.1L0,18.7c0.5,0,1.4-0.1,2.7-0.3l6.9-0.9v-3.5C9,14,8.1,14.1,7,14.3s-2,0.2-3,0.3c-0.2-0.6-0.5-1.6-1-2.8h-3
	c0-0.3,0.1-0.7,0.1-1V4.7c0-0.3,0-0.6-0.1-1h11.1c-0.5-1.1-0.9-1.9-1.3-2.5L13.1,0c0.5,0.8,1.1,2.1,1.8,3.7h9.8l0,1v6.1l0,1h-3.3V7
	H3.5v4.1c2.6-0.1,5.2-0.4,7.9-0.9s4.9-1.1,6.5-1.8c0.1,0.2,0.4,0.5,0.8,1c0.4,0.5,0.7,0.9,0.9,1.2c0.2,0.3,0.4,0.5,0.5,0.7l-0.9,0.2
	c-1.9,0.6-3.9,1.2-6.1,1.7V17l9.2-1.3c1.3-0.2,2.2-0.3,2.7-0.5l0.2,3.7c-0.1,0-0.3,0-0.5,0c-0.2,0-0.9,0.1-2.3,0.3L13,20.5v4.2
	c0,0.4,0.1,0.6,0.2,0.8c0.1,0.2,0.3,0.3,0.6,0.4c0.4,0.1,1.4,0.1,3.1,0.1c0.9,0,1.6-0.1,2.1-0.2C19.5,25.8,20,25.5,20.3,25.2z"/>
</svg>
