<svg xmlns="http://www.w3.org/2000/svg" xml:space="preserve" width="25.2" height="29.6" style="overflow:visible" viewBox="0 0 25.2 29.6"><path d="M20.3 25.2c.3-.3.5-.7.6-1.3s.2-1.5.2-2.6c1.2.8 2.3 1.5 3.3 2-.1.9-.2 1.6-.4 2.3s-.4 1.2-.7 1.7q-.45.75-1.2 1.2c-.75.45-1.1.6-1.8.8s-1.5.3-2.2.3h-1.5c-1.6 0-2.9-.1-3.8-.2s-1.6-.3-2-.6-.7-.8-.9-1.4-.3-1.5-.3-2.6V21l-6.7.9c-.1 0-.5.1-1 .1-.5.1-.9.1-1.1.2s-.4.1-.6.1L0 18.7q.75 0 2.7-.3l6.9-.9V14c-.6 0-1.5.1-2.6.3s-2 .2-3 .3c-.2-.6-.5-1.6-1-2.8H0c0-.3.1-.7.1-1V4.7c0-.3 0-.6-.1-1h11.1c-.5-1.1-.9-1.9-1.3-2.5L13.1 0c.5.8 1.1 2.1 1.8 3.7h9.8v8.1h-3.3V7H3.5v4.1c2.6-.1 5.2-.4 7.9-.9s4.9-1.1 6.5-1.8c.1.2.4.5.8 1q.6.75.9 1.2c.2.3.4.5.5.7l-.9.2c-1.9.6-3.9 1.2-6.1 1.7V17l9.2-1.3c1.3-.2 2.2-.3 2.7-.5l.2 3.7h-.5c-.2 0-.9.1-2.3.3L13 20.5v4.2c0 .4.1.6.2.8s.3.3.6.4c.4.1 1.4.1 3.1.1.9 0 1.6-.1 2.1-.2.5 0 1-.3 1.3-.6" style="fill:#d10202"/></svg>