<!--Generator: Adobe Illustrator 25.0.0, SVG Export Plug-In-->
<svg version="1.1" xmlns="http://www.w3.org/2000/svg" xmlns:xlink="http://www.w3.org/1999/xlink" x="0px" y="0px" width="138.7px" height="151.3px" viewBox="0 0 138.7 151.3" style="overflow:visible;enable-background:new 0 0 138.7 151.3;" xml:space="preserve">
    <style type="text/css">
        .st0{fill:#D10202;}
    </style>
    <defs/>
    <path class="st0" d="M127.1,78.4c5.6,0,9.5-0.1,11.6-0.3v16.1c-2.1-0.2-6-0.3-11.6-0.3H78.9c-0.6,4-1.2,7-1.7,8.9H127
	c-0.2,2.2-0.3,4.2-0.3,5.9c-0.2,9.9-0.6,16.7-1.3,20.4c-0.7,3.8-1.5,6.7-2.6,9c-1,1.9-2.7,3.9-5.2,6c-2.5,2.1-6.2,3.7-11.2,5
	c-5,1.3-11.2,1.9-18.7,1.9c-0.9-3.6-2.8-9.9-5.7-19c3.5,1.1,7.3,1.7,11.2,1.7c2.7,0,5.4-0.3,7.9-0.9c2.6-0.6,4.5-2,5.8-4.1
	c0.9-1.8,1.6-5.3,2.1-10.4H72.1c-1.8,3.9-3.8,7.4-6,10.4c-2.2,3-4.6,5.8-7.2,8.3c-2.6,2.5-5.8,5.1-9.7,7.6
	c-3.9,2.6-8.3,4.8-13.4,6.7c-1.2-2.6-4.5-8-9.8-16.3c3.3-1,6.5-2.3,9.7-3.8c3.1-1.5,6-3.3,8.8-5.5c2.7-2.1,5.2-4.6,7.6-7.3
	c2.3-2.7,4.5-6.1,6.5-10.2c2-4,3.6-8.8,4.7-14.4H39.7h-6.8c-0.7,7.3-1.9,14.1-3.5,20.6c-1.6,6.4-3.8,12.5-6.5,18.3
	c-2.7,5.8-6.1,10.8-10.3,15.2c-1.4-2.2-3.4-5.1-6-8.6s-4.8-6.3-6.7-8.6c2.3-2.6,4.5-5.7,6.7-9.3c2.1-3.6,3.9-7.6,5.3-12
	c1.4-4.4,2.5-9.4,3.3-15.1c0.8-5.7,1.2-11.9,1.2-18.5V12.8c0-5.6-0.1-8.8-0.2-9.7l9.2,3.5c15.8,0.4,33.5,0,53.1-1.3
	c19.6-1.3,35.5-3,47.8-5.3c4.8,6.4,8.8,12.1,11.9,17.1c-1-0.1-2.7,0-5.1,0.3c-16.9,1.7-34.2,3-51.7,3.9c-17.5,1-33.5,1.5-47.9,1.6
	v6.4h95.8c-0.1,1-0.2,2.6-0.2,4.9v29.4l0.2,4.9H86.8c2.1,3.6,3.9,6.9,5.3,9.9H127.1z M111.8,44.2H33.7v9.6h78.1V44.2z M33.7,78.4
	h6.2h33.2c-0.5-1-1.2-2.4-2.2-4c-1-1.7-1.7-3-2.3-4l6.2-1.8H33.7v7.9V78.4z"/>
</svg>
