<svg xmlns="http://www.w3.org/2000/svg" xml:space="preserve" width="138.7" height="151.3" style="overflow:visible" viewBox="0 0 138.7 151.3"><path d="M127.1 78.4c5.6 0 9.5-.1 11.6-.3v16.1c-2.1-.2-6-.3-11.6-.3H78.9c-.6 4-1.2 7-1.7 8.9H127c-.2 2.2-.3 4.2-.3 5.9-.2 9.9-.6 16.7-1.3 20.4-.7 3.8-1.5 6.7-2.6 9-1 1.9-2.7 3.9-5.2 6s-6.2 3.7-11.2 5-11.2 1.9-18.7 1.9c-.9-3.6-2.8-9.9-5.7-19 3.5 1.1 7.3 1.7 11.2 1.7 2.7 0 5.4-.3 7.9-.9 2.6-.6 4.5-2 5.8-4.1.9-1.8 1.6-5.3 2.1-10.4H72.1c-1.8 3.9-3.8 7.4-6 10.4s-4.6 5.8-7.2 8.3-5.8 5.1-9.7 7.6c-3.9 2.6-8.3 4.8-13.4 6.7-1.2-2.6-4.5-8-9.8-16.3 3.3-1 6.5-2.3 9.7-3.8 3.1-1.5 6-3.3 8.8-5.5 2.7-2.1 5.2-4.6 7.6-7.3 2.3-2.7 4.5-6.1 6.5-10.2 2-4 3.6-8.8 4.7-14.4H32.9c-.7 7.3-1.9 14.1-3.5 20.6-1.6 6.4-3.8 12.5-6.5 18.3s-6.1 10.8-10.3 15.2c-1.4-2.2-3.4-5.1-6-8.6s-4.8-6.3-6.7-8.6c2.3-2.6 4.5-5.7 6.7-9.3 2.1-3.6 3.9-7.6 5.3-12s2.5-9.4 3.3-15.1 1.2-11.9 1.2-18.5v-63c0-5.6-.1-8.8-.2-9.7l9.2 3.5c15.8.4 33.5 0 53.1-1.3s35.5-3 47.8-5.3c4.8 6.4 8.8 12.1 11.9 17.1q-1.5-.15-5.1.3c-16.9 1.7-34.2 3-51.7 3.9-17.5 1-33.5 1.5-47.9 1.6v6.4h95.8c-.1 1-.2 2.6-.2 4.9v29.4l.2 4.9H86.8c2.1 3.6 3.9 6.9 5.3 9.9zm-15.3-34.2H33.7v9.6h78.1zM33.7 78.4h39.4c-.5-1-1.2-2.4-2.2-4-1-1.7-1.7-3-2.3-4l6.2-1.8H33.7v9.8" style="fill:#d10202"/></svg>