<!--Generator: Adobe Illustrator 25.0.0, SVG Export Plug-In-->
<svg version="1.1" xmlns="http://www.w3.org/2000/svg" xmlns:xlink="http://www.w3.org/1999/xlink" x="0px" y="0px" width="138.1px" height="144.9px" viewBox="0 0 138.1 144.9" style="overflow:visible;enable-background:new 0 0 138.1 144.9;" xml:space="preserve">
    <style type="text/css">
        .st0{fill:#D10202;}
    </style>
    <defs/>
    <path class="st0" d="M32.2,40.5v20.2c0,19-1.7,36-5.1,50.9c-3.4,14.9-8.1,26-14.1,33.4C6.3,137.1,2,132.1,0,130
	c3.3-4.8,6.2-10.7,8.6-17.8s4.3-14.9,5.6-23.7c1.3-8.7,2-18.2,2-28.5V5.4L15.9,0H131l-0.2,4.9v30.7l0.2,4.9H32.2z M126.2,127.8
	c5.7,0,9.7-0.1,11.9-0.2v16.3c-2.2-0.2-6.2-0.3-11.9-0.3H40.8c-5.8,0-9.9,0.1-12.1,0.3v-16.3c2.2,0.1,6.2,0.2,12.1,0.2h32.6v-10.2
	H47.9c-4.6,0-8,0.1-10,0.3v-15.6c2,0.2,5.3,0.3,10,0.3h25.5v-6.9l-0.2-2.4c-1.3,0.1-4,0.3-8.2,0.4c-4.1,0.2-7.6,0.3-10.5,0.5
	c-2.9,0.2-5.3,0.3-7.2,0.3l-6.3,0.7l-3.2-14.3c1.5-0.1,3.6-0.8,6.1-2.2s5.6-3.4,9.1-6.1c3.5-2.7,6.6-5.5,9.4-8.3H47.3
	c-5.1,0-8.8,0.1-11,0.3V48.9c2.2,0.1,5.9,0.2,11,0.2h75.4c5.2,0,8.9-0.1,10.9-0.2v15.8c-2-0.2-5.6-0.3-10.9-0.3h-14.5
	c7.2,6.6,12.9,12.3,17.3,17.2c4.4,4.9,7.3,8.3,8.8,10.2l-12.5,9.1c-2.2-3.5-4.7-6.8-7.4-9.9c-5,0.4-12.9,1-23.7,1.5l-0.2,3.4v6.9
	h25.7c4.7,0,8.1-0.1,10.1-0.3v15.6c-2-0.2-5.4-0.3-10.1-0.3H90.5v10.2H126.2z M115,15.3H32.2v9.9H115V15.3z M76.3,64.3l5.9,2.9
	c-0.5,0.2-1.3,0.8-2.4,1.8c-3.1,3-7.5,6.7-13,10.9c2.4-0.1,8-0.4,16.7-0.8c8.7-0.4,15-0.8,19-1c-1-1.1-3.4-3.5-7.3-7.1l10.3-6.7
	H76.3z"/>
</svg>
