<svg xmlns="http://www.w3.org/2000/svg" xml:space="preserve" width="138.1" height="144.9" style="overflow:visible" viewBox="0 0 138.1 144.9"><path d="M32.2 40.5v20.2c0 19-1.7 36-5.1 50.9S19 137.6 13 145c-6.7-7.9-11-12.9-13-15 3.3-4.8 6.2-10.7 8.6-17.8s4.3-14.9 5.6-23.7c1.3-8.7 2-18.2 2-28.5V5.4L15.9 0H131l-.2 4.9v30.7l.2 4.9zm94 87.3c5.7 0 9.7-.1 11.9-.2v16.3c-2.2-.2-6.2-.3-11.9-.3H40.8c-5.8 0-9.9.1-12.1.3v-16.3c2.2.1 6.2.2 12.1.2h32.6v-10.2H47.9c-4.6 0-8 .1-10 .3v-15.6c2 .2 5.3.3 10 .3h25.5v-6.9l-.2-2.4c-1.3.1-4 .3-8.2.4-4.1.2-7.6.3-10.5.5q-4.35.3-7.2.3l-6.3.7-3.2-14.3c1.5-.1 3.6-.8 6.1-2.2s5.6-3.4 9.1-6.1 6.6-5.5 9.4-8.3H47.3c-5.1 0-8.8.1-11 .3V48.9c2.2.1 5.9.2 11 .2h75.4c5.2 0 8.9-.1 10.9-.2v15.8c-2-.2-5.6-.3-10.9-.3h-14.5c7.2 6.6 12.9 12.3 17.3 17.2s7.3 8.3 8.8 10.2l-12.5 9.1c-2.2-3.5-4.7-6.8-7.4-9.9-5 .4-12.9 1-23.7 1.5l-.2 3.4v6.9h25.7c4.7 0 8.1-.1 10.1-.3v15.6c-2-.2-5.4-.3-10.1-.3H90.5V128h35.7zM115 15.3H32.2v9.9H115zm-38.7 49 5.9 2.9q-.75.3-2.4 1.8c-3.1 3-7.5 6.7-13 10.9 2.4-.1 8-.4 16.7-.8s15-.8 19-1c-1-1.1-3.4-3.5-7.3-7.1l10.3-6.7z" style="fill:#d10202"/></svg>