<svg xmlns="http://www.w3.org/2000/svg" xml:space="preserve" width="137.8" height="153.1" style="overflow:visible" viewBox="0 0 137.8 153.1"><path d="M46.9 7.7C43.9 18 40.4 28.1 36.3 38v105.5c0 2.7.1 5.9.3 9.7h-17c.2-3.8.3-7.1.3-9.7 0-8.3.2-20.2.6-35.9.4-15.6.9-30 1.4-43.2-4.8 8.8-9.6 16.1-14.2 21.8q-.9-3-3.3-8.4C2.8 74.2 1.3 71 0 68.3 3.9 64 8 58 12.3 50.5s8.3-15.9 12.2-25.1C28.3 16.2 31.1 7.7 33 0l14.8 6.2zm90.8 34.6v61.8l.2 6.9H122v-8.7H99.9v39.8q0 4.35.3 11.1H83.9q.3-6.75.3-11.1v-39.8H62.9v8.7H47.2c.2-2.5.3-4.7.3-6.7V42.1c0-1.8-.1-4-.3-6.7h37V8.9q0-4.05-.3-8.1c1.8 0 4.6.1 8.3.3s6.4.3 8 .4c-.2 1.6-.3 4-.3 7.4v26.5h37.9zM62.9 86.8h21.3V50.9H62.9zm37 0H122V50.9H99.9z" style="fill:#d10202"/></svg>