<!--Generator: Adobe Illustrator 25.0.0, SVG Export Plug-In-->
<svg version="1.1" xmlns="http://www.w3.org/2000/svg" xmlns:xlink="http://www.w3.org/1999/xlink" x="0px" y="0px" width="137.8px" height="153.1px" viewBox="0 0 137.8 153.1" style="overflow:visible;enable-background:new 0 0 137.8 153.1;" xml:space="preserve">
    <style type="text/css">
        .st0{fill:#D10202;}
    </style>
    <defs/>
    <path class="st0" d="M46.9,7.7C43.9,18,40.4,28.1,36.3,38v105.5c0,2.7,0.1,5.9,0.3,9.7H19.6c0.2-3.8,0.3-7.1,0.3-9.7
	c0-8.3,0.2-20.2,0.6-35.9c0.4-15.6,0.9-30,1.4-43.2c-4.8,8.8-9.6,16.1-14.2,21.8c-0.6-2-1.7-4.8-3.3-8.4C2.8,74.2,1.3,71,0,68.3
	C3.9,64,8,58,12.3,50.5c4.3-7.5,8.3-15.9,12.2-25.1c3.8-9.2,6.6-17.7,8.5-25.4l14.8,6.2L46.9,7.7z M137.7,42.3v61.8l0.2,6.9H122
	v-8.7H99.9v39.8c0,2.9,0.1,6.6,0.3,11.1H83.9c0.2-4.5,0.3-8.2,0.3-11.1v-39.8H62.9v8.7H47.2c0.2-2.5,0.3-4.7,0.3-6.7V42.1
	c0-1.8-0.1-4-0.3-6.7h37V8.9c0-2.7-0.1-5.4-0.3-8.1c1.8,0,4.6,0.1,8.3,0.3c3.7,0.2,6.4,0.3,8,0.4c-0.2,1.6-0.3,4-0.3,7.4v26.5h37.9
	L137.7,42.3z M62.9,86.8h21.3V50.9H62.9V86.8z M99.9,86.8H122V50.9H99.9V86.8z"/>
</svg>
