<!--Generator: Adobe Illustrator 25.0.0, SVG Export Plug-In-->
<svg version="1.1" xmlns="http://www.w3.org/2000/svg" xmlns:xlink="http://www.w3.org/1999/xlink" x="0px" y="0px" width="146.1px" height="156.5px" viewBox="0 0 146.1 156.5" style="overflow:visible;enable-background:new 0 0 146.1 156.5;" xml:space="preserve">
    <style type="text/css">
        .st0{fill:#D10202;}
    </style>
    <defs/>
    <path class="st0" d="M82.2,5.2c4.2,7.1,9.5,14,15.8,20.7c6.3,6.8,13.5,13.3,21.6,19.6c8.1,6.3,17,12,26.5,17.1
	c-1.5,2.2-3.2,4.9-5.1,7.9c-1.9,3-3.3,5.5-4.3,7.6c-11-6.2-22.2-14.6-33.6-25.4C91.8,42,82.2,30.7,74.2,19
	c-8,11.9-17.9,23.2-29.8,34C32.5,63.8,20.8,72.3,9.2,78.4C8.6,77,7.5,74.8,5.9,72c-1.6-2.9-3.6-6-5.9-9.3
	c5.9-2.9,12.2-6.6,18.7-11.1c6.5-4.5,12.9-9.5,19-15C43.9,31,49.5,25,54.5,18.7c5-6.3,8.9-12.6,11.7-18.7l17.1,3.5L82.2,5.2z
	 M44.6,67.2c0-2.4-0.1-4.5-0.3-6.5l16.2,0.7c-0.2,1.6-0.3,2.9-0.3,4c0,8.3-0.3,15.9-1,22.9c-0.7,7-1.8,13.9-3.4,20.8
	c-1.6,6.9-4,13.3-7.3,19.3c-3.2,6-7.4,11.3-12.5,16C31,149,24.5,153,16.8,156.5c-2.8-3.1-7.3-7.6-13.5-13.4
	c7.8-3.1,14.3-6.8,19.6-11c5.3-4.2,9.5-9.2,12.7-15c3.2-5.8,5.5-12.8,6.9-21C43.9,87.9,44.6,78.3,44.6,67.2z M104,60.6
	c-0.2,1.2-0.3,3.1-0.3,5.7v80.8l0.3,8.1H87.4c0.2-3.1,0.3-5.8,0.3-8.1V66.3c0-1.8-0.1-3.9-0.3-6.4c1.8,0,4.6,0.1,8.5,0.3
	C99.6,60.4,102.4,60.5,104,60.6z"/>
</svg>
