<svg xmlns="http://www.w3.org/2000/svg" xml:space="preserve" width="146.1" height="156.5" style="overflow:visible" viewBox="0 0 146.1 156.5"><path d="M82.2 5.2c4.2 7.1 9.5 14 15.8 20.7 6.3 6.8 13.5 13.3 21.6 19.6s17 12 26.5 17.1c-1.5 2.2-3.2 4.9-5.1 7.9s-3.3 5.5-4.3 7.6c-11-6.2-22.2-14.6-33.6-25.4C91.8 42 82.2 30.7 74.2 19c-8 11.9-17.9 23.2-29.8 34S20.8 72.3 9.2 78.4C8.6 77 7.5 74.8 5.9 72c-1.6-2.9-3.6-6-5.9-9.3 5.9-2.9 12.2-6.6 18.7-11.1s12.9-9.5 19-15C43.9 31 49.5 25 54.5 18.7S63.4 6.1 66.2 0l17.1 3.5zm-37.6 62c0-2.4-.1-4.5-.3-6.5l16.2.7c-.2 1.6-.3 2.9-.3 4 0 8.3-.3 15.9-1 22.9s-1.8 13.9-3.4 20.8-4 13.3-7.3 19.3c-3.2 6-7.4 11.3-12.5 16-5 4.6-11.5 8.6-19.2 12.1-2.8-3.1-7.3-7.6-13.5-13.4 7.8-3.1 14.3-6.8 19.6-11s9.5-9.2 12.7-15q4.8-8.7 6.9-21c1.4-8.2 2.1-17.8 2.1-28.9m59.4-6.6q-.3 1.8-.3 5.7v80.8l.3 8.1H87.4q.3-4.65.3-8.1V66.3c0-1.8-.1-3.9-.3-6.4 1.8 0 4.6.1 8.5.3 3.7.2 6.5.3 8.1.4" style="fill:#d10202"/></svg>