<!--Generator: Adobe Illustrator 25.0.0, SVG Export Plug-In-->
<svg version="1.1" xmlns="http://www.w3.org/2000/svg" xmlns:xlink="http://www.w3.org/1999/xlink" x="0px" y="0px" width="27.1px" height="29.7px" viewBox="0 0 27.1 29.7" style="overflow:visible;enable-background:new 0 0 27.1 29.7;" xml:space="preserve">
    <style type="text/css">
        .st0{fill:#D10202;}
    </style>
    <defs/>
    <path class="st0" d="M6.9,7.2v20.5c0,0.6,0,1.2,0.1,2H3.4c0-0.8,0.1-1.4,0.1-2c0-1.6,0-3.8,0.1-6.7c0.1-2.9,0.2-5.6,0.3-8.2
	c-0.4,0.8-0.9,1.5-1.3,2.2c-0.4,0.7-0.8,1.3-1.2,1.7c-0.1-0.2-0.2-0.6-0.3-1.1c-0.2-0.5-0.3-1-0.6-1.6c-0.2-0.6-0.4-1-0.5-1.2
	c1.1-1.3,2.2-3.3,3.4-5.9C4.6,4.3,5.4,2,5.8,0L9,1.2L8.8,1.5C8.6,2.3,8.3,3.3,8,4.3C7.6,5.3,7.3,6.2,6.9,7.2z M25.1,25.4
	c1,0,1.7,0,2.1,0v3.3c-0.4,0-1.1-0.1-2.1-0.1H10.2c-1.1,0-1.9,0-2.3,0.1v-3.3c0.4,0,1.2,0,2.3,0h0.2V9.2c0-0.5,0-1.1-0.1-1.7h5.1
	l0.1-1.7h-5c-1,0-1.7,0-2,0V2.6c0.4,0,1.1,0.1,2,0.1h5.2l0.1-1.9l0-0.6l3.3,0.2c0,0.1-0.1,0.2-0.1,0.3l-0.1,2h5.6c0.9,0,1.6,0,2-0.1
	v3.2c-0.4,0-1,0-2,0h-5.8l-0.1,1.7h5.9c0,0.7-0.1,1.3-0.1,1.7v16.2H25.1z M21.3,10.6h-7.7v1.7h7.7V10.6z M21.3,16.7V15h-7.7v1.7
	H21.3z M13.6,19.3V21h7.7v-1.7H13.6z M13.6,23.7v1.8h7.7v-1.8H13.6z"/>
</svg>
