<svg xmlns="http://www.w3.org/2000/svg" xml:space="preserve" width="27.1" height="29.7" style="overflow:visible" viewBox="0 0 27.1 29.7"><path d="M6.9 7.2v20.5c0 .6 0 1.2.1 2H3.4c0-.8.1-1.4.1-2 0-1.6 0-3.8.1-6.7s.2-5.6.3-8.2c-.4.8-.9 1.5-1.3 2.2s-.8 1.3-1.2 1.7c-.1-.2-.2-.6-.3-1.1-.2-.5-.3-1-.6-1.6-.2-.6-.4-1-.5-1.2 1.1-1.3 2.2-3.3 3.4-5.9Q5.2 3 5.8 0L9 1.2l-.2.3c-.2.8-.5 1.8-.8 2.8-.4 1-.7 1.9-1.1 2.9m18.2 18.2h2.1v3.3c-.4 0-1.1-.1-2.1-.1H10.2c-1.1 0-1.9 0-2.3.1v-3.3h2.5V9.2c0-.5 0-1.1-.1-1.7h5.1l.1-1.7h-7V2.6c.4 0 1.1.1 2 .1h5.2l.1-1.9V.2l3.3.2c0 .1-.1.2-.1.3l-.1 2h5.6c.9 0 1.6 0 2-.1v3.2h-7.8l-.1 1.7h5.9c0 .7-.1 1.3-.1 1.7v16.2zm-3.8-14.8h-7.7v1.7h7.7zm0 6.1V15h-7.7v1.7zm-7.7 2.6V21h7.7v-1.7zm0 4.4v1.8h7.7v-1.8z" style="fill:#d10202"/></svg>