<svg xmlns="http://www.w3.org/2000/svg" xml:space="preserve" width="27.2" height="29.6" style="overflow:visible" viewBox="0 0 27.2 29.6"><path d="M7 13.5v14.6c0 .5 0 1 .1 1.6H3.7c0-.3.1-.8.1-1.6v-3.8c0-2 .1-4.3.2-7.1-.4.5-.9 1-1.4 1.5s-.9.9-1.2 1.1c-.1-.4-.3-1-.6-1.7s-.5-1.3-.8-1.8c.6-.5 1.4-1.1 2.3-2.1q1.35-1.35 2.7-3.3c.9-1.3 1.6-2.5 2-3.5l2.6 2q-.15 0-.3.3C8.6 11 7.8 12.3 7 13.5M9 2.4c-.7 1-1.5 2.1-2.4 3.2-1 1.1-1.8 2-2.6 2.7-.8.6-1.5 1.1-2 1.4-.2-.4-.4-.8-.8-1.4-.3-.6-.7-1.1-1-1.6C1.4 5.9 2.7 4.8 4 3.5S6.3 1 6.7 0l2.5 2zm16.2 15.8c1 0 1.7 0 2.1-.1v3h-3.8v2.7l.1 2.4q0 .75-.3 1.5c-.3.75-.6.8-1.1 1.1s-1.2.5-2 .7-1.8.2-3 .2c-.2-.5-.7-1.7-1.5-3.5 1 .2 1.9.2 2.7.2.7 0 1.2-.1 1.5-.2.3-.2.4-.4.4-.8v-4.2H8.6v-3c.4 0 1.1.1 2.1.1h9.6v-1.9h-9.4c-1 0-1.6 0-2 .1v-3H27v3c-.4 0-1.1-.1-2-.1h-1.5v1.9h1.7zm-12.6 3c1.5.9 3 2.1 4.3 3.4q-1.2 1.2-2.4 2.1c-.4-.5-1-1.1-1.7-1.8s-1.5-1.4-2.3-1.9zm-1.7-9.6c0-.4.1-.8.1-1.1V2.4c0-.3 0-.6-.1-1.1h13.8v10.3zm10.6-7.7H14v1.4h7.5zM14 9.1h7.5V7.5H14z" style="fill:#d10202"/></svg>