<!--Generator: Adobe Illustrator 25.0.0, SVG Export Plug-In-->
<svg version="1.1" xmlns="http://www.w3.org/2000/svg" xmlns:xlink="http://www.w3.org/1999/xlink" x="0px" y="0px" width="27.2px" height="29.6px" viewBox="0 0 27.2 29.6" style="overflow:visible;enable-background:new 0 0 27.2 29.6;" xml:space="preserve">
    <style type="text/css">
        .st0{fill:#D10202;}
    </style>
    <defs/>
    <path class="st0" d="M7,13.5v14.6c0,0.5,0,1,0.1,1.6H3.7c0-0.3,0.1-0.8,0.1-1.6c0-0.1,0-0.2,0-0.5s0-1.4,0-3.3c0-2,0.1-4.3,0.2-7.1
	c-0.4,0.5-0.9,1-1.4,1.5c-0.5,0.5-0.9,0.9-1.2,1.1c-0.1-0.4-0.3-1-0.6-1.7c-0.3-0.7-0.5-1.3-0.8-1.8c0.6-0.5,1.4-1.1,2.3-2.1
	c0.9-0.9,1.8-2,2.7-3.3c0.9-1.3,1.6-2.5,2-3.5l2.6,2C9.5,9.4,9.4,9.5,9.3,9.7C8.6,11,7.8,12.3,7,13.5z M9,2.4
	c-0.7,1-1.5,2.1-2.4,3.2c-1,1.1-1.8,2-2.6,2.7C3.2,8.9,2.5,9.4,2,9.7C1.8,9.3,1.6,8.9,1.2,8.3c-0.3-0.6-0.7-1.1-1-1.6
	C1.4,5.9,2.7,4.8,4,3.5S6.3,1,6.7,0l2.5,2L9,2.4z M25.2,18.2c1,0,1.7,0,2.1-0.1v3c-0.4,0-1.1,0-2.1,0h-1.7v2.7l0.1,2.4
	c0,0.5-0.1,1-0.3,1.5s-0.6,0.8-1.1,1.1s-1.2,0.5-2,0.7c-0.8,0.2-1.8,0.2-3,0.2c-0.2-0.5-0.7-1.7-1.5-3.5c1,0.2,1.9,0.2,2.7,0.2
	c0.7,0,1.2-0.1,1.5-0.2c0.3-0.2,0.4-0.4,0.4-0.8v-1.5v-2.7h-9.6c-1,0-1.7,0-2.1,0v-3c0.4,0,1.1,0.1,2.1,0.1h9.6v-1.9h-9.4
	c-1,0-1.6,0-2,0.1v-3c0.4,0,1.1,0,2,0H25c1,0,1.6,0,2,0v3c-0.4,0-1.1-0.1-2-0.1h-1.5v1.9H25.2z M12.6,21.2c1.5,0.9,3,2.1,4.3,3.4
	c-0.8,0.8-1.6,1.5-2.4,2.1c-0.4-0.5-1-1.1-1.7-1.8c-0.7-0.7-1.5-1.4-2.3-1.9L12.6,21.2z M10.9,11.6c0-0.4,0.1-0.8,0.1-1.1V2.4
	c0-0.3,0-0.6-0.1-1.1h13.8l0,1.1v8.1l0,1.1H10.9z M21.5,3.9H14v1.4h7.5V3.9z M14,9.1h7.5V7.5H14V9.1z"/>
</svg>
