<!--Generator: Adobe Illustrator 25.0.0, SVG Export Plug-In-->
<svg version="1.1" xmlns="http://www.w3.org/2000/svg" xmlns:xlink="http://www.w3.org/1999/xlink" x="0px" y="0px" width="846.9px" height="410.1px" viewBox="0 0 846.9 410.1" style="overflow:visible;enable-background:new 0 0 846.9 410.1;" xml:space="preserve">
    <style type="text/css">
        .st0{fill:#D10202;}
	.st1{fill:none;stroke:#B60405;stroke-width:3.452;stroke-linecap:round;stroke-linejoin:round;stroke-miterlimit:10;}
    </style>
    <defs/>
    <g>
        <g>
            <path class="st0" d="M131,120.6c6.9,6.6,10.8,10.4,11.9,11.3c-0.4,8.3-2.1,14.5-5.2,18.7c-3.1,4.2-7.4,6.3-12.9,6.3
			c-3,0-6.2-0.6-9.5-1.7c-3.3-1.1-6.4-2.7-9.1-4.6c-2.8-2-5.1-3.9-7-6c-3.9,2.1-8.3,4.1-13,5.8c-4.7,1.7-9.4,3.1-13.9,4
			c-4.5,1-8.1,1.6-10.6,1.9c-0.6-1.7-1.7-4.1-3.2-7.4c-1.5-3.2-2.9-6-4.1-8.2c14.4-1.3,26.3-4.3,35.7-8.7
			c-3.6-6.4-6.6-13.8-8.9-22.2l-31.4,0.7v6.5c11.5-1.1,18.9-2,22.4-2.5c-0.4,5.6-0.6,10.2-0.6,13.8l-21.8,2.2l0.3,10.1
			c0,2.7-0.6,5-1.7,7.1c-1.1,2-2.9,3.7-5.3,5.2c-2.4,1.5-5.6,2.5-9.6,3.3c-4,0.7-8.7,1.1-14.3,1.1l-7.4-17c1.3,0.2,3.2,0.4,5.7,0.7
			c2.5,0.2,4.9,0.3,7.1,0.3c3.4,0,5.8-0.4,7.3-1.2c1.4-0.8,2.1-2.1,2.1-3.9v-4.4c-8.9,0.9-15.9,1.5-21.2,1.8
			c-1.4,0.1-3.7,0.4-6.8,0.8l-1.4-15.1c3.6,0.2,6.4,0.3,8.3,0.3c4.3,0,11.3-0.4,21-1.2v-7.7l-16,0.3c-5.2,0-9.7,0.2-13.3,0.5
			L4.4,97.1c0.7,0.1,1.5,0.2,2.3,0.2c0.8,0,4.5,0,11.2,0L34,96.9V92c-7.7,0.7-15.8,1-24.3,1C9.3,90.9,8,86.7,5.7,80.4
			c9.3,0.3,19.3,0,30.1-1c10.8-1,19.6-2.4,26.6-4.2l7.1,11.6l-3.3,0.7c-7.3,1.3-12.7,2.2-16.5,2.7v6.4l28.4-0.5
			c-0.8-4.1-1.5-9.2-2-15.3c0-0.3-0.1-0.8-0.2-1.4c-0.1-0.6-0.3-1.8-0.6-3.6c10,0.6,15.2,0.9,15.7,1l0.2,4.2
			c0.3,4.8,0.9,9.7,1.7,14.8l23.3-0.5c-2.2-1.7-5-3.6-8.4-5.6c-3.4-2.1-6.3-3.7-8.7-4.8l8-9.2c3.1,1.3,6.6,3,10.5,5
			c3.9,2,7.2,4,10.1,5.9l-7.1,8.7l6.2-0.2c7.3-0.2,11.7-0.4,13.3-0.7l0.3,14.6c-3.6-0.1-8.1-0.1-13.5,0l-30.8,0.7c0.3,1,1,2.9,2,5.7
			c1,2.8,2.4,5.8,4.1,8.9c1.8-1.5,3.9-3.4,6.1-5.9c2.3-2.5,4.4-5.5,6.4-9.1l11.9,8.9l-1.2,1.5c-3.8,6.2-8.4,11.5-13.8,16.1
			c1.9,1.6,4,2.8,6.3,3.7c2.3,0.9,4.4,1.3,6.3,1.3c2.5,0,4.3-1.6,5.3-4.9C130.5,132.8,131,127.6,131,120.6z M124.7,74.2H17.8
			c-6.3,0-10.7,0.1-13.1,0.3V60.3c2.4,0.2,6.8,0.3,13.1,0.3h44.9v-8.1H28c-5.2,0-8.9,0.1-11,0.3V39.6C19,39.9,22.7,40,28,40h34.8
			v-7.1H23.3c-5.8,0-9.9,0.1-12.2,0.3V19c2.3,0.2,6.4,0.3,12.2,0.3h21.5C42.6,15.8,40,11.9,37,7.6L52.3,2c0.7,1,1.4,2.1,2.1,3.3
			c0.7,1.2,3.2,5.6,7.4,13.3l-1.5,0.7h22.1c1.7-2.7,3.5-5.8,5.3-9.3s3-6.3,3.6-8.3l16.8,6.7l-1.8,2.2c-2.2,4.1-3.9,7.1-5,8.7h18.9
			c5.8,0,9.9-0.1,12.1-0.3v14.3c-2.2-0.2-6.2-0.3-12.1-0.3H79.8V40h34.5c5.1,0,8.8-0.1,11-0.3v13.3c-2.2-0.2-5.9-0.3-11-0.3H79.8
			v8.1h44.9c6.3,0,10.8-0.1,13.3-0.3v14.3C135.5,74.3,131,74.2,124.7,74.2z"/>
            <path class="st0" d="M144.8,346.8l-6.6,15.8c-3.2-2.4-6.1-4.8-8.8-7.2c-0.1,14.7-0.4,24.3-1,29c-0.6,4.6-1.3,8.1-2.2,10.5
			c-1.5,4.3-4.5,7.5-8.8,9.8c-4.4,2.3-10.4,3.4-17.9,3.4c-1-3.9-2.8-10.2-5.4-19c2.9,1,5.7,1.5,8.3,1.5c2.6,0,4.8-0.5,6.4-1.4
			c1.7-1,2.8-2.4,3.6-4.3c1.1-3.2,1.7-9.7,1.8-19.5h-12.7c-2.7,11.1-7.3,20.2-13.8,27.2c-6.5,7.1-14.8,12.5-25,16.3
			c-1.2-1.9-2.8-4.3-4.7-7.1c-1.9-2.9-3.6-5.3-5.1-7.3c8.7-2.9,15.7-6.7,21.1-11.3c5.4-4.6,9.3-10.5,11.7-17.7H73.5
			c-3.4,0-5.9,0.1-7.6,0.2v-10.7c-1.1,1-2.7,2.3-4.8,3.9c-2.1,1.6-3.8,2.7-5.1,3.5c-1.7-4.1-3.8-8.6-6.3-13.3v28.4l0.3,14.9
			c0,4.8-1.7,8.7-5.2,11.8c-3.5,3-8.3,4.5-14.4,4.5l-6.6-19.1c2.4,0.3,4.7,0.5,7,0.5c1.5,0,2.8-0.2,3.8-0.6c1-0.4,1.5-1.4,1.5-3.1
			v-8.9v-22H22.8c-0.6,8.7-1.5,17-2.7,24.7s-2.5,14-4,18.9c-1.5,4.9-2.8,8.6-4,11.2C11,408.6,7,404.4,0,397.3
			c3.1-6.6,5.6-16,7.3-28.1C9.1,357,10,342.3,10,325.1v-59.9l-0.2-4.7H50l-0.3,8.6v76.9c8-4.3,14.8-11,20.4-20.2h-5.6
			c-4.6,0-8,0.1-10,0.3v-16.8c1.9,0.2,5.2,0.3,10,0.3H78c0.5-1.5,1.2-3.5,2-6.1c0.8-2.6,1.4-4.8,1.8-6.6H67.4
			c-4.5,0-7.7,0.1-9.5,0.2v-16c1.7,0.1,4.6,0.2,8.8,0.2c-1.9-5.1-4.4-10.9-7.4-17.1l14.2-4.9c3.5,7.6,6.4,14.9,8.6,22h4.4
			c1.2-7.7,2-16.3,2.3-25.7l14.8,1.7l-0.5,1.7c-0.8,10-1.6,17.4-2.4,22.3h9.2c1.6-3.2,3.2-7,4.8-11.3c1.6-4.3,2.7-8.1,3.6-11.5
			l14.1,6.4l-0.9,1.8c-0.8,2.2-1.9,4.8-3.2,7.6c-1.4,2.8-2.5,5.2-3.6,7.1h3.3c4.5,0,7.7-0.1,9.5-0.2v16c-1.8-0.1-5-0.2-9.5-0.2H95.7
			c-1,4.7-2.1,9-3.2,12.8h38.8c4.8,0,8.2-0.1,10.1-0.3v16.8c-1.9-0.2-5.3-0.3-10.1-0.3H123C128.7,333.9,135.9,340.9,144.8,346.8z
			 M23.6,339.2H36v-23.8H23.7v10.2L23.6,339.2z M36,276.9H23.7v22.3H36V276.9z M104,349.5h19.3c-2.3-2.5-4.5-5.1-6.6-8
			c-2.1-2.9-3.8-5.6-5.3-8.3c-1.5-2.7-2.7-5.1-3.7-7.4H86.6c-1.9,4.3-4.2,8.5-7,12.7c-2.7,4.2-5.5,7.9-8.3,11h2.1h14.8
			c0.4-3,0.6-6.8,0.6-11.3l-0.2-4.7l16,0.5l-0.3,3.5C104.4,341.8,104.3,345.8,104,349.5z"/>
        </g>
        <g>
            <g>
                <path class="st0" d="M835.2,78.4c5.6,0,9.5-0.1,11.6-0.3v16.1c-2.1-0.2-6-0.3-11.6-0.3H787c-0.6,4-1.2,7-1.7,8.9h49.7
				c-0.2,2.2-0.3,4.2-0.3,5.9c-0.2,9.9-0.6,16.7-1.3,20.4c-0.7,3.8-1.5,6.7-2.6,9c-1,1.9-2.7,3.9-5.2,6c-2.5,2.1-6.2,3.7-11.2,5
				c-5,1.3-11.2,1.9-18.7,1.9c-0.9-3.6-2.8-9.9-5.7-19c3.5,1.1,7.3,1.7,11.2,1.7c2.7,0,5.4-0.3,7.9-0.9c2.6-0.6,4.5-2,5.8-4.1
				c0.9-1.8,1.6-5.3,2.1-10.4h-36.9c-1.8,3.9-3.8,7.4-6,10.4c-2.2,3-4.6,5.8-7.2,8.3c-2.6,2.5-5.8,5.1-9.7,7.6
				c-3.9,2.6-8.3,4.8-13.4,6.7c-1.2-2.6-4.5-8-9.8-16.3c3.3-1,6.5-2.3,9.7-3.8c3.1-1.5,6-3.3,8.8-5.5c2.7-2.1,5.2-4.6,7.6-7.3
				c2.3-2.7,4.5-6.1,6.5-10.2c2-4,3.6-8.8,4.7-14.4h-23.4h-6.8c-0.7,7.3-1.9,14.1-3.5,20.6c-1.6,6.4-3.8,12.5-6.5,18.3
				c-2.7,5.8-6.1,10.8-10.3,15.2c-1.4-2.2-3.4-5.1-6-8.6s-4.8-6.3-6.7-8.6c2.3-2.6,4.5-5.7,6.7-9.3c2.1-3.6,3.9-7.6,5.3-12
				c1.4-4.4,2.5-9.4,3.3-15.1c0.8-5.7,1.2-11.9,1.2-18.5V12.8c0-5.6-0.1-8.8-0.2-9.7l9.2,3.5c15.8,0.4,33.5,0,53.1-1.3
				c19.6-1.3,35.5-3,47.8-5.3c4.8,6.4,8.8,12.1,11.9,17.1c-1-0.1-2.7,0-5.1,0.3c-16.9,1.7-34.2,3-51.7,3.9
				c-17.5,1-33.5,1.5-47.9,1.6v6.4h95.8c-0.1,1-0.2,2.6-0.2,4.9v29.4l0.2,4.9h-42.8c2.1,3.6,3.9,6.9,5.3,9.9H835.2z M820,44.2h-78.1
				v9.6H820V44.2z M741.8,78.4h6.2h33.2c-0.5-1-1.2-2.4-2.2-4c-1-1.7-1.7-3-2.3-4l6.2-1.8h-41.1v7.9V78.4z"/>
                <path class="st0" d="M738.2,294.7v20.2c0,19-1.7,36-5.1,50.9c-3.4,14.9-8.1,26-14.1,33.4c-6.6-7.8-11-12.8-13-14.9
				c3.3-4.8,6.2-10.7,8.6-17.8s4.3-14.9,5.6-23.7c1.3-8.7,2-18.2,2-28.5v-54.6l-0.3-5.4h115.2l-0.2,4.9v30.7l0.2,4.9H738.2z
				 M832.2,382c5.7,0,9.7-0.1,11.9-0.2v16.3c-2.2-0.2-6.2-0.3-11.9-0.3h-85.4c-5.8,0-9.9,0.1-12.1,0.3v-16.3
				c2.2,0.1,6.2,0.2,12.1,0.2h32.6v-10.2h-25.5c-4.6,0-8,0.1-10,0.3v-15.6c2,0.2,5.3,0.3,10,0.3h25.5V350l-0.2-2.4
				c-1.3,0.1-4,0.3-8.2,0.4c-4.1,0.2-7.6,0.3-10.5,0.5c-2.9,0.2-5.3,0.3-7.2,0.3l-6.3,0.7l-3.2-14.3c1.5-0.1,3.6-0.8,6.1-2.2
				s5.6-3.4,9.1-6.1c3.5-2.7,6.6-5.5,9.4-8.3h-15.3c-5.1,0-8.8,0.1-11,0.3v-15.8c2.2,0.1,5.9,0.2,11,0.2h75.4
				c5.2,0,8.9-0.1,10.9-0.2v15.8c-2-0.2-5.6-0.3-10.9-0.3h-14.5c7.2,6.6,12.9,12.3,17.3,17.2c4.4,4.9,7.3,8.3,8.8,10.2l-12.5,9.1
				c-2.2-3.5-4.7-6.8-7.4-9.9c-5,0.4-12.9,1-23.7,1.5l-0.2,3.4v6.9h25.7c4.7,0,8.1-0.1,10.1-0.3v15.6c-2-0.2-5.4-0.3-10.1-0.3h-25.7
				V382H832.2z M821,269.5h-82.8v9.9H821V269.5z M782.3,318.6l5.9,2.9c-0.5,0.2-1.3,0.8-2.4,1.8c-3.1,3-7.5,6.7-13,10.9
				c2.4-0.1,8-0.4,16.7-0.8c8.7-0.4,15-0.8,19-1c-1-1.1-3.4-3.5-7.3-7.1l10.3-6.7H782.3z"/>
            </g>
        </g>
        <g>
            <g>
                <path class="st0" d="M285.1,132.3c-2.9,10.3-6.4,20.4-10.6,30.2V268c0,2.7,0.1,5.9,0.3,9.7h-16.9c0.2-3.8,0.3-7.1,0.3-9.7
				c0-8.3,0.2-20.2,0.6-35.9c0.4-15.6,0.9-30,1.4-43.2c-4.8,8.8-9.6,16.1-14.2,21.8c-0.6-2-1.7-4.8-3.3-8.4
				c-1.6-3.6-3.1-6.7-4.4-9.4c3.9-4.4,8-10.3,12.3-17.8c4.3-7.5,8.3-15.9,12.2-25.1c3.8-9.2,6.6-17.7,8.5-25.4l14.8,6.2L285.1,132.3
				z M375.9,166.9v61.8l0.2,6.9h-15.9v-8.7h-22.1v39.8c0,2.9,0.1,6.6,0.3,11.1h-16.3c0.2-4.5,0.3-8.2,0.3-11.1v-39.8h-21.3v8.7
				h-15.7c0.2-2.5,0.3-4.7,0.3-6.7v-62.1c0-1.8-0.1-4-0.3-6.7h37v-26.5c0-2.7-0.1-5.4-0.3-8.1c1.8,0,4.6,0.1,8.3,0.3
				c3.7,0.2,6.4,0.3,8,0.4c-0.2,1.6-0.3,4-0.3,7.4V160h37.9L375.9,166.9z M301.1,211.4h21.3v-35.9h-21.3V211.4z M338.1,211.4h22.1
				v-35.9h-22.1V211.4z"/>
                <path class="st0" d="M544.9,127.4c4.2,7.1,9.5,14,15.8,20.7c6.3,6.8,13.5,13.3,21.6,19.6c8.1,6.3,17,12,26.5,17.1
				c-1.5,2.2-3.2,4.9-5.1,7.9c-1.9,3-3.3,5.5-4.3,7.6c-11-6.2-22.2-14.6-33.6-25.4c-11.4-10.7-21.1-22-29-33.8
				c-8,11.9-17.9,23.2-29.8,34c-11.9,10.8-23.6,19.3-35.2,25.4c-0.6-1.5-1.7-3.6-3.3-6.5c-1.6-2.9-3.6-6-5.9-9.3
				c5.9-2.9,12.2-6.6,18.7-11.1c6.5-4.5,12.9-9.5,19-15c6.1-5.5,11.7-11.5,16.7-17.8c5-6.3,8.9-12.6,11.7-18.7l17.1,3.5L544.9,127.4
				z M507.2,189.4c0-2.4-0.1-4.5-0.3-6.5l16.2,0.7c-0.2,1.6-0.3,2.9-0.3,4c0,8.3-0.3,15.9-1,22.9c-0.7,7-1.8,13.9-3.4,20.8
				c-1.6,6.9-4,13.3-7.3,19.3c-3.2,6-7.4,11.3-12.5,16c-5.1,4.6-11.5,8.7-19.3,12.2c-2.8-3.1-7.3-7.6-13.5-13.4
				c7.8-3.1,14.3-6.8,19.6-11c5.3-4.2,9.5-9.2,12.7-15c3.2-5.8,5.5-12.8,6.9-21C506.5,210.1,507.2,200.5,507.2,189.4z M566.6,182.8
				c-0.2,1.2-0.3,3.1-0.3,5.7v80.8l0.3,8.1H550c0.2-3.1,0.3-5.8,0.3-8.1v-80.8c0-1.8-0.1-3.9-0.3-6.4c1.8,0,4.6,0.1,8.5,0.3
				C562.3,182.6,565,182.7,566.6,182.8z"/>
            </g>
        </g>
        <g>
            <path class="st1" d="M244.8,120.8c0,0-47.2,73.4,0,183"/>
            <path class="st1" d="M393.7,120.8c0,0,47.2,73.4,0,183"/>
        </g>
        <g>
            <path class="st1" d="M458.4,120.8c0,0-47.2,73.4,0,183"/>
            <path class="st1" d="M607.3,120.8c0,0,47.2,73.4,0,183"/>
        </g>
        <g>
            <g>
                <path class="st0" d="M668.1,142.9c1.2,0,2,0,2.5-0.1v3.1c-0.5,0-1.4-0.1-2.7-0.1h-3v0l0.1,2.4c0,0.6-0.1,1.1-0.3,1.5
				c-0.2,0.4-0.6,0.8-1.1,1.1s-1.2,0.5-2.1,0.7c-0.9,0.2-1.9,0.2-3.1,0.2c-0.4-0.9-0.9-2.1-1.6-3.5c1,0.2,2,0.3,2.9,0.3
				c0.7,0,1.3-0.1,1.6-0.3s0.5-0.4,0.5-0.8v-1.5v0h-9.1c0.6,0.2,1.3,0.5,2,0.8c0.7,0.3,1.3,0.6,1.8,0.9c-0.2,0.4-0.8,1.2-1.8,2.6
				c-0.3-0.2-0.7-0.5-1.3-0.9c-0.6-0.3-1.2-0.7-2-1.1c-0.7-0.4-1.4-0.6-1.9-0.8l1.2-1.6h-3.2c-1.3,0-2.1,0-2.6,0.1v-3.1
				c0.5,0,1.4,0.1,2.6,0.1h14.3v-0.5l-0.1-0.8c0.4,0,1,0,1.8,0s1.3,0.1,1.7,0.1c0,0.3-0.1,0.5-0.1,0.7v0.5h2.8
				c-0.3-0.6-0.7-1.2-1.1-1.8c-2.3,0.1-5.7,0.2-10.1,0.4c-4.4,0.1-7.6,0.2-9.6,0.2l-1.5,0.1l-0.2-2.9l1.9,0.1c1.3,0.1,4.3,0.1,9,0
				v-1.3h-8c0-0.3,0.1-0.7,0.1-1v-7.3c0-0.3,0-0.6-0.1-1h8V127h-8.6c-1.2,0-2,0-2.5,0.1v-2.9c0.5,0,1.3,0.1,2.5,0.1h8.6v-0.8
				c0-0.4,0-0.8-0.1-1.3c0.4,0,1,0,1.8,0c0.8,0,1.3,0.1,1.7,0.1l-0.1,1.1v0.8h8.2c1.2,0,2,0,2.5-0.1v2.9c-0.5,0-1.3-0.1-2.5-0.1
				h-8.2v1.3h8l0,1v7.3l0,0.7c1.2,1.4,2.2,2.6,2.9,3.7L668.1,142.9z M656.1,130.6h-4.7v1.3h4.7V130.6z M651.4,135.4h4.7V134h-4.7
				V135.4z M664.3,130.6h-4.8v1.3h4.8V130.6z M664.3,135.4V134h-4.8v1.4H664.3z M659.5,138.9l5.4-0.2c-0.2-0.3-0.5-0.6-0.9-1.1h-4.5
				V138.9z"/>
                <path class="st0" d="M670.1,180.9l0,0.9v4.4l0,0.9h-3.4v-3.7h-18v3.7h-3.4c0-0.3,0.1-0.6,0.1-0.9v-4.4c0-0.3,0-0.6-0.1-0.9h0.5
				c-0.3-0.7-0.7-1.5-1.2-2.4c0.7-0.2,1.4-0.5,2.1-0.8c0.7-0.3,1.2-0.7,1.7-1.1s0.8-0.9,1.1-1.4c0.3-0.5,0.4-1.1,0.4-1.7v-2.1
				l-0.1-0.7c0.3,0,0.8,0,1.4,0s1.1,0.1,1.4,0.1l-0.1,0.7v2.2c0,0.5-0.1,1-0.2,1.5c0.7,0.4,1.5,0.9,2.3,1.5s1.5,1,2.1,1.5
				c-0.5,0.7-1.1,1.5-1.8,2.5c-0.4-0.4-1-0.9-1.7-1.4c-0.7-0.5-1.4-1-2-1.5c-1,1.4-2.6,2.4-4.5,3.2h12.1l-1.3-2.5
				c0.6-0.2,1.1-0.4,1.7-0.6c0.6-0.3,1.2-0.6,1.7-1c0.5-0.4,1-0.8,1.3-1.4c0.4-0.6,0.6-1.2,0.6-1.9v-2l-0.1-0.7c0.3,0,0.8,0,1.5,0
				c0.6,0,1.1,0.1,1.4,0.1l-0.1,0.7v2.3c0,0.2,0,0.5-0.1,0.8s-0.1,0.6-0.1,0.8c1.7,0.9,3.4,2,4.9,3.1c-0.5,0.8-1.1,1.6-1.8,2.5
				H670.1z M649,172.5c-0.2,0.7-0.5,1.4-0.8,2.1s-0.6,1.2-0.9,1.6l-2.2-1c0.2-0.2,0.4-0.5,0.6-0.9c0.2-0.4,0.5-0.8,0.7-1.3
				c0.2-0.5,0.4-1,0.5-1.4l2.4,0.6L649,172.5z M667.8,192.4l0,1v6l0,1h-3.4V199h-13.5v1.3h-3.4c0-0.3,0.1-0.7,0.1-1v-6
				c0-0.3,0-0.6-0.1-1h7.3l0.8-1.5H650c0-0.3,0.1-0.6,0.1-0.9v-4.6c0-0.3,0-0.6-0.1-0.9h15.2l0,0.9v4.6l0,0.9h-5.9l-0.9,1.5H667.8z
				 M650.9,196.6h13.5v-1.8h-13.5V196.6z M653.4,186.9v1.6h8.5v-1.6H653.4z M657.1,173c-0.1,0.2-0.3,0.7-0.7,1.5
				c-0.4,0.9-0.7,1.4-0.8,1.7l-2-1.1c0.2-0.4,0.5-0.9,0.8-1.7c0.3-0.8,0.6-1.3,0.7-1.7l2.3,0.9L657.1,173z M661.5,172.6
				c-0.1,0.6-0.2,1.3-0.4,1.9c-0.2,0.7-0.4,1.2-0.6,1.7l-2.3-0.8c0.3-0.4,0.5-1,0.8-1.7c0.2-0.7,0.4-1.3,0.4-1.8l2.2,0.5
				L661.5,172.6z M659.1,180.9h9.1c-0.5-0.5-1.2-1-2-1.6c-0.8-0.6-1.5-1.1-2.3-1.5C662.9,179.2,661.3,180.3,659.1,180.9z
				 M669.9,172.8c-0.3,0.7-0.8,1.8-1.5,3.2c0,0-0.7-0.4-2.1-1c0.2-0.4,0.5-0.9,0.8-1.7c0.3-0.7,0.6-1.3,0.7-1.6l2.2,0.8L669.9,172.8
				z"/>
                <path class="st0" d="M669.7,222.6v23.8c0,0.6,0,1.4,0.1,2.2h-3.6c0-0.7,0.1-1.3,0.1-1.9c-6.3,0.4-13.2,0.5-20.9,0.5
				c0-0.7,0.1-1.3,0.1-1.7v-23c0-0.4,0-0.8-0.1-1.4c2.2,0.1,3.4,0.1,3.6,0.2c0,0.3-0.1,0.7-0.1,1.2v21.1c5.8,0,11.6-0.2,17.4-0.6
				v-20.4c0-0.5,0-1.1-0.1-1.7c2.3,0.1,3.4,0.1,3.6,0.2C669.7,221.4,669.7,221.9,669.7,222.6z M649.2,239.2c1.3-0.9,2.5-2,3.6-3.3
				c1.2-1.2,2.2-2.6,3.2-4c-0.9-0.8-1.8-1.7-2.8-2.5s-1.9-1.6-2.7-2.1l2-3.1c1.6,1.2,3.4,2.7,5.4,4.5c0.7-1.3,1.3-2.6,1.9-4
				c0.6-1.4,1-2.8,1.4-4.2c0.6,0.3,1.7,0.9,3.2,1.7l-0.2,0.4c-0.2,0.7-0.5,1.6-0.9,2.8c-0.4,1.1-0.9,2.2-1.4,3.3s-0.9,1.9-1.3,2.5
				c2,1.9,3.5,3.5,4.7,4.7l-1.9,3.6c-1.4-1.6-3-3.3-4.8-5c-2.1,3-4.4,5.6-7,7.7c-0.2-0.3-0.6-0.8-1.1-1.4
				C650.1,240.2,649.6,239.7,649.2,239.2z"/>
                <path class="st0" d="M665.5,292.7c0.3-0.3,0.5-0.7,0.6-1.3s0.2-1.5,0.2-2.6c1.2,0.8,2.3,1.5,3.3,2c-0.1,0.9-0.2,1.6-0.4,2.3
				s-0.4,1.2-0.7,1.7c-0.3,0.5-0.7,0.9-1.2,1.2s-1.1,0.6-1.8,0.8c-0.7,0.2-1.5,0.3-2.2,0.3s-1.2,0-1.5,0c-1.6,0-2.9-0.1-3.8-0.2
				c-0.9-0.1-1.6-0.3-2-0.6c-0.4-0.3-0.7-0.8-0.9-1.4s-0.3-1.5-0.3-2.6l0-3.8l-6.7,0.9c-0.1,0-0.5,0.1-1,0.1
				c-0.5,0.1-0.9,0.1-1.1,0.2s-0.4,0.1-0.6,0.1l-0.2-3.7c0.5,0,1.4-0.1,2.7-0.3l6.9-0.9v-3.5c-0.7,0.1-1.5,0.2-2.6,0.4s-2,0.2-3,0.3
				c-0.2-0.6-0.5-1.6-1-2.8h-3c0-0.3,0.1-0.7,0.1-1v-6.1c0-0.3,0-0.6-0.1-1h11.1c-0.5-1.1-0.9-1.9-1.3-2.5l3.2-1.2
				c0.5,0.8,1.1,2.1,1.8,3.7h9.8l0,1v6.1l0,1h-3.3v-4.8h-17.9v4.1c2.6-0.1,5.2-0.4,7.9-0.9s4.9-1.1,6.5-1.8c0.1,0.2,0.4,0.5,0.8,1
				c0.4,0.5,0.7,0.9,0.9,1.2c0.2,0.3,0.4,0.5,0.5,0.7l-0.9,0.2c-1.9,0.6-3.9,1.2-6.1,1.7v3.7l9.2-1.3c1.3-0.2,2.2-0.3,2.7-0.5
				l0.2,3.7c-0.1,0-0.3,0-0.5,0c-0.2,0-0.9,0.1-2.3,0.3l-9.4,1.3v4.2c0,0.4,0.1,0.6,0.2,0.8c0.1,0.2,0.3,0.3,0.6,0.4
				c0.4,0.1,1.4,0.1,3.1,0.1c0.9,0,1.6-0.1,2.1-0.2C664.8,293.2,665.2,293,665.5,292.7z"/>
            </g>
        </g>
        <g>
            <g>
                <path class="st0" d="M188.5,129.2v20.5c0,0.6,0,1.2,0.1,2H185c0-0.8,0.1-1.4,0.1-2c0-1.6,0-3.8,0.1-6.7c0.1-2.9,0.2-5.6,0.3-8.2
				c-0.4,0.8-0.9,1.5-1.3,2.2c-0.4,0.7-0.8,1.3-1.2,1.7c-0.1-0.2-0.2-0.6-0.3-1.1c-0.2-0.5-0.3-1-0.6-1.6c-0.2-0.6-0.4-1-0.5-1.2
				c1.1-1.3,2.2-3.3,3.4-5.9c1.2-2.6,2-4.9,2.4-6.9l3.2,1.2l-0.2,0.3c-0.3,0.9-0.5,1.8-0.9,2.8C189.2,127.3,188.8,128.3,188.5,129.2
				z M206.7,147.5c1,0,1.7,0,2.1,0v3.3c-0.4,0-1.1-0.1-2.1-0.1h-14.9c-1.1,0-1.9,0-2.3,0.1v-3.3c0.4,0,1.2,0,2.3,0h0.2v-16.2
				c0-0.5,0-1.1-0.1-1.7h5.1l0.1-1.7h-5c-1,0-1.7,0-2,0v-3.2c0.4,0,1.1,0.1,2,0.1h5.2l0.1-1.9l0-0.6l3.3,0.2c0,0.1-0.1,0.2-0.1,0.3
				l-0.1,2h5.6c0.9,0,1.6,0,2-0.1v3.2c-0.4,0-1,0-2,0h-5.8l-0.1,1.7h5.9c0,0.7-0.1,1.3-0.1,1.7v16.2H206.7z M202.9,132.7h-7.7v1.7
				h7.7V132.7z M202.9,138.7V137h-7.7v1.7H202.9z M195.2,141.4v1.7h7.7v-1.7H195.2z M195.2,145.7v1.8h7.7v-1.8H195.2z"/>
                <path class="st0" d="M188.6,184v14.6c0,0.5,0,1,0.1,1.6h-3.3c0-0.3,0.1-0.8,0.1-1.6c0-0.1,0-0.2,0-0.5s0-1.4,0-3.3
				c0-2,0.1-4.3,0.2-7.1c-0.4,0.5-0.9,1-1.4,1.5c-0.5,0.5-0.9,0.9-1.2,1.1c-0.1-0.4-0.3-1-0.6-1.7c-0.3-0.7-0.5-1.3-0.8-1.8
				c0.6-0.5,1.4-1.1,2.3-2.1c0.9-0.9,1.8-2,2.7-3.3c0.9-1.3,1.6-2.5,2-3.5l2.6,2c-0.1,0.1-0.2,0.2-0.3,0.4
				C190.2,181.6,189.4,182.8,188.6,184z M190.6,172.9c-0.7,1-1.5,2.1-2.4,3.2c-1,1.1-1.8,2-2.6,2.7c-0.8,0.7-1.4,1.2-2,1.5
				c-0.2-0.4-0.4-0.9-0.7-1.5c-0.3-0.6-0.7-1.1-1-1.6c1.2-0.7,2.4-1.8,3.8-3.2s2.2-2.5,2.7-3.5l2.5,2L190.6,172.9z M206.8,188.7
				c1,0,1.7,0,2.1-0.1v3c-0.4,0-1.1,0-2.1,0h-1.7v2.7l0.1,2.4c0,0.5-0.1,1-0.3,1.5s-0.6,0.8-1.1,1.1s-1.2,0.5-2,0.7
				c-0.8,0.2-1.8,0.2-3,0.2c-0.2-0.5-0.7-1.7-1.5-3.5c1,0.2,1.9,0.2,2.7,0.2c0.7,0,1.2-0.1,1.5-0.2c0.3-0.2,0.4-0.4,0.4-0.8v-1.5
				v-2.7h-9.6c-1,0-1.7,0-2.1,0v-3c0.4,0,1.1,0.1,2.1,0.1h9.6v-1.9h-9.4c-1,0-1.6,0-2,0.1v-3c0.4,0,1.1,0,2,0h14.1c1,0,1.6,0,2,0v3
				c-0.4,0-1.1-0.1-2-0.1h-1.5v1.9H206.8z M194.2,191.7c1.5,0.9,3,2.1,4.3,3.4c-0.8,0.8-1.6,1.5-2.4,2.1c-0.4-0.5-1-1.1-1.7-1.8
				c-0.7-0.7-1.5-1.4-2.3-1.9L194.2,191.7z M192.5,182.1c0-0.4,0.1-0.8,0.1-1.1v-8.1c0-0.3,0-0.6-0.1-1.1h13.8l0,1.1v8.1l0,1.1
				H192.5z M203.1,174.4h-7.5v1.4h7.5V174.4z M195.6,179.6h7.5v-1.5h-7.5V179.6z"/>
                <path class="st0" d="M188.5,226.3v20.5c0,0.6,0,1.2,0.1,2h-3.6c0-0.7,0.1-1.4,0.1-2c0-1.6,0-3.8,0.1-6.7c0.1-2.9,0.2-5.6,0.3-8
				c-0.9,1.6-1.7,2.9-2.5,3.8c-0.2-0.7-0.7-2-1.5-3.9c0.7-0.8,1.5-1.9,2.2-3.3c0.8-1.4,1.4-2.8,2-4.2s1-2.6,1.3-3.4
				c0.3-0.8,0.4-1.5,0.5-1.9l3.2,1.2l-0.2,0.3C189.9,222.7,189.2,224.6,188.5,226.3z M206.7,223.7c1,0,1.7,0,2.2-0.1v3.3
				c-0.4,0-1.1-0.1-2.2-0.1h-14.9c-1,0-1.7,0-2.2,0.1v-3.3c0.4,0,1.1,0.1,2.2,0.1h6.1c-0.3-0.5-0.6-1-1-1.6
				c-0.4-0.5-0.7-1.1-1.1-1.5l2.8-1.5c0.9,0.9,1.7,2.1,2.5,3.6l-1.7,1H206.7z M206.8,238l0,1.2v8.5l0,1.1h-3.3v-1.3h-8.7v1.3h-3.3
				c0-0.4,0.1-0.8,0.1-1.1v-8.5l-0.1-1.2H206.8z M204.4,231.5h-10.8c-0.8,0-1.4,0-1.7,0v-2.9c0.3,0,0.9,0,1.7,0h10.8l1.7,0v2.9
				L204.4,231.5z M191.8,236.2v-2.9c0.3,0,0.9,0,1.7,0h10.8l1.7,0v2.9c-0.3,0-0.9-0.1-1.7-0.1h-10.8
				C192.8,236.1,192.2,236.1,191.8,236.2z M194.7,244.6h8.7v-3.7h-8.7V244.6z"/>
                <path class="st0" d="M191.9,292.9c-0.2-0.6-0.5-1.4-0.9-2.2c-0.4-0.8-0.7-1.6-1.1-2.2v7.5c0,0.6,0,1.1,0.1,1.3h-3.2
				c0-0.2,0.1-0.7,0.1-1.3c0-1.6,0-3.9,0.1-6.8c-0.6,1.3-1.3,2.4-2,3.6c-0.7,1.1-1.5,2-2.1,2.7c-0.3-0.8-0.8-2-1.5-3.5
				c0.8-0.7,1.6-1.6,2.4-2.7s1.4-2.3,1.9-3.5h-3c0-0.2,0-0.5,0-1v-7.1c0-0.5,0-0.8,0-1h4.2v-2.3h-3.2c-0.7,0-1.3,0-1.6,0V271
				c0.3,0,0.9,0,1.6,0h3.2v-2.3c0-0.3,0-0.6-0.1-1c0.3,0,0.9,0,1.6,0s1.2,0.1,1.5,0.1l-0.1,0.9v2.3h3.2c0.8,0,1.3,0,1.6,0v3.2
				c-0.3,0-0.8,0-1.6,0h-3.2v2.3h4.3c0,0.2,0,0.5,0,1v7.2l0,1H190v1.4l1.4-0.9c0.5,0.6,1,1.5,1.5,2.5c0.6,1,1,1.9,1.4,2.7
				L191.9,292.9z M185.5,279.4v3.5h1.6v-3.5H185.5z M191.5,282.8v-3.5h-1.7v3.5H191.5z M192.1,294.8c1.2-0.3,2.5-0.7,3.9-1.3
				c1.4-0.6,2.3-1.2,2.8-1.7l2.2,1.9c-0.8,0.6-1.7,1.3-2.8,1.9c-1.1,0.6-2,1.1-2.8,1.4s-1.3,0.5-1.5,0.6
				C193.6,297,193,296,192.1,294.8z M196,291.8c0-0.5,0.1-0.9,0.1-1.3v-11.8l0-1l-0.1,0c-0.3-0.6-0.8-1.5-1.7-2.8
				c2.4-0.6,3.9-1.6,4.6-3h-2l-1.5,0v-2.9l1.5,0h11.2l-0.1,1c0,1.3-0.1,2.4-0.1,3.1c-0.1,0.8-0.2,1.4-0.4,1.8
				c-0.3,0.7-0.8,1.3-1.6,1.7c-0.8,0.4-2,0.6-3.4,0.6l-1-3c0.2,0.1,0.5,0.2,0.8,0.2c0.3,0.1,0.6,0.1,0.8,0.1c0.4,0,0.8-0.1,1-0.2
				c0.3-0.2,0.5-0.4,0.6-0.6c0-0.1,0.1-0.2,0.1-0.5c0.1-0.3,0.1-0.7,0.1-1.3h-3.2c-0.3,1.2-0.9,2.3-1.7,3.2c-0.9,1-2,1.7-3.3,2.3
				h10.7l0,1.3v11.8l0,1.3H196z M204.6,280.1H199v1.5h5.7V280.1z M199,285.3h5.7v-1.5H199V285.3z M199,289.2h5.7v-1.6H199V289.2z
				 M203.9,292c1.9,0.9,3.7,1.9,5.3,3l-1.5,2.6c-1.7-1.3-3.5-2.5-5.4-3.6L203.9,292z"/>
            </g>
        </g>
    </g>
</svg>
