<svg xmlns="http://www.w3.org/2000/svg" xml:space="preserve" width="846.9" height="410.1" style="overflow:visible" viewBox="0 0 846.9 410.1"><style>.st0{fill:#d10202}.st1{fill:none;stroke:#b60405;stroke-width:3.452;stroke-linecap:round;stroke-linejoin:round;stroke-miterlimit:10}</style><path d="M131 120.6c6.9 6.6 10.8 10.4 11.9 11.3-.4 8.3-2.1 14.5-5.2 18.7q-4.65 6.3-12.9 6.3c-3 0-6.2-.6-9.5-1.7s-6.4-2.7-9.1-4.6c-2.8-2-5.1-3.9-7-6-3.9 2.1-8.3 4.1-13 5.8s-9.4 3.1-13.9 4c-4.5 1-8.1 1.6-10.6 1.9-.6-1.7-1.7-4.1-3.2-7.4-1.5-3.2-2.9-6-4.1-8.2 14.4-1.3 26.3-4.3 35.7-8.7-3.6-6.4-6.6-13.8-8.9-22.2l-31.4.7v6.5c11.5-1.1 18.9-2 22.4-2.5q-.6 8.4-.6 13.8l-21.8 2.2.3 10.1c0 2.7-.6 5-1.7 7.1-1.1 2-2.9 3.7-5.3 5.2s-5.6 2.5-9.6 3.3c-4 .7-8.7 1.1-14.3 1.1l-7.4-17c1.3.2 3.2.4 5.7.7 2.5.2 4.9.3 7.1.3 3.4 0 5.8-.4 7.3-1.2q2.1-1.2 2.1-3.9v-4.4c-8.9.9-15.9 1.5-21.2 1.8-1.4.1-3.7.4-6.8.8l-1.4-15.1c3.6.2 6.4.3 8.3.3q6.45 0 21-1.2v-7.7l-16 .3c-5.2 0-9.7.2-13.3.5l-.2-14.4c.7.1 1.5.2 2.3.2h11.2l16.1-.4V92c-7.7.7-15.8 1-24.3 1-.4-2.1-1.7-6.3-4-12.6 9.3.3 19.3 0 30.1-1s19.6-2.4 26.6-4.2l7.1 11.6-3.3.7c-7.3 1.3-12.7 2.2-16.5 2.7v6.4l28.4-.5c-.8-4.1-1.5-9.2-2-15.3 0-.3-.1-.8-.2-1.4l-.6-3.6c10 .6 15.2.9 15.7 1l.2 4.2c.3 4.8.9 9.7 1.7 14.8l23.3-.5c-2.2-1.7-5-3.6-8.4-5.6q-5.1-3.15-8.7-4.8l8-9.2c3.1 1.3 6.6 3 10.5 5s7.2 4 10.1 5.9l-7.1 8.7 6.2-.2c7.3-.2 11.7-.4 13.3-.7l.3 14.6q-5.4-.15-13.5 0l-30.8.7c.3 1 1 2.9 2 5.7s2.4 5.8 4.1 8.9c1.8-1.5 3.9-3.4 6.1-5.9 2.3-2.5 4.4-5.5 6.4-9.1l11.9 8.9-1.2 1.5c-3.8 6.2-8.4 11.5-13.8 16.1 1.9 1.6 4 2.8 6.3 3.7s4.4 1.3 6.3 1.3c2.5 0 4.3-1.6 5.3-4.9 1-3.1 1.5-8.3 1.5-15.3m-6.3-46.4H17.8c-6.3 0-10.7.1-13.1.3V60.3c2.4.2 6.8.3 13.1.3h44.9v-8.1H28c-5.2 0-8.9.1-11 .3V39.6c2 .3 5.7.4 11 .4h34.8v-7.1H23.3c-5.8 0-9.9.1-12.2.3V19c2.3.2 6.4.3 12.2.3h21.5Q41.5 14.05 37 7.6L52.3 2q1.05 1.5 2.1 3.3c.7 1.2 3.2 5.6 7.4 13.3l-1.5.7h22.1c1.7-2.7 3.5-5.8 5.3-9.3s3-6.3 3.6-8.3l16.8 6.7-1.8 2.2c-2.2 4.1-3.9 7.1-5 8.7h18.9c5.8 0 9.9-.1 12.1-.3v14.3c-2.2-.2-6.2-.3-12.1-.3H79.8v7h34.5c5.1 0 8.8-.1 11-.3V53c-2.2-.2-5.9-.3-11-.3H79.8v8.1h44.9c6.3 0 10.8-.1 13.3-.3v14.3c-2.5-.5-7-.6-13.3-.6M144.8 346.8l-6.6 15.8c-3.2-2.4-6.1-4.8-8.8-7.2-.1 14.7-.4 24.3-1 29-.6 4.6-1.3 8.1-2.2 10.5-1.5 4.3-4.5 7.5-8.8 9.8-4.4 2.3-10.4 3.4-17.9 3.4-1-3.9-2.8-10.2-5.4-19 2.9 1 5.7 1.5 8.3 1.5s4.8-.5 6.4-1.4c1.7-1 2.8-2.4 3.6-4.3q1.65-4.8 1.8-19.5h-12.7c-2.7 11.1-7.3 20.2-13.8 27.2-6.5 7.1-14.8 12.5-25 16.3-1.2-1.9-2.8-4.3-4.7-7.1-1.9-2.9-3.6-5.3-5.1-7.3 8.7-2.9 15.7-6.7 21.1-11.3q8.1-6.9 11.7-17.7H73.5c-3.4 0-5.9.1-7.6.2V355q-1.65 1.5-4.8 3.9c-2.1 1.6-3.8 2.7-5.1 3.5-1.7-4.1-3.8-8.6-6.3-13.3v28.4l.3 14.9c0 4.8-1.7 8.7-5.2 11.8q-5.25 4.5-14.4 4.5l-6.6-19.1c2.4.3 4.7.5 7 .5 1.5 0 2.8-.2 3.8-.6s1.5-1.4 1.5-3.1v-30.9H22.8c-.6 8.7-1.5 17-2.7 24.7s-2.5 14-4 18.9-2.8 8.6-4 11.2c-1.1-1.7-5.1-5.9-12.1-13 3.1-6.6 5.6-16 7.3-28.1q2.7-18.3 2.7-44.1v-59.9l-.2-4.7H50l-.3 8.6V346c8-4.3 14.8-11 20.4-20.2h-5.6c-4.6 0-8 .1-10 .3v-16.8c1.9.2 5.2.3 10 .3H78c.5-1.5 1.2-3.5 2-6.1q1.2-3.9 1.8-6.6H67.4c-4.5 0-7.7.1-9.5.2v-16c1.7.1 4.6.2 8.8.2-1.9-5.1-4.4-10.9-7.4-17.1l14.2-4.9c3.5 7.6 6.4 14.9 8.6 22h4.4c1.2-7.7 2-16.3 2.3-25.7l14.8 1.7-.5 1.7c-.8 10-1.6 17.4-2.4 22.3h9.2c1.6-3.2 3.2-7 4.8-11.3s2.7-8.1 3.6-11.5l14.1 6.4-.9 1.8c-.8 2.2-1.9 4.8-3.2 7.6-1.4 2.8-2.5 5.2-3.6 7.1h3.3c4.5 0 7.7-.1 9.5-.2v16c-1.8-.1-5-.2-9.5-.2H95.7c-1 4.7-2.1 9-3.2 12.8h38.8c4.8 0 8.2-.1 10.1-.3v16.8c-1.9-.2-5.3-.3-10.1-.3H123c5.7 7.9 12.9 14.9 21.8 20.8m-121.2-7.6H36v-23.8H23.7v10.2zM36 276.9H23.7v22.3H36zm68 72.6h19.3c-2.3-2.5-4.5-5.1-6.6-8s-3.8-5.6-5.3-8.3-2.7-5.1-3.7-7.4H86.6c-1.9 4.3-4.2 8.5-7 12.7-2.7 4.2-5.5 7.9-8.3 11h16.9c.4-3 .6-6.8.6-11.3l-.2-4.7 16 .5-.3 3.5q.15 6.45-.3 12M835.2 78.4c5.6 0 9.5-.1 11.6-.3v16.1c-2.1-.2-6-.3-11.6-.3H787c-.6 4-1.2 7-1.7 8.9H835c-.2 2.2-.3 4.2-.3 5.9-.2 9.9-.6 16.7-1.3 20.4-.7 3.8-1.5 6.7-2.6 9-1 1.9-2.7 3.9-5.2 6s-6.2 3.7-11.2 5-11.2 1.9-18.7 1.9c-.9-3.6-2.8-9.9-5.7-19 3.5 1.1 7.3 1.7 11.2 1.7 2.7 0 5.4-.3 7.9-.9 2.6-.6 4.5-2 5.8-4.1.9-1.8 1.6-5.3 2.1-10.4h-36.9c-1.8 3.9-3.8 7.4-6 10.4s-4.6 5.8-7.2 8.3-5.8 5.1-9.7 7.6c-3.9 2.6-8.3 4.8-13.4 6.7-1.2-2.6-4.5-8-9.8-16.3 3.3-1 6.5-2.3 9.7-3.8 3.1-1.5 6-3.3 8.8-5.5 2.7-2.1 5.2-4.6 7.6-7.3 2.3-2.7 4.5-6.1 6.5-10.2 2-4 3.6-8.8 4.7-14.4h-30.2c-.7 7.3-1.9 14.1-3.5 20.6-1.6 6.4-3.8 12.5-6.5 18.3s-6.1 10.8-10.3 15.2c-1.4-2.2-3.4-5.1-6-8.6s-4.8-6.3-6.7-8.6c2.3-2.6 4.5-5.7 6.7-9.3 2.1-3.6 3.9-7.6 5.3-12s2.5-9.4 3.3-15.1 1.2-11.9 1.2-18.5v-63c0-5.6-.1-8.8-.2-9.7l9.2 3.5c15.8.4 33.5 0 53.1-1.3s35.5-3 47.8-5.3c4.8 6.4 8.8 12.1 11.9 17.1q-1.5-.15-5.1.3c-16.9 1.7-34.2 3-51.7 3.9-17.5 1-33.5 1.5-47.9 1.6v6.4h95.8c-.1 1-.2 2.6-.2 4.9v29.4l.2 4.9h-42.8c2.1 3.6 3.9 6.9 5.3 9.9zM820 44.2h-78.1v9.6H820zm-78.2 34.2h39.4c-.5-1-1.2-2.4-2.2-4-1-1.7-1.7-3-2.3-4l6.2-1.8h-41.1v9.8M738.2 294.7v20.2c0 19-1.7 36-5.1 50.9s-8.1 26-14.1 33.4c-6.6-7.8-11-12.8-13-14.9 3.3-4.8 6.2-10.7 8.6-17.8s4.3-14.9 5.6-23.7c1.3-8.7 2-18.2 2-28.5v-54.6l-.3-5.4h115.2l-.2 4.9v30.7l.2 4.9h-98.9zm94 87.3c5.7 0 9.7-.1 11.9-.2v16.3c-2.2-.2-6.2-.3-11.9-.3h-85.4c-5.8 0-9.9.1-12.1.3v-16.3c2.2.1 6.2.2 12.1.2h32.6v-10.2h-25.5c-4.6 0-8 .1-10 .3v-15.6c2 .2 5.3.3 10 .3h25.5V350l-.2-2.4c-1.3.1-4 .3-8.2.4-4.1.2-7.6.3-10.5.5q-4.35.3-7.2.3l-6.3.7-3.2-14.3c1.5-.1 3.6-.8 6.1-2.2s5.6-3.4 9.1-6.1 6.6-5.5 9.4-8.3h-15.3c-5.1 0-8.8.1-11 .3v-15.8c2.2.1 5.9.2 11 .2h75.4c5.2 0 8.9-.1 10.9-.2v15.8c-2-.2-5.6-.3-10.9-.3H814c7.2 6.6 12.9 12.3 17.3 17.2s7.3 8.3 8.8 10.2l-12.5 9.1c-2.2-3.5-4.7-6.8-7.4-9.9-5 .4-12.9 1-23.7 1.5l-.2 3.4v6.9H822c4.7 0 8.1-.1 10.1-.3v15.6c-2-.2-5.4-.3-10.1-.3h-25.7v10zM821 269.5h-82.8v9.9H821zm-38.7 49.1 5.9 2.9q-.75.3-2.4 1.8c-3.1 3-7.5 6.7-13 10.9 2.4-.1 8-.4 16.7-.8s15-.8 19-1c-1-1.1-3.4-3.5-7.3-7.1l10.3-6.7zM285.1 132.3c-2.9 10.3-6.4 20.4-10.6 30.2V268c0 2.7.1 5.9.3 9.7h-16.9c.2-3.8.3-7.1.3-9.7 0-8.3.2-20.2.6-35.9.4-15.6.9-30 1.4-43.2-4.8 8.8-9.6 16.1-14.2 21.8q-.9-3-3.3-8.4c-1.6-3.6-3.1-6.7-4.4-9.4 3.9-4.4 8-10.3 12.3-17.8s8.3-15.9 12.2-25.1c3.8-9.2 6.6-17.7 8.5-25.4l14.8 6.2zm90.8 34.6v61.8l.2 6.9h-15.9v-8.7h-22.1v39.8q0 4.35.3 11.1h-16.3q.3-6.75.3-11.1v-39.8h-21.3v8.7h-15.7c.2-2.5.3-4.7.3-6.7v-62.1c0-1.8-.1-4-.3-6.7h37v-26.5q0-4.05-.3-8.1c1.8 0 4.6.1 8.3.3s6.4.3 8 .4c-.2 1.6-.3 4-.3 7.4V160H376zm-74.8 44.5h21.3v-35.9h-21.3zm37 0h22.1v-35.9h-22.1zM544.9 127.4c4.2 7.1 9.5 14 15.8 20.7 6.3 6.8 13.5 13.3 21.6 19.6s17 12 26.5 17.1c-1.5 2.2-3.2 4.9-5.1 7.9s-3.3 5.5-4.3 7.6c-11-6.2-22.2-14.6-33.6-25.4-11.4-10.7-21.1-22-29-33.8-8 11.9-17.9 23.2-29.8 34s-23.6 19.3-35.2 25.4c-.6-1.5-1.7-3.6-3.3-6.5s-3.6-6-5.9-9.3c5.9-2.9 12.2-6.6 18.7-11.1s12.9-9.5 19-15 11.7-11.5 16.7-17.8 8.9-12.6 11.7-18.7l17.1 3.5zm-37.7 62c0-2.4-.1-4.5-.3-6.5l16.2.7c-.2 1.6-.3 2.9-.3 4 0 8.3-.3 15.9-1 22.9s-1.8 13.9-3.4 20.8-4 13.3-7.3 19.3c-3.2 6-7.4 11.3-12.5 16-5.1 4.6-11.5 8.7-19.3 12.2-2.8-3.1-7.3-7.6-13.5-13.4 7.8-3.1 14.3-6.8 19.6-11s9.5-9.2 12.7-15q4.8-8.7 6.9-21c1.5-8.3 2.2-17.9 2.2-29m59.4-6.6q-.3 1.8-.3 5.7v80.8l.3 8.1H550q.3-4.65.3-8.1v-80.8c0-1.8-.1-3.9-.3-6.4 1.8 0 4.6.1 8.5.3 3.8.2 6.5.3 8.1.4" class="st0"/><path d="M244.8 120.8s-47.2 73.4 0 183M393.7 120.8s47.2 73.4 0 183M458.4 120.8s-47.2 73.4 0 183M607.3 120.8s47.2 73.4 0 183" class="st1"/><path d="M668.1 142.9c1.2 0 2 0 2.5-.1v3.1c-.5 0-1.4-.1-2.7-.1h-3l.1 2.4q0 .9-.3 1.5c-.2.4-.6.8-1.1 1.1s-1.2.5-2.1.7-1.9.2-3.1.2c-.4-.9-.9-2.1-1.6-3.5 1 .2 2 .3 2.9.3.7 0 1.3-.1 1.6-.3s.5-.4.5-.8v-1.5h-9.1c.6.2 1.3.5 2 .8q1.05.45 1.8.9c-.2.4-.8 1.2-1.8 2.6-.3-.2-.7-.5-1.3-.9-.6-.3-1.2-.7-2-1.1-.7-.4-1.4-.6-1.9-.8l1.2-1.6h-3.2c-1.3 0-2.1 0-2.6.1v-3.1c.5 0 1.4.1 2.6.1h14.3v-.5l-.1-.8h1.8c.8 0 1.3.1 1.7.1 0 .3-.1.5-.1.7v.5h2.8c-.3-.6-.7-1.2-1.1-1.8-2.3.1-5.7.2-10.1.4-4.4.1-7.6.2-9.6.2l-1.5.1-.2-2.9 1.9.1q1.95.15 9 0v-1.3h-8c0-.3.1-.7.1-1v-7.3c0-.3 0-.6-.1-1h8V127h-8.6c-1.2 0-2 0-2.5.1v-2.9c.5 0 1.3.1 2.5.1h8.6v-.8c0-.4 0-.8-.1-1.3h1.8c.8 0 1.3.1 1.7.1l-.1 1.1v.8h8.2c1.2 0 2 0 2.5-.1v2.9c-.5 0-1.3-.1-2.5-.1h-8.2v1.3h8v9c1.2 1.4 2.2 2.6 2.9 3.7zm-12-12.3h-4.7v1.3h4.7zm-4.7 4.8h4.7V134h-4.7zm12.9-4.8h-4.8v1.3h4.8zm0 4.8V134h-4.8v1.4zm-4.8 3.5 5.4-.2c-.2-.3-.5-.6-.9-1.1h-4.5zM670.1 180.9v6.2h-3.4v-3.7h-18v3.7h-3.4c0-.3.1-.6.1-.9v-4.4c0-.3 0-.6-.1-.9h.5q-.45-1.05-1.2-2.4c.7-.2 1.4-.5 2.1-.8s1.2-.7 1.7-1.1.8-.9 1.1-1.4.4-1.1.4-1.7v-2.1l-.1-.7h1.4c.6 0 1.1.1 1.4.1l-.1.7v2.2c0 .5-.1 1-.2 1.5.7.4 1.5.9 2.3 1.5s1.5 1 2.1 1.5c-.5.7-1.1 1.5-1.8 2.5-.4-.4-1-.9-1.7-1.4s-1.4-1-2-1.5c-1 1.4-2.6 2.4-4.5 3.2h12.1l-1.3-2.5c.6-.2 1.1-.4 1.7-.6.6-.3 1.2-.6 1.7-1s1-.8 1.3-1.4c.4-.6.6-1.2.6-1.9v-2l-.1-.7h1.5c.6 0 1.1.1 1.4.1l-.1.7v2.3c0 .2 0 .5-.1.8s-.1.6-.1.8c1.7.9 3.4 2 4.9 3.1-.5.8-1.1 1.6-1.8 2.5h1.7zm-21.1-8.4c-.2.7-.5 1.4-.8 2.1s-.6 1.2-.9 1.6l-2.2-1q.3-.3.6-.9c.2-.4.5-.8.7-1.3s.4-1 .5-1.4l2.4.6zm18.8 19.9v8h-3.4V199h-13.5v1.3h-3.4c0-.3.1-.7.1-1v-6c0-.3 0-.6-.1-1h7.3l.8-1.5H650c0-.3.1-.6.1-.9v-4.6c0-.3 0-.6-.1-.9h15.2v6.4h-5.9l-.9 1.5h9.4zm-16.9 4.2h13.5v-1.8h-13.5zm2.5-9.7v1.6h8.5v-1.6zm3.7-13.9c-.1.2-.3.7-.7 1.5-.4.9-.7 1.4-.8 1.7l-2-1.1c.2-.4.5-.9.8-1.7s.6-1.3.7-1.7l2.3.9zm4.4-.4c-.1.6-.2 1.3-.4 1.9-.2.7-.4 1.2-.6 1.7l-2.3-.8c.3-.4.5-1 .8-1.7.2-.7.4-1.3.4-1.8l2.2.5zm-2.4 8.3h9.1c-.5-.5-1.2-1-2-1.6s-1.5-1.1-2.3-1.5c-1 1.4-2.6 2.5-4.8 3.1m10.8-8.1c-.3.7-.8 1.8-1.5 3.2 0 0-.7-.4-2.1-1 .2-.4.5-.9.8-1.7.3-.7.6-1.3.7-1.6l2.2.8zM669.7 222.6v23.8c0 .6 0 1.4.1 2.2h-3.6c0-.7.1-1.3.1-1.9-6.3.4-13.2.5-20.9.5 0-.7.1-1.3.1-1.7v-23c0-.4 0-.8-.1-1.4 2.2.1 3.4.1 3.6.2 0 .3-.1.7-.1 1.2v21.1q8.7 0 17.4-.6v-20.4c0-.5 0-1.1-.1-1.7 2.3.1 3.4.1 3.6.2-.1.3-.1.8-.1 1.5m-20.5 16.6q1.95-1.35 3.6-3.3c1.2-1.2 2.2-2.6 3.2-4-.9-.8-1.8-1.7-2.8-2.5s-1.9-1.6-2.7-2.1l2-3.1q2.4 1.8 5.4 4.5c.7-1.3 1.3-2.6 1.9-4s1-2.8 1.4-4.2c.6.3 1.7.9 3.2 1.7l-.2.4c-.2.7-.5 1.6-.9 2.8-.4 1.1-.9 2.2-1.4 3.3s-.9 1.9-1.3 2.5c2 1.9 3.5 3.5 4.7 4.7l-1.9 3.6c-1.4-1.6-3-3.3-4.8-5-2.1 3-4.4 5.6-7 7.7-.2-.3-.6-.8-1.1-1.4-.4-.6-.9-1.1-1.3-1.6M665.5 292.7c.3-.3.5-.7.6-1.3s.2-1.5.2-2.6c1.2.8 2.3 1.5 3.3 2-.1.9-.2 1.6-.4 2.3s-.4 1.2-.7 1.7q-.45.75-1.2 1.2c-.75.45-1.1.6-1.8.8s-1.5.3-2.2.3h-1.5c-1.6 0-2.9-.1-3.8-.2s-1.6-.3-2-.6-.7-.8-.9-1.4-.3-1.5-.3-2.6v-3.8l-6.7.9c-.1 0-.5.1-1 .1-.5.1-.9.1-1.1.2s-.4.1-.6.1l-.2-3.7q.75 0 2.7-.3l6.9-.9v-3.5c-.7.1-1.5.2-2.6.4s-2 .2-3 .3c-.2-.6-.5-1.6-1-2.8h-3c0-.3.1-.7.1-1v-6.1c0-.3 0-.6-.1-1h11.1c-.5-1.1-.9-1.9-1.3-2.5l3.2-1.2c.5.8 1.1 2.1 1.8 3.7h9.8v8.1h-3.3v-4.8h-17.9v4.1c2.6-.1 5.2-.4 7.9-.9s4.9-1.1 6.5-1.8c.1.2.4.5.8 1q.6.75.9 1.2c.2.3.4.5.5.7l-.9.2c-1.9.6-3.9 1.2-6.1 1.7v3.7l9.2-1.3c1.3-.2 2.2-.3 2.7-.5l.2 3.7h-.5c-.2 0-.9.1-2.3.3l-9.4 1.3v4.2c0 .4.1.6.2.8s.3.3.6.4c.4.1 1.4.1 3.1.1.9 0 1.6-.1 2.1-.2.7 0 1.1-.2 1.4-.5M188.5 129.2v20.5c0 .6 0 1.2.1 2H185c0-.8.1-1.4.1-2 0-1.6 0-3.8.1-6.7s.2-5.6.3-8.2c-.4.8-.9 1.5-1.3 2.2s-.8 1.3-1.2 1.7c-.1-.2-.2-.6-.3-1.1-.2-.5-.3-1-.6-1.6-.2-.6-.4-1-.5-1.2 1.1-1.3 2.2-3.3 3.4-5.9q1.8-3.9 2.4-6.9l3.2 1.2-.2.3c-.3.9-.5 1.8-.9 2.8-.3 1-.7 2-1 2.9m18.2 18.3h2.1v3.3c-.4 0-1.1-.1-2.1-.1h-14.9c-1.1 0-1.9 0-2.3.1v-3.3h2.5v-16.2c0-.5 0-1.1-.1-1.7h5.1l.1-1.7h-7v-3.2c.4 0 1.1.1 2 .1h5.2l.1-1.9v-.6l3.3.2c0 .1-.1.2-.1.3l-.1 2h5.6c.9 0 1.6 0 2-.1v3.2h-7.8l-.1 1.7h5.9c0 .7-.1 1.3-.1 1.7v16.2zm-3.8-14.8h-7.7v1.7h7.7zm0 6V137h-7.7v1.7zm-7.7 2.7v1.7h7.7v-1.7zm0 4.3v1.8h7.7v-1.8zM188.6 184v14.6c0 .5 0 1 .1 1.6h-3.3c0-.3.1-.8.1-1.6v-3.8c0-2 .1-4.3.2-7.1-.4.5-.9 1-1.4 1.5s-.9.9-1.2 1.1c-.1-.4-.3-1-.6-1.7s-.5-1.3-.8-1.8c.6-.5 1.4-1.1 2.3-2.1q1.35-1.35 2.7-3.3c.9-1.3 1.6-2.5 2-3.5l2.6 2c-.1.1-.2.2-.3.4-.8 1.3-1.6 2.5-2.4 3.7m2-11.1c-.7 1-1.5 2.1-2.4 3.2-1 1.1-1.8 2-2.6 2.7s-1.4 1.2-2 1.5c-.2-.4-.4-.9-.7-1.5s-.7-1.1-1-1.6c1.2-.7 2.4-1.8 3.8-3.2s2.2-2.5 2.7-3.5l2.5 2zm16.2 15.8c1 0 1.7 0 2.1-.1v3h-3.8v2.7l.1 2.4q0 .75-.3 1.5c-.3.75-.6.8-1.1 1.1s-1.2.5-2 .7-1.8.2-3 .2c-.2-.5-.7-1.7-1.5-3.5 1 .2 1.9.2 2.7.2.7 0 1.2-.1 1.5-.2.3-.2.4-.4.4-.8v-4.2h-11.7v-3c.4 0 1.1.1 2.1.1h9.6v-1.9h-9.4c-1 0-1.6 0-2 .1v-3h18.1v3c-.4 0-1.1-.1-2-.1h-1.5v1.9h1.7zm-12.6 3c1.5.9 3 2.1 4.3 3.4q-1.2 1.2-2.4 2.1c-.4-.5-1-1.1-1.7-1.8s-1.5-1.4-2.3-1.9zm-1.7-9.6c0-.4.1-.8.1-1.1v-8.1c0-.3 0-.6-.1-1.1h13.8v10.3zm10.6-7.7h-7.5v1.4h7.5zm-7.5 5.2h7.5v-1.5h-7.5zM188.5 226.3v20.5c0 .6 0 1.2.1 2H185c0-.7.1-1.4.1-2 0-1.6 0-3.8.1-6.7s.2-5.6.3-8c-.9 1.6-1.7 2.9-2.5 3.8q-.3-1.05-1.5-3.9c.7-.8 1.5-1.9 2.2-3.3.8-1.4 1.4-2.8 2-4.2s1-2.6 1.3-3.4.4-1.5.5-1.9l3.2 1.2-.2.3c-.6 2-1.3 3.9-2 5.6m18.2-2.6c1 0 1.7 0 2.2-.1v3.3c-.4 0-1.1-.1-2.2-.1h-14.9c-1 0-1.7 0-2.2.1v-3.3c.4 0 1.1.1 2.2.1h6.1c-.3-.5-.6-1-1-1.6-.4-.5-.7-1.1-1.1-1.5l2.8-1.5c.9.9 1.7 2.1 2.5 3.6l-1.7 1zm.1 14.3v10.8h-3.3v-1.3h-8.7v1.3h-3.3c0-.4.1-.8.1-1.1v-8.5l-.1-1.2zm-2.4-6.5h-12.5v-2.9h14.2v2.9zm-12.6 4.7v-2.9H206v2.9c-.3 0-.9-.1-1.7-.1h-10.8c-.7 0-1.3 0-1.7.1m2.9 8.4h8.7v-3.7h-8.7zM191.9 292.9c-.2-.6-.5-1.4-.9-2.2s-.7-1.6-1.1-2.2v7.5c0 .6 0 1.1.1 1.3h-3.2c0-.2.1-.7.1-1.3 0-1.6 0-3.9.1-6.8-.6 1.3-1.3 2.4-2 3.6-.7 1.1-1.5 2-2.1 2.7-.3-.8-.8-2-1.5-3.5q1.2-1.05 2.4-2.7c1.2-1.65 1.4-2.3 1.9-3.5h-3v-9.1h4.2v-2.3h-4.8V271h4.8v-2.3c0-.3 0-.6-.1-1h1.6c.7 0 1.2.1 1.5.1l-.1.9v2.3h4.8v3.2h-4.8v2.3h4.3v9.2H190v1.4l1.4-.9c.5.6 1 1.5 1.5 2.5.6 1 1 1.9 1.4 2.7zm-6.4-13.5v3.5h1.6v-3.5zm6 3.4v-3.5h-1.7v3.5zm.6 12c1.2-.3 2.5-.7 3.9-1.3s2.3-1.2 2.8-1.7l2.2 1.9c-.8.6-1.7 1.3-2.8 1.9s-2 1.1-2.8 1.4-1.3.5-1.5.6c-.3-.6-.9-1.6-1.8-2.8m3.9-3c0-.5.1-.9.1-1.3v-12.8h-.1c-.3-.6-.8-1.5-1.7-2.8 2.4-.6 3.9-1.6 4.6-3h-3.5V269h12.7l-.1 1c0 1.3-.1 2.4-.1 3.1-.1.8-.2 1.4-.4 1.8-.3.7-.8 1.3-1.6 1.7s-2 .6-3.4.6l-1-3c.2.1.5.2.8.2.3.1.6.1.8.1.4 0 .8-.1 1-.2q.45-.3.6-.6c0-.1.1-.2.1-.5.1-.3.1-.7.1-1.3h-3.2c-.3 1.2-.9 2.3-1.7 3.2-.9 1-2 1.7-3.3 2.3h10.7v14.4zm8.6-11.7H199v1.5h5.7v-1.5zm-5.6 5.2h5.7v-1.5H199zm0 3.9h5.7v-1.6H199zm4.9 2.8c1.9.9 3.7 1.9 5.3 3l-1.5 2.6q-2.55-1.95-5.4-3.6z" class="st0"/></svg>