<svg xmlns="http://www.w3.org/2000/svg" xml:space="preserve" width="137.7" height="25.6" style="overflow:visible" viewBox="0 0 137.7 25.6"><style>.st1{fill:#fff}</style><g style="opacity:.81"><path d="m5.2 14.5 1.5 2c-.2.5-.5 1.2-1 2-.4.8-1 1.8-1.6 2.9s-1.1 2-1.6 2.7q-.3.45-.6 1.2L0 23.4l.7-.8c.5-.7 1.2-1.9 2.1-3.5.8-1.5 1.6-3.1 2.4-4.6m.9-4.2-1.2 1.9q-.75-.6-2.1-1.5C2 10.1 1.1 9.5.1 9l1.2-1.8c.7.4 1.5.9 2.5 1.5.9.6 1.7 1.1 2.3 1.6m1.1-6.6C6.8 4.4 6.4 5 6 5.6Q3.15 3.35 1.2 2.3L2.4.4c1.6 1 3.3 2.1 4.8 3.3m16.1 18.8c.9 0 1.5 0 1.9-.1v2.1h-20v-2.1c.4 0 1.1.1 2 .1h.7v-7.6c0-.2 0-.6-.1-.9h15.5v8.5M9 11.9l.1-1V2.3c0-.2 0-.6-.1-.9h13.2V12H9zm.9 4v6.6h2.5v-6.6zM20.2 3.2h-9.1V10h9.1zm-7.4 6.4c-.1-.1-.3-.3-.5-.6l-.7-.7c.9-.6 1.7-1.3 2.4-2.2.6-.9 1-1.8 1.1-2.8l1.6.5-.1.2q-.15.9-.3 1.2c1.2 1 2.3 1.9 3.2 2.9l-1.2 1.4c-.8-1-1.7-1.9-2.7-2.9-.4.6-.8 1.2-1.3 1.7-.4.5-.9.9-1.5 1.3m4 6.3h-2.5v6.6h2.5zm4.5 0h-2.7v6.6h2.7zM48.2 19.5v6.1H46v-.8H35.3v.8H33c0-.3.1-.6.1-.8v-5.3c-.3.1-.8.2-1.6.5-.8.2-1.8.4-3 .7-.1-.3-.3-.9-.8-1.8 1.9-.2 3.8-.6 5.5-1.1s3.2-1 4.4-1.6h-7c-1 0-1.8 0-2.2.1v-1.7c.5 0 1.2.1 2.2.1h9.2v-1c-2.3.1-4.7.1-7 .1l-.8-1.7c2.7.2 5.5.2 8.3 0 2.8-.1 5.3-.4 7.5-.8l1.1 1.4-.6.1c-2.3.3-4.6.5-6.8.7v1h9.2c1.1 0 1.8 0 2.2-.1v1.7c-.4 0-1.2-.1-2.2-.1h-7c.9.5 2 .9 3.3 1.3q1.95.6 3.6.9c1.1.2 2.1.4 2.9.5-.1.2-.3.5-.4.9-.2.3-.3.6-.3.8-1.4-.1-2.9-.4-4.6-.9m-19-5.2c-.4-.5-.9-1-1.4-1.5.6-.5 1-.9 1.3-1.5.3-.5.4-1.2.4-2.1V6.6H40v4.1h-8.7l-.3 1.2c-.2.5-.4.9-.7 1.3-.4.5-.8.8-1.1 1.1M33.5 3h-5.2V1.6h5.2V1l-.1-.7h1c.4 0 .7 0 .9.1h.3c0 .2-.1.4-.1.6v.6h5.1V3h-5.1v1.1h4.3v1.4H29V4.1h4.4V3zm-2.2 4.8v1.5h2.5V7.8zm15.8 11.3c-1.1-.4-2.1-.8-3.1-1.3s-1.8-1-2.6-1.5v1.5c0 .3 0 .5.1.7h-2c0-.1.1-.3.1-.7v-1.4q-1.05.75-2.4 1.5c-.9.5-1.9.9-3 1.3h12.9zm-11.8 1.2v1.1H46v-1.1zm0 3.3H46v-1.2H35.3zm2.6-14.2V7.8h-2.6v1.6zm2.4-5c1.2-.4 1.9-.7 2.2-1s.5-.7.5-1.1V.7h6.4c0 .2-.1.4-.1.6v1.4c0 .2 0 .3.1.4s.2.1.4.2.4 0 .7 0c.7 0 1.6 0 2.6-.1l-.3 1.6c-.4.1-1.3.2-2.5.2q-1.5 0-2.1-.3t-.6-1.2V2.2H45v.3c0 .4-.1.7-.3 1.1s-.5.8-1 1.1-1.1.6-1.9.9q-.6-.45-1.5-1.2m1.1 7c-.1-.3-.4-.8-.8-1.4.9 0 1.8-.1 2.6-.2s1.5-.2 2.1-.4c-1.2-.3-2.4-.5-3.5-.7l.6-1.1c1.4.2 3 .5 4.9 1 .7-.3 1.3-.7 1.7-1.2h-7.7V5.8H50l.2-.3c.4.3.9.6 1.4 1.1l-.3.1c-.2.4-.6.9-.9 1.3-.4.4-.8.8-1.3 1.1 1.5.5 2.9.9 4.1 1.4l-.9 1.6c-1.8-.9-3.5-1.6-4.9-2.1-1.7.8-3.7 1.3-6 1.4M67 20.9v.9h-7.3v2.6h-2.3c0-.4.1-.8.1-1.1V12.7c0-.3 0-.7-.1-1.1h3.8V7.4h-5.1V5.2h5.1V1.1c0-.3 0-.6-.1-.9 1.1 0 1.8 0 2.3.1 0 .3-.1.6-.1.8v4.2h5v2.2h-5v4.3H67v9.1m-7.3-1.1h5v-6.1h-5zM75.5 18c.7 1.1 1.6 2.1 2.7 3.1s2.2 1.7 3.4 2.3l-.9 2.1c-2.5-1.4-4.6-3.3-6.4-5.7q-.9 1.2-2.1 2.4c-.8.8-1.6 1.5-2.4 2s-1.5 1-2.1 1.3c-.1-.1-.2-.4-.4-.8s-.5-.8-.8-1.4c1.2-.5 2.4-1.2 3.6-2.2s2.2-2.1 3-3.2c-1.4-2.5-2.3-5.2-2.8-8.1-.5 1-1.1 1.8-1.7 2.5-.2-.4-.7-1-1.3-1.9.8-.9 1.7-2.4 2.5-4.3q1.2-2.85 1.8-6l2.1.5-.3.4q-.45 1.95-1.2 4.2h8.7v2.1h-2.1c-.5 3.9-1.6 7.5-3.3 10.7m-1.3-2.1c.5-.9.9-1.9 1.2-2.9.4-1 .6-2 .8-3s.4-1.9.5-2.7h-5c.5 3.4 1.3 6.3 2.5 8.6M109.1 16h.8v1.8h-2.6v5.3h-2.2v-1.7h-7v1.8c0 .5-.1 1-.4 1.3s-.8.6-1.6.8c-.7.2-1.9.3-3.4.3-.1-.2-.3-.6-.5-1.1s-.4-.8-.6-1.1c.8.1 1.6.2 2.3.2.6 0 1-.1 1.4-.2s.6-.4.6-.8v-1.3h-9.7v-1.8H96v-1.9H84.2V16c.4 0 1.1.1 2.1.1H96v-1.9h-7.7c-.9 0-1.5 0-1.9.1v-1.8c.4 0 1 .1 1.9.1H96v-1.7h-8c0-.3.1-.5.1-.7V6.4c0-.2 0-.4-.1-.7h8V4.1h-8.6c-1.1 0-1.9 0-2.3.1v-2c.4 0 1.2.1 2.3.1H96v-1c0-.4 0-.7-.1-1 .6 0 1.4 0 2.3.1 0 .4-.1.7-.1 1v1h9c1.1 0 1.8 0 2.3-.1v2c-.5 0-1.2-.1-2.3-.1h-9v1.6h8.1v4.9h-8.1v1.7h9.2V16zM90.2 9.2H96v-2h-5.8zm13.8-2h-5.9v2h5.9zm-5.9 6.9V16h7v-1.9zm0 5.6h7v-1.9h-7zM133.4 22.3c.3-.3.6-.7.7-1.1l.3-1.5v-1.1c1.2.7 2 1.2 2.2 1.3-.1 1-.2 1.8-.5 2.4-.2.7-.6 1.2-1.1 1.6q-.75.6-2.1.9c-.9.2-2 .3-3.4.3-1.5 0-2.7 0-3.5-.1s-1.4-.2-1.7-.4c-.4-.2-.7-.6-.8-1.1s-.3-1.1-.3-1.9v-4.1l-7.2.9c-1.2.1-1.9.2-2.3.3l-.1-2.3c.5 0 1.2-.1 2.3-.2l7.4-.9v-4c-1.8.3-3.7.5-5.7.7l-.9-2.1c1.8-.1 3.7-.3 5.6-.5 2-.3 3.6-.6 5.1-1 1.4-.4 2.6-.7 3.5-1.1l1.5 1.8-.7.2c-2.1.6-4.2 1.2-6.1 1.6V15l9.7-1.2c.7-.1 1.5-.2 2.3-.3l.1 2.3c-.5 0-1.3.1-2.3.2l-9.8 1.2v4.5c0 .4.1.6.2.8s.4.3.7.4c.6.1 1.7.1 3.3.1.9 0 1.7-.1 2.2-.2s1-.2 1.4-.5M114 9.7c0-.3.1-.5.1-.8V4.2c0-.2 0-.5-.1-.8h11c-.5-1.1-1-2-1.4-2.6l2.1-.8c.5.8 1.1 1.9 1.9 3.4h9.5v6.4h-2.3V5.4h-18.4v4.3z" class="st1"/></g></svg>