<svg version="1.1" xmlns="http://www.w3.org/2000/svg" xmlns:xlink="http://www.w3.org/1999/xlink" x="0px" y="0px" width="152.1px" height="40.9px" viewBox="0 0 152.1 40.9" style="overflow:visible;enable-background:new 0 0 152.1 40.9;" xml:space="preserve">
    <style type="text/css">
        .st0{fill:#FFFFFF;}
    </style>
    <defs/>
    <g>
        <path class="st0" d="M31.2,29c1.6,0,2.7,0,3.3-0.1v3.5c-0.6-0.1-1.7-0.1-3.3-0.1h-4.5v1.1l0,2.8c0,0.7-0.1,1.4-0.4,1.9
		c-0.3,0.5-0.8,0.9-1.4,1.3c-0.7,0.4-1.5,0.6-2.7,0.8c-1.1,0.2-2.5,0.3-4.2,0.3c-0.2-0.5-0.8-1.8-1.8-3.9c0.1,0,0.5,0.1,1.3,0.2
		c0.8,0.1,1.6,0.2,2.6,0.2c1.1,0,1.9-0.1,2.3-0.4c0.4-0.2,0.7-0.6,0.7-1.1v-1.9v-1.1h-14c0.9,0.3,1.9,0.8,3.1,1.3
		c1.2,0.5,2.2,1.1,3.1,1.7l-1.8,2.8c-0.8-0.6-1.9-1.3-3.2-2.1c-1.3-0.7-2.5-1.3-3.5-1.7L8,32.3H3.3c-1.5,0-2.7,0-3.3,0.1V29
		C0.7,29,1.8,29,3.3,29H23v-1l-0.1-1.1c0.4,0,1.1,0,2,0.1c0.9,0,1.5,0.1,1.9,0.1c-0.1,0.4-0.1,0.7-0.1,1v1H31.2z M15.5,6.9H3.5
		C2,6.9,0.9,7,0.3,7V3.8C0.9,3.8,2,3.8,3.5,3.8h12.1V2.3c0-0.5,0-1-0.1-1.5c0.9,0,2.2,0,3.7,0.1c-0.1,0.6-0.1,1.1-0.1,1.5v1.5h11.6
		c1.5,0,2.6,0,3.2-0.1V7c-0.6-0.1-1.7-0.1-3.2-0.1H19.1v2.2h10.8l0,1.3v9.8l0,1.3h0c1.5,1.5,2.9,3.2,4.1,4.9l-2.8,2.4
		c-0.2-0.4-0.5-0.9-0.9-1.5s-0.6-1-0.9-1.3c-2.9,0.1-7.5,0.3-13.6,0.5C9.8,26.9,5.4,27,2.8,27l-1.9,0.1l-0.3-3.4L3,23.8
		c2.5,0.1,6.7,0.1,12.5,0v-2.3H4.7c0.1-0.5,0.1-0.9,0.1-1.3v-9.8c0-0.4,0-0.9-0.1-1.3h10.8V6.9z M15.5,11.8H8.1V14h7.4V11.8z
		 M8.1,18.9h7.4v-2.4H8.1V18.9z M26.6,11.8h-7.4V14h7.4V11.8z M26.6,18.9v-2.4h-7.4v2.4H26.6z M19.1,23.7c1.5,0,4.3-0.1,8.2-0.3
		c-0.6-0.7-1.1-1.3-1.6-1.8l0.2-0.1h-6.8V23.7z"/>
        <path class="st0" d="M38.8,37.3c1-0.1,2.3-0.4,3.8-0.7c1.5-0.4,3.1-0.8,4.7-1.4c1.6-0.6,2.9-1.1,3.7-1.6l2.8,2.5
		c-1.6,1-3.7,1.9-6.2,2.8s-4.9,1.6-7.1,1.9c-0.1-0.3-0.4-1-0.9-2C39.2,38,38.9,37.4,38.8,37.3z M43.2,33.3c0.1-0.6,0.1-1.2,0.1-1.7
		V15.4c0-0.4,0-1-0.1-1.7h26.4l0,1.7v16.2l0,1.7H43.2z M45.7,10.9c0.1-0.5,0.1-0.9,0.1-1.2V2.8c0-0.3,0-0.7-0.1-1.2h21.6
		c0,0.2,0,0.6,0,1.2v6.8l0,1.2H45.7z M66.1,16.9H46.8v2.6h19.3V16.9z M46.8,24.7h19.3v-2.5H46.8V24.7z M46.8,30.2h19.3v-2.8H46.8
		V30.2z M63.7,4.6H49.3v3.2h14.5V4.6z M61.8,33.7c0.8,0.2,1.9,0.4,3.3,0.8s3,0.8,4.8,1.4c1.8,0.5,3.3,1,4.4,1.4l-2,3.5
		c-0.8-0.4-2.1-0.8-3.6-1.4c-1.6-0.6-3.3-1.2-5.1-1.8c-1.8-0.6-3.3-1.1-4.3-1.3L61.8,33.7z"/>
        <path class="st0" d="M97.9,1.2c0.7,1.1,1.5,2.3,2.6,3.6c1,1.3,2.4,2.7,4,4.3c1.6,1.5,3.3,3,5.1,4.2c1.8,1.3,3.5,2.4,5.1,3.2
		c-0.3,0.4-0.7,1-1.1,1.7c-0.5,0.7-0.8,1.4-1.1,1.9c-1.5-0.8-3.2-2-5-3.5c-1.9-1.5-3.9-3.3-6-5.6S97.6,6.7,96,4.5
		c-0.8,1.1-1.7,2.4-2.8,3.8c-1.1,1.4-2.5,2.9-4.2,4.5c-1.7,1.6-3.4,3.1-5.2,4.4c-1.8,1.3-3.4,2.4-4.9,3.2c-0.4-0.9-1.1-2.1-2.2-3.7
		c1.2-0.6,2.4-1.3,3.7-2.2c1.3-0.8,2.5-1.7,3.7-2.7c1.2-1,2.5-2.1,3.8-3.4c1.3-1.3,2.5-2.6,3.5-4.1c1.1-1.5,2-2.9,2.7-4.3l3.9,0.8
		L97.9,1.2z M88.6,17.5c0-0.6,0-1.1-0.1-1.6l3.7,0.2l-0.1,1c0,4.8-0.4,8.7-1.2,11.7c-0.8,3-2,5.5-3.5,7.4c-1.6,1.9-3.8,3.5-6.6,4.8
		c-0.4-0.4-1.4-1.5-3.1-3.1c1.5-0.6,2.9-1.3,4-2.1c1.2-0.8,2.2-1.7,3.1-2.8c0.9-1.1,1.6-2.4,2.1-3.8c0.5-1.5,0.9-3.1,1.2-4.9
		C88.4,22.3,88.6,20.1,88.6,17.5z M103.5,15.8c-0.1,0.3-0.1,0.8-0.1,1.5v21.3c0,0.5,0,1.2,0.1,2h-3.9l0.1-2V17.3c0-0.5,0-1-0.1-1.6
		C101.4,15.7,102.7,15.8,103.5,15.8z"/>
        <path class="st0" d="M117.2,38.4c0.5-1.4,0.9-3,1.2-4.7c0.3-1.8,0.5-3.3,0.6-4.7l2.8,0.5c-0.1,1.7-0.3,3.6-0.6,5.5
		c-0.3,2-0.7,3.7-1.1,5.2C119.2,39.6,118.2,39,117.2,38.4z M126.8,19.1l2.5-1.2c0.6,1.1,1.2,2.4,1.9,4c0.7,1.6,1.2,3,1.6,4.1
		l-2.8,1.4c-0.1-0.5-0.3-1.2-0.6-2.2c-3.3,0.7-6.4,1.3-9.3,1.9l-1.6,0.4l-0.8-3.4c0.5-0.2,0.8-0.4,0.9-0.7c0.4-0.4,1.1-1.3,2.1-2.7
		c1-1.3,2.2-3.1,3.5-5.2l-4.6,0.8l-1.3,0.3l-0.7-3.1c0.1-0.1,0.3-0.1,0.5-0.3c0.2-0.1,0.3-0.2,0.4-0.4c1-1.4,2.1-3.2,3.3-5.5
		c1.2-2.3,2-4.3,2.6-6.1l3.2,1.5c-0.3,0.4-0.5,0.7-0.6,0.9c-0.4,0.8-0.8,1.7-1.4,2.8s-1.2,2.2-1.9,3.4c-0.7,1.2-1.4,2.3-2,3.2
		l4.6-0.7c0.3-0.6,0.8-1.4,1.3-2.5c0.5-1,0.9-1.9,1.2-2.5l3.1,1.6c-0.3,0.3-0.5,0.7-0.7,1.1c-1,1.8-2.3,4-4.1,6.7
		c-1.8,2.6-3.4,4.9-4.9,6.8c2.2-0.3,4.3-0.7,6.4-1.2C127.7,20.7,127.2,19.7,126.8,19.1z M123.2,29.6l2.6-0.5
		c0.3,1.2,0.5,2.6,0.8,4.2c0.2,1.6,0.4,3.1,0.5,4.3c-0.7,0.1-1.7,0.4-3,0.7c-0.1-1.7-0.2-3.3-0.4-4.8
		C123.6,31.9,123.4,30.6,123.2,29.6z M127.3,28.8l2.5-1c0.4,0.9,0.9,2.1,1.4,3.5c0.5,1.4,1,2.8,1.4,4l-2.8,1.3
		c-0.2-0.6-0.4-1.5-0.7-2.6c-0.3-1.1-0.7-2.1-1-3.1C127.8,30,127.5,29.3,127.3,28.8z M152.1,3L152,4.2c0,4-0.1,6.9-0.3,8.6
		c-0.1,1.7-0.4,3-0.8,4c-0.4,1.1-1.3,1.9-2.6,2.5c-1.3,0.6-3.1,0.9-5.4,0.9c-0.1-0.3-0.2-0.8-0.4-1.5c-0.2-0.8-0.5-1.7-0.9-2.8
		c0.7,0.2,1.5,0.4,2.6,0.4c1,0,1.8-0.1,2.4-0.4c0.6-0.3,1-0.7,1.3-1.3c0.2-0.6,0.4-1.4,0.5-2.5c0.1-1.1,0.2-2.9,0.2-5.5h-5.1
		c-0.6,6.9-3.5,11.7-8.9,14.4l-2-3.3c1.5-0.7,2.8-1.5,3.7-2.4c0.9-0.9,1.6-1.8,2.1-2.6c0.5-0.8,0.8-1.7,1.1-2.7
		c0.3-1,0.5-2.1,0.6-3.4h-4c-0.9,0-1.6,0-2,0V3c0.4,0,1.1,0,2,0H152.1z M151.1,22.6c0,0.4,0,0.9,0,1.6v14.6l0,1.6h-3.5v-2.3h-9.5
		v2.3h-3.4c0.1-0.6,0.1-1.1,0.1-1.6V24.2c0-0.4,0-0.9-0.1-1.6H151.1z M138.1,34.6h9.5v-8.5h-9.5V34.6z"/>
    </g>
</svg>
