<svg xmlns="http://www.w3.org/2000/svg" xml:space="preserve" width="152.1" height="40.9" style="overflow:visible" viewBox="0 0 152.1 40.9"><style>.st0{fill:#fff}</style><path d="M31.2 29c1.6 0 2.7 0 3.3-.1v3.5c-.6-.1-1.7-.1-3.3-.1h-4.5v3.9c0 .7-.1 1.4-.4 1.9s-.8.9-1.4 1.3c-.7.4-1.5.6-2.7.8q-1.65.3-4.2.3-.3-.75-1.8-3.9c.1 0 .5.1 1.3.2s1.6.2 2.6.2c1.1 0 1.9-.1 2.3-.4.4-.2.7-.6.7-1.1v-3h-14c.9.3 1.9.8 3.1 1.3s2.2 1.1 3.1 1.7l-1.8 2.8c-.8-.6-1.9-1.3-3.2-2.1-1.3-.7-2.5-1.3-3.5-1.7L8 32.3H3.3c-1.5 0-2.7 0-3.3.1V29h23v-1l-.1-1.1c.4 0 1.1 0 2 .1.9 0 1.5.1 1.9.1-.1.4-.1.7-.1 1v1h4.5zM15.5 6.9h-12C2 6.9.9 7 .3 7V3.8h15.3V2.3c0-.5 0-1-.1-1.5.9 0 2.2 0 3.7.1-.1.6-.1 1.1-.1 1.5v1.5h11.6c1.5 0 2.6 0 3.2-.1V7c-.6-.1-1.7-.1-3.2-.1H19.1v2.2h10.8v12.4c1.5 1.5 2.9 3.2 4.1 4.9l-2.8 2.4q-.3-.6-.9-1.5c-.6-.9-.6-1-.9-1.3-2.9.1-7.5.3-13.6.5-6 .4-10.4.5-13 .5l-1.9.1-.3-3.4 2.4.1c2.5.1 6.7.1 12.5 0v-2.3H4.7c.1-.5.1-.9.1-1.3v-9.8c0-.4 0-.9-.1-1.3h10.8zm0 4.9H8.1V14h7.4zm-7.4 7.1h7.4v-2.4H8.1zm18.5-7.1h-7.4V14h7.4zm0 7.1v-2.4h-7.4v2.4zm-7.5 4.8c1.5 0 4.3-.1 8.2-.3-.6-.7-1.1-1.3-1.6-1.8l.2-.1h-6.8zM38.8 37.3c1-.1 2.3-.4 3.8-.7 1.5-.4 3.1-.8 4.7-1.4s2.9-1.1 3.7-1.6l2.8 2.5c-1.6 1-3.7 1.9-6.2 2.8s-4.9 1.6-7.1 1.9c-.1-.3-.4-1-.9-2-.4-.8-.7-1.4-.8-1.5m4.4-4c.1-.6.1-1.2.1-1.7V15.4c0-.4 0-1-.1-1.7h26.4v19.6zm2.5-22.4c.1-.5.1-.9.1-1.2V2.8c0-.3 0-.7-.1-1.2h21.6v9.2H45.7zm20.4 6H46.8v2.6h19.3zm-19.3 7.8h19.3v-2.5H46.8zm0 5.5h19.3v-2.8H46.8zM63.7 4.6H49.3v3.2h14.5V4.6zm-1.9 29.1c.8.2 1.9.4 3.3.8s3 .8 4.8 1.4c1.8.5 3.3 1 4.4 1.4l-2 3.5c-.8-.4-2.1-.8-3.6-1.4q-2.4-.9-5.1-1.8c-1.8-.6-3.3-1.1-4.3-1.3zM97.9 1.2c.7 1.1 1.5 2.3 2.6 3.6 1 1.3 2.4 2.7 4 4.3 1.6 1.5 3.3 3 5.1 4.2 1.8 1.3 3.5 2.4 5.1 3.2-.3.4-.7 1-1.1 1.7-.5.7-.8 1.4-1.1 1.9-1.5-.8-3.2-2-5-3.5-1.9-1.5-3.9-3.3-6-5.6S97.6 6.7 96 4.5c-.8 1.1-1.7 2.4-2.8 3.8q-1.65 2.1-4.2 4.5c-1.7 1.6-3.4 3.1-5.2 4.4s-3.4 2.4-4.9 3.2c-.4-.9-1.1-2.1-2.2-3.7 1.2-.6 2.4-1.3 3.7-2.2 1.3-.8 2.5-1.7 3.7-2.7s2.5-2.1 3.8-3.4 2.5-2.6 3.5-4.1c1.1-1.5 2-2.9 2.7-4.3l3.9.8zm-9.3 16.3c0-.6 0-1.1-.1-1.6l3.7.2-.1 1q0 7.2-1.2 11.7c-.8 3-2 5.5-3.5 7.4Q85 39.05 80.8 41c-.4-.4-1.4-1.5-3.1-3.1 1.5-.6 2.9-1.3 4-2.1 1.2-.8 2.2-1.7 3.1-2.8s1.6-2.4 2.1-3.8c.5-1.5.9-3.1 1.2-4.9.3-2 .5-4.2.5-6.8m14.9-1.7c-.1.3-.1.8-.1 1.5v21.3c0 .5 0 1.2.1 2h-3.9l.1-2V17.3c0-.5 0-1-.1-1.6 1.8 0 3.1.1 3.9.1M117.2 38.4c.5-1.4.9-3 1.2-4.7.3-1.8.5-3.3.6-4.7l2.8.5c-.1 1.7-.3 3.6-.6 5.5-.3 2-.7 3.7-1.1 5.2-.9-.6-1.9-1.2-2.9-1.8m9.6-19.3 2.5-1.2c.6 1.1 1.2 2.4 1.9 4s1.2 3 1.6 4.1l-2.8 1.4c-.1-.5-.3-1.2-.6-2.2-3.3.7-6.4 1.3-9.3 1.9l-1.6.4-.8-3.4c.5-.2.8-.4.9-.7q.6-.6 2.1-2.7c1-1.3 2.2-3.1 3.5-5.2l-4.6.8-1.3.3-.7-3.1c.1-.1.3-.1.5-.3.2-.1.3-.2.4-.4 1-1.4 2.1-3.2 3.3-5.5s2-4.3 2.6-6.1l3.2 1.5q-.45.6-.6.9c-.4.8-.8 1.7-1.4 2.8s-1.2 2.2-1.9 3.4-1.4 2.3-2 3.2l4.6-.7c.3-.6.8-1.4 1.3-2.5.5-1 .9-1.9 1.2-2.5l3.1 1.6c-.3.3-.5.7-.7 1.1-1 1.8-2.3 4-4.1 6.7-1.8 2.6-3.4 4.9-4.9 6.8 2.2-.3 4.3-.7 6.4-1.2-.9-1.6-1.4-2.6-1.8-3.2m-3.6 10.5 2.6-.5c.3 1.2.5 2.6.8 4.2.2 1.6.4 3.1.5 4.3-.7.1-1.7.4-3 .7-.1-1.7-.2-3.3-.4-4.8-.1-1.6-.3-2.9-.5-3.9m4.1-.8 2.5-1c.4.9.9 2.1 1.4 3.5s1 2.8 1.4 4l-2.8 1.3c-.2-.6-.4-1.5-.7-2.6s-.7-2.1-1-3.1c-.3-.9-.6-1.6-.8-2.1M152.1 3l-.1 1.2c0 4-.1 6.9-.3 8.6-.1 1.7-.4 3-.8 4-.4 1.1-1.3 1.9-2.6 2.5q-1.95.9-5.4.9c-.1-.3-.2-.8-.4-1.5-.2-.8-.5-1.7-.9-2.8.7.2 1.5.4 2.6.4 1 0 1.8-.1 2.4-.4s1-.7 1.3-1.3c.2-.6.4-1.4.5-2.5s.2-2.9.2-5.5h-5.1c-.6 6.9-3.5 11.7-8.9 14.4l-2-3.3c1.5-.7 2.8-1.5 3.7-2.4s1.6-1.8 2.1-2.6.8-1.7 1.1-2.7.5-2.1.6-3.4h-6V3h18m-1 19.6v17.8h-3.5v-2.3h-9.5v2.3h-3.4c.1-.6.1-1.1.1-1.6V24.2c0-.4 0-.9-.1-1.6zm-13 12h9.5v-8.5h-9.5z" class="st0"/></svg>