<!--Generator: Adobe Illustrator 25.0.0, SVG Export Plug-In-->
<svg version="1.1" xmlns="http://www.w3.org/2000/svg" xmlns:xlink="http://www.w3.org/1999/xlink" x="0px" y="0px" width="480px" height="40.6px" viewBox="0 0 480 40.6" style="overflow: visible; enable-background: new 0 0 480 40.6" xml:space="preserve">
    <style type="text/css">
        .st0 {
      fill: #ffffff;
    }
    </style>
    <defs/>
    <g>
        <path class="st0" d="M7.4,15.4v22.4l0.1,2.7H3.8l0.1-2.7V15.4H1.7c-0.7,0-1.3,0-1.7,0v-4l1.7,0h2.2V2.8c0-0.7,0-1.3-0.1-2
		c0.4,0,1.1,0,1.9,0.1C6.5,0.9,7.2,1,7.5,1C7.5,1.4,7.4,2,7.4,2.8v8.7h2l1.6,0v4l-1.6,0H7.4z M21.9,22.4l0,1.2
		c0,4.3-0.1,7.3-0.2,9.2c-0.1,1.8-0.3,3.2-0.6,4.1c-0.3,1.1-1,1.9-2,2.5s-2.4,0.9-4.1,0.9c-0.2-0.7-0.6-2.1-1.2-4.1
		c0.2,0.1,0.5,0.2,0.9,0.3c0.4,0.1,0.7,0.1,1,0.1c0.5,0,1-0.1,1.4-0.3c0.4-0.2,0.8-0.7,1.1-1.4c0-0.1,0.1-0.3,0.1-0.6
		c0.1-0.3,0.1-0.9,0.2-1.9c0.1-0.9,0.1-3.1,0.2-6.4h-2.7c-0.2,1.7-0.4,3.4-0.7,4.9c-0.3,1.5-0.7,2.8-1.1,4c-0.4,1.2-1,2.3-1.6,3.3
		c-0.6,1-1.3,1.9-2.1,2.5L8,37.8c1.4-1.2,2.4-2.7,3.2-4.4c0.7-1.7,1.2-4.2,1.4-7.5H11l-1.6,0v-3.6l1.6,0h1.7l0-2.6l0-1.2
		c1.3,0.1,2.5,0.1,3.5,0.2l0,0.8l0,2.9H21.9z M12.1,14.9c2-0.7,3.6-1.6,4.9-2.8c1.3-1.1,2.3-2.4,3.1-3.9h-5.4c-1,0-1.8,0-2.2,0V4.7
		c0.5,0,1.2,0,2.2,0h6.5c0.1-0.4,0.1-0.8,0.2-1.5c0.1-0.6,0.1-1.1,0.1-1.5l0-1.1L25,0.9l0,0.8c0,0.4,0,0.9-0.1,1.5
		c-0.1,0.6-0.1,1.1-0.2,1.5h9L33.6,6c-0.1,3.1-0.2,5.2-0.3,6.3c-0.2,1-0.4,1.8-0.7,2.4c-0.4,1-1.3,1.7-2.6,2.3s-3.2,0.8-5.6,0.8
		c0-0.2-0.1-0.5-0.2-0.9s-0.3-1-0.6-1.9c-0.3-0.8-0.4-1.4-0.5-1.6c0.8,0.3,1.6,0.4,2.6,0.4c1.9,0,3.1-0.5,3.7-1.4
		c0.4-0.9,0.6-2.3,0.7-4.2h-6.3c-0.8,2.2-2,4.2-3.6,5.8c-1.6,1.7-3.5,2.9-5.8,3.7L12.1,14.9z M35.3,22.4c-0.1,0.5-0.1,0.9-0.1,1.2
		c0,3.9,0,6.8-0.1,8.8c-0.1,2-0.3,3.5-0.6,4.5c-0.3,1.1-0.9,1.9-1.9,2.5s-2.3,0.9-3.9,0.9c-0.1-0.5-0.5-1.9-1.2-4.1
		c0.2,0.1,0.5,0.2,0.9,0.3c0.4,0.1,0.7,0.1,0.9,0.1c0.6,0,1.1-0.1,1.4-0.4s0.6-0.7,0.8-1.3c0-0.1,0.1-0.3,0.1-0.6
		c0.1-0.3,0.1-0.9,0.2-1.9c0.1-1,0.1-3.1,0.2-6.4h-2.6c-0.2,2.7-0.5,5-1.1,7c-0.5,2-1.2,3.6-2,4.8c-0.8,1.2-1.6,2.2-2.3,2.9l-2.6-3
		c1.4-1.3,2.4-2.7,3.1-4.4c0.7-1.7,1.2-4.1,1.4-7.3h-1.2l-1.6,0v-3.6l1.6,0h1.3l0-2.4l0-1.2l3.5,0.2l0,0.8v2.7H35.3z"/>
        <path class="st0" d="M48.3,10.7V38c0,0.6,0,1.4,0.1,2.4h-4c0.1-0.9,0.1-1.8,0.1-2.4c0-2.1,0-5.4,0.1-9.8c0.1-4.5,0.2-8.4,0.3-11.7
		c-0.7,1.2-1.4,2.3-2.2,3.4c-0.8,1.1-1.5,2-2.2,2.8c0-0.1-0.1-0.2-0.1-0.3c-0.1-0.1-0.2-0.5-0.5-1.2c-0.3-0.6-0.7-1.5-1.3-2.6
		c1.4-1.4,2.8-3.4,4.4-6c1.5-2.6,2.7-4.9,3.6-7.1c0.9-2.1,1.4-3.9,1.7-5.3l3.5,1.5l-0.2,0.4C50.6,5.3,49.5,8.1,48.3,10.7z
		 M72.7,12.3h-9.5v5.8H72l1.7,0v3.8l-1.7,0h-8.8v6H72l1.7,0v3.8l-1.7,0h-8.8v6.6l0.1,2.3h-3.8l0.1-2.3V12.3H58c-0.9,2-1.9,3.9-3,5.6
		c-1.1,1.7-2.1,3.2-3.2,4.4c-0.6-1-1.3-2.2-2.3-3.6c0.8-0.9,1.7-2.1,2.5-3.4c0.9-1.3,1.6-2.7,2.3-4.1c0.7-1.4,1.4-3,2-4.7
		c0.7-1.8,1.3-3.8,1.8-6l3.5,1.5c-0.2,0.3-0.3,0.5-0.3,0.5c-0.6,2.2-1.2,4.2-1.9,6.1h13.1c1,0,1.8,0,2.2,0v3.8
		C74.4,12.3,73.7,12.3,72.7,12.3z"/>
        <path class="st0" d="M112.3,5v33l0.1,2.6h-3.5v-2.7H84.2v2.7h-3.5c0.1-1.1,0.1-1.9,0.1-2.6V5c0-0.7,0-1.5-0.1-2.6h31.8L112.3,5z
		 M84.2,34.5h24.7V5.9H84.2V34.5z M102.7,26.3h3c1.1,0,1.9,0,2.4,0V29c-0.5,0-1.3,0-2.4,0h-3l0,1.9c0,0.2,0,0.5-0.1,0.9
		c-0.1,0.4-0.3,0.8-0.6,1.1c-0.3,0.3-0.6,0.6-1.1,0.8c-0.4,0.2-1,0.4-1.7,0.5c-0.7,0.1-1.7,0.2-2.9,0.2l-1.1-2.8
		c-0.6,0.7-1.2,1.4-1.8,2.2c-0.3-0.3-0.8-0.7-1.6-1.3c-0.7-0.6-1.7-1.2-2.8-1.9l1.3-1.4h-3.2c-1.1,0-1.9,0-2.4,0v-2.7
		c0.5,0,1.3,0,2.4,0h12.5v-0.5l-0.1-1c1.4,0,2.5,0,3,0.1c-0.1,0.3-0.1,0.6-0.1,0.9V26.3z M87.1,22.3c1.2,0.1,3.9,0.1,8.1,0v-1.5
		h-7.3c0.1-0.5,0.1-0.9,0.1-1.1V13c0-0.3,0-0.6-0.1-1.1h7.3v-1.5h-7.3c-1,0-1.8,0-2.2,0V7.9c0.5,0,1.2,0,2.2,0h7.3V7.4l-0.1-1.1
		c0.3,0,0.8,0,1.4,0c0.6,0,1,0.1,1.3,0.1s0.4,0,0.4,0c-0.1,0.4-0.1,0.7-0.1,1V8h7.1c1,0,1.8,0,2.2,0v2.6c-0.5,0-1.2,0-2.2,0h-7.1
		v1.5h7.2c0,0.2,0,0.6,0,1.1v6.9c0.4,0.6,0.9,1.3,1.5,2.1c0.5,0.8,1,1.6,1.3,2.3l-2.7,1.6c-0.1-0.4-0.4-0.9-0.7-1.6
		c-7.8,0.3-13.6,0.5-17.5,0.5l-1.4,0.1L85,22.2L87.1,22.3z M95.2,13.9h-4.5v1.5h4.5V13.9z M90.8,17.2v1.6h4.5v-1.6H90.8z M99.8,30.1
		V29h-8.2c1.7,0.9,2.9,1.6,3.6,2.2c1.2,0.1,2,0.1,2.4,0.1c0.8,0,1.4-0.1,1.7-0.3C99.7,30.8,99.8,30.5,99.8,30.1z M102.5,15.4v-1.5
		H98v1.5H102.5z M98,18.8h4.4v-1.6H98V18.8z M98.1,20.8v1.4l5.4-0.2l-0.7-1.2H98.1z"/>
        <path class="st0" d="M152.4,35.8c-0.7-1.1-1.4-2.4-2.2-4.1c-0.8-1.6-1.5-3.5-2.1-5.7c-0.6-2.1-1.1-4.2-1.5-6.3
		c-1,0.8-1.7,1.3-2.2,1.6c1.5,4.4,2.2,8.7,2.2,12.9c0,0.8-0.1,1.6-0.2,2.3c-0.2,0.7-0.5,1.4-0.9,1.9c-0.5,0.5-1.1,0.9-2,1.2
		c-0.9,0.3-2.1,0.4-3.7,0.4c-0.2,0-0.8,0-1.7-0.1l-1.1-3.6c1.4,0.2,2.4,0.3,3,0.3c1.3,0,2.3-0.2,2.8-0.7c0.5-0.5,0.8-1.2,0.8-2.3
		c0-1.9-0.2-3.8-0.6-5.7c-1.5,2.2-3.3,4.2-5.4,6.1c-2.1,1.9-4.2,3.4-6.3,4.4c-0.2-0.5-0.6-1.7-1.4-3.4c1.5-0.6,3.2-1.7,4.9-3.1
		c1.8-1.4,3.3-2.9,4.5-4.3c1.2-1.4,2.1-2.6,2.8-3.7c-0.2-0.8-0.5-1.7-0.9-2.8c-0.6,0.7-1.3,1.5-2.2,2.4c-0.9,0.9-2,1.8-3.2,2.8
		c-1.2,0.9-2.4,1.7-3.5,2.3c-0.1-0.4-0.5-1.4-1.2-3v0.5c0,1.1-0.1,2-0.4,2.9c-0.2,0.9-0.6,1.6-1.1,2.3c-0.5,0.6-1.1,1.1-1.9,1.4
		c-0.8,0.3-1.6,0.5-2.6,0.5c-0.1-0.2-0.1-0.4-0.2-0.6c-0.1-0.2-0.6-1.3-1.5-3.2c0.5,0.2,1.2,0.3,1.9,0.3c0.5,0,1-0.2,1.4-0.6
		c0.4-0.4,0.7-0.9,0.9-1.5c0.2-0.6,0.3-1.3,0.3-1.9c0-1.4-0.3-2.9-1-4.4c-0.7-1.5-1.6-2.8-2.8-4c0.4-1.2,1-3,1.6-5.3
		c0.6-2.3,1.2-4.4,1.6-6.3h-4.6V38l0.1,2.5h-3.2c0.1-1,0.1-1.8,0.1-2.5V3.6l-0.1-1.1h8.6l0.4-0.5c0.3,0.3,0.7,0.6,1.3,1.1
		c0.5,0.5,1,0.9,1.4,1.4l-0.5,0.3c-0.3,1.4-0.8,3.2-1.4,5.2c-0.6,2.1-1,3.6-1.4,4.7c-0.3,1-0.6,1.8-0.7,2.2c1,1.3,1.8,2.6,2.5,4.1
		c0.7,1.5,1,3,1.1,4.4c0.8-0.4,1.6-0.8,2.4-1.4c0.8-0.5,1.6-1.1,2.3-1.7c0.7-0.6,1.4-1.2,2.1-1.9c0.7-0.7,1.4-1.5,2-2.5l-1.1-2.2
		c-1,0.9-2.1,1.7-3.4,2.6c-1.2,0.8-2.4,1.5-3.5,2c-0.1-0.4-0.4-0.9-0.7-1.6c-0.4-0.7-0.7-1.3-1-1.7c1.2-0.4,2.4-1.1,3.7-1.8
		c1.3-0.8,2.4-1.6,3.3-2.4c0.9-0.8,1.7-1.5,2.2-2.1h-5.6c-1.1,0-1.9,0-2.4,0.1V7.3c0.5,0.1,1.3,0.1,2.4,0.1h4
		c-0.4-0.8-0.8-1.7-1.3-2.7c-0.5-1-1-1.8-1.5-2.4l3-1.2c0.3,0.5,0.7,1.2,1.2,2.1c0.5,0.9,1,2,1.5,3.1l-2.2,1.1h5.6
		c0.6-0.9,1.1-2,1.8-3.3c0.6-1.3,1.1-2.4,1.2-3.1l3.2,1.5L150,3c-0.7,1.4-1.4,2.9-2.2,4.5h3.2c1.1,0,1.9,0,2.4-0.1v3.6
		c-0.5-0.1-1.3-0.1-2.4-0.1h-7.8c-0.2,0.4-0.6,0.8-1,1.4c-0.5,0.6-0.8,1-1.2,1.3c0.8,1.4,1.6,2.9,2.3,4.6c1.4-1,2.7-2.1,4-3.3
		c1.3-1.2,2.3-2.4,3-3.3l2.3,3l-0.4,0.3c-1.1,1-2.1,1.9-3,2.7c0.3,2,0.7,4,1.3,6c0.6,2,1.2,3.7,1.9,5.1c0.7,1.4,1.3,2.6,1.9,3.4
		L152.4,35.8z"/>
        <path class="st0" d="M168.9,38.1l10.9-33.3h3.5l-10.9,33.3H168.9z"/>
        <path class="st0" d="M199.4,26.9l2.1,0.6c0.1,5.2-0.3,9.5-1,13.1l-2.2-1.5c0.4-1.6,0.7-3.5,0.9-5.8C199.3,31,199.4,28.8,199.4,26.9
		z M212.6,21.6c-0.1,0.4-0.1,0.8-0.1,1.1c0,4.1,0,7.3-0.1,9.4c-0.1,2.1-0.3,3.8-0.6,4.8c-0.2,0.8-0.6,1.5-1.1,2
		c-0.5,0.5-1.2,0.9-2,1.1c-0.8,0.2-1.5,0.3-2.3,0.3c-0.1-0.4-0.5-1.7-1.1-3.8c0.6,0.3,1.1,0.4,1.7,0.4c1.1,0,1.8-0.6,2.1-1.8
		c0-0.1,0.1-0.3,0.1-0.6c0.1-0.3,0.1-0.9,0.2-1.9c0.1-1,0.1-3.6,0.2-7.9h-9.9c0.1-0.7,0.1-1.3,0.1-1.8V3.9c0-0.5,0-1.1-0.1-1.8h10.9
		c0.7,0,1.2,0,1.6,0v3.1l-1.6,0h-2.2v3.5h1.4l1.5,0v3l-1.5,0h-1.4V15h1.4l1.5,0v2.9l-1.5,0h-1.4v3.8H212.6z M202.1,27.5l1.7-0.4
		c0.4,3,0.6,6.3,0.7,9.9l-1.9,0.4c0-1.4,0-3.1-0.1-5C202.4,30.5,202.3,28.8,202.1,27.5z M205.8,5.2h-3.1v3.5h3.1V5.2z M205.8,15
		v-3.4h-3.1V15H205.8z M202.7,21.6h3.1v-3.8h-3.1V21.6z M204.5,27.1l1.6-0.4c0.2,0.8,0.4,1.9,0.6,3.3c0.2,1.4,0.4,2.7,0.5,4.1
		l-1.7,0.4c0-1-0.1-2.2-0.3-3.6C205,29.5,204.8,28.2,204.5,27.1z M209.4,31.9l-1.3,0.4c-0.1-0.8-0.2-1.7-0.4-2.8
		c-0.2-1.1-0.4-2-0.6-2.8l1.3-0.3C208.7,28.1,209.1,29.9,209.4,31.9z M232,35.4c1,0,1.8,0,2.2,0v3.6c-0.4,0-1.2,0-2.2,0h-18
		c0.1-1,0.1-1.8,0.1-2.5V4.9l-0.1-2.6h17.8c1,0,1.7,0,2.2,0V6c-0.4,0-1.2,0-2.2,0h-14.5v29.4H232z M225.3,20.7c0,0.3,0,0.7,0,1.2
		v9.3l0,1.2h-6.5c0.1-0.5,0.1-0.9,0.1-1.2v-9.3c0-0.4,0-0.8-0.1-1.2H225.3z M220.3,17.7c0.1-0.5,0.1-0.8,0.1-1.1V10
		c0-0.3,0-0.7-0.1-1.1h10.9l0,1.1v6.7l0,1.1H220.3z M221,29.7h2v-6.3h-2V29.7z M223.2,15h5.3v-3.5h-5.3V15z M233.2,20.7
		c0,0.3,0,0.7,0,1.2v9.3l0,1.2h-6.5c0.1-0.5,0.1-0.9,0.1-1.2v-9.3c0-0.4,0-0.8-0.1-1.2H233.2z M228.9,29.7h2v-6.3h-2V29.7z"/>
        <path class="st0" d="M244,18.9c0,4.7-0.4,8.8-1.1,12.5c-0.7,3.6-1.7,6.4-3,8.3c-0.3-0.6-1.1-1.8-2.3-3.5c0.6-1,1.1-2.4,1.6-4
		c0.5-1.7,0.9-3.7,1.1-6c0.2-2.4,0.4-4.8,0.4-7.4V5.3l-0.1-1.1h14.5c-0.4-0.9-0.9-1.8-1.4-2.6l2.8-1.3c0.7,1.1,1.4,2.4,2,4h11
		c1.4,0,2.4,0,3-0.1v3.4c-0.6-0.1-1.6-0.1-3-0.1H266l0,0.5v2.1h4c0.7,0,1.3,0,1.7,0v2.7c-0.4,0-1,0-1.7,0h-4V18c0,0.6,0,1,0.1,1.2
		h-2.9c0.1-0.2,0.1-0.6,0.1-1.2v-5.4h-2.6c-0.7,0-1.3,0-1.7,0V9.9c0.4,0,1,0,1.7,0h2.6V7.8l0-0.5h-10l0,0.5v2h2.6l1.7,0v2.7l-1.7,0
		h-2.7l0,5.5c0,0.6,0,1,0,1.2h-2.9c0-0.2,0-0.6,0-1.2l0-5.5h-3.4l-1.7,0V9.8l1.7,0h3.3V7.8l0-0.5H244V18.9z M271.1,33.9
		c1.2,0.6,2.2,1.1,3.1,1.5c-0.1,1.1-0.4,2-0.9,2.6s-1.3,1.2-2.4,1.6c-1.1,0.4-2.9,0.6-5.3,0.6c-2.1,0-3.7,0-4.7-0.1
		c-1-0.1-1.7-0.3-2.1-0.6c-0.7-0.5-1-1.4-1-2.8l0-5.9h-3.3c-0.1,0.9-0.4,1.9-0.8,2.8c-0.4,1-1,1.8-1.6,2.6c-0.7,0.8-1.4,1.4-2.2,1.9
		c-0.8,0.5-1.6,0.9-2.6,1.3c-0.9,0.4-1.9,0.6-3,0.8c-0.2-0.3-0.5-0.8-1-1.5c-0.5-0.7-0.9-1.3-1.2-1.7c2.6-0.3,4.7-0.9,6.1-1.9
		c1.5-1,2.4-2.4,2.9-4.3h-3.9c0.1-0.5,0.1-0.9,0.1-1.2v-8c0-0.3,0-0.7-0.1-1.2h9.1c0.2-0.3,0.3-0.7,0.5-1c-0.8-0.1-1.4-0.3-1.9-0.8
		c-0.3-0.3-0.5-0.7-0.7-1.2c-0.1-0.5-0.2-1.1-0.2-1.6v-1.7l-0.1-0.8c0.2,0,0.4,0,0.6,0c0.3,0,0.9,0.1,1.9,0.3
		c-0.1,0.2-0.1,0.4,0,0.6c0,0.4,0,1,0,1.9c0,0.5,0.2,0.8,0.7,0.8c0.4,0,0.8,0,1.3,0c0,0.1-0.1,0.2-0.1,0.4c0,0.2-0.1,0.5-0.1,0.9
		c0,0.4-0.1,0.6-0.1,0.8l2,0.3c-0.1,0.1-0.2,0.3-0.3,0.4l-0.4,0.7h10.3l0,1.2v8l0,1.2h-4c0.3,0.1,0.9,0.2,1.7,0.5l-0.2,0.4
		c-0.3,0.6-1,1.3-2,2.1l3.4-0.5l-0.7-1.4l1.7-0.7C270.2,31.9,270.6,32.8,271.1,33.9z M248.1,19.6l-2.1-0.9c0.4-0.6,0.7-1.3,0.9-2.2
		c0.2-0.8,0.3-1.8,0.3-3l2.2,0.2l-0.1,0.6c0,1-0.1,2-0.3,3C248.7,18.3,248.4,19.1,248.1,19.6z M257,22.7h-6.4v1.8h6.4V22.7z
		 M250.7,28.5h6.4v-1.9h-6.4V28.5z M259,18.5c0.3-0.6,0.6-1.3,0.7-2c0.2-0.8,0.2-1.7,0.2-2.8l2.3,0.3c-0.1,0.1-0.1,0.3-0.1,0.6
		c-0.1,1.9-0.4,3.4-0.9,4.7L259,18.5z M266.5,22.7h-6.4v1.8h6.4V22.7z M260.1,28.5h6.4v-1.9h-6.4V28.5z M270,36.5
		c0.4-0.3,0.7-0.7,0.9-1.3l-1.3,0.5l-0.2-0.8c-0.2,0-1.1,0.2-2.7,0.5c-1.6,0.3-2.7,0.5-3.4,0.7l-1.1,0.2l-0.5-2.2
		c0.6-0.3,1.3-0.8,2.1-1.5s1.2-1.3,1.5-1.8h-4v5.2c0,0.6,0.2,0.9,0.6,1c0.4,0.1,1.8,0.2,4.2,0.2c1.1,0,2,0,2.6-0.1
		C269.1,37,269.6,36.8,270,36.5z M267.8,18.8c-0.3-0.3-0.5-0.7-0.7-1.2c-0.2-0.5-0.2-1.1-0.2-1.6v-2.1l-0.1-0.8
		c0.5,0,1.3,0.1,2.5,0.3c-0.1,0.3-0.1,0.5,0,0.6c0,0.4,0,1.1,0,2.3c0,0.2,0.1,0.4,0.2,0.6c0.1,0.1,0.4,0.2,0.6,0.3
		c0.2,0,0.5,0,0.8,0c0.3,0,0.5,0,0.7-0.1c-0.1,0.3-0.1,1.1-0.2,2.4c-0.7,0.1-1.3,0-1.9,0C268.8,19.4,268.3,19.2,267.8,18.8z"/>
        <path class="st0" d="M308.9,29c1.6,0,2.7,0,3.3-0.1v3.5c-0.6-0.1-1.7-0.1-3.3-0.1h-4.5v1.1l0,2.8c0,0.7-0.1,1.4-0.4,1.9
		c-0.3,0.5-0.8,0.9-1.4,1.3c-0.7,0.4-1.5,0.6-2.7,0.8c-1.1,0.2-2.5,0.3-4.2,0.3c-0.2-0.5-0.8-1.8-1.8-3.9c0.1,0,0.5,0.1,1.3,0.2
		c0.8,0.1,1.6,0.2,2.6,0.2c1.1,0,1.9-0.1,2.3-0.4c0.4-0.2,0.7-0.6,0.7-1.1v-1.9v-1.1h-14c0.9,0.3,1.9,0.8,3.1,1.3
		c1.2,0.5,2.2,1.1,3.1,1.7l-1.8,2.8c-0.8-0.6-1.9-1.3-3.2-2.1c-1.3-0.7-2.5-1.3-3.5-1.7l1.4-2.1h-4.6c-1.5,0-2.7,0-3.3,0.1v-3.5
		c0.7,0.1,1.8,0.1,3.3,0.1h19.7v-1l-0.1-1.1c0.4,0,1.1,0,2,0.1c0.9,0,1.5,0.1,1.9,0.1c-0.1,0.4-0.1,0.7-0.1,1v1H308.9z M293.3,6.8
		h-12.1c-1.5,0-2.6,0-3.2,0.1V3.7c0.6,0.1,1.7,0.1,3.2,0.1h12.1V2.2c0-0.5,0-1-0.1-1.5c0.9,0,2.2,0,3.7,0.1
		c-0.1,0.6-0.1,1.1-0.1,1.5v1.5h11.6c1.5,0,2.6,0,3.2-0.1v3.3c-0.6-0.1-1.7-0.1-3.2-0.1h-11.6V9h10.8l0,1.3v9.8l0,1.3h0
		c1.5,1.5,2.9,3.2,4.1,4.9l-2.8,2.4c-0.2-0.4-0.5-0.9-0.9-1.5s-0.6-1-0.9-1.3c-2.9,0.1-7.5,0.3-13.6,0.5c-6.1,0.2-10.4,0.3-13,0.3
		l-1.9,0.1l-0.3-3.4l2.4,0.2c2.5,0.1,6.7,0.1,12.5,0v-2.3h-10.8c0.1-0.5,0.1-0.9,0.1-1.3v-9.8c0-0.4,0-0.9-0.1-1.3h10.8V6.8z
		 M293.3,11.7h-7.4v2.3h7.4V11.7z M285.9,18.8h7.4v-2.4h-7.4V18.8z M304.3,11.7h-7.4v2.3h7.4V11.7z M304.3,18.8v-2.4h-7.4v2.4H304.3
		z M296.9,23.7c1.5,0,4.3-0.1,8.2-0.3c-0.6-0.7-1.1-1.3-1.6-1.8l0.2-0.1h-6.8V23.7z"/>
        <path class="st0" d="M342,23.1c0.6,1.1,1.3,2.4,2.2,3.8c0.9,1.4,2.1,2.7,3.5,4c1.4,1.3,2.9,2.4,4.5,3.2c-0.1,0.2-0.4,0.6-0.7,1.1
		c-0.4,0.6-0.8,1.4-1.4,2.4c-1.1-0.7-2.4-1.6-3.7-2.9c-1.4-1.2-2.7-2.8-3.9-4.7c-1.3-1.9-2.3-3.8-3.1-5.8l-1.1,0.5
		c0.4,1.4,0.8,3,1,4.7c0.3,1.7,0.4,3.2,0.4,4.6c0,1.3-0.2,2.4-0.7,3.2c-0.5,0.8-1.3,1.5-2.3,1.9c-1.1,0.4-2.6,0.7-4.7,0.7
		c-0.6,0-1.2,0-1.9-0.1c-0.1-0.3-0.2-0.9-0.5-1.7c-0.3-0.8-0.5-1.5-0.7-2.1c0.4,0.1,1,0.1,1.7,0.2c0.7,0.1,1.2,0.1,1.6,0.1
		c1.4,0,2.5-0.2,3-0.6s0.9-1,0.9-1.9c0-0.7,0-1.5-0.1-2.3c-0.1-0.8-0.2-1.5-0.2-2c-1.5,1.3-3.2,2.6-5.3,3.8c-2,1.2-4.1,2.3-6.2,3.2
		c-2.1,0.9-4.1,1.6-5.8,2.1c-0.3-0.5-0.9-1.6-1.9-3.4c3.6-0.9,7-2.2,10.2-3.8s6-3.4,8.3-5.3c-0.3-1.1-0.6-1.8-0.8-2.3
		c-2.3,1.5-4.7,2.9-7.5,4.1c-2.7,1.2-5.4,2.1-8.1,2.7c-0.1-0.4-0.4-0.9-0.7-1.6c-0.4-0.7-0.7-1.3-0.9-1.7c6.4-1.3,11.7-3.4,15.8-6.4
		c-0.2-0.3-0.4-0.6-0.7-1c-0.3-0.4-0.5-0.7-0.7-0.8c-2.9,1.6-6.9,3-12,4.1c-0.4-0.8-1-1.9-1.9-3.2c3-0.4,5.9-1.1,8.8-2
		c2.8-0.9,5.1-1.9,6.9-2.9h-7.9c-1.2,0-2,0-2.6,0v-3.8c0.5,0.1,1.4,0.1,2.6,0.1h17.9c1.2,0,2.1,0,2.6-0.1V15c-0.5,0-1.4,0-2.6,0
		h-5.1c-0.5,0.4-1.1,0.8-1.9,1.3c-0.8,0.5-1.4,0.9-1.8,1.2c0.4,0.4,0.9,1.1,1.4,1.9c0.5,0.8,1,1.7,1.4,2.6c0.8-0.4,1.8-0.9,3-1.5
		s2.3-1.3,3.5-2.1c1.1-0.8,1.9-1.5,2.3-2l2.7,2.8l-0.9,0.6C345.6,21.1,343.7,22.3,342,23.1z M317.9,14c0.1-0.5,0.1-0.9,0.1-1.2v-7
		c0-0.4,0-0.8-0.1-1.2h14.6c-0.6-1.4-1.2-2.6-1.9-3.8l3.8-0.5c0.7,1.2,1.4,2.6,2.1,4.4h14.2c0,0.3,0,0.7,0,1.2v7l0,1.2H347v-6h-25.5
		v6H317.9z"/>
        <path class="st0" d="M365.7,36c0.6-0.5,1.3-1.3,2-2.2c0.7-1,1.4-1.9,1.9-2.8c0.5-0.9,0.9-1.7,1.1-2.4l3.2,1.3l-0.3,0.5
		c-0.3,0.8-0.7,1.7-1.2,2.7c-0.5,1-1.1,2.1-1.9,3.1c-0.7,1-1.4,1.9-2.1,2.7c-0.2-0.3-0.6-0.7-1.2-1.3
		C366.7,36.9,366.2,36.4,365.7,36z M374.3,8.8h-3.9c-1.6,0-2.7,0-3.3,0.1V5.3c0.6,0.1,1.7,0.1,3.3,0.1h7.2c-0.6-1.2-1.4-2.6-2.6-4.2
		l3.1-1.1c0.7,0.9,1.5,2.5,2.7,4.5l-1.6,0.8h7.2c0.6-0.8,1.2-1.7,1.9-2.8c0.7-1.1,1.1-2,1.4-2.7l3.3,1.5l-0.4,0.5
		c-0.9,1.5-1.7,2.6-2.2,3.5h7.1c1.6,0,2.7,0,3.3-0.1v3.6c-0.6-0.1-1.7-0.1-3.3-0.1h-6.9l2.4,1.6l-0.4,0.4c-0.9,1.4-2,2.8-3.2,4.1
		c0.3,0,0.6,0,1.2,0s1.1-0.1,1.9-0.1s1.2-0.1,1.3-0.1c0.9-1.2,1.7-2.5,2.3-3.7l2.8,2.1l-0.5,0.4c-1.2,1.6-2.6,3.3-4,4.9
		c-1.4,1.6-2.8,3-4.1,4.2c2.5-0.1,4.7-0.3,6.4-0.5c-0.2-0.5-0.4-1.1-0.6-1.7c-0.2-0.6-0.5-1.2-0.8-1.8l2.8-1c0.2,0.4,0.5,1,0.8,1.7
		c0.3,0.8,0.7,1.8,1.1,3c0.4,1.2,0.8,2.3,1.1,3.4c-0.2,0.1-0.7,0.3-1.5,0.6c-0.8,0.3-1.3,0.6-1.6,0.6l-0.4-1.9l-10.6,1
		c-0.7,0.1-1.2,0.1-1.5,0.3l-0.8-3.7c0.7-0.2,1.5-0.6,2.4-1.2c0.9-0.6,1.6-1.2,2.4-1.9c0.7-0.7,1.3-1.3,1.8-1.9l-4.2,0.4l-1.5,0.2
		l-0.7-3.3c0.3-0.1,0.8-0.5,1.4-1.1c0.6-0.6,1.2-1.4,1.9-2.4c0.7-1,1.3-1.9,1.7-2.7h-14.5l2,1.5l-0.5,0.4c-0.8,1.2-2,2.6-3.5,4.2
		c1.5-0.1,3.1-0.1,4.6-0.3c0.9-1.2,1.7-2.4,2.5-3.7l2.7,2.2l-0.6,0.4c-0.5,0.6-1.3,1.7-2.4,3.1s-2.2,2.6-3.2,3.7
		c-1.1,1-1.9,1.8-2.6,2.4c1.5-0.1,3.3-0.2,5.3-0.4c-0.2-0.6-0.6-1.5-1-2.7l2.8-1.1c0.4,0.9,0.9,2.1,1.4,3.4c0.5,1.3,0.9,2.6,1.2,3.8
		l-3.1,1.2l-0.4-1.7c-2.2,0.3-5.7,0.6-10.6,1.1c-0.7,0.1-1.2,0.1-1.5,0.2l-0.7-3.6c2.5-0.6,5.1-2.4,7.8-5.3c-1.3,0.1-3,0.2-5,0.4
		l-1.5,0.2l-0.7-3.3c0.6-0.2,1.3-0.6,2-1.1c0.7-0.6,1.4-1.3,2.1-2.2S373.8,9.8,374.3,8.8z M388.6,35.8c0.4-0.3,0.6-0.8,0.8-1.4
		c0.2-0.6,0.3-1.5,0.3-2.6c0.2,0.1,1.4,0.8,3.5,2c-0.1,1.6-0.4,2.8-0.9,3.7c-0.5,0.9-1.4,1.6-2.6,2s-3.1,0.7-5.7,0.7
		c-2.2,0-3.8-0.1-4.9-0.2c-1.1-0.1-1.9-0.3-2.3-0.7c-0.4-0.4-0.8-0.8-0.9-1.5c-0.2-0.6-0.3-1.5-0.3-2.6v-6.4l0-0.8l3.8,0.3
		c-0.1,0.2-0.1,0.4-0.1,0.6v6.4c0,0.6,0.2,0.9,0.7,1.1c0.7,0.1,2.1,0.2,4.3,0.2c1.1,0,2-0.1,2.7-0.2
		C387.6,36.3,388.1,36.1,388.6,35.8z M380.8,28.1l2.4-1.9c0.7,0.5,1.6,1.1,2.6,2s1.8,1.7,2.5,2.4l-2.6,2.4c-0.5-0.7-1.3-1.6-2.3-2.6
		C382.4,29.5,381.6,28.7,380.8,28.1z M395.4,27.6c0.8,0.9,1.8,2.1,2.9,3.6c1.1,1.5,2.1,3.1,3,4.7l-3,2.2c-0.4-1-1.2-2.4-2.2-4.1
		c-1-1.7-2.1-3.3-3.3-4.7L395.4,27.6z"/>
        <path class="st0" d="M437.5,21.3h-4.9c-1.1,4.2-2.5,7.5-4.3,10c4.6,2.1,8.2,4,10.8,5.5c-0.6,1-1.2,2.3-2,3.8
		c-3.1-2.1-6.9-4.3-11.5-6.4c-1.8,1.6-4,2.9-6.7,3.9c-2.7,1-6.1,1.8-10.2,2.4c-0.1-0.4-0.3-1.1-0.6-1.9c-0.3-0.8-0.5-1.5-0.8-2.1
		c6.1-0.6,10.9-2,14.2-4.1c-1.6-0.7-3.3-1.4-5.1-2c-1.8-0.7-3.4-1.2-4.8-1.7c1.3-1.6,2.8-4,4.5-7.4H410c-1.7,0-2.8,0-3.4,0.1v-3.9
		c0.6,0,1.7,0,3.4,0h8c0.8-1.7,1.4-3.1,1.8-4.3c0.4-1.1,0.7-2,0.9-2.6l3.7,0.8l-0.3,0.8c-0.5,1.6-1.2,3.3-2.2,5.3h15.6
		c1.7,0,2.8,0,3.4,0v3.9C440.2,21.3,439.1,21.3,437.5,21.3z M407.4,14.7c0.1-0.5,0.1-0.9,0.1-1.2V6.4c0-0.4,0-0.8-0.1-1.2H422
		c-0.3-0.7-0.7-1.4-1-2c-0.3-0.6-0.6-1.2-0.8-1.5l3.2-1.5c0.4,0.6,0.8,1.4,1.3,2.4c0.5,0.9,0.9,1.8,1.3,2.6h13.2c0,0.2,0,0.6,0,1.2
		v7.1l0,1.2h-3.6v-6h-24.5v6H407.4z M424.6,29.7c1.8-2.1,3.2-4.9,4.1-8.4h-8.6c-1.3,2.5-2.3,4.3-3,5.5
		C419.7,27.8,422.2,28.7,424.6,29.7z"/>
        <path class="st0" d="M476.6,36c1.6,0,2.8,0,3.4-0.1v3.8c-0.6-0.1-1.8-0.1-3.4-0.1H449c-1.7,0-2.8,0-3.4,0.1v-3.8
		c0.6,0.1,1.8,0.1,3.4,0.1h11.7v-4.1H452c-1.4,0-2.3,0-2.9,0.1v-3.8c0.6,0.1,1.5,0.1,2.9,0.1h8.7v-3.4h-7.9c0.1-0.5,0.1-0.9,0.1-1.3
		v-8.3c0-0.4,0-0.8-0.1-1.3h19.6c0,0.3,0,0.7,0,1.3v8.3l0,1.3h-8v3.4h9.5c1.4,0,2.4,0,2.9-0.1V32c-0.6-0.1-1.5-0.1-2.9-0.1h-9.5V36
		H476.6z M446.3,17.9c0.1-0.5,0.1-0.9,0.1-1.3v-8c0-0.4,0-0.8-0.1-1.3h7.5c-0.8-1.5-1.8-3.1-2.9-4.7l3.2-1.2c0.9,1.4,2,3.3,3.3,5.9
		h3.3V1.9l-0.1-1.1c1.7,0,3,0,3.7,0.1l-0.1,1v5.5h3.9c0.6-1,1.2-2.1,1.7-3.3c0.6-1.2,0.9-2.2,1.1-2.9l3.3,1.3L474.1,3
		c-0.5,1.1-1.2,2.5-2.2,4.4h7c0,0.3,0,0.7,0,1.3v8l0,1.3h-3.6v-7.1H450v7.1H446.3z M456.3,17.3v4.3H469v-4.3H456.3z"/>
    </g>
</svg>
